<svg width="24" height="25" viewBox="0 0 24 25" fill="none" xmlns="http://www.w3.org/2000/svg">
<g id="lucide/sparkles">
<path id="Vector" d="M20.0004 3.50001V7.50001M22.0004 5.50001H18.0004M4.00043 17.5V19.5M5.00043 18.5H3.00043M9.93743 16C9.84815 15.6539 9.66777 15.3381 9.41505 15.0854C9.16232 14.8327 8.8465 14.6523 8.50043 14.563L2.36543 12.981C2.26076 12.9513 2.16864 12.8883 2.10304 12.8014C2.03744 12.7146 2.00195 12.6088 2.00195 12.5C2.00195 12.3912 2.03744 12.2854 2.10304 12.1986C2.16864 12.1118 2.26076 12.0487 2.36543 12.019L8.50043 10.436C8.84638 10.3468 9.16212 10.1666 9.41483 9.91404C9.66754 9.66151 9.84799 9.34589 9.93743 9.00001L11.5194 2.86501C11.5488 2.75992 11.6118 2.66735 11.6987 2.6014C11.7857 2.53545 11.8918 2.49976 12.0009 2.49976C12.11 2.49976 12.2162 2.53545 12.3031 2.6014C12.39 2.66735 12.453 2.75992 12.4824 2.86501L14.0634 9.00001C14.1527 9.34608 14.3331 9.6619 14.5858 9.91462C14.8385 10.1673 15.1544 10.3477 15.5004 10.437L21.6354 12.018C21.7409 12.0471 21.834 12.11 21.9003 12.1971C21.9666 12.2841 22.0025 12.3906 22.0025 12.5C22.0025 12.6094 21.9666 12.7159 21.9003 12.8029C21.834 12.89 21.7409 12.9529 21.6354 12.982L15.5004 14.563C15.1544 14.6523 14.8385 14.8327 14.5858 15.0854C14.3331 15.3381 14.1527 15.6539 14.0634 16L12.4814 22.135C12.452 22.2401 12.389 22.3327 12.3021 22.3986C12.2152 22.4646 12.109 22.5003 11.9999 22.5003C11.8908 22.5003 11.7847 22.4646 11.6977 22.3986C11.6108 22.3327 11.5478 22.2401 11.5184 22.135L9.93743 16Z" stroke="white" stroke-width="2" stroke-linecap="round" stroke-linejoin="round"/>
</g>
</svg>
