<svg width="24" height="25" viewBox="0 0 24 25" fill="none" xmlns="http://www.w3.org/2000/svg">
<g id="lucide/layers-2">
<path id="Vector" d="M16.0201 12.4999L21.5001 15.6299C21.654 15.7171 21.782 15.8436 21.8711 15.9964C21.9601 16.1493 22.0071 16.323 22.0071 16.4999C22.0071 16.6768 21.9601 16.8505 21.8711 17.0034C21.782 17.1562 21.654 17.2827 21.5001 17.3699L13.0001 22.2399C12.6961 22.4154 12.3512 22.5078 12.0001 22.5078C11.649 22.5078 11.3042 22.4154 11.0001 22.2399L2.50011 17.3699C2.34621 17.2827 2.21821 17.1562 2.12915 17.0034C2.04009 16.8505 1.99316 16.6768 1.99316 16.4999C1.99316 16.323 2.04009 16.1493 2.12915 15.9964C2.21821 15.8436 2.34621 15.7171 2.50011 15.6299L7.98011 12.4999M13.0001 14.2399C12.6961 14.4154 12.3512 14.5078 12.0001 14.5078C11.649 14.5078 11.3042 14.4154 11.0001 14.2399L2.50011 9.36989C2.34621 9.28267 2.21821 9.15619 2.12915 9.00335C2.04009 8.85051 1.99316 8.67679 1.99316 8.49989C1.99316 8.323 2.04009 8.14927 2.12915 7.99643C2.21821 7.84359 2.34621 7.71711 2.50011 7.62989L11.0001 2.75989C11.3042 2.58436 11.649 2.49194 12.0001 2.49194C12.3512 2.49194 12.6961 2.58436 13.0001 2.75989L21.5001 7.62989C21.654 7.71711 21.782 7.84359 21.8711 7.99643C21.9601 8.14927 22.0071 8.323 22.0071 8.49989C22.0071 8.67679 21.9601 8.85051 21.8711 9.00335C21.782 9.15619 21.654 9.28267 21.5001 9.36989L13.0001 14.2399Z" stroke="white" stroke-width="2" stroke-linecap="round" stroke-linejoin="round"/>
</g>
</svg>
