<svg width="24" height="25" viewBox="0 0 24 25" fill="none" xmlns="http://www.w3.org/2000/svg">
<g id="lucide/binary">
<path id="Vector" d="M6 20.5H10M14 10.5H18M6 14.5H8V20.5M14 4.5H16V10.5M16 14.5C17.1046 14.5 18 15.3954 18 16.5V18.5C18 19.6046 17.1046 20.5 16 20.5C14.8954 20.5 14 19.6046 14 18.5V16.5C14 15.3954 14.8954 14.5 16 14.5ZM8 4.5C9.10457 4.5 10 5.39543 10 6.5V8.5C10 9.60457 9.10457 10.5 8 10.5C6.89543 10.5 6 9.60457 6 8.5V6.5C6 5.39543 6.89543 4.5 8 4.5Z" stroke="white" stroke-width="2" stroke-linecap="round" stroke-linejoin="round"/>
</g>
</svg>
