<svg width="24" height="25" viewBox="0 0 24 25" fill="none" xmlns="http://www.w3.org/2000/svg">
<g id="lucide/boxes">
<path id="Vector (Stroke)" fill-rule="evenodd" clip-rule="evenodd" d="M10.455 2.2629C10.9216 1.98257 11.4557 1.83447 12 1.83447C12.5441 1.83447 13.078 1.98246 13.5445 2.2626L16.5445 4.0626C16.9874 4.32867 17.3545 4.7049 17.6094 5.15428C17.8643 5.60366 17.9989 6.11126 18 6.6279L18 6.63009L18 10.4341L21.5448 12.5628C21.9877 12.8289 22.3545 13.2049 22.6094 13.6543C22.8643 14.1037 22.9989 14.6113 23 15.1279L23 15.1301L23 18.3723C22.9989 18.8889 22.8643 19.3965 22.6094 19.8459C22.3545 20.2953 21.9879 20.6712 21.545 20.9373L18.545 22.7373C18.1115 22.9977 17.6197 23.144 17.1156 23.1635C17.0777 23.1678 17.0391 23.1701 17 23.1701C16.9609 23.1701 16.9223 23.1678 16.8844 23.1635C16.3803 23.144 15.8885 22.9977 15.455 22.7373L12 20.666L8.545 22.7373C8.11149 22.9977 7.61973 23.144 7.11561 23.1635C7.07768 23.1678 7.0391 23.1701 7 23.1701C6.9609 23.1701 6.92232 23.1678 6.88439 23.1635C6.38027 23.144 5.88851 22.9977 5.455 22.7373L2.4555 20.9376C2.01264 20.6715 1.64549 20.2953 1.39058 19.8459C1.13567 19.3965 1.00113 18.8889 1 18.3723L1 18.3701V15.1301L1 15.1279C1.00113 14.6113 1.13567 14.1037 1.39058 13.6543C1.64549 13.2049 2.01214 12.829 2.455 12.5629L6 10.4341V6.63009L6 6.6279C6.00113 6.11126 6.13567 5.60366 6.39058 5.15428C6.64549 4.7049 7.01214 4.32897 7.455 4.0629L10.455 2.2629ZM7.00021 12.1664L3.94889 13.9987L7.00054 15.8336L10.0563 14.0001L7.00021 12.1664ZM11 15.7663L8 17.5663V20.7321L11 18.9337V15.7663ZM13 18.9337L16 20.7321V17.5663L13 15.7663V18.9337ZM13.9437 14.0001L16.9995 15.8336L20.0511 13.9987L16.9998 12.1664L13.9437 14.0001ZM16 10.4339V7.26187L13 9.06567V12.2339L16 10.4339ZM11 12.2339V9.06567L8 7.26187V10.4339L11 12.2339ZM8.94908 5.49884L11.4845 3.97759C11.64 3.88414 11.8186 3.83447 12 3.83447C12.1814 3.83447 12.3595 3.88384 12.515 3.97728L15.0509 5.49884L12 7.33325L8.94908 5.49884ZM21 15.7619L21 18.3679C21 18.3677 21 18.3681 21 18.3679C20.9995 18.5399 20.9547 18.7095 20.8698 18.8591C20.7849 19.0087 20.6629 19.1339 20.5155 19.2226L18 20.7319V17.5657L21 15.7619ZM6 20.7319V17.5657L3 15.7619V18.3688C3.00053 18.5407 3.04537 18.7096 3.13019 18.8591C3.21513 19.0088 3.33728 19.1341 3.48482 19.2228C3.48476 19.2228 3.48488 19.2228 3.48482 19.2228L6 20.7319Z" fill="white"/>
</g>
</svg>
