<svg width="24" height="25" viewBox="0 0 24 25" fill="none" xmlns="http://www.w3.org/2000/svg">
<g id="lucide/bring-to-front">
<path id="Vector (Stroke)" fill-rule="evenodd" clip-rule="evenodd" d="M4 3.5C3.73478 3.5 3.48043 3.60536 3.29289 3.79289C3.10536 3.98043 3 4.23478 3 4.5V8.5C3 8.76522 3.10536 9.01957 3.29289 9.20711C3.48043 9.39464 3.73478 9.5 4 9.5C4.55228 9.5 5 9.94772 5 10.5C5 11.0523 4.55228 11.5 4 11.5C3.20435 11.5 2.44129 11.1839 1.87868 10.6213C1.31607 10.0587 1 9.29565 1 8.5V4.5C1 3.70435 1.31607 2.94129 1.87868 2.37868C2.44129 1.81607 3.20435 1.5 4 1.5H8C8.79565 1.5 9.55871 1.81607 10.1213 2.37868C10.6839 2.94129 11 3.70435 11 4.5C11 5.05228 10.5523 5.5 10 5.5C9.44772 5.5 9 5.05228 9 4.5C9 4.23478 8.89464 3.98043 8.70711 3.79289C8.51957 3.60536 8.26522 3.5 8 3.5H4ZM10 9.5C9.44772 9.5 9 9.94772 9 10.5V14.5C9 15.0523 9.44772 15.5 10 15.5H14C14.5523 15.5 15 15.0523 15 14.5V10.5C15 9.94772 14.5523 9.5 14 9.5H10ZM7 10.5C7 8.84315 8.34315 7.5 10 7.5H14C15.6569 7.5 17 8.84315 17 10.5V14.5C17 16.1569 15.6569 17.5 14 17.5H10C8.34315 17.5 7 16.1569 7 14.5V10.5ZM19 14.5C19 13.9477 19.4477 13.5 20 13.5C20.7957 13.5 21.5587 13.8161 22.1213 14.3787C22.6839 14.9413 23 15.7043 23 16.5V20.5C23 21.2957 22.6839 22.0587 22.1213 22.6213C21.5587 23.1839 20.7957 23.5 20 23.5H16C15.2043 23.5 14.4413 23.1839 13.8787 22.6213C13.3161 22.0587 13 21.2957 13 20.5C13 19.9477 13.4477 19.5 14 19.5C14.5523 19.5 15 19.9477 15 20.5C15 20.7652 15.1054 21.0196 15.2929 21.2071C15.4804 21.3946 15.7348 21.5 16 21.5H20C20.2652 21.5 20.5196 21.3946 20.7071 21.2071C20.8946 21.0196 21 20.7652 21 20.5V16.5C21 16.2348 20.8946 15.9804 20.7071 15.7929C20.5196 15.6054 20.2652 15.5 20 15.5C19.4477 15.5 19 15.0523 19 14.5Z" fill="white"/>
</g>
</svg>
