<svg width="24" height="25" viewBox="0 0 24 25" fill="none" xmlns="http://www.w3.org/2000/svg">
<g id="lucide/brain-circuit">
<path id="Vector" d="M6.00283 5.62505C5.98499 5.22548 6.04722 4.82637 6.18588 4.4512C6.32454 4.07604 6.53682 3.73238 6.81023 3.44045C7.08365 3.14853 7.41268 2.91422 7.77797 2.75132C8.14326 2.58841 8.53744 2.5002 8.93733 2.49186C9.33721 2.48353 9.73472 2.55524 10.1065 2.70278C10.4783 2.85032 10.8168 3.07072 11.1021 3.351C11.3874 3.63128 11.6139 3.96579 11.768 4.33485C11.9222 4.70391 12.001 5.10008 11.9998 5.50005V18.5M6.00283 5.62505C5.41503 5.77619 4.86933 6.0591 4.40706 6.45236C3.94479 6.84562 3.57807 7.33892 3.33467 7.8949C3.09128 8.45087 2.97759 9.05494 3.00222 9.66136C3.02685 10.2678 3.18915 10.8606 3.47683 11.3951M6.00283 5.62505C6.02261 6.10878 6.15916 6.58055 6.40083 7.00005M3.47683 11.3951C2.97101 11.806 2.57326 12.3343 2.31817 12.934C2.06308 13.5337 1.95839 14.1866 2.01319 14.836C2.068 15.4854 2.28065 16.1116 2.63264 16.6601C2.98462 17.2085 3.46529 17.6627 4.03283 17.9831M3.47683 11.3951C3.65977 11.2461 3.85553 11.1145 4.06183 11.0001M4.03283 17.9831C3.96275 18.5253 4.00457 19.0761 4.15572 19.6016C4.30686 20.127 4.56413 20.6159 4.91161 21.038C5.2591 21.4601 5.68944 21.8065 6.17605 22.0558C6.66266 22.3051 7.19521 22.452 7.74081 22.4874C8.28641 22.5228 8.83347 22.446 9.34822 22.2617C9.86296 22.0774 10.3345 21.7895 10.7336 21.4158C11.1327 21.0421 11.451 20.5906 11.6688 20.0891C11.8866 19.5876 11.9992 19.0468 11.9998 18.5M4.03283 17.9831C4.6331 18.3216 5.31066 18.5004 5.99983 18.5001M11.9998 18.5H17.9998C18.5303 18.5 19.039 18.7108 19.414 19.0858C19.7891 19.4609 19.9998 19.9696 19.9998 20.5V21.5M8.99983 13.5001C9.83939 13.2047 10.5725 12.667 11.1065 11.9551C11.6405 11.2431 11.9514 10.3887 11.9998 9.50005M11.9998 13.5001H15.9998M11.9998 8.50005H19.9998M15.9998 8.50005V5.50005C15.9998 4.96962 16.2105 4.46091 16.5856 4.08584C16.9607 3.71076 17.4694 3.50005 17.9998 3.50005M16.4998 13.5001C16.4998 13.7762 16.276 14.0001 15.9998 14.0001C15.7237 14.0001 15.4998 13.7762 15.4998 13.5001C15.4998 13.2239 15.7237 13.0001 15.9998 13.0001C16.276 13.0001 16.4998 13.2239 16.4998 13.5001ZM18.4998 3.50005C18.4998 3.77619 18.276 4.00005 17.9998 4.00005C17.7237 4.00005 17.4998 3.77619 17.4998 3.50005C17.4998 3.22391 17.7237 3.00005 17.9998 3.00005C18.276 3.00005 18.4998 3.22391 18.4998 3.50005ZM20.4998 21.5C20.4998 21.7762 20.276 22 19.9998 22C19.7237 22 19.4998 21.7762 19.4998 21.5C19.4998 21.2239 19.7237 21 19.9998 21C20.276 21 20.4998 21.2239 20.4998 21.5ZM20.4998 8.50005C20.4998 8.77619 20.276 9.00005 19.9998 9.00005C19.7237 9.00005 19.4998 8.77619 19.4998 8.50005C19.4998 8.22391 19.7237 8.00005 19.9998 8.00005C20.276 8.00005 20.4998 8.22391 20.4998 8.50005Z" stroke="white" stroke-width="2" stroke-linecap="round" stroke-linejoin="round"/>
</g>
</svg>
