<svg width="260" height="272" viewBox="0 0 260 272" fill="none" xmlns="http://www.w3.org/2000/svg">
<g opacity="0.5">
<path d="M225.018 191.117H35.3239C35.1284 191.117 34.9486 191.012 34.8519 190.844C34.7551 190.675 34.7551 190.467 34.8519 190.3L129.699 26.0701C129.894 25.7325 130.449 25.7325 130.643 26.0701L225.49 190.3C225.586 190.469 225.586 190.677 225.49 190.844C225.393 191.014 225.211 191.117 225.018 191.117ZM36.2679 190.027H224.072L130.169 27.4343L36.2659 190.027H36.2679Z" fill="#010F3F"/>
<path d="M130.171 247.106C129.975 247.106 129.796 247.001 129.699 246.833L35.1758 83.1528C35.0791 82.983 35.0791 82.7757 35.1758 82.6079C35.2726 82.4381 35.4543 82.3354 35.6479 82.3354H224.694C224.889 82.3354 225.069 82.4401 225.166 82.6079C225.262 82.7777 225.262 82.985 225.166 83.1528L130.643 246.833C130.546 247.003 130.364 247.106 130.171 247.106ZM36.5919 83.4253L130.171 245.471L223.75 83.4253H36.5919Z" fill="#010F3F"/>
<g opacity="0.5">
<path d="M194.021 247.106H66.3201C66.1245 247.106 65.9448 247.001 65.8481 246.834L1.99738 136.269C1.90061 136.1 1.90061 135.892 1.99738 135.724L65.8481 25.1621C65.9448 24.9923 66.1265 24.8896 66.3201 24.8896H194.021C194.215 24.8896 194.397 24.9943 194.493 25.1621L258.344 135.724C258.441 135.894 258.441 136.101 258.344 136.269L194.493 246.834C194.397 247.003 194.215 247.106 194.021 247.106ZM66.6341 246.016H193.707L257.242 135.999L193.707 25.9814H66.6341L3.09938 135.999L66.6341 246.016Z" fill="#010F3F"/>
</g>
<g opacity="0.4">
<path d="M130.171 270.565C130.113 270.565 130.056 270.555 130.003 270.537L51.2001 244.938C51.0896 244.903 50.9948 244.834 50.9276 244.741L2.23236 177.733C2.16521 177.641 2.12769 177.528 2.12769 177.414V94.5821C2.12769 94.4676 2.16323 94.3551 2.23236 94.2623L50.9276 27.2548C50.9948 27.1601 51.0896 27.0929 51.2001 27.0574L130.003 1.46269C130.111 1.42715 130.23 1.42715 130.339 1.46269L209.139 27.0574C209.25 27.0929 209.345 27.162 209.412 27.2548L258.107 94.2623C258.176 94.3551 258.212 94.4676 258.212 94.5821V177.414C258.212 177.528 258.176 177.641 258.107 177.733L209.412 244.741C209.345 244.834 209.25 244.903 209.139 244.938L130.339 270.537C130.283 270.555 130.228 270.565 130.171 270.565ZM51.7057 243.957L130.171 269.445L208.636 243.957L257.122 177.236V94.7578L208.636 28.0367L130.171 2.5525L51.7057 28.0367L3.21981 94.7578V177.234L51.7057 243.955V243.957Z" fill="#010F3F"/>
</g>
<path d="M161.153 191.117C161.05 191.117 160.948 191.089 160.859 191.03L130.169 171.425L99.4847 191.03C99.3129 191.141 99.0956 191.147 98.9179 191.042C98.7421 190.941 98.6375 190.75 98.6454 190.544L100.285 154.176L67.9613 137.41C67.7815 137.315 67.667 137.13 67.667 136.927C67.667 136.723 67.7815 136.536 67.9613 136.443L100.285 119.677L98.6454 83.3087C98.6355 83.1054 98.7421 82.9139 98.9179 82.8112C99.0956 82.7086 99.3129 82.7145 99.4847 82.8231L130.169 102.426L160.859 82.8231C161.031 82.7145 161.25 82.7086 161.426 82.8112C161.601 82.9139 161.706 83.1034 161.698 83.3087L160.059 119.677L192.38 136.443C192.56 136.538 192.675 136.723 192.675 136.927C192.675 137.13 192.56 137.317 192.38 137.41L160.059 154.176L161.698 190.544C161.708 190.748 161.601 190.939 161.426 191.042C161.341 191.091 161.246 191.115 161.153 191.115V191.117ZM130.171 170.235C130.273 170.235 130.374 170.262 130.465 170.32L160.563 189.545L158.955 153.878C158.945 153.665 159.06 153.467 159.249 153.368L190.947 136.927L159.249 120.485C159.062 120.386 158.945 120.189 158.955 119.975L160.563 84.3077L130.465 103.531C130.285 103.646 130.058 103.646 129.877 103.531L99.7849 84.3077L101.392 119.975C101.402 120.189 101.288 120.386 101.1 120.485L69.401 136.927L101.1 153.368C101.288 153.467 101.404 153.665 101.392 153.878L99.7849 189.545L129.877 170.32C129.965 170.262 130.068 170.235 130.171 170.235Z" fill="#010F3F"/>
<g opacity="0.6">
<path d="M130.171 171.323C129.967 171.323 129.782 171.208 129.687 171.029L120.589 153.509L100.877 154.397C100.666 154.425 100.482 154.301 100.379 154.125C100.279 153.949 100.283 153.73 100.391 153.558L111.018 136.927L100.391 120.294C100.281 120.122 100.277 119.905 100.379 119.727C100.482 119.551 100.66 119.45 100.877 119.454L120.589 120.347L129.687 102.821C129.782 102.641 129.967 102.527 130.171 102.527C130.374 102.527 130.562 102.641 130.655 102.821L139.747 120.347L159.472 119.454C159.7 119.433 159.867 119.551 159.97 119.727C160.073 119.903 160.067 120.122 159.958 120.294L149.319 136.927L159.958 153.558C160.069 153.73 160.073 153.949 159.97 154.125C159.869 154.301 159.698 154.421 159.472 154.397L139.747 153.509L130.655 171.029C130.562 171.208 130.374 171.323 130.171 171.323ZM120.912 152.403C121.116 152.403 121.301 152.516 121.396 152.698L130.171 169.595L138.939 152.698C139.038 152.51 139.224 152.39 139.449 152.403L158.471 153.26L148.212 137.221C148.097 137.041 148.097 136.812 148.212 136.633L158.471 120.592L139.449 121.452C139.206 121.464 139.038 121.348 138.939 121.158L130.171 104.258L121.396 121.158C121.3 121.346 121.12 121.482 120.887 121.452L101.876 120.592L112.124 136.633C112.239 136.812 112.239 137.039 112.124 137.219L101.876 153.258L120.887 152.401C120.887 152.401 120.905 152.401 120.912 152.401V152.403Z" fill="#010F3F"/>
</g>
<path d="M193.543 25.1859L162.374 82.646L163.332 83.1655L194.501 25.7054L193.543 25.1859Z" fill="#010F3F"/>
<path d="M130.171 142.453C127.124 142.453 124.643 139.973 124.643 136.927C124.643 133.881 127.124 131.399 130.171 131.399C133.218 131.399 135.705 133.879 135.705 136.927C135.705 139.975 133.222 142.453 130.171 142.453ZM130.171 132.491C127.724 132.491 125.735 134.481 125.735 136.929C125.735 139.377 127.726 141.363 130.171 141.363C132.616 141.363 134.612 139.375 134.612 136.929C134.612 134.483 132.62 132.491 130.171 132.491Z" fill="#010F3F"/>
<path d="M66.7962 25.1651L65.8381 25.6851L97.0372 83.1288L97.9953 82.6088L66.7962 25.1651Z" fill="#010F3F"/>
<path d="M2.47001 135.45L2.4624 136.54L66.5682 136.987L66.5759 135.897L2.47001 135.45Z" fill="#010F3F"/>
<path d="M97.3775 190.317L65.8284 246.29L66.7781 246.825L98.3272 190.852L97.3775 190.317Z" fill="#010F3F"/>
<path d="M162.977 190.327L162.027 190.862L193.535 246.854L194.485 246.319L162.977 190.327Z" fill="#010F3F"/>
<path d="M257.854 135.493L194.002 135.905L194.009 136.995L257.861 136.582L257.854 135.493Z" fill="#010F3F"/>
<path d="M225.016 192.037C225.825 192.037 226.481 191.381 226.481 190.572C226.481 189.763 225.825 189.107 225.016 189.107C224.206 189.107 223.55 189.763 223.55 190.572C223.55 191.381 224.206 192.037 225.016 192.037Z" fill="#010F3F"/>
<path d="M130.169 27.8078C130.978 27.8078 131.634 27.1519 131.634 26.3429C131.634 25.5338 130.978 24.8779 130.169 24.8779C129.359 24.8779 128.703 25.5338 128.703 26.3429C128.703 27.1519 129.359 27.8078 130.169 27.8078Z" fill="#010F3F"/>
<path d="M36.7894 190.572C36.7894 191.382 36.1337 192.037 35.324 192.037C34.5143 192.037 33.8586 191.382 33.8586 190.572C33.8586 189.763 34.5143 189.107 35.324 189.107C36.1337 189.107 36.7894 189.763 36.7894 190.572Z" fill="#010F3F"/>
<path d="M35.6458 84.3454C36.4551 84.3454 37.1112 83.6895 37.1112 82.8804C37.1112 82.0714 36.4551 81.4155 35.6458 81.4155C34.8365 81.4155 34.1804 82.0714 34.1804 82.8804C34.1804 83.6895 34.8365 84.3454 35.6458 84.3454Z" fill="#010F3F"/>
<path d="M130.169 248.026C130.978 248.026 131.634 247.37 131.634 246.561C131.634 245.752 130.978 245.096 130.169 245.096C129.359 245.096 128.703 245.752 128.703 246.561C128.703 247.37 129.359 248.026 130.169 248.026Z" fill="#010F3F"/>
<path d="M224.694 84.3454C225.503 84.3454 226.159 83.6895 226.159 82.8804C226.159 82.0714 225.503 81.4155 224.694 81.4155C223.884 81.4155 223.228 82.0714 223.228 82.8804C223.228 83.6895 223.884 84.3454 224.694 84.3454Z" fill="#010F3F"/>
<path d="M194.022 248.026C194.831 248.026 195.487 247.37 195.487 246.561C195.487 245.752 194.831 245.096 194.022 245.096C193.212 245.096 192.556 245.752 192.556 246.561C192.556 247.37 193.212 248.026 194.022 248.026Z" fill="#010F3F"/>
<path d="M259.337 135.997C259.337 136.807 258.682 137.462 257.872 137.462C257.062 137.462 256.407 136.807 256.407 135.997C256.407 135.188 257.062 134.532 257.872 134.532C258.682 134.532 259.337 135.188 259.337 135.997Z" fill="#010F3F"/>
<path d="M194.022 26.9015C194.831 26.9015 195.487 26.2457 195.487 25.4366C195.487 24.6276 194.831 23.9717 194.022 23.9717C193.212 23.9717 192.556 24.6276 192.556 25.4366C192.556 26.2457 193.212 26.9015 194.022 26.9015Z" fill="#010F3F"/>
<path d="M67.7835 25.4366C67.7835 26.2461 67.1279 26.9015 66.3182 26.9015C65.5084 26.9015 64.8528 26.2461 64.8528 25.4366C64.8528 24.6271 65.5084 23.9717 66.3182 23.9717C67.1279 23.9717 67.7835 24.6271 67.7835 25.4366Z" fill="#010F3F"/>
<path d="M3.93271 135.997C3.93271 136.807 3.27704 137.462 2.46733 137.462C1.65762 137.462 1.00195 136.807 1.00195 135.997C1.00195 135.188 1.65762 134.532 2.46733 134.532C3.27704 134.532 3.93271 135.188 3.93271 135.997Z" fill="#010F3F"/>
<path d="M67.7835 246.561C67.7835 247.371 67.1279 248.026 66.3182 248.026C65.5084 248.026 64.8528 247.371 64.8528 246.561C64.8528 245.752 65.5084 245.096 66.3182 245.096C67.1279 245.096 67.7835 245.752 67.7835 246.561Z" fill="#010F3F"/>
<path d="M257.667 96.047C258.476 96.047 259.132 95.3912 259.132 94.5821C259.132 93.7731 258.476 93.1172 257.667 93.1172C256.857 93.1172 256.201 93.7731 256.201 94.5821C256.201 95.3912 256.857 96.047 257.667 96.047Z" fill="#010F3F"/>
<path d="M210.437 27.5748C210.437 28.3842 209.781 29.0397 208.971 29.0397C208.162 29.0397 207.506 28.3842 207.506 27.5748C207.506 26.7653 208.162 26.1099 208.971 26.1099C209.781 26.1099 210.437 26.7653 210.437 27.5748Z" fill="#010F3F"/>
<path d="M130.169 3.44499C130.978 3.44499 131.634 2.78912 131.634 1.98006C131.634 1.17101 130.978 0.515137 130.169 0.515137C129.359 0.515137 128.703 1.17101 128.703 1.98006C128.703 2.78912 129.359 3.44499 130.169 3.44499Z" fill="#010F3F"/>
<path d="M52.8334 27.5748C52.8334 28.3842 52.1777 29.0397 51.368 29.0397C50.5583 29.0397 49.9026 28.3842 49.9026 27.5748C49.9026 26.7653 50.5583 26.1099 51.368 26.1099C52.1777 26.1099 52.8334 26.7653 52.8334 27.5748Z" fill="#010F3F"/>
<path d="M2.6729 96.047C3.48221 96.047 4.13828 95.3912 4.13828 94.5821C4.13828 93.7731 3.48221 93.1172 2.6729 93.1172C1.8636 93.1172 1.20752 93.7731 1.20752 94.5821C1.20752 95.3912 1.8636 96.047 2.6729 96.047Z" fill="#010F3F"/>
<path d="M3.23296 178.767C3.98066 178.458 4.33573 177.601 4.02602 176.853C3.71631 176.106 2.85911 175.751 2.11141 176.06C1.3637 176.37 1.00864 177.227 1.31835 177.975C1.62806 178.722 2.48525 179.077 3.23296 178.767Z" fill="#010F3F"/>
<path d="M51.368 245.886C52.1773 245.886 52.8334 245.23 52.8334 244.421C52.8334 243.612 52.1773 242.956 51.368 242.956C50.5587 242.956 49.9026 243.612 49.9026 244.421C49.9026 245.23 50.5587 245.886 51.368 245.886Z" fill="#010F3F"/>
<path d="M130.169 271.485C130.978 271.485 131.634 270.829 131.634 270.02C131.634 269.211 130.978 268.555 130.169 268.555C129.359 268.555 128.703 269.211 128.703 270.02C128.703 270.829 129.359 271.485 130.169 271.485Z" fill="#010F3F"/>
<path d="M208.971 245.886C209.781 245.886 210.437 245.23 210.437 244.421C210.437 243.612 209.781 242.956 208.971 242.956C208.162 242.956 207.506 243.612 207.506 244.421C207.506 245.23 208.162 245.886 208.971 245.886Z" fill="#010F3F"/>
<path d="M257.667 178.879C258.476 178.879 259.132 178.223 259.132 177.414C259.132 176.605 258.476 175.949 257.667 175.949C256.857 175.949 256.201 176.605 256.201 177.414C256.201 178.223 256.857 178.879 257.667 178.879Z" fill="#010F3F"/>
<path d="M99.1924 84.7482C100.002 84.7482 100.658 84.0923 100.658 83.2833C100.658 82.4742 100.002 81.8184 99.1924 81.8184C98.3831 81.8184 97.7271 82.4742 97.7271 83.2833C97.7271 84.0923 98.3831 84.7482 99.1924 84.7482Z" fill="#010F3F"/>
<path d="M102.313 120.001C102.313 120.811 101.657 121.466 100.847 121.466C100.038 121.466 99.3818 120.811 99.3818 120.001C99.3818 119.192 100.038 118.536 100.847 118.536C101.657 118.536 102.313 119.192 102.313 120.001Z" fill="#010F3F"/>
<path d="M68.2159 138.392C69.0252 138.392 69.6813 137.736 69.6813 136.927C69.6813 136.118 69.0252 135.462 68.2159 135.462C67.4066 135.462 66.7505 136.118 66.7505 136.927C66.7505 137.736 67.4066 138.392 68.2159 138.392Z" fill="#010F3F"/>
<path d="M100.847 155.32C101.657 155.32 102.313 154.664 102.313 153.855C102.313 153.046 101.657 152.39 100.847 152.39C100.038 152.39 99.3818 153.046 99.3818 153.855C99.3818 154.664 100.038 155.32 100.847 155.32Z" fill="#010F3F"/>
<path d="M99.1924 192.037C100.002 192.037 100.658 191.381 100.658 190.572C100.658 189.763 100.002 189.107 99.1924 189.107C98.3831 189.107 97.7271 189.763 97.7271 190.572C97.7271 191.381 98.3831 192.037 99.1924 192.037Z" fill="#010F3F"/>
<path d="M131.634 170.78C131.634 171.589 130.978 172.245 130.169 172.245C129.359 172.245 128.703 171.589 128.703 170.78C128.703 169.97 129.359 169.315 130.169 169.315C130.978 169.315 131.634 169.97 131.634 170.78Z" fill="#010F3F"/>
<path d="M161.153 192.037C161.962 192.037 162.618 191.381 162.618 190.572C162.618 189.763 161.962 189.107 161.153 189.107C160.344 189.107 159.688 189.763 159.688 190.572C159.688 191.381 160.344 192.037 161.153 192.037Z" fill="#010F3F"/>
<path d="M160.963 153.855C160.963 154.664 160.308 155.32 159.498 155.32C158.688 155.32 158.033 154.664 158.033 153.855C158.033 153.045 158.688 152.39 159.498 152.39C160.308 152.39 160.963 153.045 160.963 153.855Z" fill="#010F3F"/>
<path d="M192.129 138.392C192.939 138.392 193.595 137.736 193.595 136.927C193.595 136.118 192.939 135.462 192.129 135.462C191.32 135.462 190.664 136.118 190.664 136.927C190.664 137.736 191.32 138.392 192.129 138.392Z" fill="#010F3F"/>
<path d="M160.963 120.001C160.963 120.811 160.308 121.466 159.498 121.466C158.688 121.466 158.033 120.811 158.033 120.001C158.033 119.192 158.688 118.536 159.498 118.536C160.308 118.536 160.963 119.192 160.963 120.001Z" fill="#010F3F"/>
<path d="M161.153 84.7482C161.962 84.7482 162.618 84.0923 162.618 83.2833C162.618 82.4742 161.962 81.8184 161.153 81.8184C160.344 81.8184 159.688 82.4742 159.688 83.2833C159.688 84.0923 160.344 84.7482 161.153 84.7482Z" fill="#010F3F"/>
<path d="M130.169 104.539C130.978 104.539 131.634 103.883 131.634 103.074C131.634 102.265 130.978 101.609 130.169 101.609C129.359 101.609 128.703 102.265 128.703 103.074C128.703 103.883 129.359 104.539 130.169 104.539Z" fill="#010F3F"/>
<path d="M160.962 119.999C160.962 120.809 160.306 121.464 159.496 121.464C158.686 121.464 158.031 120.809 158.031 119.999C158.031 119.19 158.686 118.534 159.496 118.534C160.306 118.534 160.962 119.19 160.962 119.999Z" fill="#010F3F"/>
<path d="M139.423 122.372C140.232 122.372 140.889 121.716 140.889 120.907C140.889 120.098 140.232 119.442 139.423 119.442C138.614 119.442 137.958 120.098 137.958 120.907C137.958 121.716 138.614 122.372 139.423 122.372Z" fill="#010F3F"/>
<path d="M130.171 104.539C130.98 104.539 131.636 103.883 131.636 103.074C131.636 102.265 130.98 101.609 130.171 101.609C129.361 101.609 128.705 102.265 128.705 103.074C128.705 103.883 129.361 104.539 130.171 104.539Z" fill="#010F3F"/>
<path d="M120.91 122.372C121.72 122.372 122.376 121.716 122.376 120.907C122.376 120.098 121.72 119.442 120.91 119.442C120.101 119.442 119.445 120.098 119.445 120.907C119.445 121.716 120.101 122.372 120.91 122.372Z" fill="#010F3F"/>
<path d="M102.315 119.999C102.315 120.809 101.659 121.464 100.849 121.464C100.04 121.464 99.384 120.809 99.384 119.999C99.384 119.19 100.04 118.534 100.849 118.534C101.659 118.534 102.315 119.19 102.315 119.999Z" fill="#010F3F"/>
<path d="M111.664 138.392C112.473 138.392 113.129 137.736 113.129 136.927C113.129 136.118 112.473 135.462 111.664 135.462C110.855 135.462 110.198 136.118 110.198 136.927C110.198 137.736 110.855 138.392 111.664 138.392Z" fill="#010F3F"/>
<path d="M101.409 155.207C102.157 154.897 102.512 154.04 102.203 153.293C101.893 152.545 101.036 152.19 100.288 152.5C99.5402 152.81 99.1851 153.666 99.4949 154.414C99.8046 155.161 100.662 155.516 101.409 155.207Z" fill="#010F3F"/>
<path d="M120.91 154.411C121.72 154.411 122.376 153.755 122.376 152.946C122.376 152.137 121.72 151.481 120.91 151.481C120.101 151.481 119.445 152.137 119.445 152.946C119.445 153.755 120.101 154.411 120.91 154.411Z" fill="#010F3F"/>
<path d="M131.611 171.001C131.739 170.202 131.195 169.451 130.396 169.322C129.597 169.194 128.845 169.738 128.717 170.537C128.589 171.335 129.133 172.087 129.932 172.215C130.731 172.343 131.483 171.8 131.611 171.001Z" fill="#010F3F"/>
<path d="M139.423 154.411C140.232 154.411 140.889 153.755 140.889 152.946C140.889 152.137 140.232 151.481 139.423 151.481C138.614 151.481 137.958 152.137 137.958 152.946C137.958 153.755 138.614 154.411 139.423 154.411Z" fill="#010F3F"/>
<path d="M160.063 155.195C160.811 154.884 161.164 154.027 160.853 153.28C160.542 152.533 159.684 152.179 158.937 152.491C158.19 152.802 157.836 153.659 158.147 154.406C158.459 155.153 159.316 155.506 160.063 155.195Z" fill="#010F3F"/>
<path d="M150.135 136.927C150.135 137.736 149.479 138.392 148.67 138.392C147.86 138.392 147.204 137.736 147.204 136.927C147.204 136.117 147.86 135.462 148.67 135.462C149.479 135.462 150.135 136.117 150.135 136.927Z" fill="#010F3F"/>
<path d="M162.826 84.3454C163.635 84.3454 164.291 83.6895 164.291 82.8804C164.291 82.0714 163.635 81.4155 162.826 81.4155C162.016 81.4155 161.36 82.0714 161.36 82.8804C161.36 83.6895 162.016 84.3454 162.826 84.3454Z" fill="#010F3F"/>
<path d="M194.022 26.9015C194.831 26.9015 195.487 26.2457 195.487 25.4366C195.487 24.6276 194.831 23.9717 194.022 23.9717C193.212 23.9717 192.556 24.6276 192.556 25.4366C192.556 26.2457 193.212 26.9015 194.022 26.9015Z" fill="#010F3F"/>
<path d="M131.634 131.944C131.634 132.753 130.978 133.409 130.169 133.409C129.359 133.409 128.703 132.753 128.703 131.944C128.703 131.134 129.359 130.479 130.169 130.479C130.978 130.479 131.634 131.134 131.634 131.944Z" fill="#010F3F"/>
<path d="M125.188 138.392C125.997 138.392 126.653 137.736 126.653 136.927C126.653 136.118 125.997 135.462 125.188 135.462C124.379 135.462 123.723 136.118 123.723 136.927C123.723 137.736 124.379 138.392 125.188 138.392Z" fill="#010F3F"/>
<path d="M130.169 143.373C130.978 143.373 131.634 142.717 131.634 141.908C131.634 141.099 130.978 140.443 130.169 140.443C129.359 140.443 128.703 141.099 128.703 141.908C128.703 142.717 129.359 143.373 130.169 143.373Z" fill="#010F3F"/>
<path d="M135.157 138.392C135.967 138.392 136.623 137.736 136.623 136.927C136.623 136.118 135.967 135.462 135.157 135.462C134.348 135.462 133.692 136.118 133.692 136.927C133.692 137.736 134.348 138.392 135.157 138.392Z" fill="#010F3F"/>
<path d="M97.5137 84.3454C98.323 84.3454 98.9791 83.6895 98.9791 82.8804C98.9791 82.0714 98.323 81.4155 97.5137 81.4155C96.7044 81.4155 96.0483 82.0714 96.0483 82.8804C96.0483 83.6895 96.7044 84.3454 97.5137 84.3454Z" fill="#010F3F"/>
<path d="M67.7835 25.4366C67.7835 26.2461 67.1279 26.9015 66.3182 26.9015C65.5084 26.9015 64.8528 26.2461 64.8528 25.4366C64.8528 24.6271 65.5084 23.9717 66.3182 23.9717C67.1279 23.9717 67.7835 24.6271 67.7835 25.4366Z" fill="#010F3F"/>
<path d="M67.1248 137.813C67.8731 137.504 68.2298 136.648 67.9216 135.9C67.6133 135.152 66.7568 134.795 66.0085 135.104C65.2602 135.412 64.9035 136.268 65.2117 137.016C65.52 137.764 66.3765 138.121 67.1248 137.813Z" fill="#010F3F"/>
<path d="M3.93271 135.997C3.93271 136.807 3.27704 137.462 2.46733 137.462C1.65762 137.462 1.00195 136.807 1.00195 135.997C1.00195 135.188 1.65762 134.532 2.46733 134.532C3.27704 134.532 3.93271 135.188 3.93271 135.997Z" fill="#010F3F"/>
<path d="M97.8377 192.037C98.647 192.037 99.3031 191.381 99.3031 190.572C99.3031 189.763 98.647 189.107 97.8377 189.107C97.0284 189.107 96.3723 189.763 96.3723 190.572C96.3723 191.381 97.0284 192.037 97.8377 192.037Z" fill="#010F3F"/>
<path d="M67.7835 246.561C67.7835 247.371 67.1279 248.026 66.3182 248.026C65.5084 248.026 64.8528 247.371 64.8528 246.561C64.8528 245.752 65.5084 245.096 66.3182 245.096C67.1279 245.096 67.7835 245.752 67.7835 246.561Z" fill="#010F3F"/>
<path d="M194.022 248.026C194.831 248.026 195.487 247.37 195.487 246.561C195.487 245.752 194.831 245.096 194.022 245.096C193.212 245.096 192.556 245.752 192.556 246.561C192.556 247.37 193.212 248.026 194.022 248.026Z" fill="#010F3F"/>
<path d="M163.973 190.572C163.973 191.382 163.318 192.037 162.508 192.037C161.698 192.037 161.042 191.382 161.042 190.572C161.042 189.763 161.698 189.107 162.508 189.107C163.318 189.107 163.973 189.763 163.973 190.572Z" fill="#010F3F"/>
<path d="M194.582 137.801C195.329 137.491 195.684 136.634 195.375 135.887C195.065 135.14 194.208 134.785 193.46 135.094C192.712 135.404 192.357 136.261 192.667 137.008C192.977 137.756 193.834 138.111 194.582 137.801Z" fill="#010F3F"/>
<path d="M259.337 135.997C259.337 136.807 258.682 137.462 257.872 137.462C257.062 137.462 256.407 136.807 256.407 135.997C256.407 135.188 257.062 134.532 257.872 134.532C258.682 134.532 259.337 135.188 259.337 135.997Z" fill="#010F3F"/>
</g>
</svg>
