<svg width="440" height="440" viewBox="0 0 440 440" fill="none" xmlns="http://www.w3.org/2000/svg">
<g opacity="0.1">
<path d="M220.013 419.796C219.173 419.796 218.359 419.465 217.748 418.854L21.1717 222.252C19.9248 221.005 19.9248 218.995 21.1717 217.748L217.748 21.1465C218.944 19.9505 221.056 19.9505 222.252 21.1465L418.828 217.748C420.075 218.995 420.075 221.005 418.828 222.252L222.252 418.829C221.641 419.439 220.852 419.77 219.987 419.77L220.013 419.796ZM27.9406 219.988L220.013 412.06L412.085 219.988L220.013 27.9153L27.9406 219.988Z" fill="#010F3F"/>
<path d="M91.3539 222.736C90.9467 222.736 90.5396 222.583 90.2342 222.278L89.1146 221.158C88.4784 220.522 88.4784 219.529 89.1146 218.893L90.2342 217.774C90.845 217.137 91.8628 217.137 92.499 217.774C93.1352 218.384 93.1352 219.402 92.499 220.038C93.1352 220.674 93.1352 221.667 92.499 222.303C92.1936 222.608 91.7865 222.761 91.3793 222.761L91.3539 222.736Z" fill="#010F3F"/>
<path d="M98.3009 213.524C97.8937 213.524 97.4866 213.372 97.1812 213.066C96.5451 212.456 96.5451 211.438 97.1812 210.801L99.4969 208.486C100.108 207.85 101.125 207.85 101.762 208.486C102.398 209.122 102.398 210.114 101.762 210.751L99.446 213.066C99.1406 213.372 98.7335 213.524 98.3263 213.524H98.3009ZM107.589 204.236C107.182 204.236 106.775 204.084 106.469 203.778C105.859 203.167 105.859 202.15 106.469 201.513L108.785 199.198C109.421 198.587 110.414 198.587 111.05 199.198C111.686 199.834 111.686 200.826 111.05 201.462L108.734 203.778C108.429 204.084 107.996 204.236 107.614 204.236H107.589ZM116.877 194.974C116.47 194.974 116.063 194.821 115.757 194.516C115.147 193.879 115.147 192.887 115.757 192.251L118.073 189.935C118.709 189.324 119.702 189.324 120.338 189.935C120.974 190.571 120.974 191.564 120.338 192.2L118.022 194.516C117.717 194.821 117.31 194.974 116.902 194.974H116.877ZM126.14 185.711C125.733 185.711 125.325 185.558 125.02 185.253C124.409 184.642 124.409 183.624 125.02 182.988L127.336 180.672C127.972 180.036 128.964 180.036 129.6 180.672C130.237 181.283 130.237 182.301 129.6 182.937L127.285 185.253C126.979 185.558 126.572 185.711 126.165 185.711H126.14ZM135.428 176.423C135.021 176.423 134.613 176.27 134.308 175.965C133.672 175.354 133.672 174.336 134.308 173.7L136.624 171.384C137.26 170.748 138.252 170.748 138.888 171.384C139.525 171.995 139.525 173.013 138.888 173.649L136.573 175.965C136.267 176.27 135.86 176.423 135.453 176.423H135.428ZM144.69 167.16C144.283 167.16 143.876 167.008 143.571 166.702C142.935 166.066 142.935 165.074 143.571 164.437L145.886 162.122C146.523 161.486 147.515 161.486 148.151 162.122C148.787 162.758 148.787 163.75 148.151 164.387L145.835 166.702C145.53 167.008 145.123 167.16 144.716 167.16H144.69ZM153.953 157.898C153.546 157.898 153.139 157.745 152.833 157.44C152.197 156.829 152.197 155.811 152.833 155.175L155.149 152.859C155.785 152.223 156.778 152.223 157.414 152.859C158.05 153.47 158.05 154.488 157.414 155.124L155.098 157.44C154.793 157.745 154.386 157.898 153.953 157.898ZM163.241 148.61C162.834 148.61 162.427 148.457 162.121 148.152C161.485 147.515 161.485 146.523 162.121 145.887L164.437 143.571C165.073 142.96 166.066 142.96 166.702 143.571C167.313 144.207 167.313 145.2 166.702 145.836L164.386 148.152C164.081 148.457 163.648 148.61 163.266 148.61H163.241ZM172.504 139.347C172.097 139.347 171.689 139.194 171.384 138.889C170.748 138.278 170.748 137.26 171.384 136.624L173.7 134.308C174.31 133.698 175.328 133.698 175.964 134.308C176.575 134.919 176.575 135.937 175.964 136.573L173.649 138.889C173.343 139.194 172.936 139.347 172.529 139.347H172.504ZM181.792 130.059C181.385 130.059 180.977 129.906 180.672 129.601C180.061 128.99 180.061 127.972 180.672 127.336L182.988 125.02C183.598 124.384 184.616 124.384 185.252 125.02C185.863 125.631 185.863 126.649 185.252 127.285L182.937 129.601C182.631 129.906 182.224 130.059 181.817 130.059H181.792ZM191.08 120.796C190.673 120.796 190.266 120.644 189.96 120.338C189.324 119.702 189.324 118.71 189.96 118.073L192.276 115.758C192.887 115.147 193.904 115.147 194.541 115.758C195.151 116.394 195.151 117.386 194.541 118.023L192.225 120.338C191.92 120.644 191.512 120.796 191.105 120.796H191.08ZM200.342 111.534C199.935 111.534 199.528 111.381 199.223 111.076C198.612 110.465 198.612 109.447 199.223 108.811L201.538 106.495C202.175 105.859 203.167 105.859 203.803 106.495C204.439 107.106 204.439 108.124 203.803 108.76L201.488 111.076C201.182 111.381 200.75 111.534 200.368 111.534H200.342ZM209.605 102.246C209.198 102.246 208.791 102.093 208.485 101.788C207.875 101.177 207.875 100.159 208.485 99.5228L210.801 97.2071C211.437 96.5709 212.43 96.5709 213.066 97.2071C213.702 97.8178 213.702 98.8357 213.066 99.4719L210.75 101.788C210.445 102.093 210.038 102.246 209.63 102.246H209.605Z" fill="#010F3F"/>
<path d="M221.132 92.9573C220.725 92.9573 220.318 92.8046 220.013 92.4992C219.376 93.11 218.384 93.11 217.748 92.4992C217.112 91.8631 217.112 90.8706 217.748 90.2345L218.868 89.1148C219.478 88.4787 220.496 88.4787 221.107 89.1148L222.227 90.2345C222.863 90.8452 222.863 91.8631 222.227 92.4992C221.921 92.8046 221.514 92.9573 221.107 92.9573H221.132Z" fill="#010F3F"/>
<path d="M341.699 213.524C341.292 213.524 340.885 213.372 340.58 213.066L338.264 210.751C337.628 210.114 337.628 209.122 338.264 208.486C338.9 207.875 339.892 207.875 340.529 208.486L342.844 210.801C343.48 211.438 343.48 212.43 342.844 213.066C342.539 213.372 342.132 213.524 341.725 213.524H341.699ZM332.437 204.262C332.029 204.262 331.622 204.109 331.317 203.804L329.001 201.488C328.365 200.852 328.365 199.859 329.001 199.223C329.637 198.612 330.63 198.612 331.266 199.223L333.582 201.539C334.192 202.15 334.192 203.167 333.582 203.804C333.276 204.109 332.844 204.262 332.462 204.262H332.437ZM323.149 194.974C322.741 194.974 322.334 194.821 322.029 194.516L319.713 192.2C319.077 191.564 319.077 190.571 319.713 189.935C320.324 189.324 321.342 189.324 321.952 189.935L324.268 192.251C324.879 192.861 324.879 193.879 324.268 194.516C323.963 194.821 323.556 194.974 323.149 194.974ZM313.886 185.711C313.479 185.711 313.072 185.558 312.766 185.253L310.451 182.937C309.814 182.327 309.814 181.309 310.451 180.672C311.087 180.036 312.079 180.036 312.715 180.672L315.031 182.988C315.642 183.599 315.642 184.617 315.031 185.253C314.726 185.558 314.318 185.711 313.911 185.711H313.886ZM304.598 176.423C304.191 176.423 303.784 176.27 303.478 175.965L301.162 173.649C300.526 173.038 300.526 172.021 301.162 171.384C301.799 170.774 302.791 170.774 303.427 171.384L305.743 173.7C306.379 174.336 306.379 175.329 305.743 175.965C305.438 176.27 305.03 176.423 304.623 176.423H304.598ZM295.335 167.16C294.928 167.16 294.521 167.008 294.19 166.702L291.874 164.387C291.238 163.75 291.238 162.758 291.874 162.122C292.511 161.486 293.503 161.486 294.139 162.122L296.455 164.437C297.091 165.048 297.091 166.066 296.455 166.702C296.149 167.008 295.742 167.16 295.335 167.16ZM286.073 157.898C285.665 157.898 285.258 157.745 284.953 157.44L282.637 155.124C282.001 154.488 282.001 153.495 282.637 152.859C283.273 152.223 284.266 152.223 284.902 152.859L287.218 155.175C287.854 155.811 287.854 156.803 287.218 157.44C286.912 157.745 286.505 157.898 286.098 157.898H286.073ZM276.784 148.61C276.377 148.61 275.97 148.457 275.665 148.152L273.349 145.836C272.738 145.225 272.738 144.207 273.349 143.571C273.985 142.96 274.978 142.96 275.614 143.571L277.93 145.887C278.566 146.523 278.566 147.515 277.93 148.152C277.624 148.457 277.217 148.61 276.81 148.61H276.784ZM267.522 139.347C267.115 139.347 266.708 139.194 266.402 138.889L264.087 136.573C263.45 135.937 263.45 134.945 264.087 134.308C264.723 133.698 265.715 133.698 266.351 134.308L268.667 136.624C269.303 137.235 269.303 138.253 268.667 138.889C268.362 139.194 267.954 139.347 267.547 139.347H267.522ZM258.259 130.084C257.852 130.084 257.445 129.932 257.14 129.626L254.824 127.311C254.213 126.7 254.213 125.682 254.824 125.046C255.46 124.41 256.453 124.41 257.089 125.046L259.404 127.362C260.015 127.998 260.015 128.99 259.404 129.626C259.099 129.932 258.666 130.084 258.285 130.084H258.259ZM248.971 120.796C248.564 120.796 248.157 120.644 247.852 120.338L245.536 118.023C244.925 117.412 244.925 116.394 245.536 115.758C246.172 115.147 247.164 115.147 247.801 115.758L250.116 118.073C250.752 118.71 250.752 119.702 250.116 120.338C249.811 120.644 249.404 120.796 248.997 120.796H248.971ZM239.709 111.534C239.301 111.534 238.894 111.381 238.589 111.076L236.273 108.76C235.637 108.124 235.637 107.131 236.273 106.495C236.884 105.884 237.902 105.884 238.538 106.495L240.854 108.811C241.464 109.447 241.464 110.439 240.854 111.076C240.548 111.381 240.116 111.534 239.734 111.534H239.709ZM230.421 102.246C230.013 102.246 229.606 102.093 229.301 101.788L226.985 99.4719C226.349 98.8357 226.349 97.8433 226.985 97.2071C227.596 96.5709 228.614 96.5709 229.25 97.2071L231.566 99.5228C232.202 100.159 232.202 101.151 231.566 101.788C231.26 102.093 230.853 102.246 230.446 102.246H230.421Z" fill="#010F3F"/>
<path d="M348.646 222.736C348.239 222.736 347.832 222.583 347.526 222.278C346.89 221.667 346.89 220.649 347.526 220.013C346.89 219.402 346.89 218.384 347.526 217.748C348.137 217.137 349.155 217.137 349.791 217.748L350.936 218.868C351.547 219.504 351.547 220.496 350.936 221.133L349.791 222.252C349.486 222.558 349.079 222.71 348.672 222.71L348.646 222.736Z" fill="#010F3F"/>
<path d="M228.079 343.302C227.672 343.302 227.265 343.15 226.96 342.844C226.324 342.234 226.324 341.216 226.96 340.58L229.275 338.264C229.912 337.628 230.904 337.628 231.54 338.264C232.151 338.875 232.151 339.893 231.54 340.529L229.225 342.844C228.919 343.15 228.512 343.302 228.105 343.302H228.079ZM237.342 334.04C236.935 334.04 236.528 333.887 236.222 333.582C235.586 332.971 235.586 331.953 236.222 331.317L238.538 329.001C239.174 328.365 240.167 328.391 240.803 329.001C241.414 329.612 241.414 330.63 240.803 331.266L238.487 333.582C238.182 333.887 237.775 334.065 237.342 334.065V334.04ZM246.63 324.777C246.223 324.777 245.816 324.625 245.51 324.319C244.874 323.683 244.874 322.691 245.51 322.054L247.826 319.739C248.437 319.128 249.455 319.128 250.091 319.739C250.702 320.375 250.702 321.367 250.091 322.004L247.775 324.319C247.47 324.625 247.063 324.777 246.656 324.777H246.63ZM255.893 315.489C255.486 315.489 255.078 315.337 254.773 315.031C254.162 314.42 254.162 313.403 254.773 312.766L257.089 310.451C257.699 309.815 258.717 309.815 259.354 310.451C259.964 311.061 259.964 312.079 259.354 312.715L257.038 315.031C256.733 315.337 256.325 315.489 255.918 315.489H255.893ZM265.181 306.227C264.774 306.227 264.367 306.074 264.036 305.769C263.425 305.158 263.425 304.14 264.036 303.504L266.351 301.188C266.962 300.577 267.98 300.577 268.616 301.188C269.252 301.824 269.252 302.817 268.616 303.453L266.3 305.769C265.995 306.074 265.588 306.227 265.181 306.227ZM274.443 296.964C274.036 296.964 273.629 296.811 273.324 296.506C272.713 295.87 272.713 294.877 273.324 294.241L275.639 291.925C276.276 291.315 277.268 291.315 277.904 291.925C278.54 292.536 278.54 293.554 277.904 294.19L275.589 296.506C275.283 296.811 274.851 296.964 274.469 296.964H274.443ZM283.706 287.676C283.299 287.676 282.892 287.523 282.586 287.218C281.95 286.607 281.95 285.589 282.586 284.953L284.902 282.637C285.538 282.027 286.531 282.027 287.167 282.637C287.803 283.274 287.803 284.266 287.167 284.902L284.851 287.218C284.546 287.523 284.139 287.676 283.732 287.676H283.706ZM292.969 278.413C292.562 278.413 292.154 278.261 291.849 277.955C291.213 277.319 291.213 276.327 291.849 275.69L294.165 273.375C294.801 272.739 295.793 272.739 296.429 273.375C297.066 274.011 297.066 275.003 296.429 275.64L294.114 277.955C293.808 278.261 293.401 278.413 292.969 278.413ZM302.257 269.125C301.85 269.125 301.442 268.972 301.137 268.667C300.501 268.031 300.501 267.039 301.137 266.402L303.453 264.087C304.089 263.476 305.081 263.476 305.718 264.087C306.354 264.697 306.354 265.715 305.718 266.351L303.402 268.667C303.097 268.972 302.689 269.125 302.282 269.125H302.257ZM311.519 259.863C311.112 259.863 310.705 259.71 310.4 259.405C309.764 258.794 309.764 257.776 310.4 257.14L312.715 254.824C313.326 254.188 314.344 254.188 314.98 254.824C315.591 255.435 315.591 256.453 314.98 257.089L312.664 259.405C312.359 259.71 311.952 259.863 311.545 259.863H311.519ZM320.807 250.6C320.4 250.6 319.993 250.447 319.688 250.142C319.052 249.506 319.052 248.513 319.688 247.877L322.003 245.561C322.64 244.925 323.632 244.925 324.268 245.561C324.904 246.198 324.904 247.19 324.268 247.826L321.953 250.142C321.647 250.447 321.24 250.6 320.833 250.6H320.807ZM330.07 241.312C329.663 241.312 329.256 241.159 328.95 240.854C328.314 240.218 328.314 239.225 328.95 238.589L331.266 236.273C331.877 235.663 332.895 235.663 333.531 236.273C334.167 236.884 334.167 237.902 333.531 238.538L331.215 240.854C330.91 241.159 330.477 241.312 330.07 241.312ZM339.333 232.049C338.926 232.049 338.518 231.897 338.213 231.591C337.577 230.955 337.577 229.963 338.213 229.326L340.529 227.011C341.139 226.4 342.157 226.4 342.793 227.011C343.43 227.647 343.43 228.639 342.793 229.276L340.478 231.591C340.172 231.897 339.765 232.049 339.358 232.049H339.333Z" fill="#010F3F"/>
<path d="M220.013 351.369C219.606 351.369 219.199 351.216 218.893 350.911L217.774 349.766C217.137 349.155 217.137 348.137 217.774 347.501C218.41 346.89 219.402 346.89 220.038 347.501C220.674 346.89 221.667 346.89 222.303 347.501C222.939 348.137 222.939 349.13 222.303 349.766L221.183 350.911C220.878 351.216 220.471 351.369 220.064 351.369H220.013Z" fill="#010F3F"/>
<path d="M211.921 343.303C211.514 343.303 211.106 343.15 210.801 342.844L208.485 340.529C207.875 339.893 207.875 338.9 208.485 338.264C209.122 337.628 210.114 337.628 210.75 338.264L213.066 340.58C213.702 341.216 213.702 342.208 213.066 342.844C212.761 343.15 212.353 343.303 211.946 343.303H211.921ZM202.658 334.04C202.251 334.04 201.844 333.887 201.538 333.556L199.223 331.241C198.612 330.605 198.612 329.612 199.223 328.976C199.859 328.365 200.851 328.365 201.488 328.976L203.803 331.292C204.439 331.902 204.439 332.92 203.803 333.556C203.498 333.862 203.091 334.04 202.684 334.04H202.658ZM193.37 324.777C192.963 324.777 192.556 324.625 192.25 324.319L189.935 322.004C189.299 321.393 189.299 320.375 189.935 319.739C190.571 319.128 191.563 319.128 192.2 319.739L194.515 322.054C195.126 322.665 195.126 323.683 194.515 324.319C194.21 324.625 193.777 324.777 193.396 324.777H193.37ZM184.082 315.489C183.675 315.489 183.268 315.337 182.962 315.031L180.647 312.716C180.036 312.079 180.036 311.087 180.647 310.451C181.283 309.815 182.275 309.815 182.911 310.451L185.227 312.766C185.838 313.377 185.838 314.395 185.227 315.031C184.922 315.337 184.515 315.489 184.107 315.489H184.082ZM174.819 306.227C174.412 306.227 174.005 306.074 173.7 305.769L171.384 303.453C170.748 302.817 170.748 301.824 171.384 301.188C172.02 300.577 173.013 300.577 173.649 301.188L175.965 303.504C176.575 304.115 176.575 305.132 175.965 305.769C175.659 306.074 175.227 306.227 174.819 306.227ZM165.557 296.964C165.15 296.964 164.742 296.811 164.437 296.506L162.121 294.19C161.485 293.554 161.485 292.562 162.121 291.926C162.732 291.315 163.75 291.315 164.386 291.926L166.702 294.241C167.313 294.852 167.313 295.87 166.702 296.506C166.397 296.811 165.964 296.964 165.582 296.964H165.557ZM156.269 287.676C155.862 287.676 155.454 287.523 155.149 287.218L152.833 284.902C152.197 284.266 152.197 283.274 152.833 282.637C153.444 282.027 154.462 282.027 155.098 282.637L157.414 284.953C158.05 285.564 158.05 286.582 157.414 287.218C157.108 287.523 156.701 287.676 156.294 287.676H156.269ZM147.006 278.413C146.599 278.413 146.192 278.261 145.886 277.955L143.571 275.64C142.935 275.029 142.935 274.011 143.571 273.375C144.181 272.739 145.199 272.739 145.836 273.375L148.151 275.69C148.787 276.327 148.787 277.319 148.151 277.955C147.846 278.261 147.439 278.413 147.032 278.413H147.006ZM137.743 269.151C137.336 269.151 136.929 268.998 136.624 268.693L134.308 266.377C133.672 265.741 133.672 264.748 134.308 264.112C134.944 263.501 135.937 263.501 136.573 264.112L138.889 266.428C139.525 267.039 139.525 268.056 138.889 268.693C138.583 268.998 138.176 269.151 137.769 269.151H137.743ZM128.455 259.863C128.048 259.863 127.641 259.71 127.336 259.405L125.02 257.089C124.409 256.453 124.409 255.46 125.02 254.824C125.656 254.188 126.649 254.188 127.285 254.824L129.601 257.14C130.237 257.751 130.237 258.768 129.601 259.405C129.295 259.71 128.888 259.863 128.481 259.863H128.455ZM119.193 250.575C118.786 250.575 118.378 250.422 118.073 250.116L115.757 247.801C115.147 247.19 115.147 246.172 115.757 245.536C116.394 244.9 117.386 244.9 118.022 245.536L120.338 247.852C120.974 248.488 120.974 249.48 120.338 250.116C120.033 250.422 119.625 250.575 119.218 250.575H119.193ZM109.93 241.312C109.523 241.312 109.116 241.159 108.81 240.854L106.495 238.538C105.884 237.902 105.884 236.91 106.495 236.273C107.131 235.663 108.123 235.663 108.76 236.273L111.075 238.589C111.711 239.2 111.711 240.218 111.075 240.854C110.77 241.159 110.363 241.312 109.956 241.312H109.93ZM100.668 232.049C100.26 232.049 99.8532 231.897 99.5479 231.591L97.2322 229.276C96.6215 228.639 96.6215 227.647 97.2322 227.011C97.8684 226.375 98.8608 226.375 99.497 227.011L101.813 229.326C102.423 229.963 102.423 230.955 101.813 231.591C101.507 231.897 101.1 232.049 100.693 232.049H100.668Z" fill="#010F3F"/>
<path d="M2.72279 222.736C2.31564 222.736 1.90849 222.583 1.60313 222.278L0.483474 221.158C-0.152695 220.522 -0.152695 219.529 0.483474 218.893L1.60313 217.774C2.2393 217.137 3.23172 217.137 3.86789 217.774C4.50406 218.384 4.50406 219.402 3.86789 220.038C4.50406 220.674 4.50406 221.667 3.86789 222.303C3.56253 222.608 3.15539 222.761 2.74824 222.761L2.72279 222.736Z" fill="#010F3F"/>
<path d="M9.54254 213.651C9.1354 213.651 8.72825 213.498 8.42289 213.193C7.81216 212.582 7.81216 211.564 8.42289 210.928L10.6876 208.663C11.3238 208.053 12.3162 208.053 12.9524 208.663C13.5631 209.3 13.5631 210.292 12.9524 210.928L10.6876 213.193C10.3823 213.498 9.97514 213.651 9.56799 213.651H9.54254ZM18.6525 204.541C18.2453 204.541 17.8382 204.388 17.5328 204.083C16.8967 203.472 16.8967 202.454 17.5328 201.818L19.7976 199.553C20.4083 198.917 21.4262 198.917 22.0624 199.553C22.6731 200.19 22.6731 201.182 22.0624 201.818L19.7976 204.083C19.4922 204.388 19.0851 204.541 18.6525 204.541ZM27.7624 195.431C27.3553 195.431 26.9481 195.278 26.6428 194.973C26.0066 194.362 26.0066 193.344 26.6428 192.708L28.9075 190.443C29.5183 189.833 30.5361 189.833 31.1723 190.443C31.783 191.08 31.783 192.072 31.1723 192.708L28.9075 194.973C28.6022 195.278 28.195 195.431 27.7879 195.431H27.7624ZM36.8724 186.321C36.4652 186.321 36.0581 186.168 35.7527 185.863C35.1165 185.227 35.1165 184.234 35.7527 183.598L38.0175 181.334C38.6282 180.697 39.6461 180.697 40.2822 181.334C40.9184 181.944 40.9184 182.962 40.2822 183.598L38.0175 185.863C37.7121 186.168 37.305 186.321 36.8978 186.321H36.8724ZM45.9823 177.211C45.5752 177.211 45.168 177.058 44.8626 176.753C44.2265 176.142 44.2265 175.125 44.8626 174.488L47.1274 172.224C47.7636 171.587 48.756 171.587 49.3922 172.224C50.0029 172.834 50.0029 173.852 49.3922 174.488L47.1274 176.753C46.8221 177.058 46.4149 177.211 46.0078 177.211H45.9823ZM55.0923 168.101C54.6851 168.101 54.278 167.949 53.9726 167.643C53.3364 167.007 53.3364 166.015 53.9726 165.378L56.2374 163.114C56.8481 162.477 57.8659 162.477 58.5021 163.114C59.1383 163.724 59.1383 164.742 58.5021 165.378L56.2374 167.643C55.932 167.949 55.5248 168.101 55.1177 168.101H55.0923ZM64.2022 158.991C63.795 158.991 63.3879 158.839 63.0825 158.533C62.4464 157.897 62.4464 156.905 63.0825 156.268L65.3473 154.004C65.958 153.368 66.9759 153.368 67.6121 154.004C68.2482 154.64 68.2482 155.632 67.6121 156.268L65.3218 158.533C65.0165 158.839 64.6093 158.991 64.2022 158.991ZM73.3121 149.881C72.905 149.881 72.4978 149.729 72.1925 149.423C71.5563 148.813 71.5563 147.795 72.1925 147.159L74.4572 144.894C75.0934 144.258 76.0858 144.258 76.722 144.894C77.3582 145.53 77.3582 146.522 76.722 147.159L74.4572 149.423C74.1519 149.729 73.7447 149.881 73.3376 149.881H73.3121ZM82.4221 140.771C82.0149 140.771 81.6078 140.619 81.3024 140.313C80.6917 139.677 80.6917 138.685 81.3024 138.049L83.5672 135.784C84.2033 135.173 85.1958 135.173 85.8319 135.784C86.4681 136.395 86.4681 137.412 85.8319 138.049L83.5672 140.313C83.2618 140.619 82.8547 140.771 82.4475 140.771H82.4221ZM91.532 131.661C91.1249 131.661 90.7177 131.509 90.4124 131.203C89.7762 130.567 89.7762 129.575 90.4124 128.939L92.6771 126.674C93.3133 126.063 94.3057 126.063 94.9419 126.674C95.578 127.31 95.578 128.302 94.9419 128.939L92.6771 131.203C92.3717 131.509 91.9646 131.661 91.5575 131.661H91.532ZM100.642 122.552C100.235 122.552 99.8277 122.399 99.5223 122.093C98.8861 121.457 98.8861 120.465 99.5223 119.829L101.787 117.564C102.423 116.928 103.416 116.928 104.052 117.564C104.688 118.175 104.688 119.193 104.052 119.829L101.787 122.093C101.482 122.399 101.075 122.552 100.667 122.552H100.642ZM109.752 113.442C109.345 113.442 108.938 113.289 108.632 112.984C108.022 112.347 108.022 111.355 108.632 110.719L110.897 108.454C111.533 107.843 112.526 107.843 113.162 108.454C113.798 109.065 113.798 110.083 113.162 110.719L110.897 112.984C110.592 113.289 110.184 113.442 109.777 113.442H109.752ZM118.862 104.332C118.455 104.332 118.048 104.179 117.717 103.874C117.106 103.237 117.106 102.245 117.717 101.609L119.981 99.3441C120.618 98.7079 121.61 98.7079 122.246 99.3441C122.882 99.9802 122.882 100.973 122.246 101.609L119.981 103.874C119.676 104.179 119.269 104.332 118.862 104.332ZM127.972 95.2217C127.565 95.2217 127.157 95.069 126.852 94.7636C126.216 94.1275 126.216 93.135 126.852 92.4989L129.117 90.2341C129.753 89.598 130.745 89.598 131.382 90.2341C132.018 90.8448 132.018 91.8627 131.382 92.4989L129.117 94.7636C128.812 95.069 128.404 95.2217 127.997 95.2217H127.972ZM137.082 86.1118C136.675 86.1118 136.267 85.9591 135.962 85.6537C135.326 85.0175 135.326 84.0251 135.962 83.3889L138.227 81.1242C138.838 80.5135 139.855 80.5135 140.492 81.1242C141.102 81.7604 141.102 82.7528 140.492 83.3889L138.227 85.6537C137.921 85.9591 137.514 86.1118 137.107 86.1118H137.082ZM146.192 77.0018C145.785 77.0018 145.377 76.8491 145.072 76.5438C144.436 75.9076 144.436 74.9152 145.072 74.279L147.337 72.0142C147.947 71.3781 148.965 71.3781 149.602 72.0142C150.212 72.6504 150.212 73.6428 149.602 74.279L147.337 76.5438C147.031 76.8491 146.599 77.0018 146.192 77.0018ZM155.302 67.8919C154.894 67.8919 154.487 67.7392 154.182 67.4338C153.546 66.8231 153.546 65.8052 154.182 65.1691L156.447 62.9043C157.057 62.2936 158.075 62.2936 158.711 62.9043C159.322 63.5405 159.322 64.5329 158.711 65.1691L156.447 67.4338C156.141 67.7392 155.709 67.8919 155.327 67.8919H155.302ZM164.412 58.7819C164.004 58.7819 163.597 58.6292 163.292 58.3239C162.656 57.6877 162.656 56.6953 163.292 56.0591L165.582 53.7944C166.193 53.1582 167.211 53.1582 167.847 53.7944C168.458 54.4051 168.458 55.423 167.847 56.0591L165.582 58.3239C165.277 58.6292 164.87 58.7819 164.462 58.7819H164.412ZM173.496 49.672C173.089 49.672 172.682 49.5193 172.376 49.2139C171.766 48.6032 171.766 47.5854 172.376 46.9492L174.641 44.6844C175.277 44.0737 176.27 44.0737 176.906 44.6844C177.542 45.3206 177.542 46.313 176.906 46.9492L174.641 49.2139C174.336 49.5193 173.929 49.672 173.521 49.672H173.496ZM182.606 40.562C182.199 40.562 181.792 40.4094 181.461 40.104C180.85 39.4678 180.85 38.4754 181.461 37.8392L183.726 35.5745C184.362 34.9383 185.354 34.9383 185.99 35.5745C186.627 36.1852 186.627 37.2031 185.99 37.8392L183.726 40.104C183.42 40.4094 183.013 40.562 182.606 40.562ZM191.716 31.4521C191.309 31.4521 190.902 31.2994 190.596 30.9941C189.986 30.3579 189.986 29.3655 190.596 28.7293L192.861 26.4645C193.497 25.8284 194.49 25.8284 195.126 26.4645C195.762 27.0753 195.762 28.0931 195.126 28.7293L192.861 30.9941C192.556 31.2994 192.149 31.4521 191.741 31.4521H191.716ZM200.826 22.3422C200.419 22.3422 200.012 22.1895 199.706 21.8841C199.07 21.2734 199.07 20.2555 199.706 19.6194L201.971 17.3546C202.607 16.7439 203.6 16.7439 204.236 17.3546C204.872 17.9908 204.872 18.9832 204.236 19.6194L201.971 21.8841C201.666 22.1895 201.258 22.3422 200.851 22.3422H200.826ZM209.936 13.2322C209.529 13.2322 209.122 13.0795 208.816 12.7742C208.205 12.1635 208.205 11.1456 208.816 10.5094L211.081 8.24466C211.717 7.63394 212.71 7.63394 213.346 8.24466C213.982 8.85539 213.982 9.87326 213.346 10.5094L211.081 12.7742C210.776 13.0795 210.343 13.2322 209.961 13.2322H209.936Z" fill="#010F3F"/>
<path d="M221.133 4.32594C220.725 4.32594 220.318 4.17326 220.013 3.86789C219.377 4.50406 218.384 4.50406 217.748 3.86789C217.112 3.25717 217.112 2.2393 217.748 1.60313L218.868 0.483474C219.479 -0.152695 220.496 -0.152695 221.107 0.483474L222.227 1.60313C222.863 2.2393 222.863 3.23172 222.227 3.86789C221.921 4.17326 221.514 4.32594 221.107 4.32594H221.133Z" fill="#010F3F"/>
<path d="M430.458 213.651C430.051 213.651 429.643 213.499 429.338 213.193L427.073 210.928C426.463 210.318 426.463 209.3 427.073 208.664C427.709 208.028 428.702 208.028 429.338 208.664L431.603 210.928C432.213 211.539 432.213 212.557 431.603 213.193C431.297 213.499 430.89 213.651 430.483 213.651H430.458ZM421.373 204.541C420.966 204.541 420.559 204.389 420.253 204.083L417.989 201.818C417.353 201.182 417.353 200.19 417.989 199.554C418.625 198.918 419.617 198.918 420.253 199.554L422.518 201.818C423.154 202.429 423.154 203.447 422.518 204.083C422.213 204.389 421.78 204.541 421.399 204.541H421.373ZM412.263 195.431C411.856 195.431 411.449 195.279 411.144 194.973L408.879 192.709C408.243 192.098 408.243 191.08 408.879 190.444C409.515 189.833 410.507 189.833 411.144 190.444L413.408 192.709C414.044 193.319 414.044 194.337 413.408 194.973C413.103 195.279 412.696 195.431 412.289 195.431H412.263ZM403.153 186.321C402.746 186.321 402.339 186.169 402.034 185.863L399.769 183.599C399.158 182.988 399.158 181.97 399.769 181.334C400.405 180.723 401.397 180.723 402.034 181.334L404.298 183.599C404.935 184.209 404.935 185.227 404.298 185.863C403.993 186.169 403.586 186.321 403.179 186.321H403.153ZM394.043 177.211C393.636 177.211 393.229 177.059 392.924 176.753L390.659 174.489C390.048 173.878 390.048 172.86 390.659 172.224C391.295 171.613 392.288 171.613 392.924 172.224L395.188 174.489C395.825 175.099 395.825 176.117 395.188 176.753C394.883 177.059 394.476 177.211 394.069 177.211H394.043ZM384.933 168.102C384.526 168.102 384.119 167.949 383.814 167.643L381.549 165.379C380.913 164.743 380.913 163.75 381.549 163.114C382.185 162.478 383.178 162.478 383.814 163.114L386.078 165.379C386.715 165.989 386.715 167.007 386.078 167.643C385.773 167.949 385.366 168.102 384.959 168.102H384.933ZM375.823 158.992C375.416 158.992 375.009 158.839 374.704 158.534L372.439 156.269C371.828 155.658 371.828 154.64 372.439 154.004C373.075 153.393 374.068 153.393 374.704 154.004L376.969 156.269C377.579 156.905 377.579 157.897 376.969 158.534C376.663 158.839 376.256 158.992 375.849 158.992H375.823ZM366.714 149.882C366.306 149.882 365.899 149.729 365.594 149.424L363.329 147.159C362.693 146.523 362.693 145.53 363.329 144.894C363.965 144.258 364.958 144.258 365.594 144.894L367.859 147.159C368.495 147.77 368.495 148.787 367.859 149.424C367.553 149.729 367.146 149.882 366.739 149.882H366.714ZM357.604 140.772C357.196 140.772 356.789 140.619 356.484 140.314L354.219 138.049C353.583 137.413 353.583 136.42 354.219 135.784C354.83 135.148 355.848 135.148 356.484 135.784L358.749 138.049C359.359 138.66 359.359 139.678 358.749 140.314C358.443 140.619 358.036 140.772 357.629 140.772H357.604ZM348.494 131.662C348.086 131.662 347.679 131.509 347.374 131.204L345.109 128.939C344.473 128.328 344.473 127.31 345.109 126.674C345.745 126.063 346.738 126.063 347.374 126.674L349.639 128.939C350.249 129.575 350.249 130.568 349.639 131.204C349.333 131.509 348.926 131.662 348.519 131.662H348.494ZM339.384 122.552C338.977 122.552 338.569 122.399 338.264 122.094L335.999 119.804C335.389 119.193 335.389 118.175 335.999 117.539C336.635 116.903 337.628 116.903 338.264 117.539L340.529 119.804C341.165 120.414 341.165 121.432 340.529 122.068C340.223 122.374 339.816 122.526 339.409 122.526L339.384 122.552ZM330.274 113.442C329.867 113.442 329.459 113.289 329.154 112.984L326.889 110.719C326.279 110.108 326.279 109.09 326.889 108.454C327.5 107.844 328.518 107.844 329.154 108.454L331.419 110.719C332.03 111.33 332.03 112.348 331.419 112.984C331.113 113.289 330.681 113.442 330.299 113.442H330.274ZM321.164 104.332C320.757 104.332 320.349 104.179 320.044 103.874L317.779 101.584C317.143 100.948 317.143 99.9551 317.779 99.3189C318.416 98.6828 319.408 98.6828 320.044 99.3189L322.309 101.584C322.92 102.22 322.92 103.212 322.309 103.848C322.004 104.154 321.571 104.307 321.164 104.307V104.332ZM312.054 95.222C311.647 95.222 311.24 95.0693 310.934 94.764L308.669 92.4992C308.033 91.8885 308.033 90.8706 308.669 90.2344C309.306 89.6237 310.298 89.6237 310.934 90.2344L313.199 92.4992C313.835 93.1354 313.835 94.1278 313.199 94.764C312.894 95.0693 312.486 95.222 312.079 95.222H312.054ZM302.944 86.1121C302.537 86.1121 302.13 85.9594 301.824 85.654L299.559 83.3893C298.949 82.7531 298.949 81.7607 299.559 81.1245C300.196 80.5138 301.188 80.5138 301.824 81.1245L304.089 83.3893C304.725 84 304.725 85.0179 304.089 85.654C303.784 85.9594 303.376 86.1121 302.969 86.1121H302.944ZM293.834 77.0021C293.427 77.0021 293.02 76.8494 292.689 76.5441L290.424 74.2793C289.813 73.6432 289.813 72.6507 290.424 72.0146C291.06 71.4038 292.053 71.4038 292.689 72.0146L294.954 74.2793C295.59 74.9155 295.59 75.9079 294.954 76.5441C294.648 76.8494 294.241 77.0021 293.834 77.0021ZM284.724 67.8922C284.317 67.8922 283.91 67.7395 283.604 67.4341L281.34 65.1694C280.729 64.5587 280.729 63.5408 281.34 62.9046C281.976 62.2685 282.968 62.2685 283.604 62.9046L285.869 65.1694C286.505 65.8056 286.505 66.798 285.869 67.4341C285.564 67.7395 285.157 67.8922 284.749 67.8922H284.724ZM275.64 58.7822C275.232 58.7822 274.825 58.6296 274.52 58.3242L272.255 56.0594C271.619 55.4487 271.619 54.4309 272.255 53.7947C272.891 53.1585 273.884 53.1585 274.52 53.7947L276.785 56.0594C277.421 56.6702 277.421 57.688 276.785 58.3242C276.479 58.6296 276.072 58.7822 275.665 58.7822H275.64ZM266.53 49.6723C266.122 49.6723 265.715 49.5196 265.41 49.2143L263.145 46.9495C262.509 46.3388 262.509 45.3209 263.145 44.6847C263.756 44.0486 264.774 44.0486 265.41 44.6847L267.675 46.9495C268.285 47.5857 268.285 48.5781 267.675 49.2143C267.369 49.5196 266.937 49.6723 266.555 49.6723H266.53ZM257.42 40.5624C257.013 40.5624 256.605 40.4097 256.3 40.1043L254.035 37.8396C253.399 37.2034 253.399 36.211 254.035 35.5748C254.671 34.9641 255.664 34.9641 256.3 35.5748L258.565 37.8396C259.175 38.4503 259.175 39.4682 258.565 40.1043C258.259 40.4097 257.827 40.5624 257.42 40.5624ZM248.31 31.4524C247.903 31.4524 247.495 31.2997 247.19 30.9944L244.925 28.7296C244.289 28.0935 244.289 27.101 244.925 26.4649C245.536 25.8541 246.554 25.8541 247.19 26.4649L249.455 28.7296C250.066 29.3658 250.066 30.3582 249.455 30.9944C249.149 31.2997 248.742 31.4524 248.335 31.4524H248.31ZM239.2 22.3425C238.793 22.3425 238.385 22.1898 238.08 21.8844L235.815 19.6197C235.179 18.9835 235.179 17.9911 235.815 17.3549C236.452 16.7442 237.444 16.7442 238.08 17.3549L240.345 19.6197C240.981 20.2304 240.981 21.2483 240.345 21.8844C240.04 22.1898 239.632 22.3425 239.225 22.3425H239.2ZM230.09 13.2325C229.683 13.2325 229.276 13.0799 228.97 12.7745L226.705 10.5097C226.069 9.87357 226.069 8.88115 226.705 8.24498C227.342 7.60881 228.334 7.63425 228.97 8.24498L231.235 10.5097C231.846 11.1459 231.846 12.1383 231.235 12.7745C230.93 13.0799 230.522 13.2325 230.115 13.2325H230.09Z" fill="#010F3F"/>
<path d="M437.277 222.736C436.87 222.736 436.463 222.583 436.158 222.278C435.521 221.667 435.521 220.649 436.158 220.013C435.521 219.402 435.521 218.384 436.158 217.748C436.794 217.137 437.786 217.137 438.422 217.748L439.542 218.868C440.178 219.504 440.178 220.496 439.542 221.133L438.422 222.252C438.117 222.558 437.71 222.71 437.303 222.71L437.277 222.736Z" fill="#010F3F"/>
<path d="M227.978 432.061C227.57 432.061 227.163 431.908 226.858 431.603C226.222 430.966 226.222 429.974 226.858 429.338L229.123 427.073C229.759 426.437 230.751 426.437 231.388 427.073C231.998 427.684 231.998 428.702 231.388 429.338L229.123 431.603C228.817 431.908 228.41 432.061 228.003 432.061H227.978ZM237.088 422.951C236.68 422.951 236.273 422.798 235.968 422.493C235.332 421.856 235.332 420.864 235.968 420.228L238.233 417.963C238.869 417.327 239.861 417.327 240.497 417.963C241.134 418.574 241.134 419.592 240.497 420.202L238.233 422.493C237.927 422.798 237.52 422.951 237.113 422.951H237.088ZM246.198 413.841C245.79 413.841 245.383 413.688 245.078 413.383C244.442 412.772 244.442 411.754 245.078 411.118L247.343 408.853C247.953 408.242 248.971 408.242 249.607 408.853C250.218 409.489 250.218 410.482 249.607 411.118L247.343 413.383C247.037 413.688 246.63 413.841 246.198 413.841ZM255.307 404.731C254.9 404.731 254.493 404.578 254.188 404.273C253.552 403.637 253.552 402.644 254.188 402.008L256.453 399.743C257.063 399.132 258.081 399.132 258.717 399.743C259.328 400.354 259.328 401.372 258.717 402.008L256.453 404.273C256.147 404.578 255.715 404.731 255.333 404.731H255.307ZM264.417 395.621C264.01 395.621 263.603 395.468 263.298 395.163C262.662 394.552 262.662 393.534 263.298 392.898L265.563 390.633C266.173 390.023 267.191 390.023 267.827 390.633C268.438 391.269 268.438 392.262 267.827 392.898L265.563 395.163C265.257 395.468 264.825 395.621 264.443 395.621H264.417ZM273.527 386.536C273.12 386.536 272.713 386.384 272.408 386.078C271.772 385.442 271.772 384.45 272.408 383.814L274.672 381.549C275.309 380.913 276.301 380.913 276.937 381.549C277.573 382.159 277.573 383.177 276.937 383.814L274.672 386.078C274.367 386.384 273.96 386.536 273.553 386.536H273.527ZM282.612 377.426C282.205 377.426 281.798 377.274 281.492 376.968C280.881 376.358 280.881 375.34 281.492 374.704L283.757 372.439C284.393 371.828 285.386 371.828 286.022 372.439C286.658 373.075 286.658 374.067 286.022 374.704L283.757 376.968C283.452 377.274 283.044 377.426 282.637 377.426H282.612ZM291.722 368.316C291.315 368.316 290.907 368.164 290.602 367.858C289.991 367.248 289.991 366.23 290.602 365.594L292.867 363.329C293.503 362.718 294.495 362.718 295.132 363.329C295.768 363.965 295.768 364.957 295.132 365.594L292.867 367.858C292.562 368.164 292.154 368.316 291.747 368.316H291.722ZM300.832 359.207C300.425 359.207 300.017 359.054 299.687 358.748C299.076 358.138 299.076 357.12 299.687 356.484L301.951 354.219C302.588 353.583 303.58 353.583 304.216 354.219C304.852 354.83 304.852 355.848 304.216 356.484L301.951 358.748C301.646 359.054 301.239 359.207 300.832 359.207ZM309.942 350.097C309.535 350.097 309.127 349.944 308.822 349.639C308.186 349.002 308.186 348.01 308.822 347.374L311.087 345.109C311.723 344.498 312.715 344.498 313.352 345.109C313.988 345.72 313.988 346.738 313.352 347.374L311.087 349.639C310.781 349.944 310.374 350.097 309.967 350.097H309.942ZM319.052 340.987C318.644 340.987 318.237 340.834 317.932 340.529C317.296 339.892 317.296 338.9 317.932 338.264L320.197 335.999C320.833 335.363 321.825 335.363 322.461 335.999C323.098 336.635 323.072 337.628 322.461 338.264L320.197 340.529C319.891 340.834 319.484 340.987 319.052 340.987ZM328.162 331.877C327.754 331.877 327.347 331.724 327.042 331.419C326.406 330.808 326.406 329.79 327.042 329.154L329.307 326.889C329.943 326.278 330.935 326.278 331.571 326.889C332.208 327.525 332.208 328.518 331.571 329.154L329.307 331.419C329.001 331.724 328.594 331.877 328.187 331.877H328.162ZM337.271 322.767C336.864 322.767 336.457 322.614 336.152 322.309C335.516 321.698 335.516 320.68 336.152 320.044L338.417 317.779C339.053 317.168 340.045 317.168 340.681 317.779C341.292 318.39 341.292 319.408 340.681 320.044L338.391 322.309C338.086 322.614 337.679 322.767 337.271 322.767ZM346.381 313.657C345.974 313.657 345.567 313.504 345.262 313.199C344.626 312.588 344.626 311.57 345.262 310.934L347.527 308.669C348.137 308.059 349.155 308.059 349.791 308.669C350.427 309.305 350.427 310.298 349.791 310.934L347.527 313.199C347.221 313.504 346.814 313.657 346.381 313.657ZM355.491 304.547C355.084 304.547 354.677 304.394 354.372 304.089C353.736 303.478 353.736 302.46 354.372 301.85L356.636 299.559C357.273 298.949 358.265 298.949 358.901 299.559C359.512 300.195 359.512 301.188 358.901 301.824L356.636 304.089C356.331 304.394 355.924 304.547 355.517 304.547H355.491ZM364.601 295.437C364.194 295.437 363.787 295.284 363.482 294.979C362.845 294.368 362.845 293.35 363.482 292.714L365.746 290.449C366.357 289.839 367.375 289.839 368.011 290.449C368.647 291.086 368.647 292.078 368.011 292.714L365.746 294.979C365.441 295.284 365.034 295.437 364.627 295.437H364.601ZM373.711 286.327C373.304 286.327 372.897 286.174 372.592 285.869C371.981 285.233 371.981 284.24 372.592 283.604L374.856 281.339C375.493 280.703 376.485 280.703 377.121 281.339C377.732 281.95 377.732 282.968 377.121 283.604L374.856 285.869C374.551 286.174 374.118 286.327 373.737 286.327H373.711ZM382.821 277.217C382.414 277.217 382.007 277.064 381.702 276.759C381.065 276.148 381.065 275.13 381.702 274.494L383.966 272.229C384.577 271.619 385.595 271.619 386.231 272.229C386.867 272.866 386.867 273.858 386.231 274.494L383.966 276.759C383.661 277.064 383.228 277.217 382.847 277.217H382.821ZM391.931 268.107C391.524 268.107 391.117 267.954 390.811 267.649C390.201 267.038 390.201 266.02 390.811 265.384L393.076 263.12C393.712 262.509 394.705 262.509 395.341 263.12C395.977 263.73 395.977 264.748 395.341 265.384L393.076 267.649C392.771 267.954 392.364 268.107 391.957 268.107H391.931ZM401.041 258.997C400.634 258.997 400.227 258.844 399.896 258.539C399.285 257.928 399.285 256.911 399.896 256.274L402.161 254.01C402.797 253.373 403.789 253.373 404.425 254.01C405.062 254.646 405.062 255.638 404.425 256.274L402.161 258.539C401.855 258.844 401.423 258.997 401.041 258.997ZM410.126 249.887C409.718 249.887 409.311 249.735 409.006 249.429C408.395 248.793 408.395 247.801 409.006 247.164L411.271 244.9C411.907 244.263 412.899 244.263 413.535 244.9C414.172 245.51 414.172 246.528 413.535 247.164L411.271 249.429C410.965 249.735 410.558 249.887 410.151 249.887H410.126ZM419.236 240.777C418.828 240.777 418.421 240.625 418.116 240.319C417.505 239.683 417.505 238.691 418.116 238.054L420.381 235.79C421.017 235.154 422.009 235.154 422.645 235.79C423.256 236.4 423.256 237.418 422.645 238.054L420.381 240.345C420.075 240.65 419.668 240.803 419.261 240.803L419.236 240.777ZM428.345 231.667C427.938 231.667 427.531 231.515 427.2 231.209C426.59 230.573 426.59 229.581 427.2 228.945L429.465 226.68C430.076 226.044 431.094 226.044 431.73 226.68C432.341 227.29 432.341 228.308 431.73 228.945L429.465 231.209C429.16 231.515 428.753 231.667 428.345 231.667Z" fill="#010F3F"/>
<path d="M220.013 440C219.606 440 219.199 439.848 218.893 439.542L217.774 438.423C217.137 437.812 217.137 436.794 217.774 436.158C218.41 435.522 219.402 435.522 220.038 436.158C220.674 435.522 221.667 435.522 222.303 436.158C222.939 436.769 222.939 437.786 222.303 438.423L221.183 439.542C220.878 439.848 220.471 440 220.064 440H220.013Z" fill="#010F3F"/>
<path d="M212.048 432.06C211.641 432.06 211.234 431.908 210.928 431.602L208.663 429.338C208.053 428.702 208.053 427.709 208.663 427.073C209.3 426.437 210.292 426.437 210.928 427.073L213.193 429.338C213.829 429.974 213.829 430.966 213.193 431.602C212.888 431.908 212.48 432.06 212.073 432.06H212.048ZM202.938 422.951C202.531 422.951 202.124 422.798 201.818 422.492L199.554 420.228C198.917 419.617 198.917 418.599 199.554 417.963C200.19 417.327 201.182 417.327 201.818 417.963L204.083 420.228C204.719 420.838 204.719 421.856 204.083 422.492C203.778 422.798 203.371 422.951 202.963 422.951H202.938ZM193.853 413.841C193.446 413.841 193.039 413.688 192.708 413.383L190.444 411.118C189.833 410.507 189.833 409.489 190.444 408.853C191.08 408.242 192.072 408.242 192.708 408.853L194.973 411.143C195.609 411.754 195.609 412.772 194.973 413.383C194.668 413.688 194.261 413.841 193.853 413.841ZM184.744 404.756C184.336 404.756 183.929 404.603 183.624 404.298L181.359 402.033C180.723 401.397 180.723 400.405 181.359 399.769C181.995 399.158 182.988 399.158 183.624 399.769L185.889 402.033C186.525 402.644 186.525 403.662 185.889 404.298C185.583 404.603 185.176 404.756 184.769 404.756H184.744ZM175.634 395.646C175.226 395.646 174.819 395.493 174.514 395.188L172.249 392.923C171.613 392.287 171.613 391.295 172.249 390.659C172.86 390.048 173.878 390.048 174.514 390.659L176.779 392.923C177.415 393.56 177.415 394.552 176.779 395.188C176.473 395.493 176.041 395.646 175.659 395.646H175.634ZM166.524 386.536C166.117 386.536 165.709 386.384 165.404 386.078L163.114 383.813C162.478 383.203 162.478 382.185 163.114 381.549C163.75 380.938 164.742 380.938 165.379 381.549L167.643 383.813C168.254 384.424 168.254 385.442 167.643 386.078C167.338 386.384 166.931 386.536 166.524 386.536ZM157.414 377.426C157.007 377.426 156.599 377.274 156.294 376.968L154.029 374.703C153.393 374.067 153.393 373.075 154.029 372.439C154.64 371.803 155.658 371.803 156.294 372.439L158.559 374.703C159.17 375.34 159.17 376.332 158.559 376.968C158.253 377.274 157.846 377.426 157.439 377.426H157.414ZM148.304 368.316C147.897 368.316 147.489 368.164 147.184 367.858L144.919 365.594C144.283 364.957 144.283 363.965 144.919 363.329C145.53 362.718 146.548 362.718 147.184 363.329L149.449 365.594C150.06 366.23 150.06 367.222 149.449 367.858C149.144 368.164 148.736 368.316 148.329 368.316H148.304ZM139.194 359.206C138.787 359.206 138.38 359.054 138.074 358.748L135.809 356.484C135.173 355.873 135.173 354.855 135.809 354.219C136.42 353.583 137.438 353.583 138.074 354.219L140.339 356.484C140.95 357.12 140.95 358.112 140.339 358.748C140.034 359.054 139.626 359.206 139.194 359.206ZM130.084 350.122C129.677 350.122 129.27 349.969 128.964 349.638L126.699 347.374C126.063 346.763 126.063 345.745 126.699 345.134C127.336 344.498 128.328 344.498 128.964 345.134L131.229 347.399C131.865 348.035 131.865 349.028 131.229 349.664C130.924 349.969 130.516 350.147 130.109 350.147L130.084 350.122ZM120.974 341.012C120.567 341.012 120.16 340.859 119.854 340.554L117.59 338.289C116.953 337.678 116.953 336.661 117.59 336.024C118.226 335.414 119.218 335.414 119.854 336.024L122.119 338.289C122.755 338.9 122.755 339.918 122.119 340.554C121.814 340.859 121.407 341.012 120.999 341.012H120.974ZM111.864 331.902C111.457 331.902 111.05 331.749 110.744 331.444L108.48 329.179C107.869 328.569 107.869 327.551 108.48 326.914C109.116 326.304 110.108 326.304 110.744 326.914L113.009 329.179C113.645 329.815 113.645 330.808 113.009 331.444C112.704 331.749 112.297 331.902 111.889 331.902H111.864ZM102.754 322.792C102.347 322.792 101.94 322.639 101.634 322.334L99.3696 320.069C98.7335 319.459 98.7335 318.441 99.3696 317.805C100.006 317.194 100.998 317.194 101.634 317.805L103.899 320.069C104.535 320.68 104.535 321.698 103.899 322.334C103.594 322.639 103.187 322.792 102.78 322.792H102.754ZM93.6441 313.682C93.237 313.682 92.8298 313.529 92.499 313.224L90.2343 310.959C89.5981 310.323 89.5981 309.331 90.2343 308.695C90.8704 308.084 91.8628 308.084 92.499 308.695L94.7638 310.985C95.4 311.596 95.4 312.613 94.7638 313.224C94.4584 313.529 94.0513 313.682 93.6441 313.682ZM84.5342 304.572C84.127 304.572 83.7199 304.42 83.4145 304.114L81.1498 301.849C80.539 301.239 80.539 300.221 81.1498 299.585C81.7859 298.974 82.7784 298.974 83.4145 299.585L85.6793 301.849C86.3155 302.486 86.3155 303.478 85.6793 304.114C85.3739 304.42 84.9668 304.572 84.5596 304.572H84.5342ZM75.4242 295.462C75.0171 295.462 74.61 295.31 74.3046 295.004L72.0398 292.739C71.4037 292.103 71.4037 291.111 72.0398 290.475C72.676 289.839 73.6684 289.839 74.3046 290.475L76.5694 292.739C77.2055 293.35 77.2055 294.368 76.5694 295.004C76.264 295.31 75.8568 295.462 75.4497 295.462H75.4242ZM66.3143 286.352C65.9072 286.352 65.5 286.2 65.1947 285.894L62.9299 283.63C62.2937 283.019 62.2937 282.001 62.9299 281.365C63.5661 280.729 64.5585 280.754 65.1692 281.365L67.4594 283.63C68.0956 284.266 68.0956 285.258 67.4594 285.894C67.1541 286.2 66.7469 286.352 66.3398 286.352H66.3143ZM57.2298 277.242C56.8227 277.242 56.4155 277.09 56.1102 276.784L53.8454 274.52C53.2092 273.909 53.2092 272.891 53.8454 272.255C54.4816 271.619 55.474 271.619 56.1102 272.255L58.3749 274.52C59.0111 275.156 59.0111 276.148 58.3749 276.784C58.0696 277.09 57.6624 277.242 57.2553 277.242H57.2298ZM48.1199 268.132C47.7127 268.132 47.3056 267.98 47.0002 267.674L44.7355 265.41C44.0993 264.773 44.0993 263.781 44.7355 263.145C45.3462 262.509 46.364 262.509 47.0002 263.145L49.265 265.41C49.8757 266.02 49.8757 267.038 49.265 267.674C48.9596 267.98 48.527 268.132 48.1453 268.132H48.1199ZM39.0099 259.023C38.6028 259.023 38.1956 258.87 37.8903 258.564L35.6255 256.3C34.9893 255.689 34.9893 254.671 35.6255 254.035C36.2362 253.424 37.2541 253.424 37.8903 254.035L40.155 256.3C40.7912 256.936 40.7912 257.928 40.155 258.564C39.8497 258.87 39.4425 259.023 39.0354 259.023H39.0099ZM29.9 249.913C29.4928 249.913 29.0857 249.76 28.7803 249.455L26.5156 247.19C25.8794 246.554 25.8794 245.561 26.5156 244.925C27.1263 244.289 28.1442 244.289 28.7803 244.925L31.0451 247.19C31.6558 247.8 31.6558 248.818 31.0451 249.455C30.7397 249.76 30.3326 249.913 29.9254 249.913H29.9ZM20.79 240.803C20.3829 240.803 19.9758 240.65 19.6704 240.345L17.4056 238.08C16.7695 237.444 16.7695 236.451 17.4056 235.815C18.0164 235.204 19.0342 235.204 19.6704 235.815L21.9352 238.08C22.5459 238.716 22.5459 239.708 21.9352 240.345C21.6298 240.65 21.2226 240.803 20.8155 240.803H20.79ZM11.6801 231.693C11.273 231.693 10.8658 231.54 10.5605 231.235L8.29569 228.97C7.68497 228.334 7.68497 227.341 8.29569 226.705C8.93186 226.094 9.92428 226.094 10.5605 226.705L12.8252 228.97C13.4359 229.606 13.4359 230.598 12.8252 231.235C12.5199 231.54 12.1127 231.693 11.6801 231.693Z" fill="#010F3F"/>
<path d="M318.288 319.891H121.712C121.203 319.891 120.72 319.637 120.414 319.23C120.109 318.822 120.033 318.263 120.185 317.779L218.486 22.902C218.919 21.6043 221.082 21.6043 221.514 22.902L319.815 317.779C319.968 318.263 319.891 318.797 319.586 319.23C319.281 319.637 318.797 319.891 318.288 319.891ZM123.926 316.685H316.1L220.013 28.4494L123.926 316.685Z" fill="#010F3F"/>
<path d="M121.712 319.891C121.381 319.891 121.05 319.79 120.77 319.586C120.363 319.281 120.109 318.797 120.109 318.288V121.712C120.109 121.203 120.363 120.72 120.77 120.414C121.178 120.109 121.712 120.033 122.196 120.185L417.073 218.486C417.734 218.69 418.167 219.3 418.167 219.987C418.167 220.674 417.734 221.285 417.073 221.514L122.196 319.79C122.043 319.841 121.865 319.866 121.687 319.866L121.712 319.891ZM123.315 123.926V316.074L411.551 220.013L123.315 123.926Z" fill="#010F3F"/>
<path d="M318.288 319.892C318.11 319.892 317.957 319.892 317.779 319.815L22.9021 221.514C22.2659 221.285 21.8079 220.7 21.8079 219.988C21.8079 219.275 22.2405 218.69 22.9021 218.486L317.779 120.185C318.263 120.007 318.797 120.109 319.23 120.414C319.637 120.72 319.891 121.203 319.891 121.712V318.314C319.891 318.823 319.662 319.306 319.23 319.612C318.95 319.815 318.619 319.917 318.288 319.917V319.892ZM28.4749 219.988L316.71 316.075V123.926L28.4749 219.988Z" fill="#010F3F"/>
<path d="M220.013 418.192C219.326 418.192 218.715 417.76 218.486 417.098L120.185 122.221C120.033 121.737 120.109 121.203 120.414 120.796C120.72 120.389 121.203 120.134 121.712 120.134H318.288C318.797 120.134 319.281 120.389 319.586 120.796C319.891 121.203 319.968 121.737 319.815 122.221L221.54 417.098C221.311 417.76 220.7 418.192 220.013 418.192ZM123.926 123.29L220.013 411.525L316.074 123.29H123.926Z" fill="#010F3F"/>
</g>
</svg>
