<svg width="372" height="371" viewBox="0 0 372 371" fill="none" xmlns="http://www.w3.org/2000/svg">
<g opacity="0.5">
<path d="M185.226 369.682C185.226 369.325 185.515 369.038 185.872 369.038C186.229 369.038 186.502 369.325 186.502 369.682C186.502 370.02 186.229 370.31 185.872 370.31C185.515 370.31 185.226 370.022 185.226 369.682ZM180.76 370.241C180.402 370.241 180.13 369.935 180.13 369.597C180.148 369.24 180.437 368.969 180.792 368.969C181.131 368.985 181.421 369.275 181.403 369.629C181.403 369.967 181.115 370.238 180.773 370.238H180.757L180.76 370.241ZM190.323 369.631C190.323 369.275 190.595 368.987 190.952 368.971C191.31 368.953 191.598 369.243 191.598 369.581C191.616 369.937 191.326 370.225 190.987 370.241H190.968C190.629 370.241 190.341 369.969 190.323 369.631ZM175.647 370.038C175.29 370.022 175.02 369.716 175.052 369.378C175.068 369.022 175.356 368.753 175.714 368.769C176.071 368.787 176.343 369.091 176.325 369.447C176.29 369.785 176.018 370.041 175.679 370.041H175.645L175.647 370.038ZM195.419 369.429C195.403 369.091 195.673 368.785 196.03 368.769C196.369 368.753 196.676 369.006 196.692 369.362C196.711 369.719 196.438 370.006 196.097 370.041H196.063C195.724 370.041 195.435 369.769 195.417 369.431L195.419 369.429ZM170.553 369.7C170.195 369.666 169.942 369.362 169.958 369.006C169.993 368.668 170.297 368.396 170.654 368.431C170.993 368.465 171.265 368.769 171.233 369.109C171.215 369.447 170.926 369.703 170.604 369.703H170.553V369.7ZM200.516 369.107C200.481 368.75 200.737 368.447 201.094 368.412C201.433 368.396 201.756 368.649 201.775 369.006C201.809 369.344 201.553 369.666 201.196 369.684H201.145C200.806 369.684 200.534 369.431 200.516 369.109V369.107ZM165.456 369.208C165.099 369.174 164.862 368.852 164.896 368.514C164.931 368.157 165.254 367.92 165.593 367.955C165.95 367.989 166.204 368.293 166.153 368.649C166.118 368.971 165.849 369.208 165.523 369.208H165.456ZM205.577 368.631C205.543 368.293 205.799 367.971 206.138 367.936C206.495 367.886 206.818 368.139 206.85 368.495C206.885 368.852 206.629 369.155 206.29 369.19C206.255 369.208 206.239 369.208 206.223 369.208C205.9 369.208 205.612 368.953 205.577 368.631ZM160.379 368.58C160.04 368.546 159.784 368.224 159.834 367.87C159.885 367.532 160.208 367.276 160.547 367.327C160.904 367.377 161.142 367.699 161.091 368.04C161.057 368.362 160.784 368.599 160.462 368.599C160.445 368.599 160.411 368.599 160.376 368.583L160.379 368.58ZM210.639 368.021C210.588 367.683 210.842 367.361 211.183 367.311C211.541 367.26 211.864 367.513 211.896 367.854C211.947 368.21 211.709 368.532 211.352 368.564C211.336 368.583 211.301 368.583 211.266 368.583C210.96 368.583 210.69 368.346 210.637 368.024L210.639 368.021ZM155.333 367.835C154.975 367.768 154.74 367.446 154.807 367.09C154.858 366.752 155.181 366.513 155.536 366.582C155.875 366.632 156.112 366.954 156.062 367.311C156.011 367.617 155.739 367.835 155.432 367.835H155.331H155.333ZM215.685 367.276C215.618 366.938 215.855 366.616 216.211 366.547C216.55 366.497 216.872 366.733 216.942 367.072C216.992 367.428 216.755 367.75 216.416 367.801C216.384 367.817 216.349 367.817 216.314 367.817C216.008 367.817 215.736 367.596 215.685 367.274V367.276ZM150.29 366.92C149.951 366.869 149.729 366.531 149.796 366.175C149.863 365.837 150.186 365.616 150.543 365.682C150.882 365.751 151.104 366.071 151.037 366.428C150.986 366.733 150.714 366.936 150.407 366.936C150.373 366.936 150.34 366.936 150.29 366.92ZM220.696 366.395C220.629 366.057 220.867 365.717 221.206 365.65C221.544 365.584 221.886 365.82 221.953 366.159C222.02 366.497 221.8 366.837 221.443 366.904C221.408 366.904 221.358 366.922 221.323 366.922C221.019 366.922 220.763 366.701 220.694 366.398L220.696 366.395ZM145.297 365.887C144.939 365.82 144.737 365.464 144.803 365.124C144.889 364.786 145.228 364.565 145.567 364.65C145.906 364.717 146.127 365.057 146.042 365.411C145.975 365.699 145.719 365.903 145.431 365.903C145.38 365.903 145.329 365.903 145.295 365.887H145.297ZM225.691 365.379C225.622 365.041 225.827 364.7 226.182 364.618H226.166C226.523 364.551 226.862 364.753 226.931 365.091C227.017 365.448 226.795 365.786 226.456 365.855C226.406 365.871 226.355 365.871 226.32 365.871C226.032 365.871 225.76 365.669 225.693 365.379H225.691ZM140.32 364.719C139.963 364.618 139.76 364.28 139.845 363.939C139.931 363.601 140.286 363.396 140.627 363.482C140.966 363.567 141.171 363.905 141.086 364.245C141.019 364.533 140.763 364.737 140.475 364.737C140.424 364.737 140.373 364.719 140.323 364.719H140.32ZM230.651 364.229C230.566 363.872 230.769 363.534 231.11 363.449C231.449 363.364 231.806 363.569 231.892 363.907C231.977 364.245 231.772 364.602 231.433 364.687C231.382 364.687 231.331 364.703 231.278 364.703C230.99 364.703 230.718 364.5 230.651 364.229ZM135.379 363.399C135.04 363.298 134.834 362.959 134.938 362.619C135.023 362.281 135.379 362.076 135.72 362.177C136.059 362.263 136.264 362.619 136.16 362.957C136.075 363.245 135.821 363.415 135.549 363.415C135.498 363.415 135.432 363.415 135.379 363.396V363.399ZM235.577 362.925C235.492 362.587 235.678 362.23 236.017 362.145C236.356 362.044 236.714 362.246 236.799 362.568C236.901 362.907 236.698 363.263 236.375 363.364C236.308 363.383 236.257 363.383 236.188 363.383C235.916 363.383 235.662 363.196 235.577 362.925ZM130.469 361.943C130.13 361.842 129.943 361.485 130.061 361.147C130.162 360.809 130.52 360.639 130.843 360.74C131.182 360.841 131.368 361.198 131.267 361.536C131.182 361.807 130.928 361.977 130.656 361.977C130.605 361.977 130.538 361.959 130.469 361.943ZM240.468 361.485C240.367 361.163 240.553 360.807 240.892 360.689C241.231 360.588 241.573 360.775 241.69 361.113C241.792 361.451 241.605 361.807 241.266 361.908C241.197 361.924 241.146 361.943 241.079 361.943C240.807 361.943 240.553 361.757 240.468 361.485ZM125.594 360.351C125.271 360.232 125.084 359.878 125.204 359.556C125.306 359.218 125.679 359.047 126.002 359.149C126.341 359.266 126.512 359.622 126.41 359.96C126.309 360.232 126.071 360.384 125.799 360.384C125.732 360.384 125.663 360.384 125.596 360.349L125.594 360.351ZM245.327 359.928C245.209 359.59 245.378 359.234 245.717 359.114C246.039 358.995 246.413 359.183 246.533 359.503C246.634 359.841 246.464 360.197 246.125 360.317C246.058 360.351 245.989 360.351 245.922 360.351C245.65 360.351 245.412 360.181 245.327 359.928ZM120.772 358.624C120.433 358.505 120.262 358.132 120.398 357.81C120.516 357.488 120.892 357.318 121.215 357.438C121.538 357.555 121.708 357.93 121.588 358.252C121.487 358.523 121.249 358.675 120.993 358.675C120.926 358.675 120.841 358.659 120.772 358.624ZM250.119 358.217C249.999 357.895 250.17 357.523 250.492 357.403C250.831 357.286 251.189 357.454 251.306 357.776C251.443 358.098 251.272 358.47 250.949 358.59C250.864 358.624 250.797 358.64 250.712 358.64C250.456 358.64 250.218 358.489 250.117 358.217H250.119ZM115.982 356.777C115.659 356.642 115.507 356.269 115.643 355.947C115.779 355.625 116.137 355.455 116.476 355.591C116.799 355.726 116.951 356.099 116.815 356.421C116.713 356.674 116.476 356.81 116.236 356.81C116.151 356.81 116.068 356.81 115.982 356.775V356.777ZM254.874 356.389C254.738 356.067 254.892 355.694 255.231 355.559C255.554 355.439 255.928 355.593 256.064 355.915C256.181 356.237 256.029 356.61 255.706 356.745C255.621 356.78 255.536 356.796 255.469 356.796C255.215 356.796 254.975 356.644 254.874 356.389ZM111.259 354.779C110.937 354.643 110.801 354.271 110.937 353.949C111.073 353.627 111.462 353.475 111.785 353.611V353.627C112.09 353.762 112.244 354.135 112.108 354.457C112.007 354.694 111.769 354.829 111.513 354.829C111.428 354.829 111.342 354.813 111.259 354.779ZM259.562 354.441C259.426 354.119 259.562 353.746 259.885 353.594C260.208 353.459 260.581 353.613 260.734 353.933C260.87 354.236 260.715 354.627 260.395 354.763C260.309 354.797 260.224 354.813 260.141 354.813C259.903 354.813 259.666 354.678 259.564 354.441H259.562ZM106.606 352.663C106.283 352.509 106.147 352.139 106.301 351.817C106.454 351.495 106.827 351.359 107.15 351.511C107.454 351.663 107.609 352.035 107.454 352.357C107.337 352.594 107.115 352.73 106.878 352.73C106.776 352.73 106.691 352.695 106.606 352.663ZM264.184 352.357C264.031 352.035 264.184 351.646 264.49 351.511C264.813 351.359 265.187 351.495 265.339 351.817C265.491 352.12 265.355 352.511 265.032 352.647V352.665C264.947 352.7 264.862 352.716 264.76 352.716C264.523 352.716 264.301 352.58 264.181 352.359L264.184 352.357ZM268.77 350.138C268.6 349.816 268.736 349.443 269.042 349.291C269.365 349.121 269.739 349.241 269.907 349.563C270.059 349.869 269.942 350.257 269.619 350.409C269.534 350.46 269.432 350.476 269.331 350.476C269.093 350.476 268.872 350.356 268.77 350.138ZM102.003 350.409C101.68 350.257 101.562 349.866 101.715 349.563C101.885 349.241 102.259 349.121 102.582 349.275C102.886 349.446 103.006 349.818 102.854 350.138C102.752 350.359 102.515 350.476 102.294 350.476C102.192 350.476 102.091 350.457 102.005 350.409H102.003ZM273.269 347.801C273.099 347.495 273.219 347.107 273.523 346.936C273.83 346.769 274.22 346.886 274.39 347.192C274.561 347.495 274.441 347.886 274.136 348.056C274.035 348.107 273.934 348.123 273.83 348.123C273.608 348.123 273.387 348.006 273.269 347.801ZM97.4669 348.038C97.1602 347.868 97.0426 347.495 97.2133 347.173C97.3655 346.87 97.7575 346.75 98.0619 346.92C98.3847 347.091 98.4862 347.479 98.334 347.783C98.2141 348.004 97.995 348.121 97.7552 348.121C97.6537 348.121 97.5523 348.086 97.4669 348.036V348.038ZM277.72 345.327C277.533 345.021 277.635 344.648 277.941 344.462H277.96C278.248 344.294 278.64 344.395 278.825 344.699C278.995 345.005 278.894 345.393 278.587 345.563C278.486 345.632 278.384 345.648 278.264 345.648C278.043 345.648 277.84 345.531 277.72 345.327ZM93.0001 345.547C92.6934 345.361 92.5758 344.972 92.7626 344.683C92.9332 344.377 93.3229 344.276 93.6296 344.446C93.934 344.616 94.0378 345.005 93.8672 345.308C93.7495 345.513 93.5282 345.63 93.3068 345.63C93.2053 345.63 93.1039 345.596 93.0024 345.545L93.0001 345.547ZM282.085 342.753C281.915 342.447 282 342.058 282.307 341.872C282.597 341.686 282.987 341.787 283.174 342.075C283.361 342.378 283.275 342.769 282.971 342.955C282.87 343.022 282.75 343.057 282.648 343.057C282.427 343.057 282.224 342.937 282.088 342.751L282.085 342.753ZM88.6001 342.923C88.2957 342.737 88.2104 342.346 88.3972 342.058C88.5678 341.755 88.9576 341.651 89.262 341.838C89.5687 342.024 89.6517 342.413 89.4672 342.719C89.3496 342.905 89.1443 343.024 88.923 343.024C88.8215 343.024 88.7016 342.99 88.6001 342.923ZM286.4 340.044C286.213 339.756 286.283 339.365 286.587 339.163C286.877 338.977 287.267 339.062 287.47 339.349C287.657 339.639 287.572 340.044 287.283 340.23C287.166 340.299 287.046 340.331 286.926 340.331C286.721 340.331 286.518 340.23 286.4 340.044ZM84.2693 340.196C83.9811 339.993 83.8958 339.602 84.0826 339.315C84.2878 339.011 84.6775 338.942 84.9658 339.128C85.2702 339.315 85.3394 339.706 85.1526 340.009C85.035 340.196 84.8297 340.297 84.6268 340.297C84.5092 340.297 84.3893 340.262 84.2693 340.196ZM290.629 337.231C290.426 336.944 290.493 336.537 290.782 336.334C291.07 336.148 291.478 336.217 291.665 336.504C291.868 336.792 291.801 337.183 291.513 337.385C291.411 337.452 291.275 337.502 291.155 337.502C290.952 337.502 290.747 337.401 290.629 337.231ZM80.0239 337.332C79.7356 337.13 79.6664 336.739 79.8717 336.451C80.0746 336.164 80.4667 336.095 80.7549 336.3V336.284C81.0432 336.486 81.1123 336.893 80.9256 337.18C80.7895 337.351 80.6027 337.452 80.3998 337.452C80.2637 337.452 80.1438 337.417 80.0262 337.332H80.0239ZM294.776 334.283C294.573 333.995 294.64 333.604 294.912 333.402C295.2 333.181 295.592 333.25 295.811 333.538C296.016 333.809 295.947 334.216 295.675 334.418C295.557 334.503 295.421 334.536 295.285 334.536C295.099 334.536 294.912 334.451 294.776 334.283ZM75.8638 334.368C75.5916 334.147 75.5248 333.758 75.7277 333.471C75.9491 333.199 76.3388 333.133 76.6271 333.335C76.8992 333.556 76.966 333.945 76.7631 334.232C76.6271 334.402 76.4403 334.487 76.2535 334.487C76.1174 334.487 75.9814 334.453 75.8615 334.368H75.8638ZM298.853 331.235C298.631 330.964 298.682 330.557 298.954 330.355C299.243 330.134 299.635 330.184 299.854 330.456C300.075 330.727 300.024 331.134 299.752 331.355H299.736C299.635 331.44 299.482 331.491 299.346 331.491C299.16 331.491 298.973 331.406 298.853 331.238V331.235ZM71.7866 331.286C71.5145 331.065 71.4638 330.658 71.6852 330.389C71.9065 330.118 72.2963 330.067 72.5684 330.288C72.859 330.49 72.8913 330.897 72.6883 331.169C72.5523 331.337 72.3655 331.422 72.1787 331.422C72.0426 331.422 71.9066 331.371 71.7889 331.286H71.7866ZM302.826 328.085C302.605 327.813 302.656 327.406 302.928 327.188C303.2 326.967 303.589 327.001 303.811 327.273C304.048 327.544 303.998 327.951 303.726 328.172C303.606 328.257 303.47 328.308 303.317 328.308C303.147 328.308 302.96 328.241 302.824 328.087L302.826 328.085ZM67.7948 328.085C67.5227 327.864 67.4904 327.457 67.7095 327.188C67.9309 326.916 68.3391 326.882 68.6112 327.121V327.103C68.8833 327.339 68.9156 327.73 68.6965 328.002C68.5789 328.154 68.3898 328.239 68.203 328.239C68.067 328.239 67.9148 328.188 67.7948 328.085ZM306.735 324.817C306.497 324.545 306.532 324.138 306.804 323.917C307.058 323.68 307.466 323.713 307.687 323.968C307.925 324.239 307.89 324.646 307.637 324.865C307.519 324.966 307.365 325.035 307.212 325.035C307.042 325.035 306.855 324.95 306.737 324.814L306.735 324.817ZM63.9068 324.798C63.6347 324.561 63.6001 324.154 63.8377 323.901C64.0752 323.63 64.4649 323.595 64.737 323.834C64.9907 324.071 65.0253 324.462 64.7878 324.731C64.6678 324.867 64.4972 324.952 64.3127 324.952C64.1605 324.952 64.0244 324.902 63.9045 324.8L63.9068 324.798ZM310.54 321.427C310.302 321.171 310.319 320.766 310.575 320.527C310.828 320.29 311.236 320.307 311.476 320.578C311.714 320.831 311.698 321.222 311.442 321.475C311.322 321.576 311.169 321.645 311.017 321.645C310.831 321.645 310.66 321.56 310.542 321.424L310.54 321.427ZM60.0857 321.376V321.394C59.8297 321.157 59.8136 320.75 60.0511 320.495C60.2886 320.224 60.6968 320.208 60.9505 320.445V320.461C61.2041 320.681 61.2226 321.088 60.9851 321.341C60.8675 321.477 60.6968 321.546 60.5262 321.546C60.374 321.546 60.2194 321.496 60.0857 321.376ZM314.26 317.954C314.006 317.701 314.006 317.294 314.26 317.057C314.513 316.82 314.921 316.82 315.161 317.073C315.415 317.31 315.399 317.717 315.161 317.972C315.025 318.089 314.873 318.14 314.702 318.14C314.548 318.14 314.38 318.089 314.26 317.954ZM56.3822 317.887C56.1285 317.634 56.1285 317.227 56.3637 316.99C56.6012 316.737 57.0094 316.719 57.2654 316.972C57.5191 317.209 57.5191 317.616 57.2815 317.871C57.1455 317.988 56.9933 318.057 56.8226 318.057C56.6543 318.057 56.4998 318.007 56.3822 317.887ZM317.878 314.38C317.622 314.127 317.606 313.72 317.859 313.481C318.097 313.228 318.505 313.228 318.759 313.465C319.015 313.701 319.015 314.108 318.777 314.361C318.641 314.497 318.47 314.548 318.318 314.548C318.148 314.548 317.995 314.497 317.878 314.378V314.38ZM52.764 314.279C52.5264 314.026 52.5264 313.619 52.7801 313.382C53.0176 313.126 53.4258 313.126 53.6818 313.382C53.9193 313.635 53.9193 314.042 53.6633 314.279C53.5457 314.396 53.3751 314.465 53.2229 314.465C53.0522 314.465 52.8839 314.396 52.764 314.279ZM321.392 310.705C321.139 310.452 321.104 310.061 321.358 309.805C321.579 309.534 321.987 309.518 322.257 309.755C322.513 310.008 322.529 310.399 322.292 310.652C322.156 310.787 321.987 310.873 321.817 310.873C321.664 310.873 321.51 310.804 321.392 310.702V310.705ZM49.2472 310.569C49.0097 310.316 49.0258 309.909 49.2818 309.67C49.5355 309.433 49.9436 309.449 50.1835 309.704C50.421 309.976 50.4049 310.364 50.1489 310.603C50.029 310.721 49.8768 310.774 49.7246 310.774C49.5378 310.774 49.3671 310.707 49.2495 310.571L49.2472 310.569ZM324.808 306.926C324.535 306.689 324.519 306.298 324.738 306.027C324.976 305.755 325.384 305.739 325.64 305.976C325.912 306.197 325.928 306.604 325.707 306.857C325.571 307.009 325.4 307.078 325.213 307.078C325.077 307.078 324.925 307.027 324.805 306.926H324.808ZM45.8342 306.772C45.6129 306.501 45.6313 306.112 45.9034 305.875C46.1755 305.638 46.5653 305.67 46.8028 305.942C47.0242 306.195 47.008 306.602 46.7359 306.839C46.6183 306.94 46.4638 306.993 46.3116 306.993C46.1409 306.993 45.9726 306.908 45.8366 306.772H45.8342ZM328.119 303.062C327.847 302.841 327.812 302.437 328.034 302.165C328.255 301.894 328.661 301.859 328.933 302.08C329.205 302.301 329.24 302.708 329.018 302.979C328.882 303.131 328.714 303.2 328.525 303.2C328.373 303.2 328.237 303.166 328.117 303.065L328.119 303.062ZM42.5389 302.876V302.892C42.3175 302.621 42.3521 302.214 42.6242 301.995C42.8963 301.758 43.286 301.809 43.5259 302.08C43.7473 302.352 43.6942 302.74 43.4406 302.979C43.3229 303.065 43.1684 303.115 43.0324 303.115C42.8456 303.115 42.6588 303.03 42.5389 302.878V302.876ZM331.331 299.1C331.043 298.895 330.992 298.49 331.211 298.219C331.433 297.931 331.823 297.881 332.113 298.102C332.385 298.322 332.436 298.711 332.215 298.998C332.095 299.15 331.908 299.235 331.721 299.235C331.585 299.235 331.433 299.201 331.331 299.1ZM39.345 298.913C39.1236 298.626 39.1766 298.235 39.4465 298.014C39.7186 297.793 40.1267 297.844 40.3481 298.134C40.5695 298.405 40.5188 298.812 40.2282 299.015C40.1106 299.116 39.9745 299.15 39.8385 299.15C39.6517 299.15 39.4649 299.065 39.345 298.913ZM334.422 295.068C334.133 294.847 334.083 294.459 334.285 294.169C334.491 293.897 334.897 293.831 335.169 294.033C335.457 294.254 335.508 294.643 335.305 294.932C335.187 295.103 334.998 295.185 334.795 295.185C334.659 295.185 334.523 295.151 334.422 295.068ZM36.2549 294.847C36.0519 294.56 36.1027 294.169 36.3909 293.966C36.6792 293.746 37.0712 293.812 37.2741 294.102C37.4955 294.373 37.4263 294.781 37.1381 294.983C37.0366 295.068 36.9006 295.103 36.7645 295.103C36.5777 295.103 36.3725 295.017 36.2549 294.847ZM337.394 290.935C337.106 290.733 337.037 290.342 337.242 290.054C337.445 289.765 337.837 289.698 338.125 289.9C338.413 290.087 338.482 290.494 338.293 290.781C338.157 290.951 337.971 291.052 337.768 291.052C337.632 291.052 337.512 291.018 337.394 290.935ZM33.2824 290.698C33.0794 290.427 33.1463 290.02 33.4346 289.817C33.7413 289.631 34.131 289.7 34.3362 289.988C34.5392 290.275 34.4538 290.666 34.1656 290.869C34.0641 290.935 33.9281 290.986 33.8081 290.986C33.6052 290.986 33.4 290.885 33.2824 290.698ZM340.265 286.736C339.977 286.549 339.891 286.142 340.094 285.855C340.281 285.565 340.673 285.482 340.961 285.669C341.266 285.871 341.351 286.262 341.148 286.549C341.031 286.736 340.825 286.837 340.622 286.837C340.505 286.837 340.385 286.802 340.265 286.736ZM30.4275 286.48C30.2407 286.193 30.3098 285.802 30.6142 285.6C30.9025 285.413 31.2945 285.498 31.4975 285.786C31.6843 286.089 31.5989 286.48 31.3107 286.667C31.2092 286.736 31.0732 286.768 30.9532 286.768C30.7503 286.768 30.5451 286.667 30.4275 286.478V286.48ZM343.016 282.449C342.728 282.262 342.626 281.874 342.813 281.568C343 281.28 343.39 281.179 343.696 281.363C343.985 281.55 344.086 281.941 343.899 282.244C343.782 282.43 343.577 282.534 343.355 282.534C343.235 282.534 343.134 282.515 343.016 282.449ZM27.6925 282.196C27.5057 281.89 27.591 281.501 27.8977 281.315C28.2044 281.129 28.5941 281.23 28.7809 281.517C28.9677 281.821 28.8663 282.212 28.5595 282.398C28.4581 282.465 28.3566 282.499 28.2367 282.499C28.0153 282.499 27.8124 282.38 27.6925 282.193V282.196ZM345.666 278.097C345.359 277.911 345.242 277.52 345.428 277.217C345.599 276.911 345.989 276.81 346.295 276.996C346.6 277.164 346.704 277.555 346.533 277.858C346.415 278.061 346.194 278.18 345.973 278.18C345.871 278.18 345.751 278.146 345.668 278.095L345.666 278.097ZM25.0774 277.826C24.8906 277.52 25.0105 277.132 25.3149 276.945C25.6032 276.775 25.9952 276.876 26.1797 277.182C26.3503 277.486 26.2466 277.877 25.9422 278.045C25.8407 278.111 25.7369 278.13 25.6193 278.13C25.3979 278.13 25.195 278.028 25.0751 277.824L25.0774 277.826ZM348.163 273.659C347.859 273.489 347.739 273.1 347.91 272.796C348.08 272.49 348.47 272.373 348.777 272.541C349.081 272.711 349.201 273.1 349.03 273.406C348.91 273.61 348.691 273.728 348.47 273.728C348.369 273.728 348.267 273.709 348.163 273.659ZM22.5822 273.387C22.4116 273.084 22.5315 272.693 22.8359 272.523C23.1426 272.352 23.5323 272.472 23.7007 272.776C23.8713 273.082 23.7514 273.47 23.447 273.64C23.3455 273.691 23.2441 273.707 23.1426 273.707C22.9212 273.707 22.6999 273.59 22.5822 273.385V273.387ZM350.559 269.153C350.236 269.002 350.119 268.611 350.287 268.307C350.442 267.985 350.813 267.868 351.136 268.02C351.443 268.19 351.579 268.562 351.426 268.884C351.306 269.105 351.087 269.222 350.848 269.222C350.746 269.222 350.645 269.206 350.559 269.156V269.153ZM20.2047 268.882C20.0502 268.56 20.1701 268.187 20.493 268.017C20.7974 267.865 21.1894 267.983 21.3416 268.305C21.5099 268.611 21.3762 268.999 21.0695 269.151C20.968 269.202 20.8665 269.218 20.7812 269.218C20.5437 269.218 20.3223 269.1 20.2047 268.88V268.882ZM17.9632 264.308C17.811 264.002 17.9471 263.613 18.2699 263.461C18.5928 263.309 18.9663 263.445 19.1185 263.767C19.2707 264.089 19.1347 264.462 18.8118 264.613C18.7265 264.664 18.625 264.68 18.5397 264.68C18.3022 264.68 18.0647 264.544 17.9632 264.308ZM352.819 264.595C352.496 264.443 352.36 264.052 352.513 263.749C352.667 263.427 353.057 263.291 353.361 263.445C353.684 263.597 353.82 263.97 353.668 264.292C353.566 264.512 353.329 264.648 353.091 264.648C353.006 264.648 352.905 264.63 352.819 264.597V264.595ZM15.8393 259.683C15.7033 259.361 15.8578 258.988 16.1783 258.852C16.5012 258.701 16.8747 258.852 17.0108 259.174C17.1469 259.496 17.0108 259.869 16.688 260.005C16.6026 260.055 16.5173 260.071 16.4343 260.071C16.1806 260.071 15.9592 259.919 15.8393 259.683ZM354.959 259.954C354.636 259.818 354.5 259.446 354.636 259.124C354.772 258.802 355.146 258.65 355.469 258.802C355.792 258.937 355.944 259.31 355.792 259.632C355.69 259.869 355.469 260.021 355.215 260.021C355.13 260.021 355.045 260.002 354.959 259.954ZM13.8676 255.007C13.7316 254.685 13.8861 254.312 14.2066 254.177C14.5295 254.041 14.9031 254.193 15.0391 254.533C15.1752 254.855 15.0045 255.228 14.6817 255.347C14.6125 255.382 14.5272 255.398 14.4442 255.398C14.1905 255.398 13.9507 255.244 13.8653 255.009L13.8676 255.007ZM356.963 255.278C356.64 255.143 356.488 254.77 356.624 254.448C356.744 254.126 357.118 253.974 357.441 254.092C357.78 254.227 357.934 254.6 357.798 254.922C357.697 255.175 357.459 255.329 357.203 255.329C357.134 255.329 357.049 255.311 356.966 255.278H356.963ZM11.9997 250.249C11.8637 249.927 12.0343 249.554 12.3733 249.435C12.6962 249.315 13.0697 249.485 13.1897 249.807C13.3096 250.145 13.1389 250.502 12.8161 250.637C12.7469 250.653 12.6616 250.672 12.5947 250.672C12.341 250.672 12.0851 250.518 11.9997 250.249ZM358.847 250.536C358.508 250.417 358.338 250.044 358.474 249.724C358.591 249.386 358.967 249.216 359.29 249.352C359.613 249.471 359.784 249.844 359.664 250.166C359.562 250.419 359.325 250.573 359.069 250.573C358.983 250.573 358.914 250.573 358.847 250.538V250.536ZM10.2656 245.453C10.1457 245.132 10.3324 244.759 10.6553 244.658C10.9943 244.54 11.3517 244.708 11.4693 245.046C11.5869 245.368 11.4025 245.741 11.0796 245.842C11.0104 245.877 10.9251 245.893 10.8582 245.893C10.6023 245.893 10.3486 245.723 10.2633 245.453H10.2656ZM360.579 245.741C360.256 245.624 360.069 245.267 360.189 244.927V244.943C360.309 244.605 360.664 244.419 361.006 244.536C361.329 244.653 361.515 245.01 361.395 245.35C361.31 245.603 361.056 245.773 360.801 245.773C360.715 245.773 360.648 245.755 360.579 245.739V245.741ZM8.66978 240.608C8.56831 240.27 8.75511 239.913 9.07795 239.812C9.41695 239.711 9.77438 239.897 9.87585 240.235C9.99346 240.573 9.80897 240.93 9.46767 241.031C9.39849 241.047 9.35006 241.063 9.28088 241.063C9.00877 241.063 8.7551 240.877 8.66978 240.605V240.608ZM362.193 240.895C361.854 240.794 361.668 240.438 361.769 240.099C361.887 239.777 362.244 239.575 362.567 239.692C362.906 239.794 363.093 240.15 362.991 240.488C362.906 240.759 362.652 240.93 362.38 240.93C362.329 240.93 362.263 240.911 362.193 240.895ZM7.20774 235.727C7.10627 235.389 7.30921 235.033 7.6505 234.932C7.98949 234.847 8.33079 235.033 8.43225 235.371C8.53372 235.709 8.33079 236.066 7.98949 236.167C7.93876 236.167 7.88802 236.183 7.82115 236.183C7.54903 236.183 7.29537 235.997 7.21004 235.725L7.20774 235.727ZM363.672 236.033C363.314 235.932 363.127 235.592 363.229 235.254C363.314 234.916 363.672 234.711 364.011 234.812C364.35 234.897 364.536 235.254 364.453 235.592C364.368 235.882 364.114 236.049 363.842 236.049C363.775 236.049 363.725 236.049 363.674 236.033H363.672ZM5.88406 230.799C5.79874 230.461 6.00167 230.104 6.34296 230.019C6.68195 229.934 7.0394 230.137 7.12472 230.477V230.495C7.21005 230.833 7.00711 231.174 6.66581 231.259C6.61508 231.275 6.5482 231.275 6.49516 231.275C6.22305 231.275 5.95094 231.089 5.88406 230.801V230.799ZM364.995 231.121C364.656 231.036 364.451 230.698 364.536 230.357C364.622 230.019 364.961 229.815 365.302 229.9C365.641 229.985 365.862 230.323 365.777 230.663C365.692 230.951 365.438 231.137 365.147 231.137C365.097 231.137 365.046 231.137 364.995 231.121ZM4.69413 225.836C4.62726 225.498 4.83019 225.157 5.18763 225.072C5.52662 225.003 5.86792 225.208 5.93479 225.564C6.02012 225.902 5.79874 226.243 5.45975 226.31C5.40901 226.328 5.37442 226.328 5.32369 226.328C5.03543 226.328 4.76331 226.126 4.69413 225.836ZM366.185 226.192C365.846 226.107 365.625 225.769 365.71 225.429C365.779 225.091 366.118 224.87 366.476 224.955C366.815 225.024 367.036 225.362 366.951 225.7C366.884 226.006 366.628 226.208 366.321 226.208C366.289 226.208 366.236 226.19 366.185 226.19V226.192ZM3.65871 220.857C3.59184 220.5 3.81091 220.162 4.15221 220.093C4.50965 220.026 4.83249 220.263 4.89937 220.601C4.96855 220.939 4.74717 221.28 4.40587 221.347C4.35514 221.363 4.32055 221.363 4.26982 221.363C3.98156 221.363 3.70945 221.142 3.65871 220.854V220.857ZM367.255 221.213C366.898 221.144 366.679 220.824 366.746 220.468C366.812 220.13 367.138 219.909 367.493 219.976C367.832 220.043 368.053 220.364 367.986 220.721C367.935 221.027 367.663 221.229 367.375 221.229C367.324 221.229 367.29 221.229 367.258 221.213H367.255ZM2.7409 215.827C2.69017 215.489 2.92769 215.148 3.26668 215.1C3.60567 215.05 3.94697 215.268 3.9977 215.624C4.04844 215.963 3.82705 216.303 3.47192 216.351C3.43733 216.351 3.40274 216.37 3.37046 216.37C3.06375 216.37 2.79394 216.133 2.7409 215.827ZM368.173 216.216C367.816 216.165 367.578 215.843 367.647 215.487C367.698 215.13 368.037 214.909 368.378 214.962C368.717 215.031 368.955 215.351 368.904 215.691C368.853 216.013 368.581 216.234 368.277 216.234C368.242 216.234 368.21 216.234 368.175 216.216H368.173ZM1.97759 210.795C1.92686 210.438 2.16438 210.116 2.52182 210.066C2.86081 210.015 3.18366 210.268 3.23439 210.609C3.28513 210.965 3.0476 211.287 2.69017 211.338H2.60484C2.30044 211.338 2.00988 211.101 1.97529 210.795H1.97759ZM368.955 211.202C368.597 211.151 368.36 210.829 368.411 210.475C368.443 210.137 368.768 209.898 369.123 209.932C369.481 209.983 369.718 210.305 369.667 210.661C369.617 210.967 369.344 211.204 369.038 211.204H368.952L368.955 211.202ZM1.35035 205.731C1.31575 205.374 1.55328 205.071 1.91072 205.036C2.24971 204.985 2.57255 205.238 2.60714 205.595C2.65788 205.933 2.40421 206.255 2.04677 206.289H1.9799C1.65705 206.289 1.38494 206.053 1.35265 205.731H1.35035ZM369.584 206.154C369.245 206.119 368.989 205.797 369.024 205.459C369.059 205.103 369.381 204.85 369.737 204.9C370.076 204.935 370.331 205.238 370.297 205.595C370.262 205.917 369.974 206.154 369.667 206.154H369.582H369.584ZM0.856845 200.648C0.822254 200.291 1.07823 199.988 1.43336 199.969C1.7908 199.935 2.0952 200.19 2.12979 200.544C2.14594 200.901 1.89227 201.204 1.53483 201.223C1.51868 201.223 1.50024 201.239 1.48409 201.239C1.16125 201.239 0.889134 200.986 0.854544 200.646L0.856845 200.648ZM370.092 201.089C369.734 201.071 369.481 200.768 369.515 200.411C369.531 200.055 369.838 199.802 370.195 199.836C370.553 199.854 370.807 200.174 370.772 200.515C370.756 200.853 370.468 201.108 370.142 201.108C370.126 201.108 370.11 201.108 370.092 201.092V201.089ZM0.499408 195.568C0.48096 195.211 0.753074 194.907 1.11051 194.889C1.4495 194.873 1.75621 195.142 1.77235 195.499C1.78849 195.837 1.51869 196.143 1.17739 196.159H1.12666C0.803809 196.159 0.515551 195.906 0.499408 195.565V195.568ZM370.449 196.025C370.11 196.009 369.838 195.722 369.854 195.365C369.873 195.009 370.177 194.74 370.516 194.774C370.873 194.79 371.146 195.078 371.127 195.434C371.111 195.772 370.823 196.028 370.481 196.028H370.447L370.449 196.025ZM0.296474 190.469C0.278025 190.112 0.550139 189.825 0.907578 189.825C1.26502 189.809 1.55327 190.08 1.56942 190.434C1.56942 190.791 1.29731 191.078 0.939867 191.094H0.923723C0.584732 191.094 0.294166 190.823 0.294166 190.469H0.296474ZM370.687 190.961C370.329 190.943 370.041 190.655 370.057 190.301C370.076 189.944 370.364 189.673 370.719 189.691C371.058 189.691 371.348 189.979 371.33 190.335C371.314 190.673 371.042 190.963 370.7 190.963H370.684L370.687 190.961ZM0.227295 185.37C0.227295 185.014 0.499406 184.742 0.856845 184.742C1.21428 184.742 1.50255 185.014 1.50255 185.37C1.50255 185.727 1.21428 186.014 0.856845 186.014C0.499406 186.014 0.227295 185.727 0.227295 185.37ZM370.126 185.234C370.126 185.184 370.142 185.149 370.142 185.099C370.126 185.048 370.126 185.014 370.126 184.963C370.126 184.606 370.414 184.319 370.772 184.319C371.111 184.319 371.401 184.609 371.401 184.963C371.401 184.997 371.401 185.048 371.385 185.099C371.401 185.133 371.401 185.184 371.401 185.234C371.401 185.591 371.113 185.878 370.772 185.878C370.414 185.878 370.126 185.589 370.126 185.234ZM0.907578 180.931C0.550139 180.915 0.278029 180.628 0.278029 180.271C0.296477 179.915 0.584733 179.643 0.939867 179.662C1.29731 179.662 1.56942 179.952 1.55097 180.306C1.55097 180.662 1.26271 180.931 0.923723 180.931H0.905277H0.907578ZM370.059 179.899C370.043 179.542 370.313 179.255 370.67 179.239C371.028 179.239 371.316 179.51 371.332 179.867C371.332 180.205 371.06 180.51 370.703 180.51H370.687C370.348 180.51 370.057 180.239 370.057 179.901L370.059 179.899ZM1.09668 175.851C0.739238 175.835 0.467124 175.529 0.485573 175.173C0.504021 174.834 0.808417 174.563 1.16586 174.579C1.50485 174.598 1.77697 174.901 1.76082 175.239C1.74468 175.577 1.47256 175.849 1.13127 175.849H1.09899L1.09668 175.851ZM369.84 174.834C369.822 174.478 370.094 174.19 370.435 174.156C370.793 174.14 371.097 174.411 371.116 174.765C371.132 175.122 370.862 175.409 370.521 175.426H370.47C370.147 175.426 369.859 175.173 369.84 174.832V174.834ZM1.41952 170.768C1.06208 170.752 0.808423 170.446 0.840708 170.09C0.859156 169.733 1.16355 169.48 1.52099 169.515C1.87843 169.531 2.1321 169.837 2.09751 170.193C2.07906 170.531 1.7908 170.787 1.46796 170.787C1.45181 170.787 1.43337 170.787 1.41722 170.768H1.41952ZM369.483 169.786C369.464 169.43 369.72 169.126 370.078 169.092C370.417 169.073 370.724 169.329 370.758 169.685C370.793 170.023 370.521 170.329 370.179 170.364H370.129C369.79 170.364 369.517 170.111 369.483 169.789V169.786ZM1.87843 165.72C1.53944 165.67 1.28347 165.364 1.31806 165.01C1.35265 164.671 1.6755 164.416 2.01449 164.451C2.37193 164.485 2.62559 164.807 2.59331 165.145C2.55872 165.483 2.27046 165.72 1.94761 165.72H1.87843ZM369.008 164.738C368.957 164.4 369.211 164.078 369.568 164.044C369.907 164.009 370.23 164.246 370.265 164.602C370.299 164.941 370.043 165.262 369.704 165.297C369.67 165.297 369.653 165.315 369.637 165.315C369.314 165.315 369.026 165.062 369.008 164.74V164.738ZM2.48954 160.672C2.1321 160.621 1.89457 160.299 1.94531 159.945C1.97759 159.607 2.30274 159.368 2.65788 159.402C2.99687 159.453 3.25284 159.775 3.20211 160.132C3.15138 160.437 2.87926 160.674 2.57255 160.674H2.48723L2.48954 160.672ZM368.362 159.724H368.381C368.33 159.368 368.567 159.046 368.906 158.995C369.264 158.945 369.587 159.198 369.637 159.538C369.672 159.895 369.434 160.217 369.093 160.267H369.008C368.685 160.267 368.413 160.03 368.362 159.724ZM3.22056 155.642C2.88157 155.592 2.64174 155.254 2.71092 154.913C2.76165 154.557 3.0845 154.338 3.44194 154.389C3.78093 154.439 4.01846 154.777 3.96772 155.118C3.90085 155.424 3.64487 155.642 3.33817 155.642H3.22056ZM367.599 154.711C367.548 154.373 367.786 154.032 368.125 153.984C368.464 153.917 368.805 154.154 368.856 154.508C368.925 154.847 368.685 155.187 368.33 155.235H368.228C367.924 155.235 367.652 155.014 367.599 154.711ZM4.10378 150.629C3.76479 150.578 3.54341 150.24 3.61259 149.9C3.66332 149.543 4.00231 149.325 4.35975 149.391C4.69874 149.458 4.92013 149.78 4.85325 150.136C4.80252 150.44 4.5304 150.645 4.22369 150.645C4.1891 150.645 4.15682 150.645 4.10378 150.629ZM366.699 149.729C366.633 149.391 366.852 149.051 367.193 148.984C367.55 148.918 367.873 149.138 367.959 149.476V149.495C368.009 149.833 367.788 150.173 367.449 150.24H367.331C367.025 150.24 366.752 150.038 366.702 149.732L366.699 149.729ZM5.12306 145.647C4.78407 145.58 4.56268 145.24 4.64801 144.902C4.71719 144.564 5.05618 144.343 5.41131 144.41C5.7503 144.495 5.95554 144.833 5.88636 145.171C5.81949 145.477 5.56352 145.663 5.25681 145.663C5.22222 145.663 5.17149 145.663 5.12075 145.647H5.12306ZM365.646 144.766C365.579 144.428 365.8 144.088 366.139 144.003C366.478 143.936 366.819 144.155 366.905 144.495C366.974 144.833 366.75 145.173 366.411 145.258C366.36 145.258 366.326 145.275 366.275 145.275C365.987 145.275 365.715 145.072 365.646 144.766ZM6.27839 140.7C5.9394 140.615 5.73417 140.277 5.81949 139.939C5.90481 139.601 6.25994 139.38 6.60124 139.465C6.94023 139.566 7.14548 139.907 7.06015 140.245C6.99328 140.532 6.72116 140.719 6.44904 140.719C6.39831 140.719 6.34758 140.719 6.27839 140.7ZM364.474 139.854C364.389 139.516 364.594 139.159 364.933 139.074C365.272 138.989 365.613 139.194 365.699 139.532C365.8 139.87 365.579 140.21 365.24 140.311C365.189 140.311 365.138 140.33 365.085 140.33C364.797 140.33 364.541 140.144 364.474 139.856V139.854ZM7.58593 135.788C7.24694 135.687 7.0417 135.348 7.14317 135.008C7.22849 134.67 7.58593 134.465 7.92492 134.569C8.26392 134.654 8.46915 135.008 8.36768 135.348C8.28236 135.636 8.02869 135.806 7.75658 135.806C7.70585 135.806 7.63667 135.806 7.58593 135.788ZM363.148 134.957C363.047 134.619 363.25 134.263 363.589 134.178C363.928 134.077 364.285 134.263 364.37 134.601C364.472 134.939 364.269 135.296 363.946 135.397C363.879 135.415 363.828 135.415 363.759 135.415C363.487 135.415 363.233 135.229 363.148 134.957ZM9.01108 130.907C8.67209 130.806 8.4853 130.45 8.58676 130.112C8.68823 129.774 9.04567 129.587 9.38466 129.705C9.72365 129.806 9.91044 130.162 9.80897 130.484C9.72365 130.772 9.46998 130.942 9.19787 130.942C9.13099 130.942 9.08026 130.926 9.01108 130.907ZM361.686 130.093C361.585 129.771 361.771 129.415 362.11 129.298C362.449 129.196 362.807 129.383 362.908 129.721C363.01 130.059 362.823 130.415 362.5 130.516C362.433 130.533 362.364 130.551 362.297 130.551C362.025 130.551 361.788 130.365 361.686 130.093ZM10.5907 126.062C10.2517 125.942 10.0649 125.588 10.1826 125.247C10.3025 124.909 10.6576 124.739 10.9989 124.859C11.3217 124.96 11.5085 125.333 11.3886 125.655C11.3033 125.926 11.0496 126.096 10.796 126.096C10.7291 126.096 10.6599 126.078 10.593 126.062H10.5907ZM360.106 125.282V125.298C359.986 124.96 360.176 124.604 360.496 124.484C360.835 124.367 361.193 124.535 361.312 124.873C361.43 125.211 361.246 125.567 360.923 125.684C360.856 125.703 360.787 125.719 360.701 125.719C360.445 125.719 360.192 125.549 360.106 125.28V125.282ZM12.2903 121.25C11.9674 121.133 11.7968 120.761 11.9167 120.436C12.0366 120.098 12.4102 119.928 12.7331 120.064C13.0559 120.181 13.2266 120.556 13.1066 120.878C13.0213 121.131 12.7676 121.285 12.5117 121.285C12.4448 121.285 12.3595 121.285 12.2903 121.25ZM358.391 120.524C358.255 120.202 358.425 119.829 358.764 119.712C359.087 119.592 359.461 119.746 359.581 120.084C359.698 120.406 359.53 120.779 359.207 120.899C359.138 120.933 359.055 120.949 358.986 120.949C358.732 120.949 358.476 120.779 358.391 120.526V120.524ZM14.1236 116.492C13.8008 116.356 13.6486 116 13.7846 115.662C13.9022 115.34 14.2781 115.188 14.6171 115.324C14.94 115.459 15.0922 115.816 14.9561 116.154C14.8546 116.391 14.6171 116.543 14.3611 116.543C14.2943 116.543 14.2089 116.526 14.1236 116.492ZM356.539 115.814C356.403 115.492 356.555 115.119 356.878 114.983C357.201 114.848 357.574 114.999 357.71 115.321C357.846 115.659 357.694 116.034 357.353 116.152C357.286 116.186 357.201 116.202 357.115 116.202C356.862 116.202 356.64 116.05 356.539 115.814ZM16.093 111.8C15.7701 111.646 15.6341 111.276 15.7701 110.954C15.9062 110.632 16.2798 110.496 16.6026 110.632C16.9255 110.768 17.0777 111.14 16.9416 111.462C16.824 111.699 16.6026 111.851 16.349 111.851C16.2636 111.851 16.1783 111.835 16.093 111.8ZM354.551 111.172C354.415 110.85 354.551 110.462 354.874 110.326C355.197 110.19 355.57 110.326 355.723 110.648C355.859 110.97 355.723 111.343 355.4 111.494C355.314 111.529 355.229 111.545 355.128 111.545C354.89 111.545 354.653 111.409 354.551 111.172ZM18.1984 107.141C17.8756 107.005 17.7395 106.616 17.8917 106.311C18.0462 105.989 18.4175 105.853 18.7403 106.005C19.0632 106.159 19.1992 106.529 19.047 106.851C18.9294 107.072 18.7081 107.208 18.4705 107.208C18.3852 107.208 18.2837 107.189 18.1984 107.139V107.141ZM352.443 106.582C352.291 106.26 352.427 105.871 352.75 105.736C353.073 105.582 353.447 105.717 353.599 106.023C353.751 106.345 353.615 106.718 353.292 106.869C353.207 106.92 353.105 106.936 353.02 106.936C352.782 106.936 352.561 106.8 352.441 106.58L352.443 106.582ZM20.4238 102.566C20.1171 102.415 19.981 102.024 20.1517 101.72C20.3039 101.398 20.6774 101.281 21.0003 101.433C21.307 101.584 21.443 101.975 21.2885 102.279C21.1709 102.516 20.9495 102.635 20.712 102.635C20.6106 102.635 20.5252 102.617 20.4238 102.566ZM350.218 102.042C350.05 101.72 350.183 101.348 350.49 101.177C350.813 101.023 351.187 101.143 351.357 101.465C351.509 101.768 351.392 102.159 351.067 102.311C350.981 102.362 350.88 102.38 350.778 102.38C350.541 102.38 350.319 102.261 350.218 102.042ZM22.7829 98.0449C22.4785 97.8748 22.3586 97.5022 22.5292 97.1802C22.6837 96.8766 23.0734 96.757 23.3963 96.9272C23.7007 97.0974 23.8206 97.4861 23.6499 97.792C23.5323 98.0127 23.311 98.13 23.0734 98.13C22.972 98.13 22.8705 98.0955 22.7829 98.0449ZM347.857 97.5712C347.686 97.2676 347.806 96.8766 348.11 96.7087C348.417 96.5385 348.807 96.6581 348.975 96.9617C349.146 97.2676 349.026 97.6563 348.721 97.8265C348.62 97.8771 348.518 97.8954 348.417 97.8954C348.196 97.8954 347.974 97.7759 347.857 97.5735V97.5712ZM25.2642 93.6085C24.9575 93.4222 24.856 93.0336 25.0267 92.7277C25.1973 92.4218 25.587 92.3206 25.8914 92.5069C26.1981 92.6771 26.2996 93.0658 26.129 93.3717C26.0113 93.574 25.79 93.6775 25.5686 93.6775C25.4671 93.6775 25.3657 93.6614 25.2642 93.6108V93.6085ZM345.378 93.1693C345.191 92.8634 345.311 92.4747 345.615 92.3045C345.906 92.1182 346.295 92.2194 346.482 92.5253C346.653 92.8312 346.551 93.2199 346.245 93.3901C346.143 93.4591 346.042 93.4752 345.922 93.4752C345.7 93.4752 345.498 93.374 345.378 93.1716V93.1693ZM27.8631 89.2227C27.5564 89.0365 27.4549 88.6455 27.6417 88.3419C27.8285 88.0544 28.2183 87.9532 28.525 88.1395C28.8294 88.3258 28.9147 88.7145 28.7279 89.0204C28.6103 89.2066 28.405 89.3262 28.1837 89.3262C28.0822 89.3262 27.9623 89.2917 27.8608 89.225L27.8631 89.2227ZM342.779 88.8341C342.592 88.5282 342.677 88.1395 342.984 87.9532C343.291 87.7669 343.68 87.8681 343.867 88.1556H343.849C344.035 88.4592 343.95 88.8502 343.646 89.0364C343.544 89.1031 343.424 89.1216 343.323 89.1216C343.102 89.1216 342.899 89.0204 342.779 88.8341ZM30.582 84.9197C30.2937 84.7334 30.2084 84.3264 30.3952 84.0389C30.582 83.733 30.9878 83.6663 31.2784 83.8526C31.569 84.0389 31.652 84.446 31.4652 84.7334C31.3453 84.9197 31.1423 85.0209 30.921 85.0209C30.8033 85.0209 30.6834 84.9864 30.582 84.9197ZM340.046 84.5633C339.859 84.2758 339.945 83.8687 340.233 83.6824C340.521 83.4961 340.929 83.5628 341.116 83.8687C341.303 84.1562 341.236 84.5472 340.929 84.7495C340.828 84.8185 340.708 84.8507 340.59 84.8507C340.387 84.8507 340.182 84.7495 340.046 84.5633ZM33.4184 80.6834C33.1302 80.481 33.061 80.0901 33.2478 79.8026C33.4507 79.5151 33.8589 79.4461 34.1494 79.6324C34.4377 79.8348 34.5069 80.2418 34.3016 80.5316C34.184 80.6995 33.9788 80.803 33.7759 80.803C33.6582 80.803 33.5222 80.7685 33.4184 80.6857V80.6834ZM337.21 80.3614C337.004 80.0901 337.09 79.683 337.38 79.4806C337.668 79.2759 338.06 79.361 338.263 79.6508C338.466 79.9383 338.381 80.3292 338.093 80.5316C337.991 80.5983 337.855 80.6328 337.735 80.6328C337.532 80.6328 337.346 80.5477 337.21 80.3614ZM36.3748 76.5322C36.0865 76.3298 36.0173 75.9227 36.2387 75.6514C36.4417 75.3639 36.8337 75.2949 37.1219 75.5157C37.4102 75.718 37.4609 76.1251 37.258 76.3965C37.1404 76.5667 36.9352 76.6679 36.7484 76.6679C36.6123 76.6679 36.4763 76.6173 36.3748 76.5322ZM334.253 76.2608C334.05 75.971 334.117 75.5663 334.389 75.3616C334.677 75.1592 335.07 75.2259 335.291 75.4973C335.494 75.7847 335.443 76.1757 335.155 76.3942C335.035 76.4793 334.899 76.5138 334.765 76.5138C334.578 76.5138 334.392 76.4287 334.255 76.2608H334.253ZM39.4326 72.4661C39.1605 72.2637 39.1098 71.8566 39.3312 71.5852H39.315C39.5364 71.2978 39.9423 71.2472 40.2144 71.4679C40.4865 71.6887 40.5372 72.0774 40.332 72.3649C40.1959 72.5167 40.0091 72.6018 39.8223 72.6018C39.6863 72.6018 39.5502 72.5512 39.4326 72.4661ZM331.198 72.2292C330.976 71.9578 331.027 71.5507 331.299 71.3322C331.587 71.1115 331.979 71.1621 332.198 71.4495C332.42 71.7209 332.369 72.128 332.081 72.3304C331.979 72.4316 331.827 72.4661 331.691 72.4661C331.504 72.4661 331.318 72.381 331.198 72.2292ZM42.6104 68.485C42.3383 68.2643 42.3037 67.8572 42.525 67.6042C42.7464 67.3328 43.1546 67.2822 43.4267 67.5191C43.6988 67.7399 43.7311 68.1286 43.512 68.3999C43.376 68.5517 43.2053 68.6368 43.0185 68.6368C42.8663 68.6368 42.7303 68.5862 42.6104 68.4827V68.485ZM328.022 68.2826C327.785 68.0113 327.835 67.6042 328.108 67.3857C328.38 67.1649 328.769 67.1994 329.009 67.4708C329.231 67.7422 329.196 68.1493 328.924 68.37C328.804 68.4712 328.652 68.5057 328.516 68.5057C328.329 68.5057 328.142 68.4367 328.022 68.285V68.2826ZM45.8896 64.6075C45.6359 64.3706 45.6013 63.9635 45.8389 63.7106C46.0602 63.4392 46.4684 63.4231 46.7221 63.6439C46.9942 63.8807 47.0265 64.2717 46.7913 64.5408C46.6713 64.6949 46.4846 64.7616 46.3162 64.7616C46.164 64.7616 46.0118 64.711 45.8919 64.6075H45.8896ZM324.745 64.4212C324.508 64.1498 324.524 63.7612 324.796 63.5243C325.068 63.3035 325.458 63.3219 325.695 63.5933C325.933 63.8463 325.898 64.2533 325.626 64.4902C325.509 64.5914 325.354 64.642 325.218 64.642C325.031 64.642 324.861 64.5753 324.743 64.4212H324.745ZM49.2887 60.8128C49.0166 60.5598 49.0005 60.1688 49.2541 59.9135C49.4755 59.6421 49.8837 59.626 50.1558 59.8629C50.4095 60.0998 50.4279 60.5069 50.1904 60.7599C50.0543 60.8955 49.8837 60.9622 49.7153 60.9622C49.5631 60.9622 49.4109 60.9116 49.291 60.8105L49.2887 60.8128ZM321.348 60.6587C321.111 60.3873 321.127 59.9986 321.383 59.7617C321.639 59.5248 322.045 59.5409 322.285 59.7962C322.522 60.0492 322.506 60.4563 322.25 60.6932C322.133 60.7944 321.978 60.8634 321.807 60.8634C321.639 60.8634 321.468 60.7967 321.348 60.661V60.6587ZM52.7709 57.1008C52.5149 56.8455 52.5149 56.4569 52.7524 56.2016C53.0061 55.9486 53.4143 55.9486 53.6541 56.1855C53.9078 56.4385 53.9262 56.8294 53.6702 57.0824C53.5526 57.2181 53.382 57.2687 53.2113 57.2687C53.0591 57.2687 52.8885 57.2181 52.7709 57.1008ZM317.85 56.9812C317.613 56.7282 317.613 56.3212 317.866 56.0843C318.12 55.8313 318.512 55.8474 318.766 56.0843C319.022 56.3373 319.003 56.7443 318.75 56.9812C318.632 57.1008 318.477 57.1675 318.309 57.1675C318.138 57.1675 317.986 57.1008 317.85 56.9812ZM56.3706 53.4924C56.117 53.2394 56.117 52.8323 56.3706 52.5954C56.6266 52.3585 57.0325 52.3585 57.2723 52.6115C57.526 52.8484 57.5098 53.2555 57.2723 53.5108C57.1362 53.628 56.984 53.6809 56.8134 53.6809C56.6612 53.6809 56.4905 53.6119 56.3706 53.4947V53.4924ZM314.264 53.3912C314.011 53.1543 313.992 52.7472 314.248 52.4919C314.486 52.2389 314.894 52.2389 315.147 52.4919C315.401 52.7288 315.401 53.1359 315.166 53.3912C315.03 53.5085 314.878 53.5774 314.707 53.5774C314.536 53.5774 314.384 53.5108 314.264 53.3912ZM60.0557 49.9851C59.7997 49.7321 59.8343 49.325 60.0903 49.0882C60.344 48.8513 60.7522 48.8674 60.9897 49.1227C61.2272 49.3756 61.2111 49.7827 60.9551 50.0196C60.819 50.1369 60.6668 50.1898 60.5146 50.1898C60.344 50.1898 60.1756 50.1231 60.0557 49.9874V49.9851ZM310.577 49.9184C310.305 49.6815 310.289 49.2744 310.526 49.0215C310.764 48.7685 311.172 48.7501 311.425 48.987C311.679 49.2238 311.698 49.6148 311.46 49.8839C311.342 50.0196 311.172 50.0886 311.001 50.0886C310.849 50.0886 310.694 50.038 310.577 49.9184ZM63.8261 46.5813C63.6047 46.3099 63.6209 45.9213 63.893 45.6821C64.1467 45.4613 64.5548 45.4774 64.7947 45.7488C65.0161 46.0018 64.9976 46.4088 64.7255 46.648C64.6056 46.7492 64.4534 46.7998 64.3012 46.7998C64.1305 46.7998 63.9437 46.7331 63.8261 46.579V46.5813ZM306.79 46.5468C306.518 46.3099 306.484 45.9029 306.723 45.6476C306.961 45.3762 307.353 45.344 307.625 45.5809C307.879 45.8178 307.913 46.2087 307.694 46.4801C307.558 46.6158 307.388 46.7009 307.201 46.7009C307.065 46.7009 306.91 46.6503 306.793 46.5491L306.79 46.5468ZM67.7003 43.2764C67.4789 43.0051 67.5135 42.6164 67.7856 42.3956C68.0577 42.1587 68.4659 42.2093 68.685 42.4807C68.9064 42.7521 68.8718 43.1408 68.5997 43.3615C68.4821 43.4627 68.3276 43.5156 68.1915 43.5156C68.0047 43.5156 67.8341 43.4305 67.698 43.2787L67.7003 43.2764ZM302.902 43.2603C302.63 43.0396 302.598 42.6325 302.817 42.3611C303.054 42.0897 303.447 42.0552 303.716 42.276C303.988 42.4968 304.023 42.9016 303.802 43.1729C303.682 43.3247 303.495 43.4098 303.308 43.4098C303.172 43.4098 303.02 43.3592 302.9 43.258L302.902 43.2603ZM71.6575 40.0935C71.4546 39.8221 71.4892 39.415 71.7774 39.1942C72.0495 38.9918 72.4577 39.0263 72.6606 39.3138C72.882 39.5852 72.8313 39.9923 72.5592 40.2108V40.1947C72.4416 40.2958 72.3055 40.3303 72.1694 40.3303C71.9827 40.3303 71.7959 40.2453 71.6598 40.0935H71.6575ZM298.943 40.0935C298.671 39.8727 298.62 39.484 298.825 39.2126C299.047 38.9251 299.455 38.8745 299.725 39.093C299.997 39.3138 300.047 39.7025 299.826 39.9923C299.708 40.1441 299.522 40.2291 299.332 40.2291C299.196 40.2291 299.06 40.1947 298.943 40.0935ZM75.7 37.0094C75.4971 36.7219 75.564 36.3309 75.8361 36.1285C76.1243 35.9077 76.5325 35.9767 76.7354 36.2642C76.9384 36.5356 76.8876 36.9427 76.5994 37.1451C76.4818 37.2302 76.3457 37.2646 76.2258 37.2646C76.0206 37.2646 75.8361 37.1796 75.7 37.0094ZM294.884 37.0439C294.594 36.8231 294.545 36.4344 294.748 36.1469C294.969 35.8594 295.359 35.8088 295.647 36.0112C295.92 36.2136 295.986 36.6207 295.783 36.9105C295.647 37.0784 295.461 37.1635 295.258 37.1635C295.14 37.1635 295.004 37.129 294.884 37.0439ZM79.844 34.0449C79.6411 33.7574 79.708 33.3503 79.9962 33.164C80.2845 32.9616 80.6765 33.0283 80.8794 33.3181C81.0824 33.6056 81.0155 33.9966 80.7272 34.199C80.6073 34.2841 80.4897 34.3163 80.3537 34.3163C80.1507 34.3163 79.9639 34.2151 79.844 34.0449ZM290.756 34.0955C290.468 33.8931 290.399 33.5021 290.586 33.2146C290.789 32.9271 291.181 32.8421 291.487 33.0444C291.776 33.2468 291.845 33.6378 291.639 33.9253C291.522 34.1116 291.317 34.1967 291.114 34.1967C290.996 34.1967 290.86 34.1622 290.756 34.0955ZM84.0387 31.1816C83.8519 30.8941 83.9373 30.5031 84.2255 30.3007C84.5138 30.1144 84.922 30.1995 85.1087 30.487C85.2955 30.7745 85.2102 31.1816 84.922 31.3678C84.8205 31.4345 84.7006 31.469 84.583 31.469C84.3616 31.469 84.1587 31.3678 84.0387 31.1816ZM286.543 31.2483C286.236 31.062 286.153 30.6733 286.356 30.3858C286.543 30.0799 286.933 29.9971 287.223 30.1995C287.53 30.3858 287.613 30.7768 287.41 31.0804C287.293 31.2667 287.087 31.3702 286.884 31.3702C286.764 31.3702 286.647 31.3356 286.545 31.2506L286.543 31.2483ZM88.3188 28.4539C88.132 28.1481 88.2335 27.7594 88.5402 27.5731C88.8284 27.3868 89.2205 27.488 89.4049 27.7755C89.5917 28.0791 89.5064 28.47 89.202 28.6563C89.1005 28.723 88.9806 28.7575 88.863 28.7575C88.6601 28.7575 88.4548 28.6379 88.3188 28.4516V28.4539ZM282.245 28.539C281.94 28.3528 281.855 27.9641 282.023 27.6766C282.21 27.3707 282.602 27.2695 282.906 27.4558C283.213 27.6421 283.296 28.0308 283.112 28.3367C282.994 28.5229 282.789 28.6402 282.567 28.6402C282.466 28.6402 282.346 28.6057 282.245 28.539ZM92.6842 25.8298C92.5135 25.5239 92.6173 25.1353 92.9217 24.9651C93.2122 24.7949 93.602 24.8961 93.7888 25.202C93.9594 25.4894 93.8556 25.8965 93.5512 26.0667C93.4498 26.1173 93.346 26.1518 93.2284 26.1518C93.007 26.1518 92.8041 26.0322 92.6842 25.8298ZM277.863 25.9471C277.573 25.7608 277.455 25.3883 277.642 25.0824C277.812 24.7788 278.202 24.6592 278.509 24.8455C278.815 25.0157 278.917 25.4043 278.746 25.7079C278.626 25.9103 278.407 26.0299 278.186 26.0299C278.084 26.0299 277.965 25.9954 277.863 25.9448V25.9471ZM97.1187 23.3391C96.9481 23.0332 97.0495 22.6445 97.3562 22.4767H97.3724C97.6791 22.3065 98.0688 22.4261 98.221 22.7296C98.3917 23.0332 98.2879 23.4242 97.9673 23.5921C97.882 23.6427 97.7806 23.6611 97.6791 23.6611C97.4416 23.6611 97.2202 23.5438 97.1187 23.3391ZM273.431 23.4748C273.126 23.3046 273.007 22.9159 273.177 22.61C273.348 22.3065 273.738 22.1869 274.044 22.3571C274.349 22.5272 274.469 22.8998 274.298 23.2218C274.178 23.4242 273.959 23.5438 273.738 23.5438C273.636 23.5438 273.535 23.5254 273.431 23.4771V23.4748ZM101.604 20.968C101.433 20.646 101.569 20.2734 101.876 20.1032C102.199 19.9514 102.573 20.0687 102.743 20.393C102.895 20.6966 102.778 21.0875 102.455 21.2393C102.37 21.2899 102.268 21.306 102.167 21.306C101.945 21.306 101.724 21.1887 101.606 20.968H101.604ZM268.929 21.1197C268.607 20.9496 268.489 20.577 268.641 20.255C268.793 19.9491 269.185 19.8134 269.506 19.9836C269.813 20.1354 269.93 20.5264 269.778 20.83C269.66 21.0507 269.439 21.1864 269.218 21.1864C269.116 21.1864 269.015 21.1703 268.929 21.1197ZM106.154 18.7141C106.002 18.3921 106.138 18.0196 106.461 17.8678C106.783 17.716 107.157 17.8517 107.309 18.1736C107.461 18.4772 107.325 18.8682 107.002 19.02C106.917 19.0545 106.816 19.0706 106.73 19.0706C106.493 19.0706 106.271 18.9349 106.152 18.7141H106.154ZM264.343 18.8843C264.036 18.7302 263.9 18.3599 264.052 18.038C264.188 17.716 264.578 17.5803 264.885 17.7321C265.207 17.8839 265.343 18.2564 265.191 18.5784C265.09 18.8153 264.868 18.951 264.631 18.951C264.529 18.951 264.444 18.9326 264.343 18.882V18.8843ZM110.775 16.5982C110.623 16.2763 110.775 15.9037 111.098 15.7519C111.421 15.6162 111.794 15.768 111.931 16.09C112.083 16.3936 111.931 16.7845 111.608 16.9202C111.522 16.9547 111.439 16.9708 111.354 16.9708C111.116 16.9708 110.879 16.8351 110.778 16.5982H110.775ZM259.724 16.7845C259.401 16.6488 259.249 16.2763 259.385 15.9543C259.539 15.6323 259.91 15.4805 260.233 15.6162C260.556 15.768 260.692 16.1406 260.556 16.4626C260.455 16.6994 260.217 16.8351 259.977 16.8351C259.892 16.8351 259.807 16.8167 259.724 16.7845ZM115.447 14.5997C115.311 14.2777 115.463 13.9051 115.786 13.7694C116.109 13.6338 116.483 13.8039 116.619 14.1259C116.755 14.4479 116.603 14.8205 116.28 14.9562C116.194 14.9907 116.111 14.9907 116.026 14.9907C115.789 14.9907 115.551 14.855 115.45 14.602L115.447 14.5997ZM255.019 14.8205H255.038C254.699 14.6848 254.544 14.3122 254.68 13.9902C254.816 13.6682 255.174 13.4981 255.513 13.6337C255.836 13.7694 255.988 14.142 255.852 14.464C255.75 14.717 255.513 14.8527 255.273 14.8527C255.188 14.8527 255.102 14.8343 255.019 14.8182V14.8205ZM120.186 12.7368C120.05 12.3987 120.221 12.0423 120.544 11.9066C120.883 11.7893 121.24 11.9572 121.376 12.2791C121.496 12.6172 121.325 12.9737 121.003 13.1094C120.936 13.1278 120.85 13.1439 120.781 13.1439C120.525 13.1439 120.272 12.9921 120.186 12.7368ZM250.28 12.9737C249.957 12.838 249.787 12.4815 249.907 12.1435C250.024 11.8215 250.398 11.6513 250.721 11.7709C251.06 11.9066 251.23 12.263 251.094 12.6011C251.009 12.8541 250.755 13.0082 250.499 13.0082C250.43 13.0082 250.347 12.9921 250.278 12.9737H250.28ZM124.976 10.9912C124.858 10.6531 125.027 10.2967 125.366 10.1771C125.688 10.0759 126.062 10.2438 126.182 10.5842C126.283 10.9061 126.115 11.2787 125.774 11.3799C125.705 11.4144 125.638 11.4144 125.571 11.4144C125.317 11.4144 125.061 11.2626 124.976 10.9912ZM245.491 11.2626C245.152 11.143 244.981 10.7888 245.082 10.4508C245.202 10.1288 245.557 9.9425 245.899 10.0621C246.222 10.1794 246.408 10.5359 246.289 10.8578C246.203 11.1292 245.95 11.2994 245.694 11.2994C245.624 11.2994 245.557 11.281 245.491 11.2649V11.2626ZM129.8 9.38364C129.699 9.06166 129.886 8.70518 130.225 8.58789C130.547 8.4867 130.921 8.67299 131.022 9.01106C131.124 9.34914 130.937 9.70562 130.598 9.80681C130.547 9.82291 130.48 9.839 130.411 9.839C130.139 9.839 129.886 9.65272 129.8 9.38134V9.38364ZM240.632 9.68722C240.309 9.58603 240.122 9.21345 240.224 8.89147C240.325 8.55339 240.682 8.3671 241.021 8.4683C241.344 8.56949 241.531 8.92596 241.43 9.26404C241.344 9.53542 241.091 9.70561 240.819 9.70561C240.768 9.70561 240.699 9.70562 240.632 9.68722ZM134.675 7.92554C134.59 7.58746 134.777 7.23098 135.118 7.12979C135.457 7.04469 135.814 7.23098 135.9 7.56906C136.001 7.90713 135.814 8.26361 135.475 8.36481C135.409 8.36481 135.355 8.3809 135.305 8.3809C135.017 8.3809 134.761 8.19462 134.675 7.92323V7.92554ZM235.775 8.24751C235.436 8.14632 235.231 7.78984 235.335 7.46786C235.42 7.12979 235.775 6.92511 236.116 7.0286C236.455 7.11369 236.661 7.46787 236.557 7.80824C236.472 8.07962 236.218 8.26591 235.946 8.26591C235.895 8.26591 235.828 8.26591 235.775 8.24751ZM139.601 6.58703C139.516 6.24895 139.721 5.89247 140.06 5.80737C140.399 5.72228 140.756 5.92697 140.842 6.26505C140.927 6.60313 140.706 6.9596 140.367 7.04469C140.316 7.06309 140.265 7.0631 140.214 7.0631C139.926 7.0631 139.67 6.87681 139.603 6.58933L139.601 6.58703ZM230.866 6.9435C230.527 6.8584 230.305 6.52033 230.407 6.16386C230.492 5.82578 230.831 5.62109 231.17 5.70619C231.509 5.79128 231.714 6.14775 231.629 6.48583C231.562 6.77561 231.306 6.9596 231.018 6.9596C230.967 6.9596 230.916 6.9596 230.863 6.9412L230.866 6.9435ZM144.545 5.3842C144.476 5.04613 144.697 4.70575 145.039 4.62296C145.378 4.55626 145.719 4.75865 145.804 5.11513C145.873 5.4532 145.65 5.79358 145.311 5.86027C145.26 5.87637 145.225 5.87637 145.175 5.87637C144.886 5.87637 144.614 5.69008 144.545 5.3842ZM225.924 5.77288C225.585 5.70618 225.363 5.36581 225.43 5.01163C225.516 4.67355 225.855 4.45277 226.194 4.53786C226.533 4.60686 226.754 4.94494 226.687 5.30141C226.62 5.58889 226.348 5.79358 226.06 5.79358C226.009 5.79358 225.974 5.79358 225.924 5.77518V5.77288ZM149.538 4.33318C149.471 3.9767 149.692 3.63862 150.031 3.57193V3.58803C150.389 3.51903 150.712 3.74212 150.778 4.0802C150.845 4.41827 150.626 4.75865 150.285 4.82534C150.234 4.84374 150.2 4.84375 150.167 4.84375C149.861 4.84375 149.591 4.62296 149.538 4.33548V4.33318ZM220.945 4.74025C220.606 4.68965 220.385 4.35158 220.435 3.9951C220.502 3.65702 220.843 3.43624 221.182 3.50293C221.54 3.56963 221.759 3.8916 221.692 4.24808C221.641 4.55396 221.369 4.75635 221.065 4.75635C221.03 4.75635 220.996 4.75635 220.945 4.74025ZM154.549 3.40174C154.482 3.06366 154.719 2.72329 155.075 2.67269C155.414 2.60599 155.736 2.84288 155.803 3.19705C155.854 3.53513 155.617 3.85711 155.278 3.9261H155.176C154.869 3.9261 154.597 3.70532 154.547 3.40174H154.549ZM215.952 3.85941C215.595 3.79271 215.376 3.47074 215.426 3.13036C215.477 2.77388 215.8 2.537 216.158 2.606C216.497 2.65659 216.734 2.99467 216.683 3.33275C216.633 3.63863 216.36 3.85711 216.054 3.85711H215.952V3.85941ZM159.576 2.62209C159.525 2.26562 159.779 1.94364 160.12 1.89304C160.478 1.85854 160.801 2.09543 160.833 2.45191C160.884 2.78998 160.646 3.11196 160.289 3.16256H160.307H160.206C159.899 3.16256 159.627 2.94177 159.576 2.61979V2.62209ZM210.925 3.09586C210.586 3.06136 210.33 2.73938 210.381 2.38521C210.432 2.04713 210.754 1.79185 211.093 1.84245C211.451 1.89304 211.688 2.21502 211.638 2.5531C211.603 2.87507 211.331 3.11196 211.008 3.11196C210.992 3.11196 210.957 3.11196 210.923 3.09356L210.925 3.09586ZM164.638 1.97814C164.587 1.62166 164.841 1.29968 165.198 1.26748C165.537 1.23299 165.86 1.48827 165.895 1.82635C165.929 2.18282 165.692 2.5048 165.334 2.5393H165.267C164.945 2.5393 164.672 2.30242 164.638 1.98044V1.97814ZM205.879 2.4864C205.54 2.4519 205.284 2.12993 205.319 1.79185C205.354 1.43537 205.676 1.18239 206.032 1.23299C206.371 1.26749 206.627 1.57107 206.592 1.92754C206.557 2.24952 206.269 2.4864 205.946 2.4864H205.877H205.879ZM169.7 1.46987C169.684 1.1134 169.937 0.809815 170.295 0.775317C170.634 0.74082 170.94 1.0122 170.975 1.36638C171.009 1.70446 170.737 2.01033 170.398 2.04483H170.348C170.009 2.04483 169.737 1.78955 169.702 1.46757L169.7 1.46987ZM200.834 2.01263C200.476 1.97814 200.223 1.67456 200.239 1.33418C200.273 0.977706 200.578 0.724722 200.935 0.740821C201.274 0.775319 201.546 1.0789 201.512 1.43538C201.477 1.75735 201.205 2.01263 200.882 2.01263H200.831H200.834ZM174.794 1.0973C174.759 0.740822 175.031 0.453339 175.389 0.418841C175.728 0.400442 176.034 0.671826 176.051 1.0283C176.067 1.36638 175.813 1.67226 175.456 1.68836C175.443 1.69909 175.432 1.70446 175.421 1.70446C175.082 1.70446 174.81 1.43307 174.791 1.095L174.794 1.0973ZM195.754 1.67226C195.415 1.65616 195.142 1.35028 195.159 1.0122C195.175 0.655725 195.481 0.386645 195.82 0.402744C196.178 0.421143 196.45 0.724721 196.431 1.0812C196.413 1.41927 196.125 1.67456 195.786 1.67456H195.751L195.754 1.67226ZM179.872 0.876511C179.872 0.520035 180.144 0.232556 180.499 0.216457C180.838 0.198058 181.145 0.487837 181.145 0.825914C181.161 1.18239 180.873 1.46987 180.534 1.48597H180.517C180.16 1.48597 179.888 1.21459 179.872 0.876511ZM190.692 1.46987C190.334 1.46987 190.064 1.16629 190.064 0.825914C190.081 0.469438 190.369 0.198058 190.726 0.198058C191.065 0.216457 191.356 0.503936 191.337 0.858112C191.337 1.19619 191.047 1.46757 190.708 1.46757H190.689L190.692 1.46987ZM184.968 0.775317C184.968 0.418842 185.256 0.147461 185.614 0.147461C185.953 0.147461 186.243 0.418842 186.243 0.775317C186.243 1.13179 185.953 1.41927 185.614 1.41927C185.256 1.41927 184.968 1.13179 184.968 0.775317Z" fill="#010F3F"/>
<path d="M186.586 221.694C186.567 221.337 186.839 221.05 187.197 221.034C187.536 221.017 187.842 221.305 187.859 221.643C187.875 221.999 187.586 222.287 187.247 222.303H187.213C186.874 222.303 186.602 222.032 186.586 221.694ZM182.068 222.151C181.711 222.117 181.457 221.795 181.508 221.457C181.526 221.1 181.847 220.847 182.204 220.882C182.543 220.916 182.799 221.238 182.764 221.576C182.73 221.914 182.458 222.154 182.135 222.154H182.068V222.151ZM191.647 221.236C191.597 220.898 191.816 220.557 192.173 220.507C192.512 220.44 192.835 220.677 192.904 221.015C192.971 221.372 192.734 221.694 192.395 221.76H192.275C191.97 221.76 191.714 221.539 191.647 221.236ZM176.953 221.286C176.614 221.201 176.409 220.847 176.494 220.507C176.58 220.169 176.919 219.964 177.26 220.049C177.599 220.134 177.82 220.472 177.735 220.813C177.666 221.1 177.396 221.305 177.105 221.305C177.055 221.305 177.004 221.286 176.951 221.286H176.953ZM196.605 220.084C196.504 219.746 196.675 219.389 197.014 219.288C197.353 219.168 197.71 219.355 197.811 219.695C197.929 220.017 197.745 220.39 197.403 220.491C197.353 220.507 197.286 220.525 197.217 220.525C196.944 220.525 196.691 220.355 196.605 220.084ZM172.027 219.711C171.705 219.575 171.534 219.203 171.67 218.881C171.79 218.559 172.163 218.389 172.502 218.524C172.825 218.66 172.978 219.033 172.86 219.355C172.758 219.608 172.521 219.743 172.265 219.743C172.18 219.743 172.094 219.743 172.027 219.709V219.711ZM201.363 218.253C201.192 217.931 201.328 217.558 201.651 217.407C201.958 217.239 202.347 217.372 202.5 217.696C202.654 218 202.518 218.391 202.211 218.543C202.126 218.577 202.025 218.609 201.923 218.609C201.702 218.609 201.464 218.474 201.363 218.253ZM167.358 217.457C167.053 217.287 166.949 216.898 167.12 216.592C167.288 216.289 167.68 216.185 167.985 216.356C168.292 216.523 168.409 216.914 168.222 217.218C168.103 217.42 167.9 217.54 167.678 217.54C167.561 217.54 167.457 217.524 167.355 217.455L167.358 217.457ZM205.797 215.781C205.594 215.477 205.68 215.086 205.968 214.9V214.884C206.256 214.697 206.664 214.766 206.851 215.07C207.054 215.357 206.971 215.748 206.681 215.951C206.579 216.018 206.443 216.052 206.323 216.052C206.12 216.052 205.915 215.951 205.797 215.781ZM163.045 214.596C162.773 214.375 162.722 213.987 162.944 213.697C163.147 213.426 163.555 213.375 163.827 213.58V213.596C164.118 213.8 164.166 214.205 163.947 214.477C163.827 214.647 163.64 214.732 163.437 214.732C163.301 214.732 163.165 214.681 163.048 214.596H163.045ZM209.858 212.715C209.621 212.444 209.637 212.037 209.909 211.818C210.163 211.581 210.571 211.597 210.808 211.853C211.03 212.124 211.011 212.513 210.758 212.749C210.638 212.869 210.486 212.92 210.333 212.92C210.163 212.92 209.976 212.853 209.858 212.717V212.715ZM159.19 211.156C158.936 210.903 158.952 210.512 159.19 210.259C159.446 210.006 159.851 210.022 160.091 210.275C160.345 210.512 160.345 210.919 160.091 211.174C159.971 211.291 159.803 211.344 159.648 211.344C159.48 211.344 159.309 211.294 159.19 211.158V211.156ZM213.442 209.107C213.188 208.886 213.154 208.479 213.375 208.21C213.596 207.957 214.002 207.922 214.274 208.141C214.547 208.361 214.581 208.768 214.344 209.038C214.226 209.173 214.037 209.258 213.869 209.258C213.716 209.258 213.564 209.208 213.444 209.104L213.442 209.107ZM155.827 207.228C155.624 206.94 155.691 206.549 155.963 206.328C156.252 206.126 156.644 206.193 156.865 206.464C157.068 206.751 157.001 207.142 156.729 207.363C156.609 207.448 156.475 207.481 156.339 207.481C156.152 207.481 155.966 207.395 155.83 207.228H155.827ZM216.518 205.059C216.214 204.872 216.128 204.484 216.315 204.178C216.502 203.872 216.892 203.787 217.18 203.976C217.487 204.162 217.57 204.551 217.383 204.856C217.263 205.043 217.06 205.144 216.857 205.144C216.74 205.144 216.62 205.125 216.518 205.059ZM153.06 202.858C152.889 202.552 153.009 202.179 153.314 202.011C153.62 201.841 154.01 201.961 154.181 202.264C154.351 202.57 154.232 202.959 153.927 203.129C153.826 203.18 153.722 203.196 153.62 203.196C153.399 203.196 153.178 203.076 153.06 202.858ZM218.981 200.604C218.658 200.468 218.522 200.096 218.658 199.774C218.794 199.452 219.184 199.3 219.507 199.452C219.811 199.587 219.966 199.96 219.83 200.282C219.712 200.519 219.491 200.671 219.235 200.671C219.149 200.671 219.064 200.655 218.981 200.602V200.604ZM150.92 198.164C150.8 197.842 150.971 197.469 151.294 197.35C151.633 197.232 151.99 197.4 152.108 197.722C152.228 198.044 152.073 198.417 151.734 198.536C151.667 198.571 151.598 198.587 151.513 198.571C151.259 198.571 151.019 198.417 150.92 198.164ZM220.817 195.859C220.459 195.774 220.273 195.418 220.374 195.08C220.459 194.742 220.817 194.555 221.156 194.638C221.495 194.739 221.681 195.096 221.598 195.434C221.513 195.705 221.259 195.892 220.987 195.892C220.92 195.892 220.867 195.873 220.817 195.857V195.859ZM149.46 193.217C149.391 192.86 149.596 192.522 149.954 192.453C150.293 192.368 150.634 192.589 150.701 192.927V192.943C150.786 193.281 150.565 193.622 150.226 193.688C150.175 193.707 150.124 193.707 150.074 193.707C149.783 193.707 149.529 193.504 149.463 193.215L149.46 193.217ZM221.937 190.912C221.598 190.862 221.343 190.54 221.393 190.202C221.444 189.845 221.767 189.608 222.124 189.659C222.463 189.71 222.701 190.032 222.668 190.37C222.618 190.692 222.346 190.929 222.039 190.929C222.004 190.929 221.97 190.929 221.937 190.912ZM148.713 188.1C148.679 187.743 148.935 187.44 149.292 187.421C149.649 187.387 149.954 187.658 149.972 187.996C150.007 188.353 149.735 188.656 149.393 188.691H149.343C149.004 188.691 148.732 188.438 148.713 188.097V188.1ZM221.751 185.22C221.751 185.119 221.769 185.018 221.82 184.933C221.769 184.848 221.735 184.747 221.735 184.645C221.735 184.289 222.007 184.001 222.362 184.001C222.719 184.001 223.007 184.273 223.007 184.629C223.007 184.73 222.989 184.832 222.938 184.933C222.989 185.018 223.024 185.119 223.024 185.22C223.024 185.577 222.735 185.864 222.378 185.864C222.02 185.864 221.748 185.574 221.748 185.22H221.751ZM149.255 183.61C148.916 183.592 148.644 183.288 148.66 182.932C148.676 182.594 148.983 182.323 149.34 182.339C149.679 182.355 149.951 182.661 149.935 183.017C149.917 183.355 149.629 183.61 149.29 183.61H149.255ZM221.308 179.68C221.257 179.324 221.495 179.002 221.852 178.953C222.191 178.903 222.514 179.14 222.583 179.478C222.634 179.834 222.396 180.156 222.039 180.204H221.937C221.633 180.204 221.361 179.984 221.31 179.68H221.308ZM149.832 178.562C149.493 178.493 149.271 178.155 149.338 177.817C149.405 177.479 149.746 177.258 150.085 177.325C150.424 177.392 150.646 177.714 150.579 178.07C150.528 178.374 150.256 178.578 149.968 178.578C149.917 178.578 149.866 178.578 149.832 178.562ZM220.203 174.818C220.102 174.48 220.289 174.124 220.628 174.022C220.967 173.921 221.324 174.107 221.426 174.446C221.527 174.784 221.34 175.14 221.001 175.241C220.934 175.257 220.865 175.257 220.814 175.257C220.542 175.257 220.289 175.087 220.203 174.818ZM151.105 173.65C150.766 173.53 150.595 173.158 150.715 172.836C150.832 172.498 151.19 172.327 151.531 172.445C151.854 172.564 152.041 172.918 151.921 173.259C151.819 173.512 151.582 173.682 151.31 173.682C151.243 173.682 151.174 173.664 151.107 173.648L151.105 173.65ZM218.418 170.161C218.266 169.839 218.402 169.45 218.725 169.315C219.048 169.161 219.422 169.296 219.574 169.618C219.726 169.94 219.59 170.313 219.267 170.465C219.182 170.499 219.096 170.515 218.995 170.515C218.757 170.515 218.536 170.379 218.418 170.159V170.161ZM153.058 168.958C152.735 168.788 152.617 168.399 152.786 168.093C152.94 167.787 153.33 167.654 153.634 167.822C153.957 167.992 154.077 168.365 153.906 168.687C153.805 168.908 153.584 169.025 153.346 169.025C153.245 169.025 153.143 169.006 153.058 168.956V168.958ZM216.006 165.791C215.819 165.504 215.905 165.097 216.193 164.91C216.481 164.724 216.89 164.809 217.076 165.097C217.263 165.403 217.178 165.791 216.889 165.978C216.772 166.044 216.652 166.079 216.532 166.079C216.329 166.079 216.124 165.978 216.006 165.791ZM155.638 164.572C155.35 164.37 155.281 163.979 155.486 163.691C155.689 163.404 156.097 163.335 156.385 163.54C156.674 163.744 156.724 164.149 156.521 164.437C156.404 164.607 156.199 164.692 156.012 164.692C155.876 164.692 155.756 164.657 155.638 164.572ZM212.999 161.794C212.778 161.539 212.796 161.134 213.068 160.895C213.34 160.674 213.73 160.709 213.968 160.962C214.189 161.233 214.171 161.64 213.899 161.858C213.781 161.96 213.626 162.013 213.49 162.013C213.304 162.013 213.133 161.946 212.997 161.792L212.999 161.794ZM158.814 160.607C158.56 160.354 158.542 159.963 158.779 159.71C159.017 159.455 159.425 159.439 159.678 159.676C159.932 159.913 159.951 160.32 159.713 160.573C159.577 160.709 159.409 160.778 159.238 160.778C159.083 160.778 158.931 160.727 158.814 160.607ZM209.482 158.252C209.21 158.032 209.192 157.624 209.416 157.355C209.653 157.102 210.061 157.068 210.315 157.305C210.587 157.542 210.603 157.933 210.382 158.204C210.246 158.34 210.075 158.425 209.888 158.425C209.752 158.425 209.6 158.374 209.48 158.255L209.482 158.252ZM162.499 157.1C162.277 156.829 162.312 156.422 162.6 156.201C162.872 155.98 163.262 156.031 163.483 156.302C163.705 156.573 163.67 156.981 163.382 157.199C163.264 157.3 163.128 157.335 162.992 157.335C162.805 157.335 162.619 157.25 162.499 157.098V157.1ZM205.491 155.237C205.202 155.051 205.117 154.644 205.32 154.356C205.507 154.069 205.897 153.984 206.203 154.17H206.187C206.491 154.373 206.577 154.763 206.374 155.051C206.254 155.237 206.051 155.338 205.848 155.338C205.73 155.338 205.611 155.304 205.491 155.237ZM166.627 154.154C166.456 153.848 166.56 153.459 166.848 153.273C167.152 153.087 167.544 153.188 167.731 153.494C167.902 153.8 167.8 154.189 167.51 154.375C167.408 154.425 167.288 154.46 167.187 154.46C166.966 154.46 166.747 154.34 166.627 154.154ZM201.123 152.799C200.819 152.645 200.683 152.275 200.819 151.953C200.971 151.631 201.363 151.495 201.683 151.647C201.99 151.799 202.126 152.172 201.972 152.494C201.87 152.73 201.633 152.866 201.395 152.866C201.31 152.866 201.224 152.832 201.123 152.799ZM171.144 151.783C171.008 151.461 171.163 151.088 171.483 150.953C171.806 150.817 172.18 150.971 172.316 151.309C172.452 151.631 172.3 152.004 171.977 152.139C171.891 152.174 171.806 152.19 171.723 152.19C171.467 152.19 171.248 152.038 171.144 151.783ZM196.469 150.987C196.13 150.886 195.944 150.529 196.045 150.191C196.147 149.853 196.504 149.667 196.843 149.768C197.182 149.886 197.369 150.242 197.267 150.564C197.182 150.835 196.928 151.022 196.656 151.022C196.589 151.022 196.539 151.006 196.469 150.987ZM175.934 150.09C175.849 149.752 176.051 149.396 176.393 149.311C176.732 149.225 177.073 149.428 177.156 149.768C177.258 150.106 177.055 150.447 176.716 150.548C176.646 150.548 176.596 150.564 176.545 150.564C176.257 150.564 176.001 150.378 175.934 150.09ZM191.594 149.853C191.255 149.784 191.018 149.465 191.069 149.127C191.135 148.77 191.458 148.533 191.8 148.602C192.157 148.653 192.395 148.975 192.325 149.331C192.275 149.637 192.002 149.856 191.696 149.856H191.594V149.853ZM180.91 149.058C180.876 148.719 181.132 148.398 181.471 148.363C181.828 148.312 182.133 148.565 182.183 148.922C182.218 149.26 181.98 149.582 181.623 149.616C181.607 149.635 181.572 149.635 181.556 149.635C181.233 149.635 180.961 149.398 180.91 149.06V149.058ZM186.618 149.396C186.26 149.38 185.988 149.092 185.988 148.736C186.004 148.398 186.293 148.11 186.65 148.126C187.008 148.126 187.277 148.414 187.277 148.77C187.261 149.127 186.973 149.398 186.632 149.398H186.616L186.618 149.396Z" fill="#010F3F"/>
<g opacity="0.5">
<path d="M370.404 185.857C370.331 185.857 370.254 185.844 370.183 185.818L235.491 136.047C235.288 135.971 235.135 135.799 235.089 135.587C235.043 135.376 235.108 135.155 235.26 135.003L315.884 54.5914C316.034 54.442 316.251 54.3753 316.459 54.419C316.666 54.4604 316.841 54.6029 316.922 54.7984L370.99 184.981C371.087 185.213 371.036 185.482 370.861 185.664C370.739 185.791 370.573 185.86 370.402 185.86L370.404 185.857ZM236.865 135.199L369.258 184.121L316.115 56.1622L236.867 135.201L236.865 135.199Z" fill="#010F3F"/>
<path d="M185.804 115.464C185.684 115.464 185.564 115.429 185.46 115.363C185.278 115.245 185.167 115.045 185.167 114.827V1.12014C185.167 0.908559 185.273 0.710772 185.451 0.59118C185.626 0.473888 185.85 0.450889 186.048 0.533684L316.58 54.4512C316.813 54.5478 316.968 54.7732 316.972 55.0262C316.977 55.2792 316.832 55.5092 316.601 55.615L186.069 115.404C185.984 115.443 185.894 115.462 185.804 115.462V115.464ZM186.44 2.07228V113.838L314.745 55.0699L186.44 2.07228Z" fill="#010F3F"/>
<path d="M135.894 136.087C135.728 136.087 135.565 136.022 135.445 135.9L54.8203 55.4932C54.6704 55.3437 54.6058 55.1275 54.6474 54.9206C54.6889 54.7136 54.8318 54.5388 55.0279 54.4583L185.562 0.536135C185.795 0.441842 186.067 0.490138 186.247 0.664926C186.429 0.839714 186.489 1.1065 186.402 1.34338L136.492 135.673C136.416 135.875 136.243 136.027 136.031 136.073C135.987 136.082 135.941 136.087 135.894 136.087ZM56.3953 55.2678L135.643 134.302L184.7 2.26562L56.3953 55.2678Z" fill="#010F3F"/>
<path d="M1.20317 185.86C0.991017 185.86 0.792699 185.754 0.672784 185.577C0.555175 185.4 0.532112 185.177 0.612824 184.981L54.6784 54.7963C54.7753 54.564 55.0013 54.4099 55.2549 54.403C55.5086 54.38 55.7392 54.5433 55.8453 54.7733L115.801 184.956C115.89 185.154 115.874 185.381 115.759 185.565C115.641 185.747 115.441 185.858 115.222 185.858L1.20087 185.862L1.20317 185.86ZM55.2987 56.6247L2.15558 184.588L114.23 184.583L55.2987 56.6247Z" fill="#010F3F"/>
<path d="M55.2745 316.036C55.233 316.036 55.1915 316.031 55.15 316.024C54.9425 315.983 54.7672 315.84 54.6865 315.645L0.616301 185.469C0.519447 185.237 0.570182 184.967 0.747748 184.784C0.925315 184.602 1.19281 184.544 1.42803 184.629L136.118 234.4C136.321 234.476 136.473 234.649 136.519 234.86C136.565 235.072 136.501 235.293 136.349 235.444L55.7288 315.849C55.6089 315.969 55.4452 316.036 55.2791 316.036H55.2745ZM2.35046 186.327L55.4982 314.279L134.741 235.247L2.35046 186.324V186.327Z" fill="#010F3F"/>
<path d="M185.804 369.955C185.721 369.955 185.638 369.939 185.559 369.907L55.0295 315.99C54.7965 315.893 54.642 315.668 54.6351 315.415C54.6305 315.162 54.7758 314.932 55.0064 314.826L185.536 255.032C185.735 254.94 185.963 254.959 186.147 255.074C186.33 255.191 186.44 255.391 186.44 255.609V369.321C186.44 369.532 186.334 369.73 186.157 369.85C186.051 369.921 185.926 369.955 185.802 369.955H185.804ZM56.8651 315.371L185.167 368.369V256.598L56.8651 315.371Z" fill="#010F3F"/>
<path d="M185.804 369.955C185.643 369.955 185.484 369.893 185.361 369.778C185.179 369.604 185.119 369.337 185.207 369.1L235.112 234.778C235.188 234.575 235.361 234.423 235.574 234.377C235.781 234.331 236.005 234.396 236.159 234.548L316.786 314.952C316.936 315.102 317.001 315.318 316.959 315.525C316.918 315.732 316.775 315.907 316.579 315.987L186.046 369.905C185.968 369.937 185.885 369.953 185.802 369.953L185.804 369.955ZM235.961 236.148L186.907 368.178L315.211 315.18L235.961 236.148Z" fill="#010F3F"/>
<path d="M316.335 316.035C316.086 316.035 315.86 315.89 315.756 315.665L255.799 185.489C255.709 185.291 255.725 185.064 255.84 184.882C255.958 184.698 256.158 184.59 256.378 184.59L370.398 184.585C370.611 184.585 370.809 184.691 370.929 184.868C371.046 185.045 371.069 185.268 370.989 185.464L316.925 315.644C316.829 315.877 316.603 316.031 316.349 316.035H316.337H316.335ZM257.371 185.86L316.305 313.811L369.446 185.855L257.371 185.86Z" fill="#010F3F"/>
</g>
<path d="M277.54 277.348C277.457 277.348 277.374 277.331 277.296 277.299L55.8172 185.807C55.6211 185.724 55.4782 185.552 55.4367 185.345C55.3951 185.135 55.4597 184.921 55.6096 184.772L185.351 55.3827C185.501 55.2332 185.715 55.1665 185.925 55.2079C186.133 55.2493 186.308 55.3919 186.389 55.5873L278.126 276.469C278.223 276.706 278.17 276.98 277.988 277.161C277.865 277.283 277.704 277.348 277.538 277.348H277.54ZM57.187 184.997L276.364 275.54L185.581 56.9535L57.1893 184.997H57.187Z" fill="#010F3F"/>
<path d="M94.0646 277.348C93.94 277.348 93.8178 277.311 93.7094 277.242C93.5319 277.124 93.4258 276.927 93.4258 276.713V93.7256C93.4258 93.514 93.5319 93.3162 93.7094 93.1966C93.8847 93.0794 94.1084 93.0564 94.3067 93.1392L315.778 184.638C316.016 184.737 316.17 184.967 316.17 185.225C316.17 185.482 316.016 185.715 315.778 185.811L94.3067 277.299C94.2283 277.331 94.1453 277.348 94.0623 277.348H94.0646ZM94.701 94.6754V275.761L313.871 185.223L94.701 94.6731V94.6754Z" fill="#010F3F"/>
<path d="M185.804 315.244C185.636 315.244 185.474 315.178 185.354 315.058L55.6201 185.667C55.4702 185.517 55.4056 185.301 55.4472 185.094C55.4887 184.887 55.6316 184.712 55.8277 184.632L277.299 93.153C277.539 93.0564 277.811 93.1093 277.994 93.291C278.176 93.4727 278.231 93.7464 278.132 93.9832L186.394 314.853C186.311 315.049 186.139 315.191 185.931 315.233C185.889 315.242 185.848 315.244 185.806 315.244H185.804ZM57.1928 185.441L185.58 313.487L276.363 94.9124L57.1928 185.441Z" fill="#010F3F"/>
<path d="M277.541 277.348L94.0665 277.338C93.8543 277.338 93.656 277.233 93.5361 277.055C93.4184 276.878 93.3954 276.655 93.4761 276.46L185.216 55.5965C185.414 55.1228 186.196 55.1228 186.394 55.5965L278.132 276.469C278.212 276.664 278.189 276.888 278.072 277.065C277.954 277.242 277.756 277.348 277.541 277.348ZM95.0189 276.069L276.589 276.078L185.806 57.5008L95.0189 276.069Z" fill="#010F3F"/>
<path d="M185.807 315.235C185.765 315.235 185.724 315.231 185.682 315.224C185.474 315.182 185.299 315.04 185.219 314.844L93.4788 93.9789C93.382 93.742 93.435 93.4683 93.6172 93.2866C93.7994 93.1049 94.0715 93.052 94.3113 93.1486L315.783 184.634C315.979 184.717 316.122 184.889 316.164 185.096C316.205 185.306 316.14 185.52 315.991 185.669L186.259 315.049C186.139 315.169 185.975 315.235 185.809 315.235H185.807ZM95.243 94.908L186.03 313.478L314.413 185.444L95.243 94.908Z" fill="#010F3F"/>
<path d="M277.54 277.345C277.457 277.345 277.374 277.329 277.296 277.297L55.8242 185.809C55.5866 185.71 55.4321 185.48 55.4321 185.223C55.4321 184.965 55.5866 184.733 55.8242 184.636L277.296 93.1505C277.494 93.07 277.718 93.093 277.893 93.2103C278.071 93.3276 278.177 93.5277 278.177 93.7393V276.713C278.177 276.924 278.071 277.122 277.893 277.242C277.787 277.313 277.663 277.347 277.538 277.347L277.54 277.345ZM57.7336 185.223L276.904 275.76V94.6868L57.7336 185.223Z" fill="#010F3F"/>
<path d="M94.0655 277.346C93.8994 277.346 93.738 277.281 93.6158 277.159C93.4336 276.978 93.3782 276.704 93.4774 276.467L185.217 55.5945C185.3 55.399 185.473 55.2564 185.681 55.215C185.893 55.1759 186.105 55.238 186.255 55.3898L315.987 184.774C316.137 184.924 316.201 185.14 316.16 185.347C316.118 185.554 315.975 185.729 315.779 185.809L94.3076 277.297C94.2292 277.329 94.1462 277.346 94.0631 277.346H94.0655ZM186.029 56.9606L95.2415 275.538L314.412 185L186.029 56.9606Z" fill="#010F3F"/>
<path d="M185.807 315.24C185.548 315.24 185.315 315.086 185.218 314.846L93.4788 93.9762C93.3981 93.7807 93.4211 93.5576 93.5388 93.3805C93.6564 93.2034 93.8547 93.0977 94.0691 93.0977H277.544C277.756 93.0977 277.954 93.2034 278.074 93.3805C278.192 93.5576 278.215 93.7807 278.134 93.9762L186.397 314.846C186.298 315.083 186.067 315.24 185.809 315.24H185.807ZM95.0193 94.3695L185.807 312.944L276.589 94.3695H95.0193Z" fill="#010F3F"/>
</g>
</svg>
