<svg width="389" height="370" viewBox="0 0 389 370" fill="none" xmlns="http://www.w3.org/2000/svg">
<g opacity="0.1">
<path d="M115.961 321.391C115.866 321.391 115.773 321.367 115.688 321.318C115.518 321.221 115.416 321.039 115.416 320.846V49.1558C115.416 48.9603 115.52 48.7806 115.688 48.6839C115.858 48.5852 116.065 48.5852 116.233 48.6839L351.596 184.529C351.766 184.626 351.869 184.807 351.869 185.001C351.869 185.194 351.766 185.376 351.596 185.473L116.233 321.318C116.148 321.367 116.055 321.391 115.961 321.391ZM116.506 50.1014V319.902L350.234 185.003L116.506 50.0995V50.1014Z" fill="#010F3F"/>
<path d="M270.298 320.927C270.203 320.927 270.11 320.903 270.025 320.854L35.4456 185.473C35.2758 185.376 35.1731 185.194 35.1731 185.001C35.1731 184.807 35.2758 184.626 35.4456 184.529L270.025 49.1458C270.195 49.0471 270.402 49.0471 270.57 49.1458C270.74 49.2426 270.843 49.4242 270.843 49.6177V320.38C270.843 320.575 270.738 320.755 270.57 320.852C270.485 320.901 270.392 320.925 270.298 320.925V320.927ZM36.8103 185.001L269.752 319.438V50.5634L36.8103 185.001Z" fill="#010F3F"/>
<g opacity="0.5">
<path d="M194.173 368.446C194.078 368.446 193.985 368.423 193.9 368.373L35.4456 276.924C35.2758 276.827 35.1731 276.646 35.1731 276.452V93.5498C35.1731 93.3563 35.2758 93.1747 35.4456 93.0779L193.9 1.62677C194.07 1.52806 194.277 1.52806 194.445 1.62677L352.896 93.0779C353.066 93.1747 353.168 93.3563 353.168 93.5498V276.452C353.168 276.646 353.064 276.827 352.896 276.924L194.445 368.373C194.36 368.423 194.268 368.446 194.173 368.446ZM36.2652 276.136L194.173 367.272L352.078 276.136V93.8637L194.173 2.72843L36.2652 93.8637V276.136Z" fill="#010F3F"/>
</g>
<g opacity="0.4">
<path d="M253.526 368.154H134.819C134.704 368.154 134.592 368.118 134.499 368.049L38.4672 298.305C38.3743 298.238 38.3052 298.143 38.2697 298.033L1.58184 185.169C1.54629 185.06 1.54629 184.941 1.58184 184.831L38.2677 71.9686C38.3032 71.858 38.3724 71.7632 38.4652 71.6961L134.499 1.95229C134.592 1.88319 134.704 1.84766 134.819 1.84766H253.526C253.641 1.84766 253.754 1.88319 253.846 1.95229L349.878 71.6961C349.973 71.7632 350.04 71.858 350.076 71.9686L386.758 184.833C386.793 184.941 386.793 185.06 386.758 185.17L350.076 298.033C350.04 298.143 349.971 298.238 349.878 298.305L253.846 368.049C253.754 368.118 253.641 368.154 253.526 368.154ZM134.997 367.064H253.349L349.094 297.527L385.665 185.001L349.094 72.474L253.349 2.93747H134.997L39.2512 72.474L2.67396 185.001L39.2512 297.527L134.997 367.064Z" fill="#010F3F"/>
</g>
<path d="M270.569 231.316L270.049 232.273L352.372 276.958L352.893 276L270.569 231.316Z" fill="#010F3F"/>
<path d="M352.372 93.0605L270.025 137.702L270.545 138.66L352.892 94.0185L352.372 93.0605Z" fill="#010F3F"/>
<path d="M193.587 2.09027L192.994 93.9067L194.084 93.9138L194.677 2.09731L193.587 2.09027Z" fill="#010F3F"/>
<path d="M35.9868 93.0771L35.4521 94.0269L115.694 139.171L116.228 138.222L35.9868 93.0771Z" fill="#010F3F"/>
<path d="M115.681 230.816L35.4685 275.999L36.0037 276.948L116.216 231.765L115.681 230.816Z" fill="#010F3F"/>
<path d="M194.058 276.459L192.968 276.466L193.607 367.917L194.697 367.91L194.058 276.459Z" fill="#010F3F"/>
<path d="M115.961 322.943C114.801 322.943 113.861 322.003 113.861 320.844C113.861 319.685 114.801 318.746 115.961 318.746C117.12 318.746 118.06 319.685 118.06 320.844C118.06 322.003 117.12 322.943 115.961 322.943Z" fill="#010F3F"/>
<path d="M351.326 187.1C350.167 187.1 349.227 186.16 349.227 185.001C349.227 183.842 350.167 182.902 351.326 182.902C352.485 182.902 353.425 183.842 353.425 185.001C353.425 186.16 352.485 187.1 351.326 187.1Z" fill="#010F3F"/>
<path d="M115.961 51.2545C117.12 51.2545 118.06 50.3149 118.06 49.1558C118.06 47.9967 117.12 47.0571 115.961 47.0571C114.801 47.0571 113.861 47.9967 113.861 49.1558C113.861 50.3149 114.801 51.2545 115.961 51.2545Z" fill="#010F3F"/>
<path d="M270.298 51.7183C269.138 51.7183 268.198 50.7786 268.198 49.6197C268.198 48.4608 269.138 47.521 270.298 47.521C271.457 47.521 272.397 48.4608 272.397 49.6197C272.397 50.7786 271.457 51.7183 270.298 51.7183Z" fill="#010F3F"/>
<path d="M35.7202 187.1C36.8796 187.1 37.8195 186.16 37.8195 185.001C37.8195 183.842 36.8796 182.902 35.7202 182.902C34.5607 182.902 33.6208 183.842 33.6208 185.001C33.6208 186.16 34.5607 187.1 35.7202 187.1Z" fill="#010F3F"/>
<path d="M270.298 322.481C269.138 322.481 268.198 321.541 268.198 320.382C268.198 319.223 269.138 318.283 270.298 318.283C271.457 318.283 272.397 319.223 272.397 320.382C272.397 321.541 271.457 322.481 270.298 322.481Z" fill="#010F3F"/>
<path d="M35.7202 278.549C36.8796 278.549 37.8195 277.609 37.8195 276.45C37.8195 275.291 36.8796 274.352 35.7202 274.352C34.5607 274.352 33.6208 275.291 33.6208 276.45C33.6208 277.609 34.5607 278.549 35.7202 278.549Z" fill="#010F3F"/>
<path d="M194.173 370C195.332 370 196.272 369.06 196.272 367.901C196.272 366.742 195.332 365.803 194.173 365.803C193.013 365.803 192.073 366.742 192.073 367.901C192.073 369.06 193.013 370 194.173 370Z" fill="#010F3F"/>
<path d="M354.108 277.935C354.927 277.115 354.927 275.786 354.108 274.967C353.288 274.147 351.959 274.147 351.139 274.967C350.319 275.786 350.319 277.115 351.139 277.935C351.959 278.754 353.288 278.754 354.108 277.935Z" fill="#010F3F"/>
<path d="M352.623 95.6485C351.464 95.6485 350.524 94.7088 350.524 93.5498C350.524 92.3909 351.464 91.4512 352.623 91.4512C353.783 91.4512 354.723 92.3909 354.723 93.5498C354.723 94.7088 353.783 95.6485 352.623 95.6485Z" fill="#010F3F"/>
<path d="M194.173 4.19734C195.332 4.19734 196.272 3.25774 196.272 2.09867C196.272 0.939607 195.332 0 194.173 0C193.013 0 192.073 0.939607 192.073 2.09867C192.073 3.25774 193.013 4.19734 194.173 4.19734Z" fill="#010F3F"/>
<path d="M35.7202 95.6485C34.5609 95.6485 33.6208 94.7088 33.6208 93.5498C33.6208 92.3909 34.5609 91.4512 35.7202 91.4512C36.8794 91.4512 37.8195 92.3909 37.8195 93.5498C37.8195 94.7088 36.8794 95.6485 35.7202 95.6485Z" fill="#010F3F"/>
<path d="M253.527 369.706C252.367 369.706 251.427 368.766 251.427 367.607C251.427 366.448 252.367 365.508 253.527 365.508C254.686 365.508 255.626 366.448 255.626 367.607C255.626 368.766 254.686 369.706 253.527 369.706Z" fill="#010F3F"/>
<path d="M349.558 299.962C348.399 299.962 347.459 299.022 347.459 297.863C347.459 296.704 348.399 295.765 349.558 295.765C350.718 295.765 351.658 296.704 351.658 297.863C351.658 299.022 350.718 299.962 349.558 299.962Z" fill="#010F3F"/>
<path d="M386.24 187.1C387.4 187.1 388.34 186.16 388.34 185.001C388.34 183.842 387.4 182.902 386.24 182.902C385.081 182.902 384.141 183.842 384.141 185.001C384.141 186.16 385.081 187.1 386.24 187.1Z" fill="#010F3F"/>
<path d="M349.558 74.2354C348.399 74.2354 347.459 73.2957 347.459 72.1368C347.459 70.9778 348.399 70.0381 349.558 70.0381C350.718 70.0381 351.658 70.9778 351.658 72.1368C351.658 73.2957 350.718 74.2354 349.558 74.2354Z" fill="#010F3F"/>
<path d="M253.527 4.49129C252.367 4.49129 251.427 3.55153 251.427 2.39262C251.427 1.23371 252.367 0.293945 253.527 0.293945C254.686 0.293945 255.626 1.23371 255.626 2.39262C255.626 3.55153 254.686 4.49129 253.527 4.49129Z" fill="#010F3F"/>
<path d="M134.819 4.49129C133.66 4.49129 132.72 3.55153 132.72 2.39262C132.72 1.23371 133.66 0.293945 134.819 0.293945C135.978 0.293945 136.918 1.23371 136.918 2.39262C136.918 3.55153 135.978 4.49129 134.819 4.49129Z" fill="#010F3F"/>
<path d="M38.7871 74.2354C39.9465 74.2354 40.8864 73.2958 40.8864 72.1368C40.8864 70.9777 39.9465 70.0381 38.7871 70.0381C37.6276 70.0381 36.6877 70.9777 36.6877 72.1368C36.6877 73.2958 37.6276 74.2354 38.7871 74.2354Z" fill="#010F3F"/>
<path d="M2.09932 187.1C0.940055 187.1 0 186.16 0 185.001C0 183.842 0.940055 182.902 2.09932 182.902C3.25859 182.902 4.19865 183.842 4.19865 185.001C4.19865 186.16 3.25859 187.1 2.09932 187.1Z" fill="#010F3F"/>
<path d="M38.7871 299.962C39.9465 299.962 40.8864 299.022 40.8864 297.863C40.8864 296.704 39.9465 295.765 38.7871 295.765C37.6276 295.765 36.6877 296.704 36.6877 297.863C36.6877 299.022 37.6276 299.962 38.7871 299.962Z" fill="#010F3F"/>
<path d="M134.819 369.706C135.978 369.706 136.918 368.766 136.918 367.607C136.918 366.448 135.978 365.508 134.819 365.508C133.66 365.508 132.72 366.448 132.72 367.607C132.72 368.766 133.66 369.706 134.819 369.706Z" fill="#010F3F"/>
<path d="M270.298 233.871C269.138 233.871 268.198 232.931 268.198 231.772C268.198 230.613 269.138 229.673 270.298 229.673C271.457 229.673 272.397 230.613 272.397 231.772C272.397 232.931 271.457 233.871 270.298 233.871Z" fill="#010F3F"/>
<path d="M354.108 277.935C354.927 277.115 354.927 275.786 354.108 274.967C353.288 274.147 351.959 274.147 351.139 274.967C350.319 275.786 350.319 277.115 351.139 277.935C351.959 278.754 353.288 278.754 354.108 277.935Z" fill="#010F3F"/>
<path d="M270.298 140.327C269.138 140.327 268.198 139.387 268.198 138.228C268.198 137.069 269.138 136.129 270.298 136.129C271.457 136.129 272.397 137.069 272.397 138.228C272.397 139.387 271.457 140.327 270.298 140.327Z" fill="#010F3F"/>
<path d="M352.623 95.6485C351.464 95.6485 350.524 94.7088 350.524 93.5498C350.524 92.3909 351.464 91.4512 352.623 91.4512C353.783 91.4512 354.723 92.3909 354.723 93.5498C354.723 94.7088 353.783 95.6485 352.623 95.6485Z" fill="#010F3F"/>
<path d="M193.529 96.0138C192.37 96.0138 191.43 95.074 191.43 93.9151C191.43 92.7562 192.37 91.8164 193.529 91.8164C194.688 91.8164 195.628 92.7562 195.628 93.9151C195.628 95.074 194.688 96.0138 193.529 96.0138Z" fill="#010F3F"/>
<path d="M194.173 4.19734C195.332 4.19734 196.272 3.25774 196.272 2.09867C196.272 0.939607 195.332 0 194.173 0C193.013 0 192.073 0.939607 192.073 2.09867C192.073 3.25774 193.013 4.19734 194.173 4.19734Z" fill="#010F3F"/>
<path d="M115.961 140.791C117.12 140.791 118.06 139.851 118.06 138.692C118.06 137.533 117.12 136.593 115.961 136.593C114.801 136.593 113.861 137.533 113.861 138.692C113.861 139.851 114.801 140.791 115.961 140.791Z" fill="#010F3F"/>
<path d="M35.7202 95.6485C34.5609 95.6485 33.6208 94.7088 33.6208 93.5498C33.6208 92.3909 34.5609 91.4512 35.7202 91.4512C36.8794 91.4512 37.8195 92.3909 37.8195 93.5498C37.8195 94.7088 36.8794 95.6485 35.7202 95.6485Z" fill="#010F3F"/>
<path d="M35.7202 278.549C36.8796 278.549 37.8195 277.609 37.8195 276.45C37.8195 275.291 36.8796 274.352 35.7202 274.352C34.5607 274.352 33.6208 275.291 33.6208 276.45C33.6208 277.609 34.5607 278.549 35.7202 278.549Z" fill="#010F3F"/>
<path d="M115.961 233.417C117.12 233.417 118.06 232.477 118.06 231.318C118.06 230.159 117.12 229.219 115.961 229.219C114.801 229.219 113.861 230.159 113.861 231.318C113.861 232.477 114.801 233.417 115.961 233.417Z" fill="#010F3F"/>
<path d="M195.57 276.925C195.835 275.796 195.135 274.667 194.006 274.402C192.877 274.137 191.747 274.836 191.482 275.965C191.217 277.093 191.917 278.223 193.046 278.488C194.175 278.753 195.305 278.053 195.57 276.925Z" fill="#010F3F"/>
<path d="M194.173 370C195.332 370 196.272 369.06 196.272 367.901C196.272 366.742 195.332 365.803 194.173 365.803C193.013 365.803 192.073 366.742 192.073 367.901C192.073 369.06 193.013 370 194.173 370Z" fill="#010F3F"/>
</g>
</svg>
