<svg width="440" height="439" viewBox="0 0 440 439" fill="none" xmlns="http://www.w3.org/2000/svg">
<g opacity="0.1">
<path d="M220.554 437.817C220.554 437.46 220.842 437.173 221.181 437.173C221.539 437.173 221.827 437.444 221.827 437.801C221.827 438.157 221.555 438.445 221.197 438.445C220.84 438.445 220.552 438.157 220.552 437.817H220.554ZM216.087 438.41C215.73 438.41 215.46 438.123 215.46 437.766C215.46 437.41 215.764 437.138 216.106 437.138C216.463 437.157 216.735 437.444 216.735 437.798C216.735 438.136 216.445 438.408 216.106 438.408H216.087V438.41ZM225.65 437.732C225.65 437.375 225.922 437.088 226.278 437.072C226.617 437.072 226.923 437.343 226.923 437.699C226.939 438.038 226.667 438.343 226.312 438.343H226.296C225.957 438.343 225.666 438.072 225.65 437.734V437.732ZM210.975 438.274C210.617 438.258 210.345 437.971 210.363 437.614C210.38 437.258 210.668 436.987 211.025 437.005C211.383 437.023 211.655 437.311 211.636 437.665C211.618 438.003 211.346 438.274 211.007 438.274H210.972H210.975ZM230.747 437.529C230.728 437.173 231 436.885 231.342 436.869C231.699 436.853 232.004 437.125 232.022 437.463C232.038 437.819 231.766 438.123 231.411 438.141H231.376C231.053 438.141 230.765 437.87 230.749 437.532L230.747 437.529ZM205.862 438.003C205.523 437.985 205.251 437.681 205.267 437.325C205.302 436.987 205.59 436.715 205.947 436.731C206.305 436.766 206.558 437.053 206.542 437.41C206.524 437.748 206.236 438.003 205.913 438.003H205.862ZM235.825 437.223C235.79 436.867 236.062 436.563 236.401 436.529C236.759 436.51 237.063 436.766 237.098 437.122C237.116 437.46 236.86 437.766 236.503 437.801H236.452C236.129 437.801 235.841 437.548 235.822 437.226L235.825 437.223ZM200.766 437.63C200.408 437.596 200.155 437.274 200.189 436.936C200.224 436.579 200.528 436.326 200.886 436.361C201.225 436.395 201.48 436.699 201.462 437.056C201.427 437.378 201.139 437.63 200.816 437.63H200.766ZM240.903 436.784C240.852 436.428 241.106 436.124 241.463 436.09C241.82 436.055 242.125 436.31 242.159 436.667C242.194 437.005 241.938 437.311 241.583 437.361H241.532C241.209 437.361 240.921 437.108 240.905 436.786L240.903 436.784ZM195.669 437.122C195.33 437.088 195.074 436.766 195.109 436.409C195.16 436.071 195.466 435.816 195.821 435.85C196.16 435.901 196.416 436.207 196.382 436.561C196.347 436.883 196.059 437.12 195.736 437.12H195.667L195.669 437.122ZM245.948 436.241C245.914 435.885 246.151 435.563 246.509 435.531C246.866 435.48 247.17 435.733 247.221 436.073C247.256 436.43 247.018 436.734 246.661 436.784H246.594C246.271 436.784 245.999 436.547 245.948 436.241ZM190.607 436.494C190.25 436.444 190.015 436.138 190.063 435.784C190.098 435.427 190.421 435.19 190.776 435.241C191.115 435.292 191.371 435.597 191.32 435.954C191.269 436.276 190.997 436.513 190.69 436.513C190.656 436.513 190.624 436.497 190.605 436.497L190.607 436.494ZM251.008 435.563C250.941 435.206 251.195 434.884 251.534 434.836C251.891 434.786 252.214 435.039 252.265 435.379C252.315 435.717 252.062 436.057 251.72 436.108H251.635C251.312 436.108 251.04 435.887 251.005 435.565L251.008 435.563ZM185.546 435.749C185.188 435.699 184.951 435.377 185.02 435.039C185.071 434.682 185.393 434.445 185.751 434.496H185.735C186.092 434.565 186.33 434.884 186.279 435.225C186.228 435.547 185.956 435.768 185.649 435.768C185.615 435.768 185.583 435.768 185.548 435.751L185.546 435.749ZM256.037 434.783C255.968 434.427 256.208 434.105 256.547 434.038C256.904 433.988 257.227 434.208 257.294 434.562C257.345 434.901 257.107 435.241 256.768 435.292C256.734 435.308 256.701 435.308 256.667 435.308C256.36 435.308 256.09 435.087 256.037 434.783ZM180.502 434.903C180.163 434.834 179.923 434.514 179.993 434.158C180.062 433.82 180.382 433.58 180.74 433.649C181.079 433.718 181.3 434.038 181.249 434.395C181.18 434.701 180.927 434.903 180.62 434.903H180.502ZM261.048 433.868C260.979 433.53 261.201 433.189 261.542 433.123C261.899 433.054 262.222 433.277 262.289 433.631C262.358 433.969 262.137 434.31 261.796 434.376C261.745 434.376 261.71 434.392 261.659 434.392C261.371 434.392 261.099 434.172 261.048 433.868ZM175.475 433.919C175.136 433.85 174.915 433.511 174.982 433.173C175.067 432.835 175.39 432.596 175.745 432.681C176.084 432.748 176.305 433.088 176.238 433.426C176.169 433.732 175.916 433.935 175.611 433.935C175.577 433.935 175.526 433.935 175.475 433.919ZM266.027 432.851C265.96 432.513 266.179 432.173 266.521 432.088C266.86 432.021 267.201 432.24 267.284 432.58C267.351 432.918 267.132 433.258 266.79 433.344C266.74 433.344 266.705 433.36 266.654 433.36C266.366 433.36 266.094 433.157 266.027 432.851ZM170.482 432.833C170.143 432.748 169.938 432.41 170.007 432.072C170.093 431.734 170.432 431.513 170.773 431.598C171.13 431.665 171.333 432.021 171.266 432.362C171.181 432.649 170.928 432.854 170.637 432.854C170.586 432.854 170.535 432.835 170.485 432.835L170.482 432.833ZM271.004 431.715C270.918 431.377 271.124 431.037 271.463 430.952C271.82 430.867 272.159 431.069 272.244 431.409C272.33 431.747 272.108 432.104 271.769 432.189C271.719 432.205 271.668 432.205 271.617 432.205C271.326 432.205 271.073 432.003 271.006 431.715H271.004ZM165.522 431.614C165.183 431.529 164.978 431.191 165.063 430.851C165.149 430.512 165.488 430.308 165.845 430.393C166.184 430.478 166.389 430.816 166.304 431.156C166.219 431.444 165.965 431.649 165.674 431.649C165.624 431.649 165.573 431.63 165.52 431.614H165.522ZM275.948 430.478C275.846 430.121 276.049 429.783 276.388 429.682C276.727 429.597 277.085 429.8 277.17 430.14C277.255 430.478 277.069 430.834 276.73 430.92C276.663 430.936 276.612 430.936 276.559 430.936C276.271 430.936 276.015 430.749 275.948 430.478ZM160.58 430.292C160.241 430.207 160.054 429.852 160.137 429.512C160.239 429.174 160.596 428.988 160.935 429.073C161.258 429.174 161.461 429.512 161.36 429.852C161.293 430.14 161.037 430.326 160.749 430.326C160.698 430.326 160.647 430.31 160.578 430.292H160.58ZM280.855 429.107C280.754 428.769 280.94 428.413 281.279 428.328C281.618 428.226 281.976 428.413 282.077 428.751C282.163 429.089 281.976 429.445 281.637 429.53C281.586 429.565 281.517 429.565 281.466 429.565C281.178 429.565 280.922 429.379 280.855 429.107ZM155.671 428.87C155.348 428.753 155.145 428.413 155.246 428.075C155.364 427.737 155.721 427.55 156.044 427.651C156.383 427.753 156.57 428.109 156.469 428.447C156.383 428.719 156.13 428.886 155.857 428.886C155.807 428.886 155.74 428.886 155.671 428.87ZM285.73 427.633C285.613 427.295 285.799 426.939 286.138 426.837C286.477 426.72 286.835 426.904 286.936 427.244C287.038 427.582 286.869 427.939 286.528 428.04C286.459 428.075 286.392 428.075 286.341 428.075C286.069 428.075 285.815 427.907 285.73 427.635V427.633ZM150.814 427.311C150.475 427.191 150.288 426.837 150.406 426.515C150.507 426.177 150.881 425.991 151.204 426.108C151.543 426.209 151.73 426.566 151.612 426.904C151.527 427.175 151.273 427.346 151.001 427.346C150.934 427.346 150.865 427.327 150.814 427.311ZM290.573 426.042C290.455 425.72 290.624 425.347 290.963 425.246C291.302 425.129 291.659 425.296 291.779 425.634C291.88 425.956 291.712 426.329 291.371 426.449C291.302 426.467 291.235 426.483 291.165 426.483C290.912 426.483 290.656 426.313 290.571 426.044L290.573 426.042ZM145.974 425.653C145.635 425.533 145.464 425.161 145.584 424.839C145.702 424.501 146.077 424.331 146.4 424.45C146.739 424.567 146.91 424.942 146.79 425.264C146.705 425.536 146.451 425.687 146.195 425.687C146.128 425.687 146.043 425.669 145.974 425.653ZM295.381 424.349C295.245 424.027 295.416 423.654 295.755 423.535C296.077 423.399 296.451 423.585 296.571 423.907C296.689 424.229 296.52 424.602 296.197 424.721C296.13 424.756 296.045 424.756 295.976 424.756C295.722 424.756 295.466 424.604 295.381 424.349ZM141.184 423.875C140.845 423.758 140.69 423.383 140.81 423.061C140.946 422.739 141.304 422.569 141.643 422.688C141.966 422.824 142.134 423.181 142 423.519C141.915 423.772 141.661 423.926 141.405 423.926C141.338 423.926 141.253 423.907 141.184 423.875ZM300.136 422.537C300 422.215 300.171 421.842 300.494 421.722C300.816 421.587 301.19 421.741 301.326 422.061C301.444 422.399 301.291 422.771 300.969 422.891C300.883 422.925 300.798 422.941 300.731 422.941C300.477 422.941 300.238 422.79 300.136 422.534V422.537ZM136.427 421.994C136.104 421.877 135.951 421.502 136.088 421.164C136.205 420.842 136.581 420.69 136.904 420.826C137.227 420.961 137.397 421.334 137.261 421.656C137.16 421.893 136.922 422.044 136.666 422.044C136.581 422.044 136.514 422.028 136.429 421.994H136.427ZM304.857 420.621C304.721 420.299 304.873 419.926 305.196 419.791C305.518 419.655 305.892 419.807 306.028 420.129C306.164 420.451 306.012 420.823 305.689 420.959C305.604 420.993 305.521 421.009 305.452 421.009C305.196 421.009 304.958 420.858 304.857 420.621ZM131.72 420.011C131.397 419.876 131.245 419.503 131.381 419.181C131.533 418.859 131.907 418.707 132.23 418.843C132.552 418.979 132.688 419.367 132.552 419.689C132.451 419.926 132.213 420.062 131.974 420.062C131.888 420.062 131.805 420.046 131.72 420.011ZM309.526 418.588C309.39 418.266 309.526 417.893 309.849 417.758C310.172 417.606 310.546 417.741 310.698 418.063C310.834 418.385 310.698 418.758 310.375 418.91C310.29 418.944 310.204 418.96 310.121 418.96C309.865 418.96 309.646 418.825 309.526 418.588ZM127.048 417.909C126.725 417.774 126.589 417.385 126.743 417.063C126.896 416.759 127.269 416.605 127.592 416.759C127.915 416.911 128.051 417.284 127.896 417.606C127.795 417.843 127.557 417.978 127.32 417.978C127.235 417.978 127.133 417.962 127.048 417.912V417.909ZM314.164 416.454C314.012 416.132 314.145 415.759 314.452 415.607C314.775 415.455 315.149 415.591 315.301 415.913C315.453 416.217 315.319 416.608 315.012 416.759C314.927 416.794 314.826 416.81 314.74 416.81C314.503 416.81 314.265 416.693 314.164 416.454ZM122.445 415.708C122.122 415.557 122.004 415.166 122.157 414.862C122.309 414.54 122.682 414.42 123.005 414.575C123.312 414.726 123.446 415.117 123.294 415.421C123.192 415.642 122.955 415.777 122.717 415.777C122.632 415.777 122.53 415.759 122.445 415.711V415.708ZM318.732 414.218C318.58 413.896 318.698 413.524 319.02 413.353C319.327 413.202 319.717 413.319 319.869 413.641C320.04 413.947 319.904 414.335 319.597 414.487C319.495 414.538 319.41 414.554 319.306 414.554C319.069 414.554 318.847 414.437 318.73 414.216L318.732 414.218ZM117.877 413.404C117.57 413.234 117.452 412.861 117.604 412.539C117.775 412.236 118.165 412.116 118.472 412.286C118.776 412.438 118.912 412.829 118.744 413.133C118.624 413.353 118.405 413.471 118.183 413.471C118.082 413.471 117.98 413.452 117.877 413.402V413.404ZM323.268 411.863C323.098 411.557 323.217 411.168 323.522 410.998C323.829 410.83 324.218 410.948 324.389 411.27C324.56 411.576 324.44 411.964 324.117 412.134V412.116C324.031 412.167 323.93 412.201 323.829 412.201C323.591 412.201 323.37 412.081 323.268 411.863ZM113.375 410.998C113.068 410.83 112.951 410.439 113.121 410.136C113.29 409.83 113.682 409.713 113.989 409.883C114.295 410.053 114.413 410.442 114.242 410.745C114.125 410.948 113.903 411.067 113.682 411.067C113.58 411.067 113.479 411.051 113.377 411.001L113.375 410.998ZM327.735 409.423C327.567 409.117 327.668 408.728 327.973 408.542C328.279 408.372 328.669 408.475 328.84 408.779C329.008 409.083 328.909 409.473 328.602 409.66C328.501 409.71 328.399 409.726 328.279 409.726C328.058 409.726 327.855 409.625 327.735 409.423ZM108.924 408.475C108.618 408.305 108.516 407.916 108.703 407.611C108.874 407.307 109.263 407.204 109.568 407.374C109.875 407.56 109.976 407.949 109.789 408.255C109.669 408.441 109.466 408.558 109.245 408.558C109.144 408.558 109.024 408.542 108.922 408.473L108.924 408.475ZM332.151 406.865C331.964 406.562 332.066 406.171 332.372 405.985C332.663 405.817 333.053 405.9 333.24 406.205C333.41 406.509 333.325 406.9 333.018 407.086C332.917 407.137 332.797 407.171 332.695 407.171C332.474 407.171 332.271 407.054 332.151 406.865ZM104.543 405.867C104.239 405.681 104.153 405.292 104.34 404.987C104.511 404.681 104.9 404.598 105.207 404.784C105.514 404.954 105.597 405.361 105.41 405.649C105.29 405.854 105.087 405.952 104.866 405.952C104.764 405.952 104.644 405.918 104.543 405.867ZM336.5 404.207C336.314 403.919 336.399 403.512 336.687 403.326C336.994 403.14 337.384 403.225 337.57 403.528C337.757 403.816 337.672 404.223 337.384 404.409C337.266 404.476 337.146 404.494 337.045 404.494C336.823 404.494 336.62 404.393 336.5 404.207ZM100.212 403.14C99.9239 402.953 99.8386 402.562 100.025 402.259C100.212 401.971 100.62 401.886 100.909 402.073C101.197 402.259 101.282 402.648 101.095 402.953C100.975 403.14 100.773 403.243 100.57 403.243C100.452 403.243 100.332 403.209 100.212 403.142V403.14ZM340.78 401.445C340.594 401.157 340.679 400.766 340.967 400.564C341.258 400.378 341.647 400.463 341.85 400.75C342.037 401.038 341.97 401.429 341.664 401.631C341.562 401.7 341.442 401.732 341.325 401.732C341.122 401.732 340.916 401.631 340.78 401.445ZM95.9483 400.327C95.66 400.125 95.5908 399.718 95.7799 399.43C95.9829 399.14 96.391 399.074 96.6793 399.276H96.6631C96.9675 399.462 97.0367 399.869 96.8315 400.157C96.7139 400.327 96.5086 400.428 96.3057 400.428C96.1881 400.428 96.0682 400.394 95.9483 400.327ZM345.01 398.6C344.807 398.312 344.874 397.905 345.162 397.703V397.719C345.45 397.514 345.858 397.583 346.045 397.871C346.248 398.161 346.181 398.549 345.893 398.752C345.791 398.837 345.655 398.871 345.535 398.871C345.333 398.871 345.127 398.77 345.01 398.6ZM91.7512 397.397C91.463 397.195 91.3938 396.788 91.5967 396.5C91.7997 396.21 92.1917 396.162 92.4799 396.364C92.7705 396.567 92.8374 396.958 92.6345 397.245C92.5145 397.415 92.3116 397.517 92.1087 397.517C91.9911 397.517 91.855 397.466 91.7512 397.399V397.397ZM349.17 395.635C348.967 395.364 349.018 394.957 349.306 394.754C349.578 394.55 349.986 394.603 350.189 394.89C350.394 395.178 350.341 395.569 350.053 395.787C349.952 395.856 349.816 395.907 349.679 395.907C349.493 395.907 349.29 395.806 349.17 395.635ZM87.6072 394.366C87.3351 394.163 87.2682 393.756 87.4873 393.485C87.6903 393.198 88.0984 393.147 88.3706 393.349C88.6588 393.57 88.7095 393.959 88.5066 394.249C88.3705 394.4 88.1838 394.501 87.997 394.501C87.8609 394.501 87.7249 394.451 87.6072 394.366ZM353.247 392.588C353.044 392.317 353.095 391.928 353.367 391.707C353.655 391.486 354.047 391.537 354.266 391.824C354.471 392.096 354.421 392.503 354.149 392.705C354.029 392.79 353.895 392.841 353.759 392.841C353.572 392.841 353.385 392.756 353.249 392.588H353.247ZM83.5486 391.25C83.2765 391.029 83.2257 390.622 83.4471 390.35C83.65 390.079 84.0582 390.028 84.3303 390.249C84.6186 390.47 84.6532 390.859 84.4479 391.148C84.3119 391.3 84.1251 391.385 83.9383 391.385C83.8022 391.385 83.6662 391.335 83.5486 391.25ZM357.273 389.453C357.052 389.182 357.087 388.775 357.375 388.554C357.647 388.333 358.037 388.386 358.258 388.655C358.479 388.927 358.445 389.315 358.173 389.555C358.053 389.64 357.901 389.69 357.765 389.69C357.578 389.69 357.391 389.605 357.271 389.453H357.273ZM79.5568 388.03C79.2847 387.809 79.2524 387.402 79.4715 387.13C79.6928 386.859 80.101 386.827 80.3708 387.045C80.6429 387.266 80.6775 387.673 80.4561 387.942C80.3201 388.096 80.1494 388.179 79.9626 388.179C79.8266 388.179 79.6744 388.129 79.5545 388.027L79.5568 388.03ZM361.214 386.217C360.977 385.946 361.011 385.539 361.281 385.321C361.553 385.1 361.962 385.134 362.183 385.389C362.42 385.661 362.386 386.068 362.116 386.286C361.998 386.388 361.844 386.438 361.708 386.438C361.521 386.438 361.334 386.372 361.217 386.217H361.214ZM75.6503 384.727C75.3782 384.49 75.3621 384.083 75.5811 383.83C75.8187 383.559 76.2268 383.54 76.4805 383.761C76.7526 383.998 76.7688 384.387 76.5474 384.658C76.4113 384.81 76.243 384.879 76.0723 384.879C75.9178 384.879 75.7656 384.828 75.648 384.727H75.6503ZM365.086 382.88C364.849 382.625 364.865 382.22 365.137 381.981C365.393 381.76 365.799 381.779 366.039 382.05C366.26 382.303 366.242 382.71 365.988 382.931C365.852 383.048 365.7 383.101 365.564 383.101C365.377 383.101 365.206 383.032 365.089 382.88H365.086ZM71.8269 381.321C71.5547 381.084 71.5386 380.677 71.7761 380.422C72.0137 380.169 72.4218 380.15 72.6778 380.387C72.9315 380.624 72.9499 381.015 72.7124 381.287C72.5925 381.422 72.4241 381.489 72.2535 381.489C72.099 381.489 71.9468 381.438 71.8292 381.321H71.8269ZM368.873 379.474C368.619 379.203 368.635 378.814 368.889 378.577C369.145 378.324 369.551 378.34 369.791 378.612C370.028 378.865 370.028 379.256 369.772 379.509C369.636 379.61 369.484 379.679 369.332 379.679C369.161 379.679 368.993 379.61 368.873 379.474ZM68.0726 377.832V377.848C67.8166 377.595 67.8005 377.188 68.0541 376.933C68.2917 376.68 68.6837 376.68 68.9558 376.917C69.2095 377.154 69.2095 377.561 68.972 377.814C68.8359 377.95 68.6837 378.016 68.5131 378.016C68.3424 378.016 68.1902 377.947 68.0726 377.83V377.832ZM372.576 375.969C372.32 375.716 372.32 375.309 372.576 375.07C372.83 374.817 373.238 374.817 373.476 375.07C373.729 375.325 373.713 375.73 373.476 375.969C373.34 376.087 373.187 376.156 373.035 376.156C372.865 376.156 372.696 376.087 372.576 375.969ZM64.4037 374.274C64.15 374.021 64.15 373.614 64.4037 373.375C64.6573 373.122 65.0494 373.122 65.303 373.375C65.559 373.612 65.559 374.019 65.303 374.274C65.1854 374.392 65.0148 374.461 64.8626 374.461C64.6919 374.461 64.5236 374.392 64.4037 374.274ZM376.195 372.377C375.941 372.124 375.941 371.717 376.176 371.48C376.432 371.225 376.838 371.225 377.078 371.462C377.331 371.715 377.331 372.106 377.094 372.361C376.976 372.497 376.806 372.547 376.635 372.547C376.483 372.547 376.312 372.497 376.195 372.377ZM60.82 370.615C60.5825 370.362 60.5987 369.955 60.8546 369.718C61.1083 369.465 61.5003 369.482 61.754 369.734C61.9915 369.987 61.9754 370.395 61.7194 370.634C61.6018 370.751 61.4473 370.802 61.2789 370.802C61.1083 370.802 60.9561 370.735 60.82 370.615ZM379.727 368.702C379.474 368.449 379.455 368.058 379.693 367.803C379.93 367.531 380.339 367.531 380.592 367.77C380.864 368.007 380.864 368.414 380.627 368.667C380.509 368.803 380.339 368.87 380.168 368.87C380.016 368.87 379.864 368.801 379.727 368.7V368.702ZM57.3379 366.871C57.1004 366.618 57.1165 366.211 57.3725 365.974C57.6261 365.737 58.0343 365.753 58.2741 366.025C58.5117 366.278 58.4955 366.685 58.2396 366.924C58.1196 367.025 57.9513 367.076 57.7968 367.076C57.6261 367.076 57.4578 367.009 57.3379 366.873V366.871ZM383.175 364.939C382.921 364.702 382.903 364.295 383.124 364.042C383.362 363.771 383.77 363.755 384.024 363.992C384.296 364.213 384.312 364.62 384.074 364.891C383.954 365.027 383.784 365.093 383.599 365.093C383.447 365.093 383.311 365.043 383.175 364.939ZM53.9226 363.058C53.7012 362.787 53.7197 362.38 53.9918 362.161C54.2639 361.924 54.6536 361.959 54.8912 362.23C55.1125 362.483 55.0964 362.89 54.8243 363.111C54.7067 363.228 54.5522 363.279 54.4161 363.279C54.2293 363.279 54.0587 363.194 53.9226 363.058ZM386.553 361.092C386.281 360.871 386.247 360.466 386.468 360.195C386.706 359.923 387.098 359.889 387.37 360.126C387.642 360.346 387.674 360.754 387.437 361.023C387.317 361.158 387.13 361.243 386.962 361.243C386.809 361.243 386.673 361.193 386.553 361.089V361.092ZM50.6088 359.162C50.3874 358.891 50.422 358.484 50.6941 358.263C50.9662 358.042 51.3744 358.077 51.5935 358.348C51.8149 358.619 51.7803 359.008 51.5082 359.245C51.3883 359.33 51.2522 359.381 51.1 359.381C50.9293 359.381 50.7426 359.312 50.6065 359.16L50.6088 359.162ZM389.814 357.18C389.542 356.959 389.491 356.552 389.729 356.28H389.713C389.934 356.009 390.342 355.958 390.612 356.179C390.884 356.4 390.935 356.807 390.714 357.078C390.577 357.23 390.409 357.315 390.22 357.315C390.068 357.315 389.932 357.265 389.812 357.18H389.814ZM47.3988 355.181C47.1774 354.91 47.2281 354.521 47.5002 354.3C47.7723 354.079 48.1805 354.13 48.4019 354.401C48.6233 354.673 48.5726 355.08 48.3004 355.298C48.1828 355.383 48.0468 355.434 47.8923 355.434C47.7055 355.434 47.5187 355.349 47.4011 355.181H47.3988ZM392.99 353.182C392.717 352.962 392.667 352.573 392.87 352.286C393.091 352.014 393.481 351.964 393.771 352.166C394.043 352.387 394.11 352.794 393.889 353.065C393.753 353.235 393.566 353.318 393.379 353.318C393.243 353.318 393.107 353.268 392.99 353.182ZM44.2717 351.149C44.0504 350.86 44.1195 350.455 44.3917 350.25C44.6799 350.048 45.072 350.098 45.291 350.37C45.4963 350.657 45.4432 351.048 45.155 351.267C45.0535 351.352 44.9174 351.402 44.7814 351.402C44.5946 351.402 44.3917 351.301 44.2717 351.149ZM396.08 349.116C395.791 348.896 395.722 348.507 395.944 348.219C396.147 347.948 396.539 347.881 396.827 348.084C397.115 348.305 397.184 348.693 396.963 348.981C396.845 349.151 396.64 349.234 396.453 349.234C396.317 349.234 396.197 349.199 396.08 349.116ZM41.2485 347.033C41.0433 346.745 41.094 346.338 41.3846 346.136C41.6728 345.931 42.0648 346 42.2839 346.288C42.4869 346.575 42.42 346.966 42.1317 347.168C42.0118 347.254 41.8942 347.286 41.7581 347.286C41.5529 347.286 41.3684 347.201 41.2485 347.033ZM399.068 344.965C398.78 344.763 398.711 344.374 398.9 344.084C399.103 343.797 399.511 343.728 399.799 343.933C400.088 344.135 400.157 344.526 399.952 344.813C399.834 344.984 399.629 345.085 399.426 345.085C399.306 345.085 399.17 345.05 399.068 344.965ZM38.3083 342.847C38.1053 342.56 38.1884 342.152 38.4789 341.966C38.7672 341.764 39.1592 341.83 39.3621 342.12C39.5651 342.408 39.4821 342.815 39.1938 343.017C39.0923 343.086 38.9563 343.118 38.8364 343.118C38.6334 343.118 38.4282 343.017 38.3106 342.847H38.3083ZM401.939 340.782C401.649 340.579 401.566 340.188 401.769 339.901C401.956 339.595 402.364 339.528 402.652 339.715C402.94 339.917 403.026 340.308 402.823 340.595C402.703 340.782 402.5 340.883 402.297 340.883C402.177 340.883 402.059 340.848 401.939 340.782ZM35.4718 338.597C35.285 338.291 35.3704 337.902 35.6586 337.716C35.963 337.53 36.355 337.615 36.5418 337.902C36.7286 338.19 36.6433 338.597 36.355 338.783C36.2536 338.852 36.1337 338.884 36.0161 338.884C35.7947 338.884 35.5917 338.783 35.4718 338.597ZM404.725 336.513C404.437 336.327 404.335 335.938 404.522 335.632C404.709 335.345 405.099 335.244 405.405 335.446C405.712 335.632 405.797 336.021 405.608 336.309C405.491 336.511 405.269 336.614 405.064 336.614C404.947 336.614 404.827 336.58 404.725 336.513ZM32.7368 334.278C32.55 333.972 32.6515 333.583 32.9582 333.397C33.2465 333.227 33.6385 333.312 33.823 333.618C34.0098 333.905 33.9083 334.296 33.6201 334.48C33.5186 334.547 33.3987 334.581 33.2811 334.581C33.0781 334.581 32.8568 334.464 32.7368 334.278ZM407.409 332.194C407.103 332.008 407.001 331.617 407.188 331.313C407.375 331.007 407.765 330.925 408.055 331.092C408.362 331.279 408.463 331.67 408.276 331.973C408.157 332.16 407.954 332.279 407.732 332.279C407.631 332.279 407.511 332.245 407.409 332.194ZM30.1056 329.908C29.935 329.602 30.0387 329.214 30.3431 329.027C30.6475 328.857 31.0396 328.958 31.2079 329.264C31.3786 329.57 31.2748 329.959 30.9865 330.129C30.8851 330.196 30.7652 330.214 30.6637 330.214C30.4423 330.214 30.2209 330.113 30.1033 329.91L30.1056 329.908ZM409.992 327.806C409.685 327.636 409.568 327.247 409.755 326.944C409.925 326.638 410.315 326.52 410.622 326.691C410.926 326.877 411.03 327.266 410.859 327.571C410.739 327.774 410.52 327.893 410.299 327.893C410.197 327.893 410.096 327.859 409.992 327.808V327.806ZM27.592 325.469C27.4052 325.164 27.5251 324.775 27.8295 324.605C28.1339 324.437 28.526 324.538 28.6943 324.86C28.865 325.163 28.7635 325.554 28.4406 325.722C28.3553 325.773 28.2377 325.789 28.1339 325.789C27.9126 325.789 27.6935 325.672 27.5897 325.467L27.592 325.469ZM412.455 323.351C412.148 323.181 412.031 322.808 412.199 322.486V322.505C412.37 322.183 412.759 322.063 413.066 322.233C413.373 322.404 413.491 322.792 413.32 323.098C413.202 323.319 412.981 323.436 412.759 323.436C412.658 323.436 412.557 323.402 412.455 323.351ZM25.1637 320.98C24.9931 320.658 25.113 320.286 25.4358 320.115C25.7426 319.945 26.1323 320.065 26.2845 320.387C26.4551 320.693 26.3352 321.081 26.0124 321.249C25.927 321.284 25.8256 321.318 25.7241 321.318C25.5027 321.318 25.2652 321.182 25.1637 320.98ZM414.835 318.862C414.528 318.692 414.392 318.319 414.563 317.997C414.717 317.694 415.089 317.558 415.411 317.726C415.734 317.878 415.854 318.269 415.7 318.572C415.582 318.793 415.361 318.929 415.123 318.929C415.022 318.929 414.936 318.894 414.835 318.862ZM22.8369 316.422C22.6847 316.116 22.8208 315.727 23.1275 315.575C23.4503 315.421 23.8239 315.541 23.9761 315.863C24.1283 316.185 24.0107 316.557 23.6855 316.709C23.6002 316.76 23.4988 316.778 23.4134 316.778C23.1759 316.778 22.9545 316.659 22.8346 316.422H22.8369ZM417.111 314.304C416.788 314.15 416.652 313.761 416.807 313.457C416.959 313.135 417.332 313 417.655 313.151C417.978 313.303 418.114 313.676 417.96 313.998C417.842 314.235 417.621 314.354 417.383 314.354C417.282 314.354 417.196 314.338 417.111 314.304ZM20.63 311.831C20.4778 311.509 20.6139 311.137 20.9367 310.985C21.2596 310.831 21.6332 310.967 21.7854 311.289C21.9214 311.611 21.7854 311.983 21.4786 312.135C21.3933 312.169 21.2919 312.185 21.2065 312.185C20.969 312.185 20.7315 312.066 20.63 311.829V311.831ZM419.269 309.697C418.947 309.545 418.811 309.173 418.947 308.851C419.083 308.529 419.472 308.393 419.795 308.545C420.118 308.681 420.254 309.053 420.102 309.375C420 309.612 419.763 309.748 419.523 309.748C419.438 309.748 419.355 309.729 419.269 309.697ZM18.5246 307.19C18.3701 306.868 18.5246 306.48 18.8474 306.344C19.1703 306.208 19.5439 306.344 19.6961 306.666L19.6776 306.684C19.8298 306.988 19.6776 307.379 19.3548 307.514C19.2694 307.549 19.1841 307.565 19.1011 307.565C18.8636 307.565 18.6261 307.429 18.5246 307.193V307.19ZM421.324 305.04C421.001 304.904 420.849 304.532 420.985 304.21C421.121 303.888 421.495 303.736 421.818 303.872C422.141 304.007 422.293 304.38 422.157 304.702C422.055 304.957 421.818 305.093 421.562 305.093C421.476 305.093 421.391 305.074 421.324 305.042V305.04ZM16.5206 302.482C16.3846 302.16 16.5552 301.788 16.8781 301.671C17.2009 301.535 17.5745 301.687 17.7105 302.009C17.8305 302.331 17.6783 302.703 17.3531 302.839C17.2862 302.873 17.2009 302.889 17.1156 302.889C16.8596 302.889 16.6221 302.738 16.5206 302.482ZM423.261 300.348C422.938 300.212 422.786 299.84 422.904 299.518C423.04 299.196 423.413 299.026 423.736 299.161C424.059 299.297 424.23 299.651 424.094 299.992C423.992 300.229 423.755 300.38 423.499 300.38C423.432 300.38 423.344 300.364 423.261 300.346V300.348ZM14.6366 297.756C14.5167 297.418 14.6712 297.062 15.0101 296.926C15.333 296.809 15.7066 296.977 15.8242 297.299C15.9441 297.621 15.7896 297.993 15.4506 298.113C15.3837 298.147 15.3145 298.163 15.2292 298.163C14.9756 298.163 14.7357 298.012 14.6366 297.756ZM425.113 295.606C424.774 295.486 424.603 295.114 424.723 294.792C424.859 294.454 425.217 294.283 425.556 294.419C425.879 294.536 426.049 294.893 425.929 295.233C425.828 295.486 425.59 295.64 425.334 295.64C425.249 295.64 425.18 295.622 425.113 295.606ZM12.8701 292.979C12.7341 292.641 12.9209 292.285 13.2437 292.165C13.5827 292.03 13.9401 292.216 14.0601 292.538C14.18 292.876 14.0093 293.232 13.6703 293.352C13.6035 293.387 13.5343 293.387 13.4674 293.387C13.1953 293.387 12.9578 293.235 12.8747 292.979H12.8701ZM426.829 290.811C426.506 290.71 426.319 290.337 426.439 290.015C426.557 289.677 426.914 289.507 427.255 289.608C427.578 289.725 427.765 290.1 427.645 290.422C427.56 290.693 427.306 290.845 427.05 290.845C426.983 290.845 426.898 290.845 426.829 290.811ZM11.1867 288.152C11.0852 287.814 11.2536 287.458 11.5949 287.356C11.9339 287.239 12.2913 287.423 12.4112 287.745C12.5127 288.083 12.3259 288.44 12.003 288.559C11.9362 288.578 11.867 288.594 11.8001 288.594C11.528 288.594 11.2905 288.423 11.189 288.154L11.1867 288.152ZM428.459 286.002C428.12 285.882 427.933 285.528 428.035 285.206C428.152 284.868 428.51 284.682 428.851 284.783C429.174 284.9 429.361 285.257 429.259 285.579V285.595C429.174 285.848 428.92 286.036 428.648 286.036C428.579 286.036 428.531 286.018 428.461 286.002H428.459ZM9.64164 283.29C9.54017 282.968 9.72696 282.612 10.066 282.511C10.4049 282.391 10.7624 282.577 10.8639 282.918C10.9653 283.256 10.7785 283.612 10.4395 283.713C10.3727 283.729 10.3035 283.748 10.2527 283.748C9.98063 283.748 9.72696 283.562 9.64164 283.29ZM429.953 281.138C429.614 281.036 429.428 280.68 429.529 280.358C429.631 280.02 429.988 279.815 430.327 279.916C430.65 280.018 430.853 280.374 430.751 280.712C430.666 280.983 430.412 281.17 430.14 281.17C430.09 281.17 430.023 281.151 429.953 281.135V281.138ZM8.19805 278.41C8.09658 278.072 8.29951 277.715 8.6385 277.614C8.9775 277.529 9.33493 277.715 9.42026 278.053C9.52173 278.392 9.31879 278.748 8.9798 278.849C8.92907 278.865 8.87833 278.865 8.80915 278.865C8.53703 278.865 8.28337 278.679 8.19805 278.408V278.41ZM431.365 276.241C431.007 276.156 430.821 275.802 430.906 275.462C430.991 275.123 431.346 274.919 431.688 275.022C432.027 275.107 432.232 275.462 432.13 275.802C432.061 276.089 431.808 276.276 431.519 276.276C431.469 276.276 431.418 276.26 431.367 276.241H431.365ZM6.87437 273.479C6.78904 273.141 6.99428 272.801 7.33327 272.716C7.67226 272.614 8.01356 272.817 8.11503 273.173C8.20035 273.511 7.99742 273.852 7.65612 273.937C7.58694 273.953 7.53851 273.953 7.48778 273.953C7.21566 273.953 6.94355 273.767 6.87667 273.479H6.87437ZM432.64 271.329C432.301 271.244 432.08 270.906 432.165 270.549C432.25 270.211 432.589 270.006 432.947 270.091C433.286 270.177 433.491 270.515 433.406 270.853C433.336 271.142 433.083 271.345 432.795 271.345C432.744 271.345 432.693 271.345 432.642 271.329H432.64ZM5.6683 268.534C5.58297 268.196 5.80435 267.856 6.14334 267.771C6.48234 267.686 6.82363 267.907 6.90665 268.245C6.97583 268.583 6.77059 268.923 6.4316 269.006C6.38087 269.024 6.33014 269.024 6.2771 269.024C5.98884 269.024 5.73286 268.822 5.66599 268.532L5.6683 268.534ZM433.795 266.384C433.456 266.299 433.235 265.961 433.32 265.621C433.387 265.282 433.728 265.062 434.067 265.128C434.425 265.213 434.628 265.552 434.561 265.892C434.492 266.179 434.238 266.384 433.931 266.384H433.795ZM4.566 263.555C4.49682 263.217 4.7182 262.877 5.0595 262.81C5.41694 262.743 5.73978 262.964 5.8228 263.302C5.88968 263.64 5.6706 263.981 5.33161 264.047C5.28088 264.066 5.23014 264.066 5.19555 264.066C4.88885 264.066 4.63518 263.861 4.566 263.558V263.555ZM434.849 261.403C434.51 261.336 434.273 260.996 434.34 260.657C434.406 260.301 434.748 260.082 435.087 260.149C435.444 260.216 435.663 260.556 435.596 260.894C435.53 261.2 435.274 261.403 434.969 261.403H434.849ZM3.59976 258.555C3.53288 258.217 3.75196 257.877 4.1094 257.826C4.44839 257.757 4.77124 257.98 4.84042 258.335C4.9096 258.673 4.66977 258.995 4.33078 259.061C4.29619 259.08 4.26391 259.08 4.21317 259.08C3.92492 259.08 3.6528 258.859 3.60207 258.555H3.59976ZM435.785 256.403C435.428 256.336 435.207 256.014 435.26 255.658C435.329 255.32 435.649 255.083 436.007 255.149C436.346 255.2 436.583 255.522 436.517 255.878C436.466 256.184 436.194 256.403 435.889 256.403H435.788H435.785ZM2.73268 253.539C2.6635 253.183 2.90333 252.861 3.25846 252.81C3.59746 252.744 3.9203 252.981 3.98949 253.335C4.04022 253.673 3.80269 254.013 3.4637 254.064H3.34379C3.05553 254.064 2.78342 253.843 2.73268 253.539ZM436.6 251.371C436.242 251.32 436.005 250.998 436.055 250.66C436.106 250.304 436.429 250.067 436.786 250.117C437.125 250.168 437.363 250.49 437.312 250.846C437.261 251.15 436.989 251.389 436.683 251.389C436.648 251.389 436.613 251.389 436.597 251.371H436.6ZM1.98552 248.491C1.93478 248.153 2.17231 247.831 2.52975 247.781C2.86874 247.73 3.19159 247.983 3.24463 248.323C3.29536 248.68 3.05784 249.002 2.7004 249.034C2.66581 249.052 2.64966 249.052 2.61507 249.052C2.29222 249.052 2.02011 248.816 1.98552 248.494V248.491ZM437.296 246.341C436.939 246.29 436.701 245.984 436.736 245.63C436.77 245.274 437.093 245.037 437.448 245.071C437.787 245.122 438.043 245.444 438.009 245.782C437.958 246.104 437.686 246.341 437.363 246.341H437.294H437.296ZM1.35596 243.443C1.30523 243.087 1.5589 242.783 1.91634 242.749C2.25533 242.698 2.57818 242.951 2.61277 243.307C2.6635 243.646 2.40753 243.967 2.05239 244.002H1.98321C1.66036 244.002 1.38825 243.765 1.35366 243.443H1.35596ZM437.872 241.293C437.515 241.258 437.261 240.936 437.294 240.598C437.328 240.242 437.633 239.989 437.99 240.023C438.329 240.058 438.601 240.361 438.567 240.718C438.532 241.04 438.244 241.293 437.921 241.293H437.87H437.872ZM0.846324 238.379C0.811733 238.022 1.06771 237.719 1.42284 237.684C1.76183 237.65 2.08468 237.921 2.10313 238.259C2.13772 238.616 1.88175 238.919 1.54276 238.954H1.47357C1.15072 238.954 0.878608 238.699 0.844017 238.377L0.846324 238.379ZM438.331 236.229C437.974 236.194 437.702 235.89 437.736 235.534C437.771 235.196 438.075 234.924 438.417 234.957C438.774 234.975 439.028 235.279 439.012 235.635C438.977 235.973 438.705 236.229 438.382 236.229H438.331ZM0.456599 233.299C0.422008 232.96 0.694124 232.655 1.05156 232.638C1.39055 232.604 1.69726 232.875 1.73185 233.213C1.74799 233.57 1.47818 233.873 1.13689 233.892H1.08615C0.763306 233.892 0.475047 233.639 0.456599 233.299ZM438.67 231.148C438.313 231.132 438.043 230.826 438.059 230.488C438.078 230.132 438.382 229.86 438.721 229.879C439.079 229.897 439.351 230.201 439.332 230.557C439.316 230.895 439.026 231.15 438.687 231.15H438.668L438.67 231.148ZM0.184486 228.218C0.168343 227.88 0.438151 227.574 0.79559 227.558C1.13458 227.54 1.44129 227.811 1.45743 228.168C1.45743 228.524 1.18531 228.812 0.846324 228.828H0.811733C0.472742 228.828 0.200627 228.556 0.182179 228.218H0.184486ZM438.876 226.068C438.537 226.068 438.246 225.764 438.264 225.424C438.281 225.067 438.569 224.796 438.926 224.796C439.265 224.814 439.537 225.102 439.537 225.456C439.519 225.794 439.249 226.065 438.892 226.065H438.873L438.876 226.068ZM0.0322847 223.122C0.0138362 222.784 0.304401 222.494 0.66184 222.478C1.00083 222.478 1.28909 222.749 1.30754 223.103C1.30754 223.46 1.03542 223.747 0.677982 223.747H0.66184C0.322849 223.747 0.0322847 223.476 0.0322847 223.119V223.122ZM438.35 220.343C438.35 220.005 438.638 219.716 438.996 219.716C439.335 219.716 439.625 220.003 439.625 220.36C439.625 220.698 439.337 220.985 438.979 220.985C438.622 220.985 438.35 220.698 438.35 220.341V220.343ZM0 218.023C0 217.685 0.288257 217.397 0.629554 217.397C0.986993 217.397 1.27525 217.685 1.27525 218.041C1.27525 218.398 0.986993 218.669 0.629554 218.669C0.272114 218.669 0 218.379 0 218.025V218.023ZM438.318 215.279C438.301 214.923 438.59 214.635 438.947 214.635C439.286 214.619 439.577 214.907 439.593 215.263C439.593 215.601 439.321 215.907 438.963 215.907H438.947C438.608 215.907 438.318 215.636 438.318 215.282V215.279ZM0.698736 213.584C0.341297 213.566 0.0691812 213.278 0.0876297 212.924C0.0876297 212.586 0.394336 212.296 0.733327 212.315C1.09077 212.315 1.36288 212.618 1.36288 212.975C1.34674 213.313 1.05848 213.584 0.717185 213.584H0.701043H0.698736ZM438.165 210.213C438.147 209.856 438.419 209.569 438.776 209.553C439.115 209.537 439.422 209.808 439.438 210.162C439.454 210.519 439.185 210.806 438.827 210.822H438.793C438.454 210.822 438.181 210.551 438.163 210.213H438.165ZM0.885526 208.502C0.546535 208.483 0.274422 208.18 0.290564 207.842C0.306707 207.485 0.613411 207.214 0.952402 207.232C1.30984 207.248 1.57965 207.554 1.56351 207.911C1.54737 208.233 1.2568 208.504 0.917811 208.504H0.883222L0.885526 208.502ZM437.893 205.165C437.859 204.808 438.131 204.504 438.488 204.486C438.827 204.452 439.134 204.723 439.168 205.079H439.152C439.187 205.417 438.915 205.723 438.573 205.758H438.523C438.184 205.758 437.912 205.505 437.893 205.165ZM1.20607 203.421C0.848629 203.403 0.594964 203.099 0.611106 202.743C0.645697 202.386 0.950097 202.133 1.29139 202.149C1.64883 202.184 1.9025 202.487 1.88636 202.844C1.85177 203.166 1.57965 203.421 1.2568 203.421H1.20607ZM437.501 200.119C437.467 199.762 437.723 199.459 438.08 199.424C438.419 199.39 438.742 199.661 438.776 200.001C438.795 200.358 438.539 200.661 438.181 200.696H438.131C437.808 200.696 437.536 200.443 437.501 200.121V200.119ZM1.63038 198.357C1.27295 198.322 1.01928 198.019 1.05387 197.662C1.08846 197.324 1.41131 197.069 1.7503 197.104C2.10774 197.136 2.36141 197.442 2.32912 197.798C2.29453 198.12 2.02242 198.357 1.68342 198.357H1.63269H1.63038ZM436.992 195.087C436.957 194.73 437.197 194.408 437.552 194.376C437.909 194.341 438.214 194.597 438.248 194.935C438.299 195.291 438.045 195.595 437.688 195.645H437.621C437.298 195.645 437.026 195.409 436.992 195.087ZM2.17231 193.309C1.83332 193.258 1.57734 192.952 1.61194 192.598C1.66267 192.242 1.98552 192.005 2.32681 192.039C2.68425 192.09 2.91947 192.412 2.88719 192.75C2.8526 193.072 2.58279 193.309 2.25994 193.309H2.17461H2.17231ZM436.362 190.057C436.311 189.7 436.565 189.397 436.906 189.346C437.264 189.296 437.587 189.532 437.621 189.889C437.672 190.227 437.434 190.549 437.077 190.6H436.992C436.685 190.6 436.413 190.379 436.362 190.057ZM2.83415 188.261C2.49516 188.21 2.25763 187.888 2.30837 187.55C2.3591 187.194 2.68195 186.957 3.02094 187.007C3.37838 187.058 3.6159 187.38 3.56517 187.72V187.736C3.51444 188.042 3.24232 188.279 2.93561 188.279C2.90102 188.279 2.86874 188.263 2.83415 188.263V188.261ZM435.615 185.043C435.564 184.705 435.802 184.383 436.141 184.314C436.498 184.264 436.821 184.5 436.872 184.857C436.941 185.195 436.703 185.517 436.346 185.57C436.311 185.586 436.277 185.586 436.244 185.586C435.938 185.586 435.666 185.365 435.615 185.043ZM3.63435 183.247C3.27691 183.18 3.03939 182.858 3.10857 182.502C3.1593 182.164 3.49829 181.925 3.83959 181.994C4.19703 182.044 4.41841 182.366 4.36537 182.723C4.31464 183.029 4.04252 183.247 3.73582 183.247H3.63435ZM434.766 180.062C434.697 179.705 434.937 179.383 435.276 179.317C435.615 179.248 435.956 179.484 436.023 179.825H436.007C436.074 180.181 435.855 180.503 435.497 180.57H435.396C435.089 180.57 434.817 180.368 434.766 180.062ZM4.53372 178.231C4.17628 178.164 3.9572 177.824 4.02408 177.486C4.09326 177.148 4.43225 176.927 4.77124 176.978C5.11023 177.063 5.34775 177.385 5.28088 177.723C5.2117 178.029 4.94189 178.247 4.65132 178.247C4.61673 178.247 4.566 178.247 4.53372 178.231ZM433.782 175.08C433.715 174.742 433.934 174.402 434.275 174.335C434.632 174.268 434.955 174.489 435.041 174.827C435.11 175.165 434.886 175.506 434.547 175.572C434.496 175.591 434.462 175.591 434.411 175.591C434.123 175.591 433.851 175.388 433.782 175.083V175.08ZM5.5553 173.25C5.21631 173.183 4.99493 172.842 5.0618 172.486C5.14713 172.148 5.48612 171.927 5.82511 172.012C6.1641 172.081 6.38548 172.419 6.30016 172.757C6.24942 173.061 5.97731 173.266 5.68905 173.266C5.63832 173.266 5.60373 173.25 5.55299 173.25H5.5553ZM432.695 170.131C432.61 169.793 432.831 169.453 433.17 169.37C433.509 169.285 433.851 169.505 433.934 169.844C434.019 170.182 433.798 170.538 433.459 170.607C433.408 170.623 433.373 170.623 433.323 170.623C433.034 170.623 432.762 170.437 432.693 170.131H432.695ZM6.69219 168.284C6.3532 168.199 6.13182 167.861 6.21714 167.521C6.30246 167.183 6.64146 166.962 6.98045 167.047C7.33789 167.132 7.54082 167.486 7.45549 167.827C7.38631 168.114 7.13264 168.3 6.84439 168.3C6.79365 168.3 6.74292 168.3 6.69219 168.282V168.284ZM431.489 165.219C431.404 164.88 431.609 164.524 431.948 164.439C432.287 164.354 432.645 164.556 432.73 164.897C432.815 165.235 432.612 165.591 432.271 165.676C432.22 165.695 432.17 165.695 432.103 165.695C431.831 165.695 431.558 165.508 431.492 165.221L431.489 165.219ZM7.93285 163.356C7.59386 163.271 7.40707 162.916 7.49239 162.576C7.57772 162.238 7.93285 162.052 8.27415 162.137C8.61314 162.222 8.81837 162.576 8.7146 162.916C8.64773 163.204 8.39175 163.39 8.1035 163.39C8.05276 163.39 8.00203 163.374 7.93285 163.356ZM430.166 160.322C430.08 159.984 430.267 159.628 430.606 159.543C430.945 159.441 431.302 159.644 431.404 159.984C431.489 160.322 431.303 160.663 430.961 160.764C430.894 160.78 430.844 160.78 430.793 160.78C430.502 160.78 430.249 160.594 430.163 160.322H430.166ZM9.30957 158.459C8.97057 158.358 8.78378 158.018 8.8668 157.68C8.96827 157.342 9.32571 157.137 9.6647 157.238C10.0037 157.339 10.1905 157.696 10.1052 158.034C10.0198 158.305 9.76617 158.491 9.47791 158.491C9.42718 158.491 9.35799 158.473 9.30726 158.457L9.30957 158.459ZM428.738 155.46C428.637 155.122 428.823 154.766 429.162 154.665C429.501 154.563 429.859 154.75 429.96 155.088C430.062 155.426 429.875 155.782 429.536 155.883C429.469 155.9 429.418 155.9 429.349 155.9C429.077 155.9 428.823 155.729 428.738 155.46ZM10.7878 153.597C10.4488 153.496 10.262 153.14 10.3796 152.802C10.481 152.464 10.8385 152.277 11.1775 152.395C11.5165 152.496 11.6871 152.852 11.5856 153.19C11.5003 153.462 11.2467 153.632 10.9745 153.632C10.9238 153.632 10.8569 153.613 10.7878 153.597ZM427.193 150.633C427.073 150.295 427.262 149.938 427.601 149.837C427.924 149.72 428.298 149.904 428.399 150.226C428.517 150.564 428.33 150.92 427.991 151.038C427.94 151.056 427.873 151.072 427.804 151.072C427.532 151.072 427.278 150.904 427.193 150.633ZM12.3835 148.77C12.0446 148.653 11.8739 148.296 11.9938 147.956C12.0953 147.634 12.4689 147.448 12.7917 147.567C13.1307 147.685 13.3014 148.041 13.1814 148.381C13.0961 148.634 12.8586 148.805 12.5865 148.805C12.5173 148.805 12.4504 148.788 12.3835 148.77ZM425.528 145.84C425.408 145.518 425.597 145.145 425.918 145.026C426.257 144.909 426.614 145.076 426.734 145.415C426.852 145.737 426.683 146.109 426.344 146.229C426.278 146.247 426.208 146.263 426.142 146.263C425.869 146.263 425.632 146.093 425.53 145.84H425.528ZM14.0831 143.977C13.7603 143.86 13.5896 143.485 13.7095 143.163C13.8294 142.825 14.203 142.655 14.5259 142.79C14.8649 142.908 15.0194 143.264 14.8995 143.605C14.8141 143.858 14.5605 144.012 14.3045 144.012C14.2376 144.012 14.1523 143.996 14.0831 143.977ZM423.762 141.098C423.644 140.76 423.812 140.385 424.135 140.268C424.458 140.15 424.832 140.302 424.952 140.64C425.088 140.962 424.919 141.335 424.594 141.454C424.509 141.489 424.442 141.505 424.357 141.505C424.101 141.505 423.863 141.335 423.762 141.098ZM15.9003 139.216C15.5774 139.099 15.4068 138.724 15.5428 138.402C15.6605 138.064 16.0363 137.91 16.3753 138.046C16.6982 138.165 16.8504 138.538 16.7328 138.86C16.6313 139.113 16.3938 139.267 16.1378 139.267C16.0525 139.267 15.9672 139.249 15.9003 139.216ZM421.894 136.372C421.758 136.05 421.912 135.677 422.233 135.557C422.556 135.422 422.929 135.574 423.065 135.896C423.201 136.217 423.049 136.59 422.726 136.726C422.641 136.76 422.556 136.776 422.489 136.776C422.235 136.776 421.995 136.625 421.894 136.369V136.372ZM17.8189 134.509C17.4961 134.373 17.3439 134 17.4799 133.678C17.616 133.356 17.9896 133.205 18.3124 133.34C18.6353 133.476 18.7875 133.849 18.6514 134.171V134.189C18.55 134.426 18.3124 134.562 18.0749 134.562C17.9896 134.562 17.9043 134.545 17.8189 134.511V134.509ZM419.906 131.714C419.77 131.392 419.906 131.02 420.229 130.884C420.552 130.732 420.925 130.884 421.061 131.206C421.213 131.528 421.061 131.901 420.738 132.036C420.653 132.071 420.57 132.087 420.485 132.087C420.247 132.087 420.01 131.951 419.908 131.714H419.906ZM19.8575 129.852C19.5346 129.716 19.3824 129.327 19.5346 129.005C19.6707 128.683 20.0443 128.548 20.3671 128.699C20.69 128.835 20.8422 129.208 20.69 129.53C20.5885 129.766 20.351 129.902 20.1135 129.902C20.0281 129.902 19.9428 129.886 19.8598 129.852H19.8575ZM417.798 127.089C417.662 126.767 417.798 126.395 418.121 126.243C418.425 126.107 418.817 126.243 418.954 126.565C419.106 126.869 418.972 127.26 418.647 127.395C418.562 127.446 418.478 127.462 418.375 127.462C418.137 127.462 417.916 127.326 417.796 127.089H417.798ZM21.9791 125.243C21.6562 125.091 21.5363 124.7 21.6908 124.378C21.8269 124.072 22.2166 123.936 22.5394 124.09C22.8438 124.242 22.9799 124.615 22.8277 124.937C22.7262 125.158 22.4887 125.293 22.2512 125.293C22.1659 125.293 22.0644 125.275 21.9791 125.243ZM415.605 122.515C415.453 122.209 415.573 121.82 415.896 121.669C416.2 121.517 416.592 121.653 416.744 121.956C416.897 122.278 416.779 122.651 416.454 122.821C416.368 122.855 416.267 122.871 416.182 122.871C415.944 122.871 415.707 122.754 415.603 122.515H415.605ZM24.2206 120.668C23.9162 120.514 23.7801 120.125 23.9484 119.803C24.1006 119.5 24.4927 119.364 24.7971 119.532C25.1199 119.684 25.2375 120.075 25.0853 120.378C24.9654 120.599 24.7463 120.735 24.5065 120.735C24.405 120.735 24.3197 120.717 24.2182 120.668H24.2206ZM413.297 118.007C413.126 117.685 413.246 117.313 413.569 117.145C413.876 116.975 414.265 117.094 414.418 117.416C414.588 117.72 414.468 118.111 414.164 118.263C414.062 118.313 413.961 118.348 413.857 118.348C413.636 118.348 413.417 118.212 413.297 118.01V118.007ZM26.5658 116.144C26.2591 115.99 26.1415 115.602 26.3098 115.298C26.4805 114.976 26.8702 114.857 27.1769 115.027C27.4813 115.197 27.6012 115.586 27.4306 115.889C27.313 116.11 27.0916 116.227 26.8702 116.227C26.7688 116.227 26.6673 116.193 26.5658 116.142V116.144ZM410.885 113.536C410.714 113.231 410.818 112.842 411.122 112.672C411.445 112.501 411.819 112.621 412.005 112.925C412.176 113.231 412.056 113.603 411.752 113.789C411.65 113.84 411.549 113.856 411.445 113.856C411.224 113.856 411.002 113.737 410.885 113.534V113.536ZM29.0287 111.69C28.7243 111.522 28.6044 111.131 28.775 110.825C28.9618 110.519 29.3515 110.418 29.6582 110.588C29.965 110.758 30.0664 111.147 29.8958 111.453C29.7759 111.655 29.5568 111.775 29.3354 111.775C29.2339 111.775 29.114 111.74 29.0287 111.69ZM408.371 109.132C408.184 108.826 408.286 108.438 408.592 108.251C408.899 108.081 409.289 108.182 409.476 108.488C409.646 108.792 409.545 109.183 409.238 109.353C409.137 109.42 409.035 109.438 408.915 109.438C408.694 109.438 408.491 109.337 408.371 109.132ZM31.5769 107.285C31.2725 107.115 31.1872 106.727 31.3555 106.421C31.5423 106.115 31.932 106.014 32.2387 106.2C32.527 106.386 32.6285 106.775 32.4417 107.065C32.3217 107.267 32.1188 107.387 31.8974 107.387C31.796 107.387 31.676 107.352 31.5746 107.285H31.5769ZM405.756 104.779C405.569 104.473 405.654 104.084 405.959 103.898C406.263 103.728 406.655 103.813 406.842 104.119C407.013 104.406 406.927 104.797 406.621 104.983C406.519 105.05 406.399 105.084 406.298 105.084C406.077 105.084 405.874 104.983 405.754 104.781L405.756 104.779ZM34.245 102.948C33.9383 102.762 33.853 102.371 34.0421 102.067C34.2289 101.78 34.6186 101.695 34.9068 101.881C35.2135 102.067 35.2966 102.458 35.1098 102.746C34.9922 102.948 34.7869 103.051 34.5655 103.051C34.4641 103.051 34.3442 103.017 34.2427 102.95L34.245 102.948ZM403.039 100.492C402.836 100.186 402.922 99.7971 403.226 99.6109C403.514 99.4246 403.906 99.5097 404.109 99.7971C404.296 100.087 404.211 100.492 403.923 100.678C403.805 100.745 403.685 100.779 403.565 100.779C403.36 100.779 403.157 100.678 403.039 100.492ZM36.9961 98.6794C36.6917 98.477 36.6226 98.0861 36.8093 97.7986C37.0146 97.4927 37.4043 97.426 37.6926 97.6123C37.9993 97.8147 38.0661 98.2057 37.8793 98.4931C37.7433 98.6794 37.5565 98.7829 37.3536 98.7829C37.2175 98.7829 37.0999 98.7484 36.9961 98.6817V98.6794ZM400.219 96.2577C400.016 95.9702 400.083 95.5792 400.387 95.3768C400.678 95.1906 401.068 95.2596 401.271 95.547C401.474 95.8345 401.391 96.2416 401.102 96.4279C401.001 96.513 400.865 96.5452 400.745 96.5452C400.542 96.5452 400.337 96.444 400.219 96.2577ZM39.8487 94.4615C39.5605 94.2591 39.4913 93.8681 39.6965 93.5807C39.8995 93.2932 40.2892 93.2242 40.5797 93.4289C40.868 93.6152 40.9372 94.0222 40.7319 94.3097C40.6143 94.4799 40.4091 94.5811 40.2062 94.5811C40.0886 94.5811 39.9686 94.5466 39.8487 94.4615ZM397.297 92.1065C397.094 91.819 397.161 91.428 397.45 91.2256C397.74 91.0048 398.13 91.0715 398.333 91.3613C398.536 91.6511 398.469 92.0398 398.197 92.2606C398.079 92.3296 397.943 92.3617 397.823 92.3617C397.62 92.3617 397.415 92.2767 397.297 92.1065ZM42.8212 90.3126C42.533 90.0918 42.4638 89.7031 42.669 89.4133C42.8904 89.1259 43.2801 89.0753 43.5684 89.2777C43.8567 89.48 43.9074 89.8871 43.7045 90.1769C43.5868 90.3471 43.3816 90.4299 43.1948 90.4299C43.0588 90.4299 42.9227 90.3793 42.8212 90.3126ZM394.29 88.0081C394.069 87.7368 394.138 87.3297 394.408 87.1273C394.698 86.9065 395.088 86.9755 395.31 87.2469C395.512 87.5344 395.462 87.9254 395.173 88.1438C395.056 88.2289 394.92 88.2634 394.8 88.2634C394.597 88.2634 394.41 88.1783 394.29 88.0081ZM45.8791 86.212C45.5908 86.0096 45.5401 85.6025 45.7615 85.3311C45.9644 85.0436 46.3726 84.993 46.6608 85.2138C46.9329 85.4346 46.9837 85.8233 46.7623 86.1131C46.6447 86.2649 46.4579 86.35 46.2688 86.35C46.1327 86.35 45.9967 86.3155 45.8791 86.2143V86.212ZM391.182 83.9926C390.96 83.7212 391.011 83.3142 391.283 83.0934C391.555 82.891 391.963 82.9232 392.185 83.2107C392.388 83.482 392.353 83.8707 392.065 84.0915C391.963 84.1927 391.811 84.2272 391.675 84.2272C391.488 84.2272 391.302 84.1421 391.182 83.9903V83.9926ZM49.0384 82.1964C48.7663 81.9757 48.7155 81.587 48.9369 81.3156C49.1583 81.0442 49.5642 80.9936 49.8363 81.2144C50.1084 81.4352 50.143 81.8423 49.9216 82.1113C49.8017 82.2654 49.6149 82.3482 49.4281 82.3482C49.292 82.3482 49.156 82.2976 49.0384 82.1964ZM387.972 80.0461C387.75 79.7747 387.785 79.3676 388.057 79.1468C388.329 78.9261 388.737 78.9606 388.956 79.2319C389.178 79.5033 389.143 79.9104 388.871 80.1289C388.753 80.2301 388.617 80.2807 388.463 80.2807C388.276 80.2807 388.105 80.1956 387.972 80.0438V80.0461ZM52.2807 78.266C52.0086 78.0452 51.9763 77.6404 52.2138 77.3691C52.4352 77.1161 52.8434 77.0816 53.097 77.3024C53.3692 77.5231 53.4038 77.9302 53.1824 78.1993C53.0463 78.3534 52.8757 78.4201 52.6889 78.4201C52.5528 78.4201 52.4006 78.3695 52.2807 78.266ZM384.674 76.1823C384.453 75.911 384.471 75.5039 384.743 75.2854C385.015 75.0485 385.405 75.083 385.645 75.336C385.882 75.6074 385.848 76.0145 385.576 76.2352C385.456 76.3364 385.303 76.387 385.167 76.387C384.981 76.387 384.81 76.3203 384.674 76.1846V76.1823ZM55.6268 74.4046C55.3547 74.1838 55.3385 73.7767 55.5761 73.5237C55.7974 73.2523 56.2056 73.2362 56.4777 73.4547C56.7314 73.6916 56.7498 74.0987 56.5285 74.3517C56.3924 74.5058 56.2241 74.5724 56.0534 74.5724C55.9012 74.5724 55.7467 74.5219 55.6291 74.4023L55.6268 74.4046ZM381.293 72.3715V72.3899C381.056 72.1185 381.072 71.7114 381.344 71.4746C381.6 71.2538 382.006 71.2722 382.246 71.5252C382.483 71.7781 382.449 72.1852 382.195 72.4244C382.077 72.5256 381.923 72.5946 381.771 72.5946C381.602 72.5946 381.432 72.5256 381.296 72.3738L381.293 72.3715ZM59.0559 70.6259C58.7838 70.389 58.7838 69.982 59.0213 69.7267C59.2588 69.4737 59.6509 69.4553 59.9207 69.7106C60.1743 69.9475 60.1928 70.3384 59.9553 70.6075C59.8192 70.7271 59.6509 70.8099 59.4802 70.8099C59.3257 70.8099 59.1735 70.7409 59.0559 70.6236V70.6259ZM377.827 68.6619C377.574 68.4089 377.59 68.0018 377.843 67.7649C378.099 67.528 378.505 67.528 378.745 67.781C378.983 68.034 378.983 68.4411 378.727 68.6803C378.591 68.7975 378.438 68.8665 378.286 68.8665C378.116 68.8665 377.947 68.7975 377.827 68.6642V68.6619ZM62.5727 66.9347C62.319 66.6978 62.319 66.2907 62.5565 66.0377C62.794 65.7848 63.2022 65.7848 63.4559 66.0377C63.7095 66.2746 63.7095 66.6817 63.4743 66.9347C63.3383 67.0543 63.1838 67.121 63.0154 67.121C62.8609 67.121 62.6926 67.0543 62.5727 66.9347ZM374.262 65.0373C374.025 64.7843 374.025 64.3772 374.262 64.1404C374.516 63.8874 374.924 63.8874 375.164 64.1404C375.417 64.3772 375.417 64.7843 375.164 65.0373C375.044 65.1569 374.873 65.2236 374.721 65.2236C374.55 65.2236 374.382 65.1546 374.262 65.0373ZM66.1747 63.3262C65.9211 63.0732 65.9372 62.6662 66.1909 62.4293C66.4284 62.174 66.8366 62.1924 67.0925 62.4454C67.33 62.6823 67.33 63.0893 67.0741 63.3423C66.938 63.4619 66.7858 63.5125 66.6336 63.5125C66.463 63.5125 66.2946 63.4458 66.1747 63.3262ZM370.628 61.4794C370.374 61.2426 370.356 60.8355 370.593 60.5802C370.849 60.3272 371.239 60.3272 371.495 60.5641C371.749 60.801 371.767 61.2081 371.529 61.461C371.393 61.5967 371.223 61.6473 371.054 61.6473C370.902 61.6473 370.75 61.5967 370.63 61.4794H370.628ZM69.8621 59.8029C69.6246 59.5499 69.6407 59.1428 69.8967 58.9059C70.1504 58.669 70.5585 58.669 70.7961 58.9404C71.0336 59.1934 71.0174 59.6005 70.7638 59.8374C70.6439 59.9385 70.4732 60.0075 70.321 60.0075C70.1504 60.0075 69.982 59.9408 69.8621 59.8052V59.8029ZM366.892 58.0251C366.638 57.7882 366.62 57.3811 366.857 57.1258C367.095 56.8545 367.487 56.8384 367.757 57.0752C368.013 57.3121 368.029 57.7192 367.791 57.9722C367.674 58.1079 367.503 58.1746 367.316 58.1746C367.164 58.1746 367.01 58.124 366.892 58.0228V58.0251ZM73.6325 56.3646C73.395 56.0932 73.4111 55.7045 73.6833 55.4653C73.9369 55.2285 74.3451 55.2446 74.5849 55.5159C74.8063 55.7873 74.7878 56.176 74.5342 56.4129C74.3981 56.5141 74.2621 56.5647 74.1099 56.5647C73.9231 56.5647 73.7524 56.498 73.6348 56.3623L73.6325 56.3646ZM363.087 54.6374C362.815 54.4166 362.799 54.0095 363.018 53.7382C363.255 53.4852 363.647 53.4507 363.919 53.6876C364.192 53.9084 364.208 54.3154 363.989 54.5845C363.853 54.7202 363.682 54.7869 363.495 54.7869C363.359 54.7869 363.207 54.7363 363.087 54.6351V54.6374ZM77.4721 53.0114C77.2507 52.74 77.2853 52.3514 77.5574 52.1122H77.539C77.8111 51.8914 78.2193 51.9259 78.4383 52.1973C78.6759 52.4503 78.6413 52.8573 78.3715 53.0781C78.2515 53.1793 78.0994 53.2299 77.9633 53.2299C77.7765 53.2299 77.6059 53.1632 77.4698 53.0091L77.4721 53.0114ZM359.197 51.3509C358.924 51.1301 358.892 50.7231 359.111 50.4701C359.333 50.1803 359.741 50.1481 360.011 50.3689C360.283 50.6058 360.317 50.9967 360.096 51.2658C359.96 51.4199 359.789 51.5027 359.602 51.5027C359.45 51.5027 359.314 51.4521 359.194 51.3509H359.197ZM81.3947 49.7571C81.1733 49.4858 81.2241 49.0787 81.4962 48.8602C81.7683 48.6394 82.1765 48.6739 82.3794 48.9614C82.6169 49.2328 82.5662 49.6214 82.2941 49.8422C82.1765 49.9434 82.0404 49.994 81.8859 49.994C81.6991 49.994 81.5285 49.9089 81.3924 49.7571H81.3947ZM355.239 48.1656H355.221C354.949 47.9449 354.898 47.5401 355.12 47.2687C355.341 46.9973 355.749 46.9467 356.021 47.1675C356.293 47.3883 356.344 47.777 356.123 48.0484C356.003 48.2185 355.816 48.3013 355.629 48.3013C355.493 48.3013 355.339 48.2507 355.239 48.1656ZM85.4026 46.5903C85.1813 46.3028 85.232 45.9118 85.5041 45.691C85.7924 45.4886 86.1844 45.5392 86.4058 45.8106C86.6272 46.0981 86.558 46.4891 86.2859 46.7075C86.1683 46.7926 86.0322 46.8248 85.8961 46.8248C85.7093 46.8248 85.5226 46.7581 85.4026 46.5879V46.5903ZM351.195 45.0494C350.906 44.847 350.856 44.456 351.059 44.1685C351.28 43.881 351.67 43.8304 351.96 44.0512C352.232 44.2536 352.299 44.6446 352.078 44.9321C351.96 45.0999 351.773 45.185 351.568 45.185C351.432 45.185 351.296 45.1505 351.195 45.0494ZM89.4613 43.5246C89.2584 43.2371 89.3253 42.83 89.5974 42.6253C89.8856 42.4229 90.2777 42.4896 90.4967 42.761C90.6997 43.0485 90.6328 43.4395 90.3607 43.6602C90.2431 43.7453 90.107 43.7775 89.9871 43.7775C89.7841 43.7775 89.5974 43.6924 89.4613 43.5246ZM347.067 42.0504C346.795 41.848 346.728 41.457 346.931 41.1695C347.134 40.882 347.526 40.813 347.814 41.0177C348.102 41.2224 348.171 41.6272 347.966 41.8986C347.83 42.0849 347.643 42.1699 347.44 42.1699C347.323 42.1699 347.187 42.1354 347.067 42.0527V42.0504ZM93.6053 40.5417C93.4024 40.2542 93.4692 39.8632 93.7575 39.6608C94.0481 39.4584 94.4539 39.5251 94.6407 39.8149C94.846 40.1024 94.7768 40.4934 94.4885 40.6957C94.3871 40.7808 94.251 40.813 94.1311 40.813C93.9282 40.813 93.7229 40.7118 93.6053 40.5417ZM342.888 39.1365C342.598 38.9502 342.531 38.5431 342.717 38.2556C342.923 37.9658 343.312 37.8991 343.601 38.0854C343.889 38.2878 343.974 38.6788 343.771 38.9663C343.651 39.1526 343.449 39.2537 343.246 39.2537C343.126 39.2537 343.008 39.2192 342.888 39.1365ZM97.8185 37.6623C97.6132 37.3748 97.7009 36.9838 97.9891 36.7814C98.2958 36.5951 98.6856 36.6618 98.8723 36.9516C99.0753 37.2552 98.99 37.6462 98.7017 37.8485C98.5841 37.9175 98.4642 37.9497 98.3443 37.9497C98.1413 37.9497 97.9361 37.8485 97.8185 37.6623ZM338.659 36.3398C338.352 36.1375 338.269 35.7465 338.472 35.459C338.659 35.1715 339.049 35.0864 339.339 35.2727C339.646 35.459 339.729 35.8477 339.542 36.1536C339.406 36.3398 339.203 36.441 338.998 36.441C338.878 36.441 338.76 36.4065 338.659 36.3398ZM102.082 34.884C101.896 34.5782 101.997 34.1895 102.285 34.0032C102.592 33.8169 102.982 33.902 103.169 34.2056C103.355 34.4931 103.27 34.9001 102.966 35.0864C102.864 35.1554 102.744 35.1715 102.627 35.1715C102.424 35.1715 102.218 35.0703 102.082 34.884ZM334.363 33.6306C334.056 33.4443 333.954 33.0534 334.141 32.7659C334.328 32.46 334.72 32.3588 335.024 32.5451C335.315 32.7314 335.414 33.1201 335.227 33.4259C335.11 33.6122 334.905 33.7295 334.683 33.7295C334.563 33.7295 334.462 33.695 334.36 33.6283L334.363 33.6306ZM106.432 32.207C106.245 31.9034 106.346 31.5125 106.653 31.3262C106.941 31.156 107.333 31.2411 107.518 31.547C107.705 31.8528 107.603 32.2415 107.296 32.4278C107.195 32.4784 107.093 32.5129 106.974 32.5129C106.752 32.5129 106.549 32.3933 106.429 32.207H106.432ZM329.997 31.0387C329.693 30.8524 329.589 30.4637 329.76 30.1579C329.928 29.852 330.32 29.7508 330.625 29.9371C330.931 30.1073 331.033 30.4959 330.862 30.8018C330.742 31.0042 330.523 31.1238 330.302 31.1238C330.2 31.1238 330.099 31.0916 329.995 31.0387H329.997ZM110.832 29.6151C110.645 29.3092 110.765 28.9366 111.069 28.7504C111.374 28.5802 111.766 28.6998 111.934 29.0033C112.105 29.2931 112.003 29.6818 111.696 29.8681C111.595 29.9187 111.493 29.9348 111.374 29.9348C111.152 29.9348 110.949 29.8336 110.829 29.6128L110.832 29.6151ZM325.565 28.5296C325.258 28.3594 325.141 27.9707 325.327 27.6671C325.482 27.3612 325.872 27.244 326.176 27.4302V27.4118C326.499 27.582 326.6 27.9707 326.43 28.2766C326.312 28.4974 326.107 28.6147 325.869 28.6147C325.768 28.6147 325.666 28.5802 325.563 28.5296H325.565ZM115.282 27.1405C115.112 26.8346 115.232 26.4459 115.536 26.2941C115.859 26.1239 116.232 26.2435 116.401 26.5471C116.571 26.853 116.451 27.2417 116.147 27.4118C116.046 27.4624 115.944 27.4785 115.84 27.4785C115.619 27.4785 115.4 27.3612 115.28 27.1405H115.282ZM321.098 26.14C320.775 25.9721 320.655 25.5812 320.826 25.2753C320.978 24.9694 321.37 24.8337 321.675 25.0039C321.998 25.1741 322.117 25.5467 321.947 25.8687C321.827 26.071 321.608 26.2067 321.386 26.2067C321.285 26.2067 321.184 26.1722 321.098 26.14ZM119.8 24.767C119.629 24.4634 119.765 24.0725 120.072 23.9207C120.379 23.7689 120.768 23.8885 120.937 24.1921C121.091 24.514 120.971 24.8866 120.648 25.0568C120.563 25.1074 120.462 25.1258 120.36 25.1258C120.123 25.1258 119.901 24.9901 119.8 24.7693V24.767ZM316.562 23.8356C316.239 23.6838 316.103 23.3112 316.255 22.9892C316.426 22.6673 316.8 22.55 317.12 22.7018C317.427 22.8536 317.563 23.2445 317.411 23.5481C317.291 23.785 317.072 23.9046 316.832 23.9046C316.73 23.9046 316.645 23.8885 316.56 23.8379L316.562 23.8356ZM124.368 22.5155C124.216 22.1935 124.334 21.8209 124.659 21.6691C124.982 21.515 125.355 21.6507 125.507 21.9566C125.66 22.2786 125.523 22.6512 125.217 22.803C125.115 22.8536 125.03 22.872 124.929 22.872C124.691 22.872 124.47 22.7363 124.368 22.5155ZM311.975 21.6507C311.653 21.4989 311.5 21.1264 311.653 20.8044C311.805 20.5008 312.178 20.3467 312.501 20.5008C312.824 20.6526 312.96 21.0252 312.808 21.3472C312.706 21.584 312.469 21.7197 312.229 21.7197C312.144 21.7197 312.058 21.7036 311.975 21.653V21.6507ZM128.971 20.3467C128.835 20.0247 128.971 19.6522 129.294 19.5004C129.617 19.3647 129.99 19.5004 130.143 19.8224C130.279 20.1443 130.143 20.5169 129.82 20.6687C129.734 20.7032 129.651 20.7193 129.548 20.7193C129.31 20.7193 129.073 20.5836 128.969 20.3467H128.971ZM307.338 19.5671C307.015 19.4314 306.863 19.0588 306.999 18.7368C307.135 18.4149 307.525 18.2631 307.848 18.3988C308.17 18.5505 308.306 18.9231 308.17 19.2451C308.069 19.482 307.831 19.6177 307.578 19.6177C307.492 19.6177 307.407 19.5993 307.34 19.5671H307.338ZM133.641 18.2976C133.505 17.9756 133.659 17.603 133.98 17.4673C134.303 17.3316 134.676 17.4834 134.812 17.8054C134.948 18.1274 134.794 18.4999 134.473 18.6356C134.388 18.6701 134.303 18.6862 134.22 18.6862C133.982 18.6862 133.745 18.5344 133.641 18.2976ZM302.65 17.603C302.327 17.4673 302.175 17.0947 302.292 16.7728C302.428 16.4508 302.802 16.2806 303.125 16.4163C303.464 16.552 303.618 16.9246 303.482 17.2465C303.381 17.5018 303.143 17.6352 302.887 17.6352C302.802 17.6352 302.735 17.6352 302.65 17.6007V17.603ZM138.347 16.3496C138.23 16.0276 138.382 15.655 138.705 15.5194C139.028 15.4021 139.401 15.5538 139.537 15.8758C139.673 16.1978 139.503 16.5704 139.18 16.7061C139.095 16.7406 139.028 16.7567 138.942 16.7567C138.689 16.7567 138.449 16.6049 138.347 16.3496ZM298.031 15.7746C297.708 15.6389 297.537 15.2825 297.673 14.9444C297.791 14.6224 298.167 14.4522 298.49 14.5879C298.812 14.7052 298.983 15.0801 298.863 15.4021C298.762 15.655 298.524 15.8091 298.268 15.8091C298.183 15.8091 298.114 15.7907 298.031 15.7746ZM143.103 14.5212C142.983 14.1831 143.153 13.8267 143.476 13.691C143.815 13.5714 144.173 13.7416 144.293 14.0796C144.429 14.4016 144.258 14.7742 143.919 14.8938C143.852 14.9099 143.783 14.9283 143.698 14.9283C143.442 14.9283 143.204 14.7742 143.103 14.5212ZM293.273 14.013C292.934 13.8934 292.764 13.5208 292.881 13.1988C293.001 12.8607 293.356 12.6905 293.698 12.8101C294.037 12.9274 294.207 13.2839 294.087 13.6243C293.986 13.8773 293.748 14.0475 293.476 14.0475C293.409 14.0475 293.34 14.0291 293.273 14.013ZM147.892 12.794C147.791 12.456 147.961 12.0995 148.3 11.9799C148.623 11.8626 148.997 12.0466 149.098 12.3686C149.218 12.7066 149.048 13.0631 148.709 13.1827C148.642 13.2011 148.573 13.2172 148.506 13.2172C148.234 13.2172 147.996 13.047 147.895 12.794H147.892ZM288.467 12.3548C288.128 12.2536 287.942 11.881 288.059 11.559C288.179 11.2209 288.534 11.0347 288.857 11.1519C289.196 11.2531 289.383 11.6257 289.265 11.9477C289.18 12.2191 288.926 12.3893 288.67 12.3893C288.603 12.3893 288.534 12.3709 288.467 12.3548ZM152.735 11.168C152.634 10.8461 152.804 10.4896 153.143 10.3723C153.482 10.2711 153.84 10.4574 153.941 10.7955C154.059 11.1174 153.874 11.4739 153.533 11.5912C153.464 11.6096 153.397 11.6257 153.328 11.6257C153.074 11.6257 152.818 11.4394 152.733 11.168H152.735ZM283.627 10.8116C283.288 10.7104 283.101 10.3539 283.203 10.0158C283.304 9.67774 283.662 9.49146 284.001 9.59265C284.323 9.69384 284.526 10.0503 284.409 10.3884C284.323 10.6598 284.086 10.8461 283.814 10.8461C283.745 10.8461 283.678 10.8277 283.627 10.8116ZM157.61 9.67775C157.49 9.33967 157.695 8.98319 158.034 8.882C158.373 8.78081 158.731 8.98319 158.816 9.32357C158.918 9.66165 158.731 10.002 158.392 10.1032C158.325 10.1193 158.272 10.1377 158.205 10.1377C157.933 10.1377 157.679 9.95143 157.61 9.68005V9.67775ZM278.736 9.39027C278.413 9.28907 278.21 8.9326 278.312 8.59452C278.397 8.25644 278.752 8.07015 279.093 8.15525C279.432 8.25644 279.619 8.61292 279.534 8.951C279.448 9.22238 279.195 9.40866 278.923 9.40866C278.853 9.40866 278.805 9.40866 278.736 9.39256V9.39027ZM162.501 8.28864C162.416 7.95056 162.603 7.59409 162.96 7.50899C163.299 7.4078 163.64 7.61018 163.726 7.95056C163.827 8.28864 163.624 8.64511 163.283 8.73021C163.232 8.74631 163.165 8.76471 163.112 8.76471C162.84 8.76471 162.587 8.57842 162.501 8.29094V8.28864ZM273.826 8.06785C273.487 7.98276 273.282 7.62858 273.367 7.28821C273.469 6.95013 273.808 6.74544 274.149 6.83054C274.488 6.91563 274.693 7.27211 274.608 7.61019C274.541 7.89767 274.285 8.08395 273.997 8.08395C273.946 8.08395 273.895 8.08395 273.826 8.06555V8.06785ZM167.427 7.00073C167.342 6.66265 167.563 6.32227 167.902 6.23718C168.241 6.15208 168.582 6.37287 168.665 6.71095C168.751 7.04902 168.548 7.3894 168.206 7.4722C168.156 7.49059 168.105 7.49059 168.054 7.49059C167.766 7.49059 167.51 7.30431 167.425 6.99843L167.427 7.00073ZM268.901 6.86504C268.543 6.77994 268.34 6.44186 268.425 6.10379C268.492 5.76571 268.834 5.54493 269.191 5.63002C269.53 5.69672 269.735 6.05319 269.666 6.39357C269.597 6.68105 269.327 6.88573 269.039 6.88573C269.004 6.88573 268.954 6.88573 268.903 6.86734L268.901 6.86504ZM172.387 5.8485C172.318 5.51043 172.542 5.17005 172.881 5.08726C173.22 5.01826 173.561 5.23905 173.646 5.57942C173.713 5.9175 173.494 6.25788 173.153 6.34067C173.102 6.34067 173.051 6.35907 173.017 6.35907C172.729 6.35907 172.456 6.13829 172.387 5.8508V5.8485ZM263.924 5.77951C263.585 5.69442 263.364 5.37244 263.431 5.01826C263.497 4.68018 263.839 4.4594 264.196 4.52609C264.535 4.59279 264.757 4.93317 264.69 5.28734C264.623 5.57712 264.351 5.77951 264.06 5.77951H263.924ZM177.382 4.79748C177.315 4.4594 177.537 4.11902 177.876 4.05233C178.233 3.98563 178.556 4.22251 178.623 4.56059C178.69 4.89867 178.468 5.23905 178.129 5.30574C178.079 5.30574 178.044 5.32184 177.993 5.32184C177.705 5.32184 177.433 5.10105 177.382 4.79748ZM258.948 4.79748C258.59 4.74688 258.371 4.4088 258.422 4.06843C258.489 3.71195 258.83 3.49346 259.169 3.56016C259.526 3.61076 259.745 3.94883 259.679 4.28921C259.628 4.59509 259.356 4.81357 259.049 4.81357C259.014 4.81357 258.98 4.81357 258.948 4.79748ZM182.377 3.86604C182.326 3.52796 182.564 3.20598 182.903 3.13929C183.26 3.08869 183.583 3.30718 183.634 3.66365C183.701 4.00173 183.463 4.32371 183.124 4.3927C183.09 4.3927 183.055 4.4111 183.023 4.4111C182.7 4.4111 182.446 4.19032 182.377 3.86834V3.86604ZM253.939 3.95113C253.581 3.90054 253.344 3.56246 253.395 3.22208C253.461 2.88401 253.787 2.64712 254.126 2.69772C254.483 2.74831 254.721 3.07029 254.67 3.42677C254.619 3.73035 254.347 3.95113 254.024 3.95113H253.939ZM187.407 3.05189C187.356 2.71382 187.61 2.39184 187.951 2.34124C188.308 2.29065 188.631 2.52753 188.682 2.86561C188.733 3.22208 188.479 3.54406 188.138 3.59236H188.036C187.732 3.59236 187.46 3.37157 187.409 3.04959L187.407 3.05189ZM248.895 3.20368C248.556 3.16919 248.3 2.84721 248.351 2.49303C248.402 2.15496 248.725 1.89967 249.082 1.95027C249.421 2.00087 249.659 2.32284 249.626 2.66092C249.576 2.9829 249.304 3.21978 248.997 3.21978C248.962 3.21978 248.928 3.21978 248.895 3.20138V3.20368ZM192.452 2.35734C192.418 2.01926 192.655 1.69729 193.013 1.64669C193.352 1.61219 193.674 1.84908 193.725 2.20555C193.76 2.56203 193.522 2.86561 193.165 2.9162H193.098C192.775 2.9162 192.505 2.67932 192.452 2.35734ZM243.852 2.59422C243.513 2.55973 243.257 2.23775 243.292 1.89967C243.342 1.5432 243.649 1.29021 244.004 1.32471C244.343 1.37531 244.599 1.68119 244.565 2.03536C244.53 2.35734 244.242 2.59422 243.935 2.59422H243.85H243.852ZM197.514 1.78008C197.479 1.4236 197.735 1.12002 198.093 1.08553C198.432 1.05103 198.755 1.30631 198.789 1.66279C198.824 2.00087 198.568 2.30674 198.213 2.35734H198.144C197.821 2.35734 197.549 2.10436 197.514 1.78238V1.78008ZM238.806 2.08596C238.449 2.05146 238.195 1.74788 238.211 1.40751C238.246 1.05103 238.55 0.798046 238.908 0.830244C239.265 0.848643 239.519 1.16832 239.484 1.5087C239.45 1.84678 239.18 2.08596 238.857 2.08596H238.806ZM202.576 1.32241C202.56 0.965935 202.813 0.662356 203.171 0.627858C203.528 0.611759 203.833 0.864743 203.851 1.22122C203.886 1.57769 203.614 1.88127 203.275 1.89967H203.224C202.885 1.89967 202.613 1.64669 202.578 1.32471L202.576 1.32241ZM233.728 1.71108C233.371 1.67659 233.117 1.37301 233.133 1.03263C233.15 0.676156 233.456 0.404773 233.814 0.439271C234.171 0.45767 234.425 0.761249 234.409 1.11772C234.374 1.4397 234.102 1.71108 233.763 1.71108H233.728ZM207.656 0.965936C207.638 0.627859 207.91 0.321979 208.267 0.30588C208.625 0.289781 208.913 0.561163 208.929 0.89924C208.945 1.25572 208.675 1.55929 208.334 1.57769H208.3C207.961 1.57769 207.67 1.30631 207.654 0.968234L207.656 0.965936ZM228.651 1.4397C228.293 1.4213 228.021 1.13382 228.039 0.779647C228.056 0.423171 228.344 0.151791 228.701 0.17019C229.059 0.186289 229.328 0.473768 229.312 0.830244C229.294 1.16832 229.024 1.4397 228.667 1.4397H228.648H228.651ZM212.753 0.745151C212.734 0.388675 213.025 0.101194 213.364 0.0850949V0.103494C213.721 0.0850953 214.009 0.356476 214.025 0.712951C214.025 1.05103 213.753 1.35691 213.414 1.35691H213.396C213.038 1.35691 212.766 1.08553 212.75 0.747449L212.753 0.745151ZM223.573 1.30401C223.215 1.28561 222.943 0.998133 222.943 0.643957C222.943 0.30588 223.247 0.0160993 223.589 0.034498C223.946 0.034498 224.218 0.321979 224.218 0.678455C224.218 1.01653 223.93 1.30631 223.589 1.30631H223.573V1.30401ZM217.849 0.643957C217.849 0.287481 218.121 0 218.478 0C218.836 0 219.124 0.271382 219.124 0.625558C219.124 0.982034 218.836 1.26952 218.495 1.26952H218.478C218.139 1.26952 217.849 0.982034 217.849 0.641657V0.643957Z" fill="#010F3F"/>
<path d="M221.266 262.419C221.247 262.081 221.52 261.775 221.877 261.759C222.216 261.741 222.523 262.012 222.539 262.369C222.555 262.707 222.285 263.013 221.928 263.029H221.893C221.554 263.029 221.282 262.773 221.264 262.419H221.266ZM216.764 262.978C216.407 262.944 216.153 262.656 216.17 262.3C216.204 261.943 216.492 261.69 216.85 261.706C217.207 261.741 217.479 262.044 217.445 262.385C217.426 262.723 217.138 262.978 216.815 262.978H216.764ZM226.328 261.946C226.277 261.607 226.514 261.285 226.853 261.216C227.192 261.166 227.534 261.403 227.585 261.741C227.651 262.079 227.416 262.419 227.075 262.47H227.056C227.024 262.486 226.99 262.486 226.955 262.486C226.648 262.486 226.376 262.265 226.325 261.943L226.328 261.946ZM211.636 262.318C211.297 262.249 211.057 261.911 211.126 261.573C211.195 261.235 211.534 260.998 211.873 261.065C212.212 261.134 212.452 261.472 212.383 261.81C212.332 262.116 212.06 262.334 211.753 262.334C211.719 262.334 211.687 262.318 211.636 262.318ZM231.304 260.895C231.219 260.556 231.406 260.2 231.747 260.099C232.086 259.998 232.443 260.2 232.529 260.538C232.63 260.876 232.443 261.216 232.104 261.318C232.038 261.336 231.987 261.352 231.918 261.352C231.646 261.352 231.392 261.166 231.307 260.895H231.304ZM206.625 261.065C206.286 260.964 206.115 260.591 206.217 260.269C206.318 259.931 206.675 259.745 207.014 259.846C207.353 259.965 207.54 260.32 207.423 260.642C207.337 260.913 207.084 261.099 206.828 261.099C206.761 261.099 206.692 261.081 206.625 261.065ZM236.128 259.252C235.992 258.93 236.145 258.558 236.467 258.422C236.79 258.286 237.164 258.441 237.3 258.76C237.436 259.082 237.3 259.455 236.961 259.59C236.892 259.625 236.809 259.641 236.723 259.641C236.467 259.641 236.23 259.505 236.128 259.252ZM201.8 259.234C201.478 259.082 201.342 258.71 201.478 258.388C201.63 258.066 202.003 257.93 202.326 258.066C202.649 258.217 202.785 258.59 202.649 258.912C202.529 259.149 202.31 259.285 202.054 259.285C201.969 259.285 201.883 259.266 201.8 259.234ZM240.731 257.065C240.561 256.759 240.665 256.371 240.969 256.201C241.273 256.03 241.665 256.134 241.836 256.437C242.007 256.743 241.903 257.132 241.598 257.3C241.497 257.35 241.396 257.385 241.294 257.385C241.057 257.385 240.851 257.265 240.734 257.063L240.731 257.065ZM197.214 256.844C196.907 256.677 196.806 256.286 196.992 255.982C197.179 255.676 197.569 255.575 197.876 255.761C198.164 255.931 198.265 256.336 198.097 256.624C197.979 256.826 197.758 256.946 197.537 256.946C197.435 256.946 197.315 256.911 197.214 256.844ZM245.046 254.354C244.825 254.082 244.891 253.675 245.182 253.473C245.454 253.268 245.862 253.321 246.065 253.609C246.268 253.896 246.217 254.287 245.929 254.489C245.809 254.575 245.692 254.625 245.556 254.625C245.353 254.625 245.166 254.524 245.046 254.354ZM192.934 253.947C192.662 253.726 192.611 253.337 192.832 253.066C193.035 252.778 193.443 252.728 193.715 252.949C194.004 253.151 194.054 253.558 193.835 253.829C193.715 254 193.512 254.082 193.326 254.082C193.19 254.082 193.054 254.032 192.936 253.947H192.934ZM249.003 251.168C248.766 250.913 248.782 250.508 249.038 250.269C249.291 250.032 249.683 250.048 249.937 250.304C250.175 250.557 250.159 250.948 249.903 251.203C249.785 251.304 249.63 251.371 249.462 251.371C249.291 251.371 249.123 251.304 249.003 251.168ZM189.043 250.559C188.79 250.322 188.79 249.915 189.027 249.662C189.281 249.425 189.673 249.409 189.927 249.662C190.18 249.899 190.18 250.306 189.945 250.559C189.809 250.679 189.657 250.745 189.486 250.745C189.332 250.745 189.163 250.695 189.043 250.559ZM252.571 247.528C252.299 247.307 252.266 246.902 252.485 246.631C252.707 246.378 253.115 246.343 253.385 246.564C253.657 246.785 253.691 247.192 253.452 247.463C253.334 247.615 253.147 247.684 252.977 247.684C252.824 247.684 252.688 247.634 252.568 247.53L252.571 247.528ZM185.563 246.748C185.342 246.477 185.393 246.07 185.665 245.851C185.937 245.63 186.345 245.681 186.564 245.952C186.786 246.224 186.735 246.631 186.463 246.849C186.345 246.934 186.209 246.985 186.055 246.985C185.868 246.985 185.697 246.9 185.561 246.748H185.563ZM255.663 243.496C255.375 243.31 255.29 242.921 255.476 242.615C255.679 242.328 256.071 242.243 256.36 242.445C256.666 242.631 256.733 243.022 256.546 243.326C256.426 243.496 256.223 243.597 256.021 243.597C255.903 243.597 255.783 243.563 255.663 243.496ZM182.573 242.549C182.386 242.261 182.471 241.854 182.775 241.668C183.064 241.482 183.456 241.583 183.643 241.873C183.829 242.178 183.744 242.567 183.456 242.753C183.338 242.82 183.218 242.855 183.117 242.855C182.895 242.855 182.692 242.737 182.573 242.549ZM258.262 239.145C257.958 238.975 257.822 238.602 257.99 238.28C258.142 237.977 258.516 237.841 258.839 238.009C259.143 238.161 259.279 238.533 259.127 238.855C259.007 239.076 258.788 239.212 258.548 239.212C258.463 239.212 258.361 239.177 258.26 239.145H258.262ZM180.094 238.027C179.941 237.724 180.077 237.333 180.382 237.181C180.705 237.045 181.097 237.165 181.23 237.487C181.385 237.809 181.249 238.181 180.942 238.333C180.841 238.384 180.755 238.402 180.67 238.402C180.414 238.402 180.195 238.266 180.091 238.029L180.094 238.027ZM260.351 234.504C260.012 234.386 259.842 234.012 259.962 233.69C260.082 233.352 260.455 233.181 260.778 233.301C261.117 233.421 261.288 233.793 261.168 234.115C261.066 234.386 260.829 234.538 260.557 234.538C260.49 234.538 260.421 234.522 260.354 234.504H260.351ZM178.14 233.25H178.159C178.039 232.928 178.209 232.556 178.548 232.455C178.887 232.337 179.245 232.521 179.365 232.843C179.466 233.181 179.298 233.538 178.957 233.657C178.887 233.676 178.821 233.692 178.754 233.692C178.482 233.692 178.244 233.524 178.143 233.253L178.14 233.25ZM261.864 229.658C261.525 229.573 261.304 229.235 261.389 228.894C261.474 228.538 261.813 228.336 262.152 228.421C262.491 228.49 262.713 228.844 262.627 229.184C262.561 229.472 262.305 229.676 262.016 229.676C261.966 229.676 261.915 229.658 261.864 229.658ZM176.782 228.285C176.715 227.947 176.934 227.607 177.276 227.54C177.614 227.455 177.956 227.676 178.023 228.032C178.108 228.37 177.887 228.71 177.548 228.777C177.497 228.796 177.446 228.796 177.412 228.796C177.107 228.796 176.851 228.593 176.784 228.287L176.782 228.285ZM262.814 224.66C262.457 224.628 262.203 224.304 262.254 223.966C262.288 223.609 262.593 223.356 262.95 223.407C263.308 223.442 263.545 223.745 263.511 224.102C263.476 224.424 263.204 224.66 262.881 224.66H262.814ZM176 223.186C175.982 222.848 176.238 222.542 176.577 222.508C176.934 222.473 177.239 222.729 177.273 223.083C177.308 223.421 177.052 223.727 176.694 223.761H176.644C176.321 223.761 176.033 223.524 175.998 223.186H176ZM262.507 218.968C262.507 218.612 262.796 218.324 263.137 218.324C263.495 218.324 263.783 218.596 263.783 218.952C263.783 219.309 263.511 219.596 263.153 219.596C262.796 219.596 262.507 219.309 262.507 218.968ZM176.459 218.697C176.102 218.679 175.83 218.391 175.848 218.037C175.848 217.699 176.136 217.409 176.494 217.427C176.851 217.427 177.121 217.731 177.121 218.071C177.105 218.428 176.817 218.699 176.475 218.699H176.459V218.697ZM262.185 213.971C262.134 213.614 262.388 213.311 262.729 213.258C263.086 213.207 263.391 213.46 263.444 213.817C263.494 214.155 263.241 214.477 262.9 214.527H262.814C262.491 214.527 262.219 214.29 262.185 213.968V213.971ZM176.814 213.633C176.475 213.582 176.235 213.26 176.289 212.904C176.339 212.566 176.662 212.329 177.001 212.379C177.359 212.43 177.596 212.752 177.545 213.092C177.495 213.414 177.222 213.635 176.918 213.635H176.817L176.814 213.633ZM261.267 209.058C261.182 208.702 261.387 208.364 261.726 208.279C262.065 208.194 262.422 208.398 262.507 208.752C262.593 209.09 262.371 209.431 262.032 209.514C261.982 209.532 261.931 209.532 261.878 209.532C261.59 209.532 261.334 209.346 261.267 209.058ZM177.783 208.635C177.444 208.55 177.239 208.196 177.324 207.855C177.425 207.517 177.767 207.313 178.106 207.416C178.445 207.501 178.65 207.855 178.565 208.196C178.479 208.483 178.226 208.67 177.935 208.67C177.884 208.67 177.834 208.654 177.783 208.635ZM259.772 204.282C259.655 203.943 259.823 203.571 260.146 203.451C260.485 203.332 260.843 203.502 260.979 203.824C261.096 204.146 260.928 204.518 260.605 204.638C260.52 204.673 260.453 204.689 260.384 204.689C260.111 204.689 259.874 204.535 259.772 204.282ZM179.312 203.808C178.989 203.672 178.837 203.299 178.973 202.978C179.09 202.639 179.466 202.485 179.789 202.621C180.128 202.757 180.283 203.113 180.147 203.451C180.045 203.688 179.808 203.84 179.552 203.84C179.482 203.84 179.399 203.822 179.314 203.805L179.312 203.808ZM257.752 199.691C257.582 199.385 257.702 198.996 258.025 198.845C258.329 198.675 258.721 198.81 258.873 199.116C259.041 199.438 258.924 199.811 258.601 199.979C258.516 200.013 258.414 200.045 258.313 200.045C258.075 200.045 257.854 199.91 257.752 199.689V199.691ZM181.42 199.167C181.097 198.996 180.995 198.624 181.166 198.302C181.318 197.996 181.71 197.879 182.014 198.047C182.319 198.217 182.439 198.606 182.268 198.911C182.167 199.132 181.945 199.249 181.708 199.249C181.606 199.249 181.505 199.217 181.42 199.164V199.167ZM255.188 195.388C255.001 195.101 255.07 194.71 255.359 194.507C255.647 194.305 256.055 194.39 256.242 194.677C256.445 194.965 256.36 195.372 256.071 195.558C255.97 195.643 255.85 195.676 255.714 195.676C255.511 195.676 255.306 195.574 255.188 195.388ZM184.035 194.813C183.744 194.611 183.677 194.22 183.88 193.932C184.083 193.645 184.475 193.576 184.763 193.778C185.052 193.981 185.121 194.372 184.918 194.659C184.798 194.829 184.595 194.93 184.392 194.93C184.272 194.93 184.138 194.896 184.035 194.813ZM252.146 191.407C251.909 191.154 251.943 190.747 252.216 190.51C252.488 190.289 252.877 190.324 253.117 190.579C253.339 190.85 253.322 191.258 253.05 191.476C252.933 191.577 252.778 191.628 252.626 191.628C252.455 191.628 252.269 191.561 252.151 191.407H252.146ZM187.141 190.798C186.887 190.561 186.869 190.154 187.09 189.901C187.328 189.629 187.736 189.611 187.989 189.85C188.262 190.087 188.28 190.478 188.04 190.749C187.923 190.885 187.752 190.952 187.565 190.952C187.413 190.952 187.261 190.901 187.141 190.8V190.798ZM248.648 187.815C248.392 187.578 248.376 187.171 248.613 186.918C248.851 186.665 249.259 186.646 249.513 186.883C249.767 187.12 249.785 187.511 249.547 187.782C249.43 187.918 249.259 187.985 249.089 187.985C248.936 187.985 248.782 187.934 248.648 187.815ZM190.727 187.171C190.489 186.899 190.505 186.511 190.777 186.274C191.031 186.037 191.439 186.071 191.679 186.324C191.901 186.596 191.882 187.003 191.612 187.224C191.492 187.341 191.34 187.391 191.204 187.391C191.017 187.391 190.847 187.306 190.729 187.171H190.727ZM244.758 184.664C244.467 184.461 244.4 184.054 244.622 183.767C244.827 183.496 245.217 183.429 245.505 183.631C245.793 183.834 245.862 184.225 245.641 184.512C245.521 184.682 245.318 184.783 245.131 184.783C244.995 184.783 244.878 184.749 244.758 184.664ZM194.684 183.985C194.497 183.698 194.564 183.307 194.852 183.105C195.143 182.902 195.533 182.987 195.736 183.275C195.938 183.562 195.872 183.953 195.583 184.156C195.466 184.225 195.346 184.257 195.21 184.257C195.007 184.257 194.82 184.172 194.684 183.985ZM240.512 181.987C240.206 181.819 240.104 181.428 240.275 181.122C240.445 180.816 240.835 180.699 241.14 180.869C241.446 181.037 241.564 181.428 241.377 181.734C241.276 181.955 241.054 182.072 240.833 182.072C240.713 182.072 240.611 182.037 240.51 181.987H240.512ZM199.015 181.292C198.844 180.986 198.964 180.598 199.268 180.446C199.591 180.276 199.965 180.395 200.135 180.699C200.304 181.021 200.186 181.393 199.863 181.564C199.778 181.614 199.677 181.63 199.575 181.63C199.338 181.63 199.132 181.513 199.015 181.292ZM235.992 179.818C235.67 179.682 235.517 179.31 235.653 178.988C235.773 178.666 236.147 178.514 236.486 178.65C236.809 178.785 236.961 179.158 236.825 179.48C236.723 179.717 236.486 179.869 236.23 179.869C236.163 179.869 236.075 179.853 235.992 179.818ZM203.618 179.124C203.482 178.802 203.652 178.429 203.975 178.309C204.314 178.174 204.672 178.344 204.808 178.666C204.925 179.004 204.773 179.36 204.434 179.496C204.365 179.531 204.282 179.531 204.213 179.531C203.959 179.531 203.719 179.377 203.618 179.124ZM233.938 179.038C233.599 178.919 233.428 178.565 233.548 178.224C233.649 177.902 234.023 177.716 234.346 177.836C234.685 177.953 234.856 178.309 234.736 178.647C234.65 178.9 234.397 179.071 234.141 179.071C234.074 179.071 234.005 179.052 233.938 179.036V179.038ZM208.442 177.514C208.357 177.176 208.562 176.819 208.901 176.734C209.24 176.649 209.581 176.851 209.683 177.192C209.768 177.53 209.565 177.87 209.224 177.971C209.173 177.971 209.106 177.987 209.055 177.987C208.783 177.987 208.511 177.801 208.444 177.514H208.442ZM229.113 177.649C228.756 177.583 228.553 177.242 228.62 176.904C228.705 176.548 229.044 176.345 229.383 176.412C229.722 176.497 229.944 176.835 229.858 177.176C229.791 177.481 229.535 177.668 229.247 177.668C229.196 177.668 229.146 177.668 229.111 177.649H229.113ZM213.418 176.465C213.384 176.108 213.621 175.805 213.963 175.754C214.32 175.704 214.643 175.957 214.694 176.297C214.728 176.653 214.491 176.957 214.149 177.008C214.115 177.008 214.083 177.026 214.064 177.026C213.741 177.026 213.469 176.789 213.418 176.467V176.465ZM224.153 176.854C223.814 176.819 223.558 176.497 223.593 176.159C223.627 175.803 223.932 175.55 224.289 175.584C224.628 175.619 224.884 175.941 224.85 176.279C224.815 176.617 224.543 176.854 224.22 176.854H224.151H224.153ZM218.499 176.007C218.499 175.651 218.771 175.363 219.126 175.363C219.483 175.363 219.772 175.635 219.772 175.989C219.772 176.345 219.499 176.633 219.142 176.633H219.124C218.785 176.633 218.496 176.361 218.496 176.005L218.499 176.007Z" fill="#010F3F"/>
<g opacity="0.5">
<path d="M187.51 142.935C187.473 142.935 187.436 142.933 187.399 142.926C187.187 142.889 187.005 142.747 186.922 142.547L134.747 18.2791C134.664 18.0836 134.685 17.8606 134.803 17.6835C134.92 17.5064 135.119 17.4006 135.331 17.3983L302.718 16.7612H302.721C302.972 16.7612 303.203 16.9107 303.304 17.1407C303.406 17.3707 303.362 17.6421 303.189 17.8284L187.978 142.735C187.856 142.866 187.685 142.94 187.51 142.94V142.935ZM136.29 18.6632L187.715 141.139L301.266 18.033L136.29 18.6609V18.6632Z" fill="#010F3F"/>
<path d="M142.422 188.235C142.342 188.235 142.259 188.219 142.18 188.187L17.1893 137.112C16.991 137.032 16.848 136.859 16.8065 136.65C16.765 136.441 16.8296 136.227 16.9795 136.075L134.881 17.5846C135.061 17.4052 135.326 17.35 135.564 17.4397C135.799 17.5317 135.961 17.7525 135.97 18.0055L143.059 187.575C143.068 187.792 142.966 187.996 142.789 188.123C142.681 188.199 142.551 188.238 142.422 188.238V188.235ZM18.5545 136.298L141.744 186.637L134.757 19.5119L18.5545 136.298Z" fill="#010F3F"/>
<path d="M18.0714 304.097C17.9468 304.097 17.8246 304.062 17.7185 303.991C17.541 303.874 17.4349 303.676 17.4326 303.464L16.7915 136.528C16.7915 136.275 16.9391 136.047 17.172 135.944C17.4049 135.843 17.6747 135.886 17.8615 136.059L143.104 250.964C143.263 251.111 143.337 251.327 143.3 251.541C143.263 251.752 143.12 251.932 142.919 252.017L18.3181 304.049C18.2374 304.081 18.1544 304.099 18.0714 304.099V304.097ZM18.0737 137.977L18.7055 302.508L141.51 251.226L18.0737 137.979V137.977Z" fill="#010F3F"/>
<path d="M136.886 421.686C136.72 421.686 136.558 421.621 136.436 421.502L17.6162 303.913C17.4363 303.736 17.3787 303.469 17.4709 303.232C17.5631 302.997 17.7845 302.836 18.0382 302.827L188.071 295.753C188.29 295.732 188.495 295.845 188.62 296.022C188.744 296.199 188.77 296.427 188.687 296.627L137.476 421.29C137.395 421.485 137.222 421.63 137.012 421.672C136.971 421.681 136.927 421.683 136.886 421.683V421.686ZM19.5487 304.035L136.657 419.928L187.13 297.062L19.5487 304.035Z" fill="#010F3F"/>
<path d="M136.886 421.686C136.635 421.686 136.404 421.536 136.303 421.306C136.201 421.076 136.245 420.805 136.418 420.618L251.629 295.714C251.776 295.555 251.993 295.479 252.208 295.518C252.42 295.555 252.602 295.698 252.685 295.898L304.855 420.159C304.938 420.354 304.917 420.577 304.8 420.754C304.682 420.931 304.484 421.037 304.271 421.039L136.888 421.683H136.886V421.686ZM251.894 297.305L138.344 420.409L303.314 419.774L251.896 297.305H251.894Z" fill="#010F3F"/>
<path d="M304.27 421.042C304.194 421.042 304.116 421.028 304.04 420.998C303.804 420.906 303.643 420.685 303.634 420.432L296.54 250.862C296.531 250.646 296.633 250.442 296.81 250.315C296.988 250.191 297.214 250.163 297.417 250.248L422.412 301.326C422.61 301.406 422.753 301.579 422.795 301.788C422.836 301.997 422.772 302.211 422.622 302.363L304.72 420.855C304.598 420.977 304.434 421.044 304.268 421.044L304.27 421.042ZM297.853 251.801L304.844 418.926L421.047 302.142L297.853 251.801Z" fill="#010F3F"/>
<path d="M422.171 302.549C422.014 302.549 421.86 302.491 421.74 302.381L296.502 187.483C296.343 187.336 296.269 187.12 296.306 186.906C296.343 186.694 296.486 186.515 296.687 186.43L421.288 134.396C421.486 134.313 421.71 134.334 421.885 134.451C422.063 134.568 422.169 134.766 422.171 134.978L422.807 301.91C422.807 302.163 422.66 302.39 422.427 302.494C422.344 302.531 422.256 302.547 422.171 302.547V302.549ZM298.098 187.219L421.53 300.461L420.903 135.932L298.098 187.219Z" fill="#010F3F"/>
<path d="M251.51 142.696C251.303 142.696 251.109 142.595 250.989 142.425C250.865 142.248 250.839 142.02 250.92 141.82L302.131 17.1569C302.211 16.9614 302.384 16.8165 302.594 16.7751C302.802 16.736 303.021 16.7981 303.171 16.9476L421.986 134.532C422.166 134.709 422.223 134.976 422.131 135.212C422.039 135.447 421.818 135.608 421.564 135.617L251.538 142.696C251.538 142.696 251.52 142.696 251.513 142.696H251.51ZM302.949 18.5184L252.477 141.385L420.051 134.408L302.949 18.5184Z" fill="#010F3F"/>
</g>
<path d="M161.526 361.703C161.484 361.703 161.445 361.699 161.403 361.692C161.194 361.651 161.021 361.51 160.938 361.315L76.9878 161.346C76.9047 161.15 76.9255 160.927 77.0431 160.75C77.1607 160.573 77.359 160.467 77.5712 160.465L361.579 159.384C361.821 159.457 362.07 159.538 362.169 159.772C362.268 160.009 362.215 160.283 362.033 160.465L161.975 361.515C161.855 361.637 161.692 361.703 161.523 361.703H161.526ZM78.5305 161.732L161.745 359.946L360.047 160.66L78.5305 161.732Z" fill="#010F3F"/>
<path d="M279.169 361.251C279.086 361.251 279.006 361.235 278.927 361.205L77.7811 279.01C77.5828 278.93 77.4398 278.758 77.3983 278.548C77.3568 278.339 77.4214 278.125 77.5713 277.973L277.631 76.9324C277.813 76.7484 278.086 76.6955 278.325 76.7921C278.565 76.8887 278.72 77.121 278.722 77.3785L279.808 360.614C279.808 360.825 279.704 361.025 279.527 361.143C279.421 361.214 279.296 361.251 279.172 361.251H279.169ZM79.1463 278.194L278.528 359.668L277.451 78.9171L79.1463 278.194Z" fill="#010F3F"/>
<path d="M161.524 361.694C161.4 361.694 161.277 361.66 161.171 361.588C160.994 361.471 160.888 361.273 160.885 361.062L159.811 77.8313C159.811 77.5737 159.965 77.3437 160.201 77.2426C160.438 77.1414 160.712 77.1966 160.895 77.3782L362.479 276.885C362.629 277.035 362.696 277.249 362.656 277.458C362.615 277.667 362.474 277.84 362.278 277.922L161.769 361.646C161.688 361.678 161.605 361.697 161.522 361.697L161.524 361.694ZM161.093 79.3607L162.158 360.107L360.908 277.117L161.093 79.3607Z" fill="#010F3F"/>
<path d="M279.158 361.248C278.992 361.248 278.831 361.184 278.708 361.064L77.1357 161.555C76.9536 161.374 76.8982 161.102 76.9951 160.863C77.0919 160.624 77.3248 160.47 77.5831 160.467L361.581 159.382H361.584C361.796 159.382 361.994 159.488 362.112 159.662C362.229 159.839 362.255 160.063 362.174 160.258L279.751 360.853C279.67 361.051 279.497 361.193 279.287 361.235C279.246 361.244 279.202 361.246 279.16 361.246L279.158 361.248ZM79.1236 161.732L278.93 359.491L360.631 160.656L79.1236 161.732Z" fill="#010F3F"/>
<path d="M78.0287 279.061C77.7727 279.061 77.5398 278.907 77.4406 278.673C77.3415 278.436 77.3945 278.162 77.5767 277.98L277.623 76.9348C277.77 76.783 277.987 76.7163 278.197 76.7577C278.407 76.7991 278.58 76.9394 278.663 77.1348L362.61 277.09C362.693 277.286 362.673 277.509 362.555 277.686C362.437 277.863 362.239 277.969 362.027 277.971L78.0333 279.063H78.031L78.0287 279.061ZM277.856 78.5032L79.5645 277.787L361.068 276.704L277.858 78.5032H277.856Z" fill="#010F3F"/>
<path d="M161.531 361.697C161.45 361.697 161.367 361.681 161.289 361.651C161.049 361.554 160.894 361.322 160.892 361.064L159.808 77.8293C159.808 77.6178 159.912 77.4177 160.089 77.3004C160.267 77.1808 160.488 77.1578 160.687 77.2383L361.819 159.428C362.017 159.508 362.16 159.681 362.202 159.89C362.243 160.099 362.179 160.313 362.029 160.465L161.98 361.511C161.858 361.632 161.694 361.699 161.528 361.699L161.531 361.697ZM161.088 78.7746L162.163 359.526L360.456 160.244L161.088 78.7746Z" fill="#010F3F"/>
<path d="M279.165 361.251C278.999 361.251 278.838 361.186 278.716 361.067L77.1315 161.553C76.9816 161.403 76.9147 161.189 76.9539 160.98C76.9954 160.771 77.1361 160.598 77.3321 160.516L277.83 76.7943C278.028 76.7115 278.252 76.7322 278.427 76.8495C278.605 76.9668 278.711 77.1645 278.713 77.3761L279.8 360.611C279.8 360.869 279.645 361.101 279.41 361.2C279.329 361.234 279.246 361.251 279.163 361.251H279.165ZM78.7065 161.32L278.522 359.084L277.445 78.3329L78.7065 161.32Z" fill="#010F3F"/>
<path d="M78.03 279.061C77.8178 279.061 77.6195 278.955 77.5019 278.781C77.3843 278.603 77.3612 278.38 77.4396 278.185L159.854 77.5855C159.934 77.3877 160.107 77.2451 160.317 77.2037C160.527 77.1623 160.744 77.2267 160.894 77.3762L362.478 276.885C362.66 277.067 362.715 277.339 362.619 277.578C362.522 277.817 362.289 277.971 362.031 277.973L78.0323 279.063H78.03V279.061ZM160.672 78.947L78.9801 277.787L360.488 276.706L160.672 78.947Z" fill="#010F3F"/>
</g>
</svg>
