<svg width="332" height="332" viewBox="0 0 332 332" fill="none" xmlns="http://www.w3.org/2000/svg">
<g opacity="0.5">
<path d="M166.013 316.123C165.376 316.123 164.766 315.869 164.308 315.411L16.5892 167.692C15.6477 166.751 15.6477 165.249 16.5892 164.308L164.308 16.5894C165.198 15.6987 166.801 15.6987 167.692 16.5894L315.411 164.308C316.352 165.249 316.352 166.751 315.411 167.692L167.692 315.411C167.234 315.869 166.623 316.123 165.987 316.123H166.013ZM18.4999 165.987L166.013 313L314 166.5L166 18.5L18.4999 165.987Z" fill="#010F3F"/>
<path d="M69.3404 168.049C69.0351 168.049 68.7297 167.921 68.5007 167.692L67.661 166.853C67.1775 166.395 67.1775 165.631 67.661 165.148L68.5007 164.308C68.9587 163.85 69.7221 163.85 70.2056 164.308C70.6637 164.766 70.6637 165.529 70.2056 166.013C70.6637 166.471 70.6637 167.234 70.2056 167.718C69.9766 167.947 69.6712 168.074 69.3659 168.074L69.3404 168.049Z" fill="#010F3F"/>
<path d="M74.5571 161.127C74.2517 161.127 73.9464 161 73.7174 160.771C73.2339 160.313 73.2339 159.549 73.7174 159.066L75.4477 157.335C75.9058 156.877 76.6692 156.877 77.1527 157.335C77.6107 157.793 77.6107 158.557 77.1527 159.04L75.3968 160.771C75.1678 161 74.8625 161.127 74.5571 161.127ZM81.5295 154.154C81.2241 154.154 80.9188 154.027 80.6898 153.798C80.2317 153.34 80.2317 152.577 80.6898 152.093L82.4456 150.337C82.9036 149.879 83.667 149.879 84.1505 150.337C84.6086 150.795 84.6086 151.559 84.1505 152.042L82.4202 153.773C82.1911 154.002 81.8858 154.129 81.5804 154.129L81.5295 154.154ZM88.5019 147.182C88.1966 147.182 87.8912 147.055 87.6622 146.826C87.2041 146.368 87.2041 145.604 87.6622 145.121L89.3926 143.365C89.8506 142.907 90.614 142.907 91.0975 143.365C91.5555 143.823 91.5555 144.586 91.0975 145.07L89.3671 146.826C89.1381 147.055 88.8327 147.182 88.5274 147.182H88.5019ZM95.4743 140.21C95.169 140.21 94.8636 140.082 94.6346 139.853C94.1766 139.395 94.1766 138.632 94.6346 138.148L96.365 136.393C96.823 135.935 97.5864 135.935 98.0699 136.393C98.5279 136.851 98.5279 137.614 98.0699 138.097L96.3395 139.853C96.1105 140.082 95.8051 140.21 95.4998 140.21H95.4743ZM102.447 133.237C102.141 133.237 101.836 133.11 101.607 132.881C101.149 132.423 101.149 131.659 101.607 131.176L103.363 129.446C103.821 128.988 104.584 128.988 105.068 129.446C105.526 129.904 105.526 130.667 105.068 131.151L103.312 132.881C103.083 133.11 102.778 133.237 102.472 133.237H102.447ZM109.419 126.265C109.114 126.265 108.808 126.138 108.579 125.908C108.121 125.45 108.121 124.687 108.579 124.204L110.31 122.473C110.768 122.015 111.531 122.015 112.015 122.473C112.473 122.931 112.473 123.695 112.015 124.178L110.284 125.908C110.055 126.138 109.75 126.265 109.445 126.265H109.419ZM116.392 119.292C116.086 119.292 115.781 119.165 115.552 118.936C115.094 118.478 115.094 117.715 115.552 117.231L117.308 115.501C117.766 115.043 118.529 115.043 119.013 115.501C119.496 115.959 119.471 116.722 119.013 117.206L117.282 118.936C117.053 119.165 116.748 119.292 116.442 119.292H116.392ZM123.364 112.32C123.059 112.32 122.753 112.193 122.524 111.964C122.066 111.506 122.066 110.742 122.524 110.259L124.255 108.528C124.713 108.07 125.476 108.07 125.96 108.528C126.418 108.986 126.418 109.75 125.96 110.233L124.229 111.964C124 112.193 123.695 112.32 123.389 112.32H123.364ZM130.336 105.348C130.031 105.348 129.726 105.22 129.497 104.991C129.039 104.533 129.039 103.77 129.497 103.286L131.252 101.556C131.711 101.098 132.474 101.098 132.957 101.556C133.415 102.014 133.415 102.777 132.957 103.261L131.227 104.991C130.998 105.22 130.693 105.348 130.387 105.348H130.336ZM137.309 98.3751C137.003 98.3751 136.698 98.2479 136.469 98.0188C136.011 97.5608 136.011 96.7974 136.469 96.3139L138.199 94.5581C138.658 94.1 139.421 94.1 139.904 94.5581C140.362 95.0161 140.362 95.7795 139.904 96.263L138.174 98.0188C137.945 98.2479 137.64 98.3751 137.334 98.3751H137.309ZM144.281 91.4027C143.976 91.4027 143.671 91.2754 143.441 91.0464C142.983 90.5884 142.983 89.825 143.441 89.3415L145.172 87.6111C145.63 87.1531 146.393 87.1531 146.877 87.6111C147.335 88.0692 147.335 88.8326 146.877 89.316L145.121 91.0719C144.892 91.3009 144.587 91.4281 144.281 91.4281V91.4027ZM151.254 84.4303C150.948 84.4303 150.643 84.303 150.414 84.074C149.956 83.616 149.956 82.8526 150.414 82.3691L152.144 80.6387C152.602 80.1807 153.366 80.1807 153.849 80.6387C154.307 81.0967 154.307 81.8602 153.849 82.3436L152.119 84.0995C151.89 84.3285 151.584 84.4557 151.279 84.4557L151.254 84.4303ZM158.226 77.4579C157.921 77.4579 157.615 77.3306 157.386 77.1016C156.928 76.6436 156.928 75.8802 157.386 75.3967L159.117 73.6663C159.575 73.2082 160.338 73.2082 160.822 73.6663C161.28 74.1243 161.28 74.8877 160.822 75.3712L159.091 77.1016C158.862 77.3306 158.557 77.4579 158.252 77.4579H158.226Z" fill="#010F3F"/>
<path d="M166.852 70.5365C166.547 70.5365 166.242 70.4092 166.013 70.1802C165.555 70.6382 164.791 70.6382 164.308 70.1802C163.85 69.7222 163.85 68.9588 164.308 68.4753L165.147 67.6355C165.605 67.1775 166.369 67.1775 166.852 67.6355L167.692 68.4753C168.15 68.9333 168.15 69.6967 167.692 70.1802C167.463 70.4092 167.158 70.5365 166.852 70.5365Z" fill="#010F3F"/>
<path d="M257.443 161.127C257.138 161.127 256.832 161 256.603 160.771L254.873 159.04C254.415 158.557 254.415 157.819 254.873 157.335C255.331 156.877 256.094 156.877 256.578 157.335L258.308 159.066C258.766 159.524 258.766 160.287 258.308 160.771C258.079 161 257.774 161.127 257.468 161.127H257.443ZM250.471 154.154C250.165 154.154 249.86 154.027 249.631 153.798L247.9 152.042C247.442 151.584 247.442 150.821 247.9 150.337C248.359 149.879 249.122 149.879 249.605 150.337L251.361 152.068C251.819 152.526 251.819 153.289 251.361 153.773C251.132 154.002 250.827 154.129 250.522 154.129L250.471 154.154ZM243.498 147.182C243.193 147.182 242.887 147.055 242.658 146.826L240.928 145.095C240.47 144.637 240.47 143.874 240.928 143.39C241.386 142.932 242.15 142.932 242.633 143.39L244.389 145.121C244.847 145.579 244.847 146.342 244.389 146.826C244.16 147.055 243.854 147.182 243.549 147.182H243.498ZM236.526 140.21C236.22 140.21 235.915 140.082 235.686 139.853L233.956 138.097C233.498 137.639 233.498 136.876 233.956 136.393C234.414 135.935 235.177 135.935 235.661 136.393L237.391 138.148C237.849 138.606 237.849 139.37 237.391 139.853C237.162 140.082 236.857 140.21 236.551 140.21H236.526ZM229.553 133.237C229.248 133.237 228.943 133.11 228.714 132.881L226.958 131.151C226.5 130.692 226.5 129.929 226.958 129.446C227.441 128.988 228.179 128.988 228.663 129.446L230.419 131.176C230.877 131.634 230.877 132.397 230.419 132.881C230.19 133.11 229.884 133.237 229.579 133.237H229.553ZM222.581 126.265C222.276 126.265 221.97 126.138 221.741 125.908L220.011 124.178C219.553 123.72 219.553 122.957 220.011 122.473C220.469 122.015 221.232 122.015 221.716 122.473L223.446 124.204C223.904 124.662 223.904 125.425 223.446 125.908C223.217 126.138 222.912 126.265 222.606 126.265H222.581ZM215.609 119.292C215.303 119.292 214.998 119.165 214.769 118.936L213.013 117.206C212.555 116.748 212.555 115.984 213.013 115.501C213.471 115.017 214.234 115.043 214.718 115.501L216.474 117.231C216.932 117.689 216.932 118.453 216.474 118.936C216.245 119.165 215.939 119.292 215.634 119.292H215.609ZM208.636 112.32C208.331 112.32 208.025 112.193 207.796 111.964L206.066 110.233C205.608 109.775 205.608 109.012 206.066 108.528C206.524 108.07 207.287 108.07 207.771 108.528L209.501 110.284C209.959 110.742 209.959 111.506 209.501 111.989C209.272 112.218 208.967 112.345 208.662 112.345L208.636 112.32ZM201.664 105.348C201.358 105.348 201.053 105.22 200.824 104.991L199.094 103.261C198.61 102.803 198.61 102.039 199.094 101.556C199.552 101.098 200.315 101.098 200.773 101.556L202.529 103.286C202.987 103.744 202.987 104.508 202.529 104.991C202.3 105.22 201.995 105.348 201.689 105.348H201.664ZM194.691 98.3751C194.386 98.3751 194.081 98.2479 193.852 98.0188L192.121 96.263C191.663 95.805 191.663 95.0416 192.121 94.5581C192.579 94.1 193.343 94.1 193.826 94.5581L195.556 96.3139C196.015 96.7719 196.015 97.5354 195.556 98.0188C195.327 98.2479 195.022 98.3751 194.717 98.3751H194.691ZM187.719 91.4027C187.414 91.4027 187.108 91.2754 186.879 91.0464L185.123 89.316C184.665 88.858 184.665 88.0946 185.123 87.6111C185.581 87.1531 186.345 87.1531 186.828 87.6111L188.559 89.3415C189.017 89.7995 189.017 90.5629 188.559 91.0464C188.33 91.2754 188.024 91.4027 187.719 91.4027ZM180.746 84.4303C180.441 84.4303 180.136 84.303 179.907 84.074L178.176 82.3182C177.718 81.8601 177.718 81.0967 178.176 80.6133C178.634 80.1552 179.398 80.1552 179.881 80.6133L181.612 82.3436C182.07 82.8017 182.07 83.5651 181.612 84.0486C181.383 84.2776 181.077 84.4048 180.772 84.4048L180.746 84.4303ZM173.774 77.4579C173.469 77.4579 173.163 77.3306 172.934 77.1016L171.178 75.3712C170.72 74.9132 170.72 74.1498 171.178 73.6663C171.637 73.2082 172.4 73.2082 172.883 73.6663L174.614 75.3967C175.072 75.8547 175.072 76.6181 174.614 77.1016C174.385 77.3306 174.079 77.4579 173.774 77.4579Z" fill="#010F3F"/>
<path d="M262.685 168.049C262.38 168.049 262.074 167.921 261.845 167.692C261.387 167.234 261.387 166.471 261.845 165.987C261.387 165.529 261.387 164.766 261.845 164.282C262.303 163.824 263.067 163.824 263.55 164.282L264.39 165.122C264.848 165.58 264.848 166.344 264.39 166.827L263.55 167.667C263.321 167.896 263.016 168.023 262.71 168.023L262.685 168.049Z" fill="#010F3F"/>
<path d="M172.069 258.639C171.764 258.639 171.458 258.512 171.229 258.283C170.771 257.799 170.771 257.061 171.229 256.578L172.96 254.847C173.418 254.389 174.181 254.389 174.665 254.847C175.123 255.306 175.123 256.069 174.665 256.552L172.934 258.308C172.705 258.537 172.4 258.665 172.094 258.665L172.069 258.639ZM179.041 251.667C178.736 251.667 178.431 251.539 178.202 251.31C177.744 250.852 177.744 250.089 178.202 249.605L179.932 247.875C180.39 247.417 181.154 247.417 181.637 247.875C182.095 248.333 182.095 249.097 181.637 249.58L179.907 251.336C179.678 251.565 179.372 251.692 179.067 251.692L179.041 251.667ZM186.014 244.694C185.708 244.694 185.403 244.592 185.174 244.338C184.716 243.854 184.716 243.117 185.174 242.633L186.904 240.903C187.363 240.445 188.126 240.445 188.609 240.903C189.067 241.361 189.067 242.124 188.609 242.608L186.879 244.363C186.65 244.592 186.345 244.72 186.039 244.72L186.014 244.694ZM192.986 237.722C192.681 237.722 192.376 237.595 192.147 237.366C191.688 236.908 191.688 236.144 192.147 235.661L193.877 233.905C194.335 233.447 195.098 233.447 195.582 233.905C196.04 234.363 196.04 235.126 195.582 235.61L193.851 237.366C193.622 237.595 193.317 237.722 193.012 237.722H192.986ZM199.959 230.749C199.653 230.749 199.348 230.622 199.119 230.393C198.661 229.935 198.661 229.172 199.119 228.688L200.849 226.958C201.307 226.5 202.071 226.5 202.554 226.958C203.012 227.416 203.012 228.179 202.554 228.663L200.798 230.393C200.569 230.622 200.264 230.749 199.959 230.749ZM206.931 223.777C206.626 223.777 206.32 223.65 206.091 223.421C205.633 222.963 205.633 222.199 206.091 221.716L207.822 219.985C208.28 219.527 209.043 219.527 209.527 219.985C209.985 220.443 209.985 221.207 209.527 221.69L207.796 223.421C207.567 223.65 207.262 223.777 206.957 223.777H206.931ZM213.903 216.805C213.598 216.805 213.293 216.677 213.064 216.448C212.606 215.99 212.606 215.227 213.064 214.743L214.82 213.013C215.278 212.555 216.041 212.555 216.525 213.013C216.983 213.471 216.983 214.234 216.525 214.718L214.769 216.448C214.54 216.677 214.234 216.805 213.929 216.805H213.903ZM220.876 209.832C220.571 209.832 220.265 209.705 220.036 209.476C219.578 209.018 219.578 208.254 220.036 207.771L221.767 206.041C222.225 205.583 222.988 205.583 223.471 206.041C223.93 206.499 223.93 207.262 223.471 207.746L221.741 209.476C221.512 209.705 221.207 209.832 220.901 209.832H220.876ZM227.848 202.86C227.543 202.86 227.238 202.733 227.009 202.504C226.551 202.045 226.551 201.282 227.009 200.799L228.739 199.068C229.197 198.61 229.96 198.61 230.444 199.068C230.902 199.526 230.902 200.29 230.444 200.773L228.714 202.504C228.484 202.733 228.179 202.86 227.874 202.86H227.848ZM234.821 195.887C234.515 195.887 234.21 195.76 233.981 195.531C233.523 195.073 233.523 194.31 233.981 193.826L235.711 192.07C236.169 191.612 236.933 191.612 237.416 192.07C237.874 192.528 237.874 193.292 237.416 193.775L235.686 195.531C235.457 195.76 235.152 195.887 234.846 195.887H234.821ZM241.793 188.915C241.488 188.915 241.182 188.788 240.953 188.559C240.495 188.101 240.495 187.337 240.953 186.854L242.709 185.098C243.167 184.64 243.931 184.64 244.414 185.098C244.872 185.556 244.872 186.319 244.414 186.803L242.684 188.559C242.455 188.788 242.149 188.915 241.844 188.915H241.793ZM248.766 181.943C248.46 181.943 248.155 181.815 247.926 181.586C247.468 181.128 247.468 180.365 247.926 179.881L249.656 178.151C250.114 177.693 250.878 177.693 251.361 178.151C251.819 178.609 251.819 179.372 251.361 179.856L249.631 181.586C249.402 181.815 249.096 181.943 248.791 181.943H248.766ZM255.738 174.97C255.433 174.97 255.127 174.843 254.898 174.614C254.44 174.156 254.44 173.392 254.898 172.909L256.654 171.153C257.112 170.695 257.875 170.695 258.334 171.153C258.817 171.611 258.817 172.375 258.334 172.858L256.603 174.588C256.374 174.817 256.069 174.945 255.763 174.945L255.738 174.97Z" fill="#010F3F"/>
<path d="M166.013 264.721C165.707 264.721 165.402 264.593 165.173 264.364L164.333 263.525C163.875 263.041 163.875 262.303 164.333 261.82C164.791 261.362 165.555 261.362 166.038 261.82C166.496 261.362 167.26 261.362 167.743 261.82C168.201 262.303 168.201 263.041 167.743 263.525L166.903 264.364C166.674 264.593 166.369 264.721 166.064 264.721H166.013Z" fill="#010F3F"/>
<path d="M159.931 258.639C159.626 258.639 159.32 258.512 159.091 258.283L157.361 256.527C156.903 256.069 156.903 255.305 157.361 254.822C157.819 254.364 158.582 254.364 159.066 254.822L160.796 256.552C161.254 257.036 161.254 257.774 160.796 258.257C160.567 258.486 160.262 258.614 159.956 258.614L159.931 258.639ZM152.959 251.667C152.653 251.667 152.348 251.539 152.119 251.31L150.388 249.58C149.93 249.096 149.93 248.359 150.388 247.875C150.847 247.417 151.61 247.417 152.093 247.875L153.824 249.605C154.282 250.063 154.282 250.827 153.824 251.31C153.595 251.539 153.289 251.667 152.984 251.667H152.959ZM145.986 244.694C145.681 244.694 145.375 244.592 145.146 244.338L143.416 242.582C142.958 242.124 142.958 241.361 143.416 240.877C143.874 240.419 144.637 240.419 145.096 240.877L146.851 242.608C147.309 243.091 147.309 243.829 146.851 244.312C146.622 244.542 146.317 244.669 146.012 244.669L145.986 244.694ZM139.014 237.722C138.708 237.722 138.403 237.595 138.174 237.366L136.444 235.61C135.986 235.152 135.986 234.388 136.444 233.905C136.902 233.447 137.665 233.447 138.149 233.905L139.879 235.661C140.337 236.119 140.337 236.882 139.879 237.366C139.65 237.595 139.345 237.722 139.039 237.722H139.014ZM132.041 230.749C131.736 230.749 131.431 230.622 131.202 230.393L129.446 228.663C128.988 228.179 128.988 227.441 129.446 226.958C129.904 226.5 130.667 226.5 131.151 226.958L132.907 228.688C133.365 229.146 133.365 229.91 132.907 230.393C132.678 230.622 132.372 230.749 132.067 230.749H132.041ZM125.069 223.777C124.764 223.777 124.458 223.65 124.229 223.421L122.499 221.69C122.041 221.232 122.041 220.469 122.499 219.985C122.957 219.527 123.72 219.527 124.204 219.985L125.934 221.716C126.392 222.174 126.392 222.937 125.934 223.421C125.705 223.65 125.4 223.777 125.094 223.777H125.069ZM118.097 216.805C117.791 216.805 117.486 216.677 117.257 216.448L115.501 214.718C115.043 214.26 115.043 213.496 115.501 213.013C115.959 212.555 116.722 212.555 117.206 213.013L118.936 214.743C119.394 215.201 119.394 215.965 118.936 216.448C118.707 216.677 118.402 216.805 118.097 216.805ZM111.124 209.832C110.819 209.832 110.513 209.705 110.284 209.476L108.554 207.745C108.096 207.287 108.096 206.524 108.554 206.041C109.012 205.583 109.775 205.583 110.259 206.041L111.989 207.771C112.447 208.229 112.447 208.992 111.989 209.476C111.76 209.705 111.455 209.832 111.15 209.832H111.124ZM104.152 202.86C103.846 202.86 103.541 202.732 103.312 202.503L101.556 200.773C101.098 200.315 101.098 199.552 101.556 199.068C102.04 198.61 102.778 198.61 103.261 199.068L105.017 200.799C105.475 201.257 105.475 202.02 105.017 202.503C104.788 202.732 104.483 202.86 104.177 202.86H104.152ZM97.1793 195.887C96.8739 195.887 96.5686 195.76 96.3395 195.531L94.6092 193.775C94.1511 193.317 94.1511 192.554 94.6092 192.07C95.0672 191.612 95.8306 191.612 96.3141 192.07L98.0445 193.826C98.5025 194.284 98.5025 195.048 98.0445 195.531C97.8155 195.76 97.5101 195.887 97.2047 195.887H97.1793ZM90.2069 188.915C89.9015 188.915 89.5961 188.788 89.3671 188.559L87.6113 186.828C87.1533 186.37 87.1533 185.607 87.6113 185.123C88.0948 184.665 88.8327 184.665 89.3162 185.123L91.0466 186.854C91.5047 187.312 91.5047 188.075 91.0466 188.559C90.8176 188.788 90.5122 188.915 90.2069 188.915ZM83.2345 181.942C82.9291 181.942 82.6237 181.815 82.3947 181.586L80.6389 179.856C80.1808 179.398 80.1808 178.634 80.6389 178.151C81.0969 177.693 81.8603 177.693 82.3438 178.151L84.0742 179.881C84.5322 180.339 84.5322 181.103 84.0742 181.586C83.8452 181.815 83.5398 181.942 83.2345 181.942ZM76.262 174.97C75.9567 174.97 75.6513 174.843 75.4223 174.614L73.6919 172.883C73.2339 172.425 73.2339 171.662 73.6919 171.178C74.15 170.72 74.9134 170.72 75.3968 171.178L77.1272 172.909C77.5853 173.367 77.5853 174.13 77.1272 174.614C76.8982 174.843 76.5929 174.97 76.2875 174.97H76.262Z" fill="#010F3F"/>
<path d="M2.74616 168.049C2.4408 168.049 2.13544 167.921 1.90642 167.692L1.06668 166.853C0.608634 166.395 0.608634 165.631 1.06668 165.148L1.90642 164.308C2.36446 163.85 3.12786 163.85 3.61135 164.308C4.06939 164.766 4.06939 165.529 3.61135 166.013C4.06939 166.471 4.06939 167.234 3.61135 167.718C3.38233 167.947 3.07697 168.074 2.77161 168.074L2.74616 168.049Z" fill="#010F3F"/>
<path d="M7.86101 161.229C7.55565 161.229 7.25029 161.101 7.02127 160.872C6.56322 160.414 6.56322 159.651 7.02127 159.167L8.7262 157.462C9.18424 157.004 9.94764 157.004 10.4311 157.462C10.8892 157.92 10.8892 158.684 10.4311 159.167L8.7262 160.872C8.49718 161.101 8.19182 161.229 7.88646 161.229H7.86101ZM14.7062 154.383C14.4008 154.383 14.0955 154.256 13.8664 154.027C13.4084 153.569 13.4084 152.806 13.8664 152.322L15.5714 150.617C16.0294 150.159 16.7928 150.159 17.2763 150.617C17.7344 151.075 17.7344 151.839 17.2763 152.322L15.5714 154.027C15.3424 154.256 15.037 154.383 14.7316 154.383H14.7062ZM21.5514 147.538C21.246 147.538 20.9406 147.411 20.7116 147.182C20.2536 146.724 20.2536 145.96 20.7116 145.477L22.4166 143.772C22.8746 143.314 23.638 143.314 24.1215 143.772C24.5795 144.23 24.5795 144.993 24.1215 145.477L22.4166 147.182C22.1875 147.411 21.8822 147.538 21.5768 147.538H21.5514ZM28.3966 140.693C28.0912 140.693 27.7858 140.566 27.5568 140.337C27.0988 139.879 27.0988 139.115 27.5568 138.632L29.2617 136.927C29.7198 136.469 30.4832 136.469 30.9667 136.927C31.4247 137.385 31.4247 138.148 30.9667 138.632L29.2617 140.337C29.0327 140.566 28.7274 140.693 28.422 140.693H28.3966ZM35.2417 133.848C34.9364 133.848 34.631 133.721 34.402 133.492C33.9439 133.033 33.9439 132.27 34.402 131.787L36.1069 130.082C36.565 129.624 37.3284 129.624 37.8119 130.082C38.2699 130.54 38.2699 131.303 37.8119 131.787L36.1069 133.492C35.8779 133.721 35.5725 133.848 35.2672 133.848H35.2417ZM42.0869 127.003C41.7815 127.003 41.4762 126.875 41.2472 126.646C40.7891 126.188 40.7891 125.425 41.2472 124.941L42.9521 123.236C43.4101 122.778 44.1735 122.778 44.657 123.236C45.1151 123.695 45.1151 124.458 44.657 124.941L42.9521 126.646C42.7231 126.875 42.4177 127.003 42.1124 127.003H42.0869ZM48.9321 120.157C48.6267 120.157 48.3214 120.03 48.0923 119.801C47.6343 119.343 47.6343 118.58 48.0923 118.096L49.7973 116.391C50.2553 115.933 51.0187 115.933 51.5022 116.391C51.9602 116.849 51.9602 117.613 51.5022 118.096L49.7973 119.801C49.5683 120.03 49.2629 120.157 48.9575 120.157H48.9321ZM55.7773 113.312C55.4719 113.312 55.1665 113.185 54.9375 112.956C54.4795 112.498 54.4795 111.735 54.9375 111.251L56.6425 109.546C57.1005 109.088 57.8639 109.088 58.3474 109.546C58.8054 110.004 58.8054 110.768 58.3474 111.251L56.6425 112.956C56.4134 113.185 56.1081 113.312 55.8027 113.312H55.7773ZM62.6224 106.467C62.3171 106.467 62.0117 106.34 61.7827 106.111C61.3247 105.653 61.3247 104.889 61.7827 104.406L63.4876 102.701C63.9457 102.243 64.7091 102.243 65.1926 102.701C65.6506 103.159 65.6506 103.922 65.1926 104.406L63.4876 106.111C63.2586 106.34 62.9533 106.467 62.6479 106.467H62.6224ZM69.4676 99.6219C69.1623 99.6219 68.8569 99.4947 68.6279 99.2656C68.1698 98.8076 68.1698 98.0442 68.6279 97.5607L70.3328 95.8558C70.7909 95.3977 71.5543 95.3977 72.0377 95.8558C72.4958 96.3138 72.4958 97.0772 72.0377 97.5607L70.3328 99.2656C70.1038 99.4947 69.7984 99.6219 69.4931 99.6219H69.4676ZM76.3128 92.7767C76.0074 92.7767 75.7021 92.6495 75.4731 92.4205C75.015 91.9624 75.015 91.199 75.4731 90.7155L77.178 89.0106C77.636 88.5525 78.3994 88.5525 78.8829 89.0106C79.341 89.4686 79.341 90.232 78.8829 90.7155L77.178 92.4205C76.949 92.6495 76.6436 92.7767 76.3383 92.7767H76.3128ZM83.158 85.9315C82.8526 85.9315 82.5473 85.8043 82.3182 85.5753C81.8602 85.1172 81.8602 84.3538 82.3182 83.8703L84.0232 82.1654C84.4812 81.7074 85.2446 81.7074 85.7281 82.1654C86.1861 82.6234 86.1861 83.3868 85.7281 83.8703L84.0232 85.5753C83.7942 85.8043 83.4888 85.9315 83.1834 85.9315H83.158ZM90.0032 79.0863C89.6978 79.0863 89.3924 78.9591 89.1634 78.7301C88.7054 78.272 88.7054 77.5087 89.1634 77.0252L90.8683 75.3202C91.3264 74.8622 92.0898 74.8622 92.5733 75.3202C93.0313 75.7783 93.0313 76.5417 92.5733 77.0252L90.8683 78.7301C90.6393 78.9591 90.334 79.0863 90.0286 79.0863H90.0032ZM96.8483 72.2412C96.543 72.2412 96.2376 72.1139 96.0086 71.8849C95.5506 71.4269 95.5506 70.6635 96.0086 70.18L97.7135 68.4751C98.197 68.017 98.935 68.017 99.4185 68.4751C99.8765 68.9331 99.8765 69.6965 99.4185 70.18L97.7135 71.8849C97.4845 72.1139 97.1791 72.2412 96.8738 72.2412H96.8483ZM103.694 65.396C103.388 65.396 103.083 65.2688 102.854 65.0397C102.396 64.5817 102.396 63.8183 102.854 63.3348L104.559 61.6299C105.017 61.1718 105.78 61.1718 106.264 61.6299C106.722 62.0879 106.722 62.8513 106.264 63.3348L104.559 65.0397C104.33 65.2688 104.024 65.396 103.719 65.396H103.694ZM110.539 58.5508C110.233 58.5508 109.928 58.4236 109.699 58.1946C109.241 57.7365 109.241 56.9731 109.699 56.4896L111.404 54.7847C111.862 54.3266 112.625 54.3266 113.109 54.7847C113.567 55.2427 113.567 56.0061 113.109 56.4896L111.404 58.1946C111.175 58.4236 110.869 58.5508 110.564 58.5508H110.539ZM117.384 51.7056C117.079 51.7056 116.773 51.5784 116.544 51.3494C116.086 50.8913 116.086 50.1279 116.544 49.6444L118.249 47.9395C118.707 47.4815 119.471 47.4815 119.954 47.9395C120.412 48.3976 120.412 49.161 119.954 49.6444L118.249 51.3494C118.02 51.5784 117.715 51.7056 117.409 51.7056H117.384ZM124.229 44.8604C123.924 44.8604 123.618 44.7332 123.389 44.5042C122.931 44.0462 122.931 43.2828 123.389 42.7993L125.094 41.0943C125.552 40.6363 126.316 40.6363 126.799 41.0943C127.257 41.5524 127.257 42.3158 126.799 42.7993L125.094 44.5042C124.865 44.7332 124.56 44.8604 124.255 44.8604H124.229ZM131.074 38.0153C130.769 38.0153 130.464 37.888 130.234 37.659C129.776 37.201 129.776 36.4376 130.234 35.9541L131.939 34.2492C132.397 33.7911 133.161 33.7911 133.644 34.2492C134.102 34.7072 134.102 35.4706 133.644 35.9541L131.939 37.659C131.71 37.888 131.405 38.0153 131.1 38.0153H131.074ZM137.919 31.1701C137.614 31.1701 137.309 31.0429 137.08 30.8138C136.622 30.3558 136.622 29.5924 137.08 29.1089L138.785 27.404C139.243 26.9459 140.006 26.9459 140.49 27.404C140.948 27.862 140.948 28.6254 140.49 29.1089L138.785 30.8138C138.556 31.0429 138.25 31.1701 137.945 31.1701H137.919ZM144.765 24.3249C144.459 24.3249 144.154 24.1977 143.925 23.9687C143.467 23.5106 143.467 22.7472 143.925 22.2637L145.63 20.5588C146.113 20.1007 146.851 20.1007 147.335 20.5588C147.793 21.0168 147.793 21.7802 147.335 22.2637L145.63 23.9687C145.401 24.1977 145.095 24.3249 144.79 24.3249H144.765ZM151.61 17.4797C151.304 17.4797 150.999 17.3525 150.77 17.1235C150.312 16.6654 150.312 15.902 150.77 15.4185L152.475 13.7136C152.933 13.2556 153.696 13.2556 154.18 13.7136C154.638 14.1717 154.638 14.9351 154.18 15.4185L152.475 17.1235C152.246 17.3525 151.941 17.4797 151.635 17.4797H151.61ZM158.455 10.6346C158.15 10.6346 157.844 10.5073 157.615 10.2783C157.157 9.82026 157.157 9.05686 157.615 8.57337L159.32 6.86843C159.778 6.41039 160.542 6.41039 161.025 6.86843C161.483 7.32648 161.483 8.08988 161.025 8.57337L159.32 10.2783C159.091 10.5073 158.786 10.6346 158.48 10.6346H158.455Z" fill="#010F3F"/>
<path d="M166.852 3.94222C166.547 3.94222 166.242 3.81498 166.013 3.58596C165.555 4.044 164.791 4.044 164.308 3.58596C163.85 3.12792 163.85 2.36452 164.308 1.88103L165.147 1.04129C165.605 0.583243 166.369 0.583243 166.852 1.04129L167.692 1.88103C168.15 2.33907 168.15 3.10247 167.692 3.58596C167.463 3.81498 167.158 3.94222 166.852 3.94222Z" fill="#010F3F"/>
<path d="M324.139 161.229C323.834 161.229 323.528 161.101 323.299 160.872L321.594 159.167C321.136 158.709 321.136 157.946 321.594 157.462C322.052 157.004 322.816 157.004 323.299 157.462L325.004 159.167C325.462 159.625 325.462 160.389 325.004 160.872C324.775 161.101 324.47 161.229 324.164 161.229H324.139ZM317.294 154.383C316.988 154.383 316.683 154.256 316.454 154.027L314.749 152.322C314.291 151.864 314.291 151.101 314.749 150.617C315.207 150.159 315.97 150.159 316.454 150.617L318.159 152.322C318.617 152.78 318.617 153.544 318.159 154.027C317.93 154.256 317.625 154.383 317.319 154.383H317.294ZM310.449 147.538C310.143 147.538 309.838 147.411 309.609 147.182L307.904 145.477C307.446 145.019 307.446 144.256 307.904 143.772C308.362 143.314 309.125 143.314 309.609 143.772L311.314 145.477C311.772 145.935 311.772 146.698 311.314 147.182C311.085 147.411 310.779 147.538 310.474 147.538H310.449ZM303.603 140.693C303.298 140.693 302.993 140.566 302.764 140.337L301.059 138.632C300.601 138.174 300.601 137.41 301.059 136.927C301.517 136.469 302.28 136.469 302.764 136.927L304.469 138.632C304.927 139.09 304.927 139.853 304.469 140.337C304.24 140.566 303.934 140.693 303.629 140.693H303.603ZM296.758 133.848C296.453 133.848 296.147 133.721 295.918 133.492L294.213 131.787C293.755 131.329 293.755 130.565 294.213 130.082C294.672 129.624 295.435 129.624 295.918 130.082L297.623 131.787C298.081 132.245 298.081 133.008 297.623 133.492C297.394 133.721 297.089 133.848 296.784 133.848H296.758ZM289.913 127.003C289.608 127.003 289.302 126.875 289.073 126.646L287.368 124.941C286.91 124.483 286.91 123.72 287.368 123.236C287.826 122.778 288.59 122.778 289.073 123.236L290.778 124.941C291.236 125.399 291.236 126.163 290.778 126.646C290.549 126.875 290.244 127.003 289.938 127.003H289.913ZM283.068 120.157C282.762 120.157 282.457 120.03 282.228 119.801L280.523 118.096C280.065 117.638 280.065 116.875 280.523 116.391C281.007 115.933 281.745 115.933 282.228 116.391L283.933 118.096C284.391 118.554 284.391 119.318 283.933 119.801C283.704 120.03 283.399 120.157 283.093 120.157H283.068ZM276.223 113.312C275.917 113.312 275.612 113.185 275.383 112.956L273.678 111.251C273.22 110.793 273.22 110.03 273.678 109.546C274.136 109.088 274.899 109.088 275.383 109.546L277.088 111.251C277.546 111.709 277.546 112.473 277.088 112.956C276.859 113.185 276.553 113.312 276.248 113.312H276.223ZM269.377 106.467C269.072 106.467 268.767 106.34 268.538 106.111L266.833 104.406C266.375 103.948 266.375 103.184 266.833 102.701C267.291 102.243 268.054 102.243 268.538 102.701L270.243 104.406C270.701 104.864 270.701 105.627 270.243 106.111C270.014 106.34 269.708 106.467 269.403 106.467H269.377ZM262.532 99.6219C262.227 99.6219 261.922 99.4947 261.693 99.2656L259.988 97.5607C259.53 97.1027 259.53 96.3392 259.988 95.8558C260.446 95.3977 261.209 95.3977 261.693 95.8558L263.397 97.5607C263.856 98.0187 263.856 98.7821 263.397 99.2656C263.168 99.4947 262.863 99.6219 262.558 99.6219H262.532ZM255.687 92.7767C255.382 92.7767 255.076 92.6495 254.847 92.4205L253.142 90.7155C252.684 90.2575 252.684 89.4941 253.142 89.0106C253.6 88.5525 254.364 88.5525 254.847 89.0106L256.552 90.7155C257.01 91.1736 257.01 91.937 256.552 92.4205C256.323 92.6495 256.018 92.7767 255.713 92.7767H255.687ZM248.842 85.9315C248.537 85.9315 248.231 85.8043 248.002 85.5753L246.297 83.8703C245.839 83.4123 245.839 82.6489 246.297 82.1654C246.755 81.7074 247.519 81.7074 248.002 82.1654L249.707 83.8703C250.165 84.3284 250.165 85.0918 249.707 85.5753C249.478 85.8043 249.173 85.9315 248.867 85.9315H248.842ZM241.997 79.0863C241.691 79.0863 241.386 78.9591 241.157 78.7301L239.452 77.0252C238.994 76.5671 238.994 75.8037 239.452 75.3202C239.91 74.8622 240.674 74.8622 241.157 75.3202L242.862 77.0252C243.32 77.4832 243.32 78.2466 242.862 78.7301C242.633 78.9591 242.328 79.0863 242.022 79.0863H241.997ZM235.152 72.2412C234.846 72.2412 234.541 72.1139 234.312 71.8849L232.607 70.18C232.149 69.7219 232.149 68.9585 232.607 68.4751C233.065 67.9916 233.828 68.017 234.312 68.4751L236.017 70.18C236.475 70.638 236.475 71.4014 236.017 71.8849C235.788 72.1139 235.482 72.2412 235.177 72.2412H235.152ZM228.306 65.396C228.001 65.396 227.696 65.2688 227.467 65.0397L225.762 63.3348C225.304 62.8768 225.304 62.1134 225.762 61.6299C226.22 61.1718 226.983 61.1718 227.467 61.6299L229.172 63.3348C229.63 63.7928 229.63 64.5562 229.172 65.0397C228.943 65.2688 228.637 65.396 228.332 65.396H228.306ZM221.461 58.5508C221.156 58.5508 220.85 58.4236 220.621 58.1946L218.917 56.4896C218.458 56.0316 218.458 55.2682 218.917 54.7847C219.375 54.3266 220.138 54.3266 220.621 54.7847L222.326 56.4896C222.784 56.9477 222.784 57.7111 222.326 58.1946C222.097 58.4236 221.792 58.5508 221.487 58.5508H221.461ZM214.616 51.7056C214.311 51.7056 214.005 51.5784 213.776 51.3494L212.071 49.6444C211.613 49.1864 211.613 48.423 212.071 47.9395C212.529 47.4815 213.293 47.4815 213.776 47.9395L215.481 49.6444C215.939 50.1025 215.939 50.8659 215.481 51.3494C215.252 51.5784 214.947 51.7056 214.641 51.7056H214.616ZM207.771 44.8604C207.465 44.8604 207.16 44.7332 206.931 44.5042L205.226 42.7993C204.768 42.3412 204.768 41.5778 205.226 41.0943C205.684 40.6363 206.448 40.6363 206.931 41.0943L208.636 42.7993C209.094 43.2573 209.094 44.0207 208.636 44.5042C208.407 44.7332 208.102 44.8604 207.796 44.8604H207.771ZM200.926 38.0153C200.62 38.0153 200.315 37.888 200.086 37.659L198.381 35.9541C197.923 35.496 197.923 34.7326 198.381 34.2492C198.839 33.7911 199.602 33.7911 200.086 34.2492L201.791 35.9541C202.249 36.4121 202.249 37.1755 201.791 37.659C201.562 37.888 201.256 38.0153 200.951 38.0153H200.926ZM194.08 31.1701C193.775 31.1701 193.47 31.0429 193.241 30.8138L191.536 29.1089C191.078 28.6509 191.078 27.8875 191.536 27.404C191.994 26.9459 192.757 26.9459 193.241 27.404L194.946 29.1089C195.404 29.5669 195.404 30.3304 194.946 30.8138C194.717 31.0429 194.411 31.1701 194.106 31.1701H194.08ZM187.235 24.3249C186.93 24.3249 186.625 24.1977 186.396 23.9687L184.691 22.2637C184.233 21.8057 184.233 21.0423 184.691 20.5588C185.149 20.1007 185.912 20.1007 186.396 20.5588L188.1 22.2637C188.559 22.7218 188.559 23.4852 188.1 23.9687C187.871 24.1977 187.566 24.3249 187.261 24.3249H187.235ZM180.39 17.4797C180.085 17.4797 179.779 17.3525 179.55 17.1235L177.845 15.4185C177.387 14.9605 177.387 14.1971 177.845 13.7136C178.303 13.2556 179.067 13.2556 179.55 13.7136L181.255 15.4185C181.713 15.8766 181.713 16.64 181.255 17.1235C181.026 17.3525 180.721 17.4797 180.416 17.4797H180.39ZM173.545 10.6346C173.24 10.6346 172.934 10.5073 172.705 10.2783L171 8.57337C170.542 8.11533 170.542 7.35192 171 6.86843C171.458 6.41039 172.222 6.41039 172.705 6.86843L174.41 8.57337C174.868 9.03141 174.868 9.79481 174.41 10.2783C174.181 10.5073 173.876 10.6346 173.57 10.6346H173.545Z" fill="#010F3F"/>
<path d="M329.279 168.049C328.974 168.049 328.668 167.921 328.439 167.692C327.981 167.234 327.981 166.471 328.439 165.987C327.981 165.529 327.981 164.766 328.439 164.282C328.897 163.824 329.661 163.824 330.144 164.282L330.984 165.122C331.442 165.58 331.442 166.344 330.984 166.827L330.144 167.667C329.915 167.896 329.61 168.023 329.304 168.023L329.279 168.049Z" fill="#010F3F"/>
<path d="M171.993 325.335C171.687 325.335 171.382 325.208 171.153 324.979C170.695 324.521 170.695 323.757 171.153 323.274L172.858 321.569C173.316 321.085 174.079 321.085 174.563 321.569C175.021 322.027 175.021 322.79 174.563 323.274L172.858 324.979C172.629 325.208 172.323 325.335 172.018 325.335H171.993ZM178.838 318.49C178.532 318.49 178.227 318.363 177.998 318.134C177.54 317.65 177.54 316.912 177.998 316.429L179.703 314.724C180.186 314.24 180.924 314.24 181.408 314.724C181.866 315.182 181.866 315.945 181.408 316.429L179.703 318.134C179.474 318.363 179.169 318.49 178.863 318.49H178.838ZM185.683 311.645C185.378 311.645 185.072 311.543 184.843 311.288C184.385 310.805 184.385 310.067 184.843 309.583L186.548 307.878C187.006 307.42 187.77 307.42 188.253 307.878C188.711 308.362 188.711 309.1 188.253 309.583L186.548 311.288C186.319 311.517 186.014 311.645 185.708 311.645H185.683ZM192.528 304.799C192.223 304.799 191.917 304.698 191.688 304.443C191.23 303.96 191.23 303.222 191.688 302.738L193.393 301.033C193.851 300.575 194.615 300.575 195.098 301.033C195.556 301.491 195.556 302.255 195.098 302.738L193.393 304.443C193.164 304.672 192.859 304.799 192.554 304.799H192.528ZM199.373 297.954C199.068 297.954 198.763 297.827 198.534 297.598C198.076 297.14 198.076 296.377 198.534 295.893L200.239 294.188C200.697 293.73 201.46 293.73 201.943 294.188C202.401 294.646 202.401 295.41 201.943 295.893L200.239 297.598C200.009 297.827 199.704 297.954 199.399 297.954H199.373ZM206.218 291.109C205.913 291.109 205.608 291.007 205.379 290.753C204.921 290.269 204.921 289.531 205.379 289.048L207.084 287.343C207.567 286.885 208.305 286.885 208.789 287.343C209.247 287.826 209.247 288.564 208.789 289.048L207.084 290.753C206.855 290.982 206.549 291.109 206.244 291.109H206.218ZM213.064 284.264C212.758 284.264 212.453 284.162 212.224 283.908C211.766 283.424 211.766 282.686 212.224 282.203L213.929 280.498C214.387 280.04 215.15 280.04 215.634 280.498C216.092 280.956 216.092 281.719 215.634 282.203L213.929 283.908C213.7 284.137 213.394 284.264 213.089 284.264H213.064ZM219.909 277.419C219.603 277.419 219.298 277.317 219.069 277.062C218.611 276.604 218.611 275.841 219.069 275.357L220.774 273.653C221.232 273.169 221.995 273.169 222.479 273.653C222.937 274.111 222.937 274.874 222.479 275.357L220.774 277.062C220.545 277.291 220.24 277.419 219.934 277.419H219.909ZM226.754 270.574C226.449 270.574 226.143 270.472 225.914 270.217C225.456 269.759 225.456 268.996 225.914 268.512L227.619 266.807C228.077 266.324 228.841 266.324 229.324 266.807C229.782 267.265 229.782 268.029 229.324 268.512L227.619 270.217C227.39 270.446 227.085 270.574 226.779 270.574H226.754ZM233.599 263.728C233.294 263.728 232.988 263.627 232.759 263.372C232.301 262.889 232.301 262.151 232.759 261.667L234.464 259.962C234.922 259.504 235.686 259.504 236.169 259.962C236.627 260.42 236.627 261.184 236.169 261.667L234.464 263.372C234.235 263.601 233.93 263.728 233.625 263.728H233.599ZM240.444 256.883C240.139 256.883 239.834 256.781 239.605 256.527C239.147 256.069 239.147 255.305 239.605 254.822L241.31 253.117C241.768 252.659 242.531 252.659 243.015 253.117C243.473 253.575 243.473 254.338 243.015 254.822L241.31 256.527C241.081 256.756 240.775 256.883 240.47 256.883H240.444ZM247.29 250.038C246.984 250.038 246.679 249.911 246.45 249.682C245.992 249.224 245.992 248.46 246.45 247.977L248.155 246.272C248.638 245.814 249.376 245.814 249.86 246.272C250.318 246.73 250.318 247.493 249.86 247.977L248.155 249.682C247.926 249.911 247.62 250.038 247.315 250.038H247.29ZM254.135 243.193C253.829 243.193 253.524 243.066 253.295 242.837C252.837 242.378 252.837 241.615 253.295 241.132L255 239.427C255.458 238.969 256.221 238.969 256.705 239.427C257.163 239.885 257.163 240.648 256.705 241.132L255 242.837C254.771 243.066 254.466 243.193 254.16 243.193H254.135ZM260.98 236.348C260.675 236.348 260.369 236.246 260.14 235.991C259.682 235.533 259.682 234.77 260.14 234.286L261.845 232.581C262.303 232.123 263.067 232.123 263.55 232.581C264.008 233.04 264.008 233.803 263.55 234.286L261.845 235.991C261.616 236.22 261.311 236.348 261.005 236.348H260.98ZM267.825 229.502C267.52 229.502 267.214 229.401 266.985 229.146C266.527 228.688 266.527 227.925 266.985 227.441L268.69 225.736C269.148 225.278 269.912 225.278 270.395 225.736C270.853 226.194 270.853 226.958 270.395 227.441L268.69 229.146C268.461 229.375 268.156 229.502 267.851 229.502H267.825ZM274.67 222.657C274.365 222.657 274.06 222.53 273.831 222.301C273.372 221.843 273.372 221.08 273.831 220.596L275.535 218.891C275.994 218.433 276.757 218.433 277.24 218.891C277.698 219.349 277.698 220.113 277.24 220.596L275.535 222.301C275.306 222.53 275.001 222.657 274.696 222.657H274.67ZM281.515 215.812C281.21 215.812 280.905 215.685 280.676 215.456C280.218 214.998 280.218 214.234 280.676 213.751L282.381 212.046C282.864 211.588 283.602 211.588 284.086 212.046C284.544 212.504 284.544 213.267 284.086 213.751L282.381 215.456C282.152 215.685 281.846 215.812 281.541 215.812H281.515ZM288.361 208.967C288.055 208.967 287.75 208.84 287.521 208.611C287.063 208.153 287.063 207.389 287.521 206.906L289.226 205.201C289.684 204.743 290.447 204.743 290.931 205.201C291.389 205.659 291.389 206.422 290.931 206.906L289.226 208.611C288.997 208.84 288.691 208.967 288.386 208.967H288.361ZM295.206 202.122C294.9 202.122 294.595 201.994 294.366 201.765C293.908 201.307 293.908 200.544 294.366 200.061L296.071 198.356C296.529 197.898 297.292 197.898 297.776 198.356C298.259 198.814 298.234 199.577 297.776 200.061L296.071 201.765C295.842 201.994 295.537 202.122 295.231 202.122H295.206ZM302.051 195.277C301.746 195.277 301.44 195.149 301.211 194.92C300.753 194.462 300.753 193.699 301.211 193.215L302.916 191.51C303.374 191.052 304.138 191.052 304.621 191.51C305.079 191.968 305.079 192.732 304.621 193.215L302.916 194.92C302.687 195.149 302.382 195.277 302.076 195.277H302.051ZM308.896 188.431C308.591 188.431 308.285 188.304 308.056 188.075C307.598 187.617 307.598 186.854 308.056 186.37L309.761 184.665C310.219 184.207 310.983 184.207 311.466 184.665C311.924 185.123 311.924 185.887 311.466 186.37L309.761 188.075C309.532 188.304 309.227 188.431 308.922 188.431H308.896ZM315.741 181.586C315.436 181.586 315.131 181.459 314.902 181.23C314.444 180.772 314.444 180.008 314.902 179.525L316.607 177.82C317.065 177.362 317.828 177.362 318.311 177.82C318.77 178.278 318.77 179.041 318.311 179.525L316.607 181.23C316.378 181.459 316.072 181.586 315.767 181.586H315.741ZM322.587 174.741C322.281 174.741 321.976 174.614 321.747 174.385C321.289 173.927 321.289 173.163 321.747 172.68L323.452 170.975C323.91 170.517 324.673 170.517 325.157 170.975C325.615 171.433 325.615 172.196 325.157 172.68L323.452 174.385C323.223 174.614 322.917 174.741 322.612 174.741H322.587Z" fill="#010F3F"/>
<path d="M166.013 331.315C165.707 331.315 165.402 331.213 165.173 330.959L164.333 330.119C163.875 329.661 163.875 328.897 164.333 328.414C164.791 327.956 165.554 327.956 166.038 328.414C166.496 327.956 167.259 327.956 167.743 328.414C168.201 328.872 168.201 329.635 167.743 330.119L166.903 330.959C166.674 331.188 166.369 331.315 166.063 331.315H166.013Z" fill="#010F3F"/>
<path d="M160.033 325.335C159.727 325.335 159.422 325.208 159.193 324.979L157.488 323.274C157.03 322.816 157.03 322.052 157.488 321.569C157.946 321.111 158.709 321.111 159.193 321.569L160.898 323.274C161.356 323.732 161.356 324.495 160.898 324.979C160.669 325.208 160.363 325.335 160.058 325.335H160.033ZM153.188 318.49C152.882 318.49 152.577 318.363 152.348 318.134L150.643 316.429C150.185 315.971 150.185 315.207 150.643 314.724C151.101 314.266 151.864 314.266 152.348 314.724L154.053 316.429C154.511 316.887 154.511 317.65 154.053 318.134C153.824 318.363 153.518 318.49 153.213 318.49H153.188ZM146.342 311.645C146.037 311.645 145.732 311.517 145.503 311.288L143.798 309.583C143.34 309.125 143.34 308.362 143.798 307.878C144.256 307.42 145.019 307.42 145.503 307.878L147.208 309.583C147.666 310.041 147.666 310.805 147.208 311.288C146.979 311.517 146.673 311.645 146.368 311.645H146.342ZM139.497 304.799C139.192 304.799 138.886 304.698 138.657 304.443L136.952 302.738C136.494 302.255 136.494 301.517 136.952 301.033C137.411 300.575 138.174 300.575 138.657 301.033L140.362 302.738C140.82 303.222 140.82 303.96 140.362 304.443C140.133 304.672 139.828 304.799 139.523 304.799H139.497ZM132.652 297.954C132.347 297.954 132.041 297.827 131.812 297.598L130.107 295.893C129.649 295.435 129.649 294.672 130.107 294.188C130.565 293.73 131.329 293.73 131.812 294.188L133.517 295.893C133.975 296.351 133.975 297.114 133.517 297.598C133.288 297.827 132.983 297.954 132.677 297.954H132.652ZM125.807 291.109C125.501 291.109 125.196 290.982 124.967 290.753L123.262 289.048C122.804 288.59 122.804 287.826 123.262 287.343C123.746 286.885 124.484 286.885 124.967 287.343L126.672 289.048C127.13 289.506 127.13 290.269 126.672 290.753C126.443 290.982 126.138 291.109 125.832 291.109H125.807ZM118.962 284.264C118.656 284.264 118.351 284.137 118.122 283.908L116.417 282.203C115.959 281.745 115.959 280.981 116.417 280.498C116.875 280.014 117.638 280.014 118.122 280.498L119.827 282.203C120.285 282.661 120.285 283.424 119.827 283.908C119.598 284.137 119.292 284.264 118.987 284.264H118.962ZM112.116 277.419C111.811 277.419 111.506 277.291 111.277 277.062L109.572 275.357C109.114 274.899 109.114 274.136 109.572 273.653C110.03 273.169 110.793 273.169 111.277 273.653L112.982 275.357C113.44 275.816 113.44 276.579 112.982 277.062C112.753 277.291 112.447 277.419 112.142 277.419H112.116ZM105.271 270.574C104.966 270.574 104.661 270.472 104.432 270.217L102.727 268.512C102.269 268.029 102.269 267.291 102.727 266.807C103.185 266.349 103.948 266.349 104.432 266.807L106.136 268.512C106.594 268.97 106.594 269.734 106.136 270.217C105.907 270.446 105.602 270.574 105.297 270.574H105.271ZM98.4261 263.728C98.1207 263.728 97.8153 263.601 97.5863 263.372L95.8814 261.667C95.4234 261.209 95.4234 260.446 95.8814 259.962C96.3649 259.479 97.1028 259.479 97.5863 259.962L99.2913 261.667C99.7493 262.125 99.7493 262.889 99.2913 263.372C99.0622 263.601 98.7569 263.728 98.4515 263.728H98.4261ZM91.5809 256.883C91.2755 256.883 90.9702 256.756 90.7411 256.527L89.0362 254.822C88.5782 254.364 88.5782 253.601 89.0362 253.117C89.4943 252.634 90.2577 252.634 90.7411 253.117L92.4461 254.822C92.9041 255.28 92.9041 256.043 92.4461 256.527C92.2171 256.756 91.9117 256.883 91.6063 256.883H91.5809ZM84.7357 250.038C84.4304 250.038 84.125 249.911 83.896 249.682L82.191 247.977C81.733 247.519 81.733 246.755 82.191 246.272C82.6491 245.814 83.4125 245.814 83.896 246.272L85.6009 247.977C86.059 248.435 86.059 249.198 85.6009 249.682C85.3719 249.911 85.0665 250.038 84.7612 250.038H84.7357ZM77.8905 243.193C77.5852 243.193 77.2798 243.066 77.0508 242.837L75.3459 241.132C74.8878 240.674 74.8878 239.91 75.3459 239.427C75.8039 238.943 76.5673 238.969 77.0508 239.427L78.7557 241.132C79.2138 241.59 79.2138 242.353 78.7557 242.837C78.5267 243.066 78.2213 243.193 77.916 243.193H77.8905ZM71.0454 236.348C70.74 236.348 70.4346 236.22 70.2056 235.991L68.5007 234.286C68.0426 233.828 68.0426 233.065 68.5007 232.581C68.9587 232.098 69.7221 232.098 70.2056 232.581L71.9105 234.286C72.3686 234.744 72.3686 235.508 71.9105 235.991C71.6815 236.22 71.3762 236.348 71.0708 236.348H71.0454ZM64.2002 229.502C63.8948 229.502 63.5895 229.375 63.3604 229.146L61.6555 227.441C61.1975 226.983 61.1975 226.22 61.6555 225.736C62.1135 225.278 62.8769 225.278 63.3604 225.736L65.0654 227.441C65.5234 227.899 65.5234 228.663 65.0654 229.146C64.8363 229.375 64.531 229.502 64.2256 229.502H64.2002ZM57.355 222.657C57.0496 222.657 56.7443 222.53 56.5153 222.301L54.8103 220.596C54.3523 220.138 54.3523 219.375 54.8103 218.891C55.2684 218.433 56.0318 218.433 56.5153 218.891L58.2202 220.596C58.6782 221.054 58.6782 221.818 58.2202 222.301C57.9912 222.53 57.6858 222.657 57.3804 222.657H57.355ZM50.5098 215.812C50.2045 215.812 49.8991 215.685 49.6701 215.456L47.9651 213.751C47.5071 213.293 47.5071 212.529 47.9651 212.046C48.4232 211.562 49.1866 211.588 49.6701 212.046L51.375 213.751C51.833 214.209 51.833 214.972 51.375 215.456C51.146 215.685 50.8406 215.812 50.5353 215.812H50.5098ZM43.6646 208.967C43.3593 208.967 43.0539 208.84 42.8249 208.611L41.12 206.906C40.6619 206.448 40.6619 205.684 41.12 205.201C41.578 204.743 42.3414 204.743 42.8249 205.201L44.5298 206.906C44.9879 207.364 44.9879 208.127 44.5298 208.611C44.3008 208.84 43.9954 208.967 43.6901 208.967H43.6646ZM36.8195 202.122C36.5141 202.122 36.2087 201.994 35.9797 201.765L34.2748 200.061C33.8167 199.602 33.8167 198.839 34.2748 198.356C34.7328 197.898 35.4962 197.898 35.9797 198.356L37.6846 200.061C38.1427 200.519 38.1427 201.282 37.6846 201.765C37.4556 201.994 37.1503 202.122 36.8449 202.122H36.8195ZM29.9743 195.277C29.6689 195.277 29.3636 195.149 29.1345 194.92L27.4296 193.215C26.9716 192.757 26.9716 191.994 27.4296 191.51C27.8876 191.052 28.651 191.052 29.1345 191.51L30.8395 193.215C31.2975 193.673 31.2975 194.437 30.8395 194.92C30.6105 195.149 30.3051 195.277 29.9997 195.277H29.9743ZM23.1291 188.431C22.8237 188.431 22.5184 188.304 22.2894 188.075L20.5844 186.37C20.1264 185.912 20.1264 185.149 20.5844 184.665C21.0425 184.207 21.8059 184.207 22.2894 184.665L23.9943 186.37C24.4523 186.828 24.4523 187.592 23.9943 188.075C23.7653 188.304 23.4599 188.431 23.1545 188.431H23.1291ZM16.2839 181.586C15.9786 181.586 15.6732 181.459 15.4442 181.23L13.7392 179.525C13.2812 179.067 13.2812 178.304 13.7392 177.82C14.1973 177.362 14.9607 177.362 15.4442 177.82L17.1491 179.525C17.6072 179.983 17.6072 180.746 17.1491 181.23C16.9201 181.459 16.6147 181.586 16.3094 181.586H16.2839ZM9.43874 174.741C9.13338 174.741 8.82802 174.614 8.599 174.385L6.89407 172.68C6.43603 172.222 6.43603 171.458 6.89407 170.975C7.35211 170.517 8.11551 170.517 8.599 170.975L10.3039 172.68C10.762 173.138 10.762 173.901 10.3039 174.385C10.0749 174.614 9.76955 174.741 9.46419 174.741H9.43874Z" fill="#010F3F"/>
<path d="M239.859 241.055H92.1407C91.7589 241.055 91.4027 240.877 91.1737 240.546C90.9447 240.241 90.8938 239.834 90.9955 239.452L164.868 17.8615C165.198 16.8945 166.827 16.8945 167.132 17.8615L241.004 239.452C241.131 239.808 241.055 240.215 240.826 240.546C240.597 240.851 240.241 241.055 239.859 241.055ZM93.7947 238.638H238.205L166.013 22.0602L93.8201 238.638H93.7947Z" fill="#010F3F"/>
<path d="M92.1406 241.055C91.8862 241.055 91.6571 240.979 91.4281 240.826C91.1228 240.597 90.9192 240.241 90.9192 239.859V92.1409C90.9192 91.7592 91.0973 91.403 91.4281 91.174C91.7335 90.9449 92.1406 90.8941 92.4969 91.0213L314.087 164.893C314.571 165.046 314.902 165.504 314.902 166.038C314.902 166.573 314.571 167.005 314.087 167.183L92.4969 241.03C92.4969 241.03 92.2424 241.081 92.1152 241.081L92.1406 241.055ZM93.3366 93.795V238.18L309.939 165.987L93.3366 93.795Z" fill="#010F3F"/>
<path d="M239.859 241.055C239.859 241.055 239.605 241.055 239.477 241.005L17.887 167.133C17.4036 166.98 17.0728 166.522 17.0728 165.987C17.0728 165.453 17.4036 165.02 17.887 164.842L239.477 90.9704C239.834 90.8432 240.241 90.9195 240.572 91.1231C240.877 91.3521 241.055 91.7084 241.055 92.0901V239.809C241.055 240.19 240.877 240.546 240.572 240.775C240.368 240.928 240.114 241.005 239.859 241.005V241.055ZM22.0603 165.987L238.663 238.18V93.7695L22.0603 165.962V165.987Z" fill="#010F3F"/>
<path d="M166.013 314.927C165.504 314.927 165.046 314.596 164.868 314.113L90.9956 92.5225C90.8684 92.1663 90.9447 91.7591 91.1737 91.4538C91.4028 91.1484 91.759 90.9448 92.1407 90.9448H239.859C240.241 90.9448 240.597 91.123 240.826 91.4538C241.055 91.7591 241.106 92.1663 241.004 92.5225L167.158 314.113C167.005 314.596 166.522 314.927 166.013 314.927ZM93.7948 93.3368L166.013 309.94L238.205 93.3368H93.7948Z" fill="#010F3F"/>
</g>
</svg>
