<svg width="24" height="24" viewBox="0 0 24 24" fill="none" xmlns="http://www.w3.org/2000/svg">
<path d="M18.7583 5.89327C17.515 5.3315 16.1828 4.91785 14.7891 4.68122C14.7635 4.67656 14.738 4.68774 14.7257 4.71103C14.5544 5.01102 14.3642 5.40324 14.2317 5.71067C12.733 5.48988 11.2418 5.48988 9.77331 5.71067C9.63989 5.39578 9.44308 5.01102 9.27087 4.71103C9.25763 4.68867 9.23209 4.67749 9.20749 4.68122C7.81469 4.91785 6.48152 5.3315 5.23822 5.89327C5.22781 5.89793 5.21835 5.90538 5.21173 5.91563C2.6835 9.63471 1.99087 13.2625 2.33056 16.8456C2.33245 16.8633 2.34191 16.88 2.35611 16.8903C4.02424 18.0967 5.64035 18.829 7.22617 19.3144C7.25172 19.3218 7.27821 19.3125 7.29429 19.292C7.66898 18.788 8.00394 18.256 8.29063 17.6961C8.30766 17.6635 8.29062 17.6244 8.25656 17.6114C7.72575 17.4129 7.22142 17.1716 6.73508 16.8977C6.69628 16.8754 6.69346 16.8213 6.72847 16.7952C6.83066 16.7198 6.93284 16.6415 7.0303 16.5623C7.04828 16.5474 7.07287 16.5446 7.09369 16.5539C10.2852 17.9887 13.7407 17.9887 16.8943 16.5539C16.9152 16.5437 16.9397 16.5474 16.9577 16.5614C17.0552 16.6406 17.1574 16.7198 17.2605 16.7952C17.2955 16.8213 17.2936 16.8754 17.2548 16.8977C16.7694 17.1772 16.2642 17.4139 15.7324 17.6114C15.6974 17.6244 15.6823 17.6635 15.6993 17.6971C15.9926 18.256 16.3266 18.7871 16.6947 19.292C16.7098 19.3135 16.7373 19.3228 16.7628 19.3153C18.3562 18.8299 19.9723 18.0977 21.6404 16.8912C21.6546 16.881 21.6641 16.8642 21.666 16.8474C22.0728 12.7054 20.9847 9.10741 18.7829 5.91749C18.7773 5.90725 18.7687 5.89886 18.7574 5.8942L18.7583 5.89327ZM8.7656 14.6637C7.80427 14.6637 7.01328 13.7954 7.01328 12.7287C7.01328 11.662 7.79008 10.7937 8.7656 10.7937C9.74112 10.7937 10.534 11.6703 10.5179 12.7287C10.5179 13.7954 9.74112 14.6637 8.7656 14.6637ZM15.2461 14.6637C14.2847 14.6637 13.4937 13.7954 13.4937 12.7287C13.4937 11.662 14.2705 10.7937 15.2461 10.7937C16.2216 10.7937 17.0145 11.6703 16.9984 12.7287C16.9984 13.7954 16.2301 14.6637 15.2461 14.6637Z" fill="#010F3F"/>
</svg>
