<svg width="119" height="61" viewBox="0 0 119 61" fill="none" xmlns="http://www.w3.org/2000/svg">
<path d="M31.2051 24.0839H28.286C28.0686 22.997 27.6752 21.9929 27.1059 21.0717C26.5469 20.14 25.8431 19.3274 24.9942 18.6339C24.1454 17.9403 23.1827 17.4021 22.1062 17.019C21.0297 16.6361 19.8652 16.4445 18.6126 16.4445C16.6044 16.4445 14.7723 16.9673 13.116 18.0128C11.4701 19.0583 10.1503 20.5955 9.15658 22.6243C8.17319 24.6429 7.6815 27.1169 7.6815 30.0463C7.6815 32.9964 8.17319 35.4808 9.15658 37.4993C10.1503 39.5179 11.4701 41.0499 13.116 42.0954C14.7723 43.1305 16.6044 43.6481 18.6126 43.6481C19.8652 43.6481 21.0297 43.4566 22.1062 43.0736C23.1827 42.6906 24.1454 42.1575 24.9942 41.4743C25.8431 40.7807 26.5469 39.9681 27.1059 39.0365C27.6752 38.1049 28.0686 37.0956 28.286 36.0087H31.2051C30.9464 37.4683 30.4598 38.8294 29.7456 40.0924C29.0416 41.3449 28.1411 42.4421 27.0438 43.3841C25.9569 44.3261 24.7044 45.061 23.2863 45.589C21.8681 46.1169 20.3102 46.3809 18.6126 46.3809C15.9419 46.3809 13.5715 45.7132 11.5012 44.3779C9.4309 43.0322 7.80572 41.1379 6.62566 38.695C5.45595 36.252 4.87109 33.3691 4.87109 30.0463C4.87109 26.7235 5.45595 23.8406 6.62566 21.3977C7.80572 18.9548 9.4309 17.0657 11.5012 15.7303C13.5715 14.3847 15.9419 13.7117 18.6126 13.7117C20.3102 13.7117 21.8681 13.9757 23.2863 14.5036C24.7044 15.0212 25.9569 15.7562 27.0438 16.7085C28.1411 17.6505 29.0416 18.7477 29.7456 20.0003C30.4598 21.2528 30.9464 22.614 31.2051 24.0839Z" fill="white"/>
<path d="M45.3514 46.3809C43.1258 46.3809 41.2004 45.8633 39.5753 44.8281C37.9501 43.7826 36.6924 42.3386 35.8023 40.4961C34.9223 38.6432 34.4824 36.5107 34.4824 34.0988C34.4824 31.6973 34.9223 29.5649 35.8023 27.7017C36.6924 25.8281 37.9191 24.3634 39.4821 23.3075C41.0556 22.2414 42.8722 21.7082 44.9322 21.7082C46.2262 21.7082 47.4735 21.9464 48.6742 22.4225C49.875 22.8883 50.9515 23.6078 51.9038 24.5807C52.8665 25.5434 53.6274 26.7597 54.1863 28.2297C54.7453 29.6891 55.0248 31.4178 55.0248 33.4156V34.782H36.3923V32.3444H52.1989C52.1989 30.8123 51.8883 29.4356 51.2673 28.2141C50.6565 26.9822 49.8025 26.0093 48.7052 25.295C47.6183 24.5807 46.3607 24.2237 44.9322 24.2237C43.4208 24.2237 42.0907 24.6274 40.9417 25.4348C39.7926 26.2421 38.8921 27.3084 38.24 28.6334C37.5982 29.9584 37.2721 31.4076 37.2618 32.9809V34.4405C37.2618 36.3348 37.5878 37.991 38.24 39.4092C38.9025 40.817 39.8393 41.909 41.0504 42.6854C42.2615 43.4617 43.6952 43.8499 45.3514 43.8499C46.4797 43.8499 47.4683 43.674 48.317 43.322C49.1763 42.97 49.8956 42.499 50.4754 41.909C51.0654 41.3086 51.5105 40.6513 51.8107 39.9371L54.4348 40.7911C54.0725 41.7952 53.4773 42.7216 52.6492 43.5704C51.8314 44.4193 50.8066 45.1025 49.5748 45.62C48.3533 46.1272 46.9455 46.3809 45.3514 46.3809Z" fill="white"/>
<path d="M68.1159 46.3809C66.1595 46.3809 64.4463 45.8632 62.9764 44.8281C61.5065 43.793 60.3575 42.349 59.5294 40.4961C58.7116 38.6432 58.3027 36.4849 58.3027 34.0213C58.3027 31.568 58.7116 29.42 59.5294 27.5775C60.3575 25.7246 61.5117 24.2857 62.9919 23.261C64.4722 22.2259 66.1957 21.7082 68.1625 21.7082C69.6117 21.7082 70.8176 21.967 71.7803 22.4846C72.743 22.9918 73.5141 23.6233 74.0939 24.3789C74.6735 25.1346 75.1239 25.8696 75.4447 26.5838H75.6931V14.0844H78.4725V45.884H75.7708V41.4588H75.4447C75.1239 42.1834 74.6683 42.9286 74.0783 43.6947C73.4882 44.4503 72.7067 45.0869 71.7338 45.6045C70.7711 46.1221 69.5651 46.3809 68.1159 46.3809ZM68.442 43.8499C69.9843 43.8499 71.2989 43.4307 72.3858 42.5922C73.4727 41.7434 74.3009 40.5789 74.8702 39.0987C75.4499 37.608 75.7397 35.9 75.7397 33.9747C75.7397 32.07 75.455 30.3879 74.8857 28.9284C74.3164 27.4585 73.4882 26.3094 72.4013 25.4814C71.3145 24.6429 69.9947 24.2237 68.442 24.2237C66.8478 24.2237 65.5022 24.6584 64.4049 25.5279C63.318 26.3871 62.4899 27.5516 61.9205 29.0216C61.3616 30.4914 61.0821 32.1425 61.0821 33.9747C61.0821 35.8275 61.3668 37.4993 61.936 38.9899C62.5054 40.4806 63.3336 41.6658 64.4205 42.5457C65.5177 43.4152 66.8582 43.8499 68.442 43.8499Z" fill="white"/>
<path d="M81.75 46.3809V22.5312H84.4361V26.1956H84.638C85.1142 24.9948 85.9423 24.027 87.1224 23.292C88.3128 22.5468 89.6584 22.1741 91.1594 22.1741C91.3871 22.1741 91.6407 22.1792 91.9202 22.1896C92.1997 22.2 92.4326 22.2103 92.619 22.2206V25.0311C92.4948 25.0103 92.2773 24.9793 91.9668 24.9379C91.6563 24.8965 91.3198 24.8758 90.9575 24.8758C89.7153 24.8758 88.6078 25.1397 87.6347 25.6676C86.672 26.1852 85.9112 26.9047 85.3523 27.8259C84.7933 28.7472 84.5138 29.7979 84.5138 30.978V46.3809H81.75Z" fill="white"/>
<path d="M103.738 46.3809C102.299 46.3809 100.984 46.1014 99.7938 45.5424C98.6034 44.9731 97.6562 44.1553 96.9523 43.0891C96.2484 42.0126 95.8965 40.7082 95.8965 39.1762C95.8965 37.9962 96.1189 37.0024 96.5641 36.1951C97.0092 35.3876 97.6407 34.7251 98.4584 34.2075C99.2762 33.69 100.244 33.2811 101.362 32.9809C102.48 32.6807 103.712 32.4478 105.057 32.2822C106.393 32.1165 107.521 31.9717 108.442 31.8474C109.374 31.7232 110.083 31.5265 110.57 31.2574C111.056 30.9883 111.3 30.5535 111.3 29.9531V29.3941C111.3 27.769 110.813 26.4906 109.84 25.5589C108.877 24.617 107.49 24.146 105.679 24.146C103.96 24.146 102.558 24.5238 101.471 25.2794C100.394 26.0352 99.6385 26.9253 99.2038 27.9501L96.5797 27.003C97.1179 25.6986 97.8633 24.6584 98.8156 23.882C99.7679 23.0953 100.834 22.5311 102.014 22.1896C103.194 21.8376 104.39 21.6616 105.601 21.6616C106.512 21.6616 107.459 21.7807 108.442 22.0188C109.436 22.2569 110.358 22.6708 111.207 23.261C112.055 23.8406 112.743 24.6532 113.272 25.6986C113.799 26.7339 114.063 28.0485 114.063 29.6426V45.8374H111.3V42.0643H111.129C110.797 42.7682 110.305 43.4514 109.653 44.1139C109.001 44.7764 108.184 45.3199 107.2 45.7442C106.217 46.1686 105.063 46.3809 103.738 46.3809ZM104.11 43.8499C105.58 43.8499 106.853 43.5238 107.93 42.8717C109.007 42.2195 109.834 41.3552 110.415 40.2786C111.005 39.1917 111.3 37.9962 111.3 36.6919V33.2449C111.092 33.4415 110.746 33.6175 110.259 33.7728C109.783 33.928 109.229 34.0678 108.598 34.192C107.977 34.3059 107.355 34.4042 106.734 34.487C106.113 34.5698 105.554 34.6423 105.057 34.7044C103.712 34.8701 102.563 35.1288 101.61 35.4807C100.658 35.8328 99.9284 36.3193 99.4211 36.9403C98.9139 37.5511 98.6603 38.3377 98.6603 39.3004C98.6603 40.7496 99.1779 41.8728 100.213 42.6699C101.248 43.4565 102.547 43.8499 104.11 43.8499Z" fill="white"/>
</svg>
