<svg width="108" height="40" viewBox="0 0 108 40" fill="none" xmlns="http://www.w3.org/2000/svg">
<path d="M36.0918 13.6303C35.1161 10.8227 31.2083 12.5487 29.5027 11.6657C27.6329 10.6974 28.4914 3.63636 25.4893 3.63636C22.4873 3.63636 22.5737 9.02011 20.2563 10.0084C18.1464 10.9081 13.8295 5.54528 11.5516 7.65006C8.78761 10.5115 15.2806 15.1863 13.0968 17.4472C10.4865 20.1495 4.88085 15.4537 3.68712 19.3004C3.03599 22.8936 8.85004 21.6916 12.1259 25.0829C13.2437 26.2401 10.1024 30.5919 12.9345 31.7929C15.6792 32.9572 16.7903 28.2823 18.906 28.2823C22.4892 28.2823 25.6843 39.1801 29.8936 35.6655C35.3052 31.1477 27.3601 24.3541 28.8246 20.3951C30.9942 17.9811 37.8003 20.4508 36.0918 13.6294V13.6303ZM28.3368 31.6527C25.0284 33.4493 22.4526 25.7858 19.6052 25.7858C17.9236 25.7858 17.6643 29.4893 15.4833 28.5647C13.2322 27.6102 15.4497 24.4873 14.5613 23.5677C11.9578 20.8723 7.61981 23.512 7.61981 19.9745C7.61981 16.971 13.9515 20.4657 16.0259 18.3182C17.7613 16.5216 11.6332 12.1142 13.8295 9.84035C15.1116 8.51305 18.5248 14.5143 20.2016 13.7984C22.0436 13.0129 21.693 6.72443 23.971 6.72443C26.249 6.72443 25.6036 11.7662 27.0893 12.5357C28.4453 13.2376 31.4764 11.2857 32.696 13.2791C34.7292 16.5999 28.2283 17.4969 27.2785 19.5261C25.1782 24.0141 33.0743 29.0807 28.3358 31.6537L28.3368 31.6527Z" fill="white"/>
<path d="M97.1582 28.7066C96.3538 28.7066 95.6294 28.5633 94.9843 28.2769C94.3458 27.9849 93.8389 27.5551 93.4643 26.9876C93.0949 26.4201 92.9102 25.7204 92.9102 24.8884C92.9102 24.1721 93.0425 23.5799 93.3072 23.1116C93.5712 22.6433 93.932 22.2686 94.3894 21.9876C94.8469 21.7066 95.3618 21.4945 95.9349 21.3513C96.5138 21.2025 97.1116 21.0951 97.7283 21.0289C98.4723 20.9518 99.0752 20.8829 99.5385 20.8223C100.001 20.7562 100.337 20.657 100.547 20.5248C100.762 20.3871 100.869 20.1749 100.869 19.8884V19.8388C100.869 19.2162 100.685 18.7342 100.315 18.3926C99.9458 18.051 99.4142 17.8801 98.7203 17.8801C97.9872 17.8801 97.4062 18.0399 96.9763 18.3595C96.5523 18.6791 96.2658 19.0565 96.1167 19.4917L93.3232 19.0951C93.5436 18.3237 93.9072 17.6791 94.4142 17.1612C94.9211 16.6377 95.5414 16.2465 96.2738 15.9876C97.0069 15.7231 97.8163 15.5909 98.7036 15.5909C99.3153 15.5909 99.924 15.6625 100.53 15.8058C101.136 15.949 101.69 16.186 102.192 16.5165C102.693 16.8416 103.095 17.2851 103.398 17.8471C103.707 18.4091 103.861 19.1116 103.861 19.9545V28.4504H100.984V26.7066H100.885C100.704 27.0592 100.448 27.3898 100.117 27.6983C99.7916 28.0014 99.3814 28.2465 98.8854 28.4339C98.3953 28.6157 97.8193 28.7066 97.1582 28.7066ZM97.9349 26.5083C98.5356 26.5083 99.0563 26.3898 99.4971 26.1529C99.9378 25.9105 100.277 25.5909 100.514 25.1942C100.756 24.7975 100.877 24.365 100.877 23.8967V22.4008C100.784 22.478 100.624 22.5496 100.398 22.6157C100.178 22.6818 99.9298 22.7396 99.6542 22.7892C99.3785 22.8388 99.1058 22.8829 98.836 22.9215C98.5662 22.9601 98.332 22.9931 98.1334 23.0207C97.6869 23.0812 97.2876 23.1804 96.9349 23.3182C96.5822 23.4559 96.3043 23.6487 96.1007 23.8967C95.8963 24.1391 95.7945 24.4532 95.7945 24.8388C95.7945 25.3898 95.996 25.8058 96.3982 26.0868C96.8003 26.3678 97.3123 26.5083 97.9349 26.5083Z" fill="white"/>
<path d="M85.4365 28.4504V15.7562H88.3376V17.8719H88.47C88.7013 17.1391 89.0976 16.5744 89.6598 16.1777C90.2271 15.7755 90.8751 15.5744 91.6023 15.5744C91.7674 15.5744 91.9522 15.5826 92.1558 15.5992C92.3653 15.6102 92.5383 15.6294 92.6765 15.657V18.4091C92.55 18.365 92.3485 18.3265 92.0729 18.2934C91.8031 18.2548 91.5413 18.2356 91.2882 18.2356C90.7427 18.2356 90.2525 18.354 89.8169 18.5909C89.3871 18.8223 89.0482 19.1446 88.8002 19.5578C88.5522 19.971 88.4285 20.4476 88.4285 20.9876V28.4504H85.4365Z" fill="white"/>
<path d="M76.4186 28.6735C75.4217 28.6735 74.5291 28.4174 73.7412 27.9049C72.9533 27.3926 72.3308 26.6487 71.8735 25.6735C71.4162 24.6983 71.1875 23.5137 71.1875 22.1199C71.1875 20.7094 71.4189 19.5193 71.8817 18.5496C72.35 17.5744 72.9809 16.8388 73.7743 16.343C74.5676 15.8416 75.4519 15.5909 76.4273 15.5909C77.1713 15.5909 77.7822 15.7176 78.2622 15.9711C78.7415 16.219 79.1211 16.5193 79.4026 16.8719C79.6833 17.219 79.9007 17.5468 80.0549 17.8553H80.1793V11.5248H83.1793V28.4504H80.2367V26.4504H80.0549C79.9007 26.759 79.6782 27.0868 79.3858 27.4339C79.0942 27.7755 78.708 28.0675 78.2287 28.3099C77.7495 28.5524 77.1458 28.6735 76.4186 28.6735ZM77.2535 26.219C77.8869 26.219 78.4273 26.0482 78.8731 25.7066C79.3196 25.3595 79.6586 24.8774 79.8898 24.2604C80.1211 23.6433 80.2367 22.9242 80.2367 22.1033C80.2367 21.2824 80.1211 20.5689 79.8898 19.9628C79.6644 19.3567 79.3276 18.8857 78.8818 18.5496C78.4411 18.2135 77.8986 18.0455 77.2535 18.0455C76.5873 18.0455 76.0305 18.219 75.5842 18.5661C75.1379 18.9132 74.8018 19.3926 74.5759 20.0041C74.35 20.6157 74.2371 21.3154 74.2371 22.1033C74.2371 22.8967 74.35 23.6047 74.5759 24.2273C74.8074 24.8444 75.1462 25.3319 75.5924 25.6901C76.0442 26.0427 76.5982 26.219 77.2535 26.219Z" fill="white"/>
<path d="M64.4641 28.6983C63.1914 28.6983 62.0922 28.4339 61.1666 27.9049C60.2465 27.3705 59.5385 26.6157 59.0426 25.6405C58.5468 24.6598 58.2988 23.5055 58.2988 22.1777C58.2988 20.8719 58.5468 19.7259 59.0426 18.7396C59.544 17.7479 60.2437 16.9766 61.1418 16.4256C62.0398 15.8692 63.095 15.5909 64.3071 15.5909C65.0894 15.5909 65.8278 15.7176 66.522 15.9711C67.2217 16.219 67.8388 16.6047 68.3732 17.1281C68.9132 17.6515 69.3374 18.3182 69.646 19.1281C69.9545 19.9325 70.1087 20.8912 70.1087 22.0041V22.9215H59.7038V20.9049H67.241C67.2355 20.3319 67.1115 19.8223 66.8691 19.376C66.6267 18.9242 66.2878 18.5689 65.8526 18.3099C65.4228 18.051 64.9214 17.9215 64.3484 17.9215C63.7369 17.9215 63.1996 18.0703 62.7369 18.3678C62.274 18.6598 61.9132 19.0455 61.6542 19.5248C61.4008 19.9986 61.2713 20.5193 61.2657 21.0868V22.8471C61.2657 23.5854 61.4008 24.219 61.6708 24.7479C61.9407 25.2713 62.3181 25.6735 62.803 25.9545C63.2878 26.23 63.8553 26.3678 64.5054 26.3678C64.9407 26.3678 65.3346 26.3071 65.6873 26.186C66.0399 26.0592 66.3457 25.8747 66.6046 25.6322C66.8636 25.3898 67.0592 25.0895 67.1914 24.7314L69.9848 25.0455C69.8085 25.7838 69.4724 26.4284 68.9765 26.9793C68.4862 27.5248 67.858 27.949 67.0922 28.2521C66.3264 28.5496 65.4503 28.6983 64.4641 28.6983Z" fill="white"/>
<path d="M57.099 17.2356H54.0081C53.92 16.7287 53.7574 16.2796 53.5205 15.8884C53.2836 15.4917 52.9888 15.1556 52.6362 14.8802C52.2836 14.6047 51.8813 14.3981 51.4296 14.2604C50.9833 14.1171 50.5012 14.0455 49.9833 14.0455C49.0632 14.0455 48.2478 14.2769 47.537 14.7396C46.8263 15.197 46.2698 15.8692 45.8676 16.7562C45.4654 17.6378 45.2643 18.7149 45.2643 19.9876C45.2643 21.2824 45.4654 22.3733 45.8676 23.2604C46.2753 24.1419 46.8318 24.8085 47.537 25.2604C48.2478 25.7066 49.0604 25.9298 49.975 25.9298C50.4819 25.9298 50.9558 25.8636 51.3966 25.7314C51.8428 25.5937 52.2422 25.3926 52.5949 25.1281C52.953 24.8636 53.2533 24.5386 53.4957 24.1529C53.7436 23.7672 53.9144 23.3265 54.0081 22.8306L57.099 22.8471C56.9833 23.6515 56.7326 24.4063 56.347 25.1116C55.9667 25.8168 55.4681 26.4394 54.8511 26.9794C54.234 27.5138 53.5122 27.9325 52.6858 28.2356C51.8593 28.5331 50.942 28.6818 49.9337 28.6818C48.4461 28.6818 47.1183 28.3375 45.9502 27.6487C44.7822 26.9601 43.8621 25.9656 43.1899 24.6653C42.5177 23.365 42.1816 21.8058 42.1816 19.9876C42.1816 18.1639 42.5205 16.6047 43.1982 15.3099C43.8758 14.0097 44.7987 13.0151 45.9667 12.3265C47.1348 11.6378 48.4571 11.2934 49.9337 11.2934C50.8758 11.2934 51.7519 11.4256 52.5618 11.6901C53.3717 11.9546 54.0935 12.343 54.7271 12.8554C55.3607 13.3623 55.8813 13.9849 56.2891 14.7231C56.7023 15.4559 56.9723 16.2934 57.099 17.2356Z" fill="white"/>
</svg>
