<svg width="108" height="55" viewBox="0 0 108 55" fill="none" xmlns="http://www.w3.org/2000/svg">
<path d="M28.1023 22.0429H25.4306C25.2316 21.0481 24.8716 20.1291 24.3505 19.2859C23.8389 18.4332 23.1947 17.6895 22.4178 17.0547C21.6409 16.4199 20.7598 15.9273 19.7745 15.5767C18.7892 15.2262 17.7234 15.0509 16.577 15.0509C14.739 15.0509 13.0621 15.5294 11.5462 16.4863C10.0398 17.4432 8.83183 18.8501 7.92231 20.707C7.02226 22.5545 6.57224 24.8188 6.57224 27.5C6.57224 30.2001 7.02226 32.4739 7.92231 34.3214C8.83183 36.1689 10.0398 37.5711 11.5462 38.528C13.0621 39.4754 14.739 39.9491 16.577 39.9491C17.7234 39.9491 18.7892 39.7738 19.7745 39.4233C20.7598 39.0727 21.6409 38.5848 22.4178 37.9595C23.1947 37.3247 23.8389 36.581 24.3505 35.7283C24.8716 34.8757 25.2316 33.9519 25.4306 32.9571H28.1023C27.8655 34.293 27.4202 35.5388 26.7665 36.6947C26.1222 37.8411 25.298 38.8453 24.2937 39.7075C23.2989 40.5696 22.1525 41.2423 20.8546 41.7255C19.5566 42.2087 18.1307 42.4503 16.577 42.4503C14.1326 42.4503 11.9631 41.8392 10.0682 40.617C8.17338 39.3854 6.68593 37.6516 5.60587 35.4157C4.53529 33.1798 4 30.5412 4 27.5C4 24.4588 4.53529 21.8202 5.60587 19.5843C6.68593 17.3484 8.17338 15.6194 10.0682 14.3972C11.9631 13.1656 14.1326 12.5497 16.577 12.5497C18.1307 12.5497 19.5566 12.7913 20.8546 13.2745C22.1525 13.7482 23.2989 14.4209 24.2937 15.2925C25.298 16.1547 26.1222 17.1589 26.7665 18.3053C27.4202 19.4517 27.8655 20.6975 28.1023 22.0429Z" fill="#010F3F"/>
<path d="M41.0504 42.4503C39.0134 42.4503 37.2512 41.9766 35.7638 41.0291C34.2763 40.0722 33.1252 38.7506 32.3105 37.0642C31.5051 35.3683 31.1025 33.4166 31.1025 31.2091C31.1025 29.0111 31.5051 27.0594 32.3105 25.3541C33.1252 23.6393 34.2479 22.2987 35.6785 21.3323C37.1186 20.3565 38.7813 19.8685 40.6667 19.8685C41.851 19.8685 42.9926 20.0865 44.0916 20.5223C45.1906 20.9486 46.1759 21.6071 47.0475 22.4976C47.9286 23.3787 48.625 24.4919 49.1366 25.8373C49.6482 27.1731 49.904 28.7553 49.904 30.5838V31.8344H32.8505V29.6033H47.3176C47.3176 28.2011 47.0333 26.941 46.4649 25.8231C45.9059 24.6956 45.1243 23.8051 44.12 23.1513C43.1252 22.4976 41.9741 22.1708 40.6667 22.1708C39.2834 22.1708 38.066 22.5403 37.0144 23.2793C35.9627 24.0182 35.1385 24.9941 34.5416 26.2068C33.9542 27.4195 33.6558 28.7459 33.6463 30.1859V31.5218C33.6463 33.2556 33.9447 34.7714 34.5416 36.0694C35.148 37.3579 36.0054 38.3574 37.1139 39.068C38.2223 39.7785 39.5345 40.1338 41.0504 40.1338C42.0831 40.1338 42.9879 39.9728 43.7647 39.6506C44.5511 39.3285 45.2095 38.8974 45.7401 38.3574C46.2801 37.8079 46.6875 37.2063 46.9623 36.5526L49.364 37.3342C49.0324 38.2532 48.4876 39.1011 47.7297 39.878C46.9812 40.6549 46.0433 41.2802 44.9159 41.7539C43.7979 42.2181 42.5094 42.4503 41.0504 42.4503Z" fill="#010F3F"/>
<path d="M61.8848 42.4503C60.0942 42.4503 58.5262 41.9765 57.1809 41.0291C55.8356 40.0817 54.7839 38.7601 54.026 37.0642C53.2775 35.3683 52.9033 33.3929 52.9033 31.1381C52.9033 28.8927 53.2775 26.9268 54.026 25.2404C54.7839 23.5445 55.8403 22.2276 57.1951 21.2897C58.5499 20.3423 60.1274 19.8685 61.9275 19.8685C63.2539 19.8685 64.3576 20.1054 65.2387 20.5791C66.1198 21.0433 66.8256 21.6213 67.3562 22.3129C67.8867 23.0045 68.2989 23.6772 68.5926 24.3309H68.8199V12.8908H71.3638V41.9955H68.891V37.9453H68.5926C68.2989 38.6085 67.882 39.2906 67.342 39.9917C66.8019 40.6833 66.0866 41.266 65.1961 41.7397C64.315 42.2134 63.2112 42.4503 61.8848 42.4503ZM62.1833 40.1338C63.5949 40.1338 64.7981 39.7501 65.7929 38.9827C66.7877 38.2058 67.5457 37.14 68.0667 35.7852C68.5973 34.4209 68.8626 32.8576 68.8626 31.0955C68.8626 29.3522 68.602 27.8126 68.0809 26.4768C67.5599 25.1315 66.8019 24.0798 65.8071 23.3219C64.8124 22.5545 63.6044 22.1708 62.1833 22.1708C60.7242 22.1708 59.4926 22.5687 58.4883 23.3645C57.4935 24.1509 56.7356 25.2167 56.2145 26.5621C55.7029 27.9074 55.4471 29.4185 55.4471 31.0955C55.4471 32.7913 55.7077 34.3214 56.2287 35.6857C56.7498 37.05 57.5078 38.1348 58.5026 38.9401C59.5068 39.7359 60.7337 40.1338 62.1833 40.1338Z" fill="#010F3F"/>
<path d="M74.3643 42.4503V20.6218H76.8228V23.9756H77.0076C77.4434 22.8766 78.2013 21.9908 79.2814 21.3181C80.3709 20.636 81.6025 20.2949 82.9763 20.2949C83.1847 20.2949 83.4168 20.2996 83.6726 20.3091C83.9284 20.3186 84.1416 20.3281 84.3122 20.3375V22.9098C84.1985 22.8908 83.9995 22.8624 83.7153 22.8245C83.4311 22.7866 83.1231 22.7677 82.7915 22.7677C81.6546 22.7677 80.6409 23.0092 79.7503 23.4924C78.8692 23.9661 78.1729 24.6246 77.6613 25.4678C77.1497 26.311 76.8939 27.2726 76.8939 28.3527V42.4503H74.3643Z" fill="#010F3F"/>
<path d="M94.4891 42.4503C93.1722 42.4503 91.969 42.1945 90.8795 41.6829C89.79 41.1618 88.9231 40.4133 88.2788 39.4375C87.6346 38.4522 87.3125 37.2584 87.3125 35.8562C87.3125 34.7762 87.5161 33.8666 87.9235 33.1277C88.3309 32.3887 88.9089 31.7823 89.6573 31.3086C90.4058 30.8349 91.2916 30.4607 92.3148 30.1859C93.338 29.9112 94.4655 29.698 95.6971 29.5464C96.9193 29.3948 97.952 29.2622 98.7952 29.1485C99.6478 29.0348 100.297 28.8548 100.742 28.6085C101.187 28.3622 101.41 27.9642 101.41 27.4147V26.9031C101.41 25.4157 100.965 24.2456 100.074 23.3929C99.1931 22.5308 97.9235 22.0997 96.2656 22.0997C94.6928 22.0997 93.4091 22.4455 92.4143 23.1371C91.429 23.8288 90.7374 24.6435 90.3395 25.5815L87.9378 24.7146C88.4304 23.5208 89.1126 22.5687 89.9842 21.8581C90.8558 21.1381 91.8316 20.6217 92.9117 20.3091C93.9918 19.987 95.086 19.8259 96.1945 19.8259C97.0282 19.8259 97.8951 19.9349 98.7952 20.1528C99.7047 20.3707 100.548 20.7496 101.325 21.2897C102.101 21.8202 102.731 22.564 103.215 23.5208C103.698 24.4683 103.939 25.6715 103.939 27.1305V41.9529H101.41V38.4995H101.254C100.95 39.1438 100.5 39.7691 99.9036 40.3754C99.3068 40.9818 98.5583 41.4792 97.6583 41.8676C96.7582 42.256 95.7018 42.4503 94.4891 42.4503ZM94.8302 40.1338C96.1756 40.1338 97.3409 39.8354 98.3262 39.2385C99.3115 38.6416 100.069 37.8505 100.6 36.8652C101.14 35.8704 101.41 34.7762 101.41 33.5824V30.4275C101.22 30.6075 100.903 30.7686 100.458 30.9107C100.022 31.0528 99.5152 31.1807 98.9373 31.2944C98.3688 31.3986 97.8004 31.4886 97.2319 31.5644C96.6635 31.6402 96.1519 31.7065 95.6971 31.7634C94.4655 31.915 93.4138 32.1518 92.5422 32.4739C91.6706 32.7961 91.0027 33.2414 90.5384 33.8098C90.0742 34.3688 89.8421 35.0888 89.8421 35.9699C89.8421 37.2963 90.3158 38.3243 91.2632 39.0538C92.2106 39.7738 93.3996 40.1338 94.8302 40.1338Z" fill="#010F3F"/>
</svg>
