<svg width="24" height="24" viewBox="0 0 24 24" fill="none" xmlns="http://www.w3.org/2000/svg">
<path id="Vector" d="M14.3437 24H9.65632V17.6582L5.17246 22.1421L1.85794 18.8276L6.34176 14.3437H0V9.6563H6.34176L1.85794 5.17244L5.17246 1.85792L9.65632 6.34176V0H14.3437V6.34176L18.8275 1.85792L22.1421 5.17244L17.6582 9.6563H24V14.3437H17.6582L22.1421 18.8276L18.8275 22.1421L14.3437 17.6582V24ZM9.84974 23.8051H14.1488V17.189L18.8275 21.8678L21.8678 18.8276L17.1891 14.1488H23.8051V9.84974H17.1891L21.8678 5.171L18.8275 2.13077L14.1488 6.80951V0.193439H9.84974V6.80951L5.17102 2.13077L2.13077 5.171L6.80949 9.84974H0.193456V14.1488H6.80949L2.13077 18.8276L5.17102 21.8678L9.84974 17.189V23.8051Z" fill="white"/>
</svg>
