<svg width="24" height="24" viewBox="0 0 24 24" fill="none" xmlns="http://www.w3.org/2000/svg">
<g clip-path="url(#clip0_245_24551)">
<path d="M4.06282 11.3993C4.10131 11.3803 4.13981 11.3623 4.17733 11.3453C4.82964 11.0478 5.4906 10.7693 6.1506 10.4908C6.1862 10.4908 6.24583 10.4501 6.27951 10.4368C6.3305 10.415 6.3815 10.3942 6.43249 10.3724C6.53062 10.3307 6.62876 10.29 6.72593 10.2483C6.9222 10.1659 7.11749 10.0835 7.31376 10.001C7.70534 9.83622 8.09691 9.67139 8.48848 9.50561C9.27163 9.17595 10.0558 8.84533 10.8389 8.51567C11.6221 8.18601 12.4062 7.8554 13.1893 7.52574C13.9725 7.19608 14.7566 6.86548 15.5397 6.53582C16.3229 6.20616 17.107 5.87556 17.8901 5.5459C18.0643 5.47201 18.2529 5.36212 18.4395 5.32991C18.5963 5.30244 18.7493 5.2494 18.9071 5.22003C19.2063 5.16414 19.5363 5.14141 19.823 5.26361C19.9221 5.30624 20.0135 5.3659 20.0895 5.44074C20.4532 5.79503 20.4022 6.37668 20.3252 6.87496C19.7893 10.3478 19.2534 13.8215 18.7166 17.2943C18.6435 17.7708 18.5434 18.2937 18.1614 18.5949C17.8382 18.8498 17.3783 18.8782 16.979 18.7702C16.5797 18.6612 16.2276 18.4329 15.8822 18.2084C14.4497 17.2744 13.0161 16.3404 11.5836 15.4063C11.243 15.1846 10.8639 14.8948 10.8678 14.4922C10.8697 14.2497 11.0169 14.0337 11.167 13.8414C12.4119 12.2423 14.2082 11.1435 15.5445 9.61834C15.7331 9.4033 15.8813 9.01491 15.6225 8.89082C15.4685 8.81693 15.2915 8.91732 15.151 9.013C13.3846 10.2208 11.6192 11.4296 9.85276 12.6374C9.27646 13.0314 8.67226 13.4369 7.97763 13.5335C7.35611 13.6207 6.73075 13.4501 6.12944 13.2758C5.6253 13.13 5.1221 12.9803 4.62085 12.8259C4.35434 12.7444 4.07918 12.6563 3.87329 12.4716C3.6674 12.2869 3.54908 11.9762 3.67319 11.7299C3.75112 11.5755 3.90217 11.4779 4.06092 11.3983L4.06282 11.3993Z" fill="#010F3F"/>
</g>
<defs>
<clipPath id="clip0_245_24551">
<rect width="24" height="24" fill="white"/>
</clipPath>
</defs>
</svg>
